  0
SECTION
  2
HEADER
  9
$ACADVER
  1
AC1014
  9
$HANDSEED
  5
FFFF
  9
$MEASUREMENT
 70
     1
  0
ENDSEC
  0
SECTION
  2
TABLES
  0
TABLE
  2
VPORT
  5
8
330
0
100
AcDbSymbolTable
 70
     4
  0
VPORT
  5
2E
330
8
100
AcDbSymbolTableRecord
100
AcDbViewportTableRecord
  2
*ACTIVE
 70
     0
 10
0.0
 20
0.0
 11
1.0
 21
1.0
 12
210.0
 22
148.5
 13
0.0
 23
0.0
 14
10.0
 24
10.0
 15
10.0
 25
10.0
 16
0.0
 26
0.0
 36
1.0
 17
0.0
 27
0.0
 37
0.0
 40
341.0
 41
1.24
 42
50.0
 43
0.0
 44
0.0
 50
0.0
 51
0.0
 71
     0
 72
   100
 73
     1
 74
     3
 75
     0
 76
     0
 77
     0
 78
     0
  0
ENDTAB
  0
TABLE
  2
LTYPE
  5
5
330
0
100
AcDbSymbolTable
 70
     1
  0
LTYPE
  5
14
330
5
100
AcDbSymbolTableRecord
100
AcDbLinetypeTableRecord
  2
BYBLOCK
 70
     0
  3

 72
    65
 73
     0
 40
0.0
  0
LTYPE
  5
15
330
5
100
AcDbSymbolTableRecord
100
AcDbLinetypeTableRecord
  2
BYLAYER
 70
     0
  3

 72
    65
 73
     0
 40
0.0
  0
LTYPE
  5
16
330
5
100
AcDbSymbolTableRecord
100
AcDbLinetypeTableRecord
  2
CONTINUOUS
 70
     0
  3
Solid line
 72
    65
 73
     0
 40
0.0
  0
ENDTAB
  0
TABLE
  2
LAYER
  5
2
100
AcDbSymbolTable
 70
3
  0
LAYER
  5
50
100
AcDbSymbolTableRecord
100
AcDbLayerTableRecord
  2
0
 70
0
  6
CONTINUOUS
  0
LAYER
  5
51
100
AcDbSymbolTableRecord
100
AcDbLayerTableRecord
  2
Layer_1
 70
0
  6
CONTINUOUS
  0
LAYER
  5
52
100
AcDbSymbolTableRecord
100
AcDbLayerTableRecord
  2
newlayer
 70
0
  6
CONTINUOUS
  0
ENDTAB
  0
TABLE
  2
STYLE
  5
3
330
0
100
AcDbSymbolTable
 70
     1
  0
STYLE
  5
11
330
3
100
AcDbSymbolTableRecord
100
AcDbTextStyleTableRecord
  2
STANDARD
 70
     0
 40
0.0
 41
1.0
 50
0.0
 71
     0
 42
2.5
  3
txt
  4

  0
ENDTAB
  0
TABLE
  2
VIEW
  5
6
330
0
100
AcDbSymbolTable
 70
     0
  0
ENDTAB
  0
TABLE
  2
UCS
  5
7
330
0
100
AcDbSymbolTable
 70
     0
  0
ENDTAB
  0
TABLE
  2
APPID
  5
9
330
0
100
AcDbSymbolTable
 70
     2
  0
APPID
  5
12
330
9
100
AcDbSymbolTableRecord
100
AcDbRegAppTableRecord
  2
ACAD
 70
     0
  0
ENDTAB
  0
TABLE
  2
DIMSTYLE
  5
A
330
0
100
AcDbSymbolTable
 70
     1
  0
DIMSTYLE
105
27
330
A
100
AcDbSymbolTableRecord
100
AcDbDimStyleTableRecord
  2
ISO-25
 70
     0
  3

  4

  5

  6

  7

 40
1.0
 41
2.5
 42
0.625
 43
3.75
 44
1.25
 45
0.0
 46
0.0
 47
0.0
 48
0.0
140
2.5
141
2.5
142
0.0
143
0.03937007874016
144
1.0
145
0.0
146
1.0
147
0.625
 71
     0
 72
     0
 73
     0
 74
     0
 75
     0
 76
     0
 77
     1
 78
     8
170
     0
171
     3
172
     1
173
     0
174
     0
175
     0
176
     0
177
     0
178
     0
270
     2
271
     2
272
     2
273
     2
274
     3
340
11
275
     0
280
     0
281
     0
282
     0
283
     0
284
     8
285
     0
286
     0
287
     3
288
     0
  0
ENDTAB
  0
TABLE
  2
BLOCK_RECORD
  5
1
330
0
100
AcDbSymbolTable
 70
     1
  0
BLOCK_RECORD
  5
1F
330
1
100
AcDbSymbolTableRecord
100
AcDbBlockTableRecord
  2
*MODEL_SPACE
  0
BLOCK_RECORD
  5
1B
330
1
100
AcDbSymbolTableRecord
100
AcDbBlockTableRecord
  2
*PAPER_SPACE
  0
ENDTAB
  0
ENDSEC
  0
SECTION
  2
BLOCKS
  0
BLOCK
  5
20
330
1F
100
AcDbEntity
  8
0
100
AcDbBlockBegin
  2
*MODEL_SPACE
 70
     0
 10
0.0
 20
0.0
 30
0.0
  3
*MODEL_SPACE
  1

  0
ENDBLK
  5
21
330
1F
100
AcDbEntity
  8
0
100
AcDbBlockEnd
  0
BLOCK
  5
1C
330
1B
100
AcDbEntity
 67
     1
  8
0
100
AcDbBlockBegin
  2
*PAPER_SPACE
  1

  0
ENDBLK
  5
1D
330
1B
100
AcDbEntity
 67
     1
  8
0
100
AcDbBlockEnd
  0
ENDSEC
  0
SECTION
  2
ENTITIES
  0
LWPOLYLINE
  5
100
100
AcDbEntity
  8
Layer_1
 62
1
100
AcDbPolyline
 90
52
 70
1
 10
19.346456
 20
660.850387
 30
0.0
 10
47.362204
 20
660.850387
 30
0.0
 10
47.362204
 20
667.370072
 30
0.0
 10
71.456692
 20
667.370072
 30
0.0
 10
71.456692
 20
660.850387
 30
0.0
 10
99.330707
 20
660.850387
 30
0.0
 10
99.330707
 20
667.370072
 30
0.0
 10
123.425195
 20
667.370072
 30
0.0
 10
123.425195
 20
660.850387
 30
0.0
 10
151.299210
 20
660.850387
 30
0.0
 10
151.299210
 20
667.370072
 30
0.0
 10
175.393698
 20
667.370072
 30
0.0
 10
175.393698
 20
660.850387
 30
0.0
 10
203.267713
 20
660.850387
 30
0.0
 10
203.267713
 20
667.370072
 30
0.0
 10
227.362201
 20
667.370072
 30
0.0
 10
227.362201
 20
660.850387
 30
0.0
 10
255.236216
 20
660.850387
 30
0.0
 10
255.236216
 20
667.370072
 30
0.0
 10
279.330704
 20
667.370072
 30
0.0
 10
279.330704
 20
660.850387
 30
0.0
 10
307.346457
 20
660.850387
 30
0.0
 10
307.346457
 20
643.133852
 30
0.0
 10
300.826772
 20
643.133852
 30
0.0
 10
300.826772
 20
619.606295
 30
0.0
 10
307.346457
 20
619.606295
 30
0.0
 10
307.346457
 20
601.889760
 30
0.0
 10
279.330704
 20
601.889760
 30
0.0
 10
279.330704
 20
595.370075
 30
0.0
 10
255.236216
 20
595.370075
 30
0.0
 10
255.236216
 20
601.889760
 30
0.0
 10
227.362201
 20
601.889760
 30
0.0
 10
227.362201
 20
595.370075
 30
0.0
 10
203.267713
 20
595.370075
 30
0.0
 10
203.267713
 20
601.889760
 30
0.0
 10
175.393698
 20
601.889760
 30
0.0
 10
175.393698
 20
595.370075
 30
0.0
 10
151.299210
 20
595.370075
 30
0.0
 10
151.299210
 20
601.889760
 30
0.0
 10
123.425195
 20
601.889760
 30
0.0
 10
123.425195
 20
595.370075
 30
0.0
 10
99.330707
 20
595.370075
 30
0.0
 10
99.330707
 20
601.889760
 30
0.0
 10
71.456692
 20
601.889760
 30
0.0
 10
71.456692
 20
595.370075
 30
0.0
 10
47.362204
 20
595.370075
 30
0.0
 10
47.362204
 20
601.889760
 30
0.0
 10
19.346456
 20
601.889760
 30
0.0
 10
19.346456
 20
619.606295
 30
0.0
 10
25.866141
 20
619.606295
 30
0.0
 10
25.866141
 20
643.133852
 30
0.0
 10
19.346456
 20
643.133852
 30
0.0
  0
LWPOLYLINE
  5
101
100
AcDbEntity
  8
Layer_1
 62
1
100
AcDbPolyline
 90
20
 70
1
 10
342.550035
 20
621.023695
 30
0.0
 10
359.983106
 20
621.023695
 30
0.0
 10
359.983106
 20
627.543380
 30
0.0
 10
384.077594
 20
627.543380
 30
0.0
 10
384.077594
 20
621.023695
 30
0.0
 10
401.510665
 20
621.023695
 30
0.0
 10
401.510665
 20
603.590624
 30
0.0
 10
408.030350
 20
603.590624
 30
0.0
 10
408.030350
 20
579.496136
 30
0.0
 10
401.510665
 20
579.496136
 30
0.0
 10
401.510665
 20
562.063065
 30
0.0
 10
384.077594
 20
562.063065
 30
0.0
 10
384.077594
 20
555.543383
 30
0.0
 10
359.983106
 20
555.543383
 30
0.0
 10
359.983106
 20
562.063065
 30
0.0
 10
342.550035
 20
562.063065
 30
0.0
 10
342.550035
 20
579.496136
 30
0.0
 10
336.030350
 20
579.496136
 30
0.0
 10
336.030350
 20
603.590624
 30
0.0
 10
342.550035
 20
603.590624
 30
0.0
  0
LWPOLYLINE
  5
102
100
AcDbEntity
  8
Layer_1
 62
1
100
AcDbPolyline
 90
52
 70
1
 10
19.346457
 20
749.043300
 30
0.0
 10
47.645668
 20
749.043300
 30
0.0
 10
47.645668
 20
742.523615
 30
0.0
 10
71.173227
 20
742.523615
 30
0.0
 10
71.173227
 20
749.043300
 30
0.0
 10
99.614171
 20
749.043300
 30
0.0
 10
99.614171
 20
742.523615
 30
0.0
 10
123.141730
 20
742.523615
 30
0.0
 10
123.141730
 20
749.043300
 30
0.0
 10
151.582674
 20
749.043300
 30
0.0
 10
151.582674
 20
742.523615
 30
0.0
 10
175.110233
 20
742.523615
 30
0.0
 10
175.110233
 20
749.043300
 30
0.0
 10
203.551172
 20
749.043300
 30
0.0
 10
203.551172
 20
742.523615
 30
0.0
 10
227.078731
 20
742.523615
 30
0.0
 10
227.078731
 20
749.043300
 30
0.0
 10
255.519694
 20
749.043300
 30
0.0
 10
255.519694
 20
742.523615
 30
0.0
 10
279.047225
 20
742.523615
 30
0.0
 10
279.047225
 20
749.043300
 30
0.0
 10
307.346457
 20
749.043300
 30
0.0
 10
307.346457
 20
724.807080
 30
0.0
 10
300.826772
 20
724.807080
 30
0.0
 10
300.826772
 20
701.279521
 30
0.0
 10
307.346457
 20
701.279521
 30
0.0
 10
307.346457
 20
677.043300
 30
0.0
 10
279.047225
 20
677.043300
 30
0.0
 10
279.047225
 20
683.562986
 30
0.0
 10
255.519694
 20
683.562986
 30
0.0
 10
255.519694
 20
677.043300
 30
0.0
 10
227.078731
 20
677.043300
 30
0.0
 10
227.078731
 20
683.562986
 30
0.0
 10
203.551172
 20
683.562986
 30
0.0
 10
203.551172
 20
677.043300
 30
0.0
 10
175.110233
 20
677.043300
 30
0.0
 10
175.110233
 20
683.562986
 30
0.0
 10
151.582674
 20
683.562986
 30
0.0
 10
151.582674
 20
677.043300
 30
0.0
 10
123.141730
 20
677.043300
 30
0.0
 10
123.141730
 20
683.562986
 30
0.0
 10
99.614171
 20
683.562986
 30
0.0
 10
99.614171
 20
677.043300
 30
0.0
 10
71.173227
 20
677.043300
 30
0.0
 10
71.173227
 20
683.562986
 30
0.0
 10
47.645668
 20
683.562986
 30
0.0
 10
47.645668
 20
677.043300
 30
0.0
 10
19.346457
 20
677.043300
 30
0.0
 10
19.346457
 20
701.279521
 30
0.0
 10
25.866142
 20
701.279521
 30
0.0
 10
25.866142
 20
724.807080
 30
0.0
 10
19.346457
 20
724.807080
 30
0.0
  0
LWPOLYLINE
  5
103
100
AcDbEntity
  8
Layer_1
 62
1
100
AcDbPolyline
 90
20
 70
1
 10
341.971427
 20
791.947681
 30
0.0
 10
359.404498
 20
791.947681
 30
0.0
 10
359.404498
 20
798.467366
 30
0.0
 10
383.498986
 20
798.467366
 30
0.0
 10
383.498986
 20
791.947681
 30
0.0
 10
400.932057
 20
791.947681
 30
0.0
 10
400.932057
 20
774.514610
 30
0.0
 10
407.451742
 20
774.514610
 30
0.0
 10
407.451742
 20
750.420122
 30
0.0
 10
400.932057
 20
750.420122
 30
0.0
 10
400.932057
 20
732.987051
 30
0.0
 10
383.498986
 20
732.987051
 30
0.0
 10
383.498986
 20
726.467366
 30
0.0
 10
359.404498
 20
726.467366
 30
0.0
 10
359.404498
 20
732.987051
 30
0.0
 10
341.971427
 20
732.987051
 30
0.0
 10
341.971427
 20
750.420122
 30
0.0
 10
335.451742
 20
750.420122
 30
0.0
 10
335.451742
 20
774.514610
 30
0.0
 10
341.971427
 20
774.514610
 30
0.0
  0
LWPOLYLINE
  5
104
100
AcDbEntity
  8
Layer_1
 62
1
100
AcDbPolyline
 90
52
 70
1
 10
19.105279
 20
584.717374
 30
0.0
 10
47.404491
 20
584.717374
 30
0.0
 10
47.404491
 20
578.197689
 30
0.0
 10
70.932050
 20
578.197689
 30
0.0
 10
70.932050
 20
584.717374
 30
0.0
 10
99.372994
 20
584.717374
 30
0.0
 10
99.372994
 20
578.197689
 30
0.0
 10
122.900553
 20
578.197689
 30
0.0
 10
122.900553
 20
584.717374
 30
0.0
 10
151.341497
 20
584.717374
 30
0.0
 10
151.341497
 20
578.197689
 30
0.0
 10
174.869056
 20
578.197689
 30
0.0
 10
174.869056
 20
584.717374
 30
0.0
 10
203.310000
 20
584.717374
 30
0.0
 10
203.310000
 20
578.197689
 30
0.0
 10
226.837559
 20
578.197689
 30
0.0
 10
226.837559
 20
584.717374
 30
0.0
 10
255.278523
 20
584.717374
 30
0.0
 10
255.278523
 20
578.197689
 30
0.0
 10
278.806054
 20
578.197689
 30
0.0
 10
278.806054
 20
584.717374
 30
0.0
 10
307.105285
 20
584.717374
 30
0.0
 10
307.105285
 20
560.481146
 30
0.0
 10
300.585600
 20
560.481146
 30
0.0
 10
300.585600
 20
536.953493
 30
0.0
 10
307.105285
 20
536.953493
 30
0.0
 10
307.105285
 20
512.717272
 30
0.0
 10
278.806054
 20
512.717272
 30
0.0
 10
278.806054
 20
519.236957
 30
0.0
 10
255.278523
 20
519.236957
 30
0.0
 10
255.278523
 20
512.717272
 30
0.0
 10
226.837559
 20
512.717272
 30
0.0
 10
226.837559
 20
519.236957
 30
0.0
 10
203.310000
 20
519.236957
 30
0.0
 10
203.310000
 20
512.717272
 30
0.0
 10
174.869056
 20
512.717272
 30
0.0
 10
174.869056
 20
519.236957
 30
0.0
 10
151.341497
 20
519.236957
 30
0.0
 10
151.341497
 20
512.717272
 30
0.0
 10
122.900553
 20
512.717272
 30
0.0
 10
122.900553
 20
519.236957
 30
0.0
 10
99.372994
 20
519.236957
 30
0.0
 10
99.372994
 20
512.717272
 30
0.0
 10
70.932050
 20
512.717272
 30
0.0
 10
70.932050
 20
519.236957
 30
0.0
 10
47.404491
 20
519.236957
 30
0.0
 10
47.404491
 20
512.717272
 30
0.0
 10
19.105279
 20
512.717272
 30
0.0
 10
19.105279
 20
536.953493
 30
0.0
 10
25.624964
 20
536.953493
 30
0.0
 10
25.624964
 20
560.481146
 30
0.0
 10
19.105279
 20
560.481146
 30
0.0
  0
LWPOLYLINE
  5
105
100
AcDbEntity
  8
Layer_1
 62
1
100
AcDbPolyline
 90
52
 70
1
 10
19.346457
 20
824.196843
 30
0.0
 10
47.362204
 20
824.196843
 30
0.0
 10
47.362204
 20
830.716531
 30
0.0
 10
71.456692
 20
830.716531
 30
0.0
 10
71.456692
 20
824.196843
 30
0.0
 10
99.330707
 20
824.196843
 30
0.0
 10
99.330707
 20
830.716531
 30
0.0
 10
123.425195
 20
830.716531
 30
0.0
 10
123.425195
 20
824.196843
 30
0.0
 10
151.299210
 20
824.196843
 30
0.0
 10
151.299210
 20
830.716531
 30
0.0
 10
175.393698
 20
830.716531
 30
0.0
 10
175.393698
 20
824.196843
 30
0.0
 10
203.267707
 20
824.196843
 30
0.0
 10
203.267707
 20
830.716531
 30
0.0
 10
227.362195
 20
830.716531
 30
0.0
 10
227.362195
 20
824.196843
 30
0.0
 10
255.236230
 20
824.196843
 30
0.0
 10
255.236230
 20
830.716531
 30
0.0
 10
279.330690
 20
830.716531
 30
0.0
 10
279.330690
 20
824.196843
 30
0.0
 10
307.346457
 20
824.196843
 30
0.0
 10
307.346457
 20
806.480303
 30
0.0
 10
300.826772
 20
806.480303
 30
0.0
 10
300.826772
 20
782.952746
 30
0.0
 10
307.346457
 20
782.952746
 30
0.0
 10
307.346457
 20
765.236211
 30
0.0
 10
279.330690
 20
765.236211
 30
0.0
 10
279.330690
 20
758.716526
 30
0.0
 10
255.236230
 20
758.716526
 30
0.0
 10
255.236230
 20
765.236211
 30
0.0
 10
227.362195
 20
765.236211
 30
0.0
 10
227.362195
 20
758.716526
 30
0.0
 10
203.267707
 20
758.716526
 30
0.0
 10
203.267707
 20
765.236211
 30
0.0
 10
175.393698
 20
765.236211
 30
0.0
 10
175.393698
 20
758.716526
 30
0.0
 10
151.299210
 20
758.716526
 30
0.0
 10
151.299210
 20
765.236211
 30
0.0
 10
123.425195
 20
765.236211
 30
0.0
 10
123.425195
 20
758.716526
 30
0.0
 10
99.330707
 20
758.716526
 30
0.0
 10
99.330707
 20
765.236211
 30
0.0
 10
71.456692
 20
765.236211
 30
0.0
 10
71.456692
 20
758.716526
 30
0.0
 10
47.362204
 20
758.716526
 30
0.0
 10
47.362204
 20
765.236211
 30
0.0
 10
19.346457
 20
765.236211
 30
0.0
 10
19.346457
 20
782.952746
 30
0.0
 10
25.866142
 20
782.952746
 30
0.0
 10
25.866142
 20
806.480303
 30
0.0
 10
19.346457
 20
806.480303
 30
0.0
  0
LWPOLYLINE
  5
106
100
AcDbEntity
  8
Layer_1
 62
1
100
AcDbPolyline
 90
3
 70
1
 10
83.341573
 20
813.439627
 30
0.0
 10
83.341573
 20
770.303095
 30
0.0
 10
40.205041
 20
770.303095
 30
0.0
  0
LWPOLYLINE
  5
107
100
AcDbEntity
  8
Layer_1
 62
1
100
AcDbPolyline
 90
3
 70
1
 10
34.183483
 20
776.324650
 30
0.0
 10
34.183483
 20
819.461182
 30
0.0
 10
77.320018
 20
819.461182
 30
0.0
  0
LWPOLYLINE
  5
108
100
AcDbEntity
  8
Layer_1
 62
1
100
AcDbPolyline
 90
3
 70
1
 10
151.863046
 20
776.310857
 30
0.0
 10
151.863046
 20
819.447388
 30
0.0
 10
108.726514
 20
819.447388
 30
0.0
  0
LWPOLYLINE
  5
109
100
AcDbEntity
  8
Layer_1
 62
1
100
AcDbPolyline
 90
3
 70
1
 10
102.704956
 20
813.449489
 30
0.0
 10
102.704956
 20
770.312957
 30
0.0
 10
145.841491
 20
770.312957
 30
0.0
  0
LWPOLYLINE
  5
10a
100
AcDbEntity
  8
Layer_1
 62
1
100
AcDbPolyline
 90
3
 70
1
 10
223.488028
 20
813.449489
 30
0.0
 10
223.488028
 20
770.312957
 30
0.0
 10
180.351516
 20
770.312957
 30
0.0
  0
LWPOLYLINE
  5
10b
100
AcDbEntity
  8
Layer_1
 62
1
100
AcDbPolyline
 90
3
 70
1
 10
174.329957
 20
776.310857
 30
0.0
 10
174.329957
 20
819.447388
 30
0.0
 10
217.466476
 20
819.447388
 30
0.0
  0
LWPOLYLINE
  5
10c
100
AcDbEntity
  8
Layer_1
 62
1
100
AcDbPolyline
 90
3
 70
1
 10
292.488378
 20
776.310857
 30
0.0
 10
292.488378
 20
819.447388
 30
0.0
 10
249.351761
 20
819.447388
 30
0.0
  0
LWPOLYLINE
  5
10d
100
AcDbEntity
  8
Layer_1
 62
1
100
AcDbPolyline
 90
3
 70
1
 10
243.330180
 20
813.449489
 30
0.0
 10
243.330180
 20
770.312957
 30
0.0
 10
286.466825
 20
770.312957
 30
0.0
  0
LWPOLYLINE
  5
10e
100
AcDbEntity
  8
Layer_1
 62
1
100
AcDbPolyline
 90
3
 70
1
 10
83.341573
 20
731.777485
 30
0.0
 10
83.341573
 20
688.640953
 30
0.0
 10
40.205041
 20
688.640953
 30
0.0
  0
LWPOLYLINE
  5
10f
100
AcDbEntity
  8
Layer_1
 62
1
100
AcDbPolyline
 90
3
 70
1
 10
34.183483
 20
694.662508
 30
0.0
 10
34.183483
 20
737.799041
 30
0.0
 10
77.320018
 20
737.799041
 30
0.0
  0
LWPOLYLINE
  5
110
100
AcDbEntity
  8
Layer_1
 62
1
100
AcDbPolyline
 90
3
 70
1
 10
151.863046
 20
694.648715
 30
0.0
 10
151.863046
 20
737.785247
 30
0.0
 10
108.726514
 20
737.785247
 30
0.0
  0
LWPOLYLINE
  5
111
100
AcDbEntity
  8
Layer_1
 62
1
100
AcDbPolyline
 90
3
 70
1
 10
102.704956
 20
731.787347
 30
0.0
 10
102.704956
 20
688.650815
 30
0.0
 10
145.841491
 20
688.650815
 30
0.0
  0
LWPOLYLINE
  5
112
100
AcDbEntity
  8
Layer_1
 62
1
100
AcDbPolyline
 90
3
 70
1
 10
223.488028
 20
731.787347
 30
0.0
 10
223.488028
 20
688.650815
 30
0.0
 10
180.351516
 20
688.650815
 30
0.0
  0
LWPOLYLINE
  5
113
100
AcDbEntity
  8
Layer_1
 62
1
100
AcDbPolyline
 90
3
 70
1
 10
174.329957
 20
694.648715
 30
0.0
 10
174.329957
 20
737.785247
 30
0.0
 10
217.466476
 20
737.785247
 30
0.0
  0
LWPOLYLINE
  5
114
100
AcDbEntity
  8
Layer_1
 62
1
100
AcDbPolyline
 90
3
 70
1
 10
292.488378
 20
694.648715
 30
0.0
 10
292.488378
 20
737.785247
 30
0.0
 10
249.351761
 20
737.785247
 30
0.0
  0
LWPOLYLINE
  5
115
100
AcDbEntity
  8
Layer_1
 62
1
100
AcDbPolyline
 90
3
 70
1
 10
243.330180
 20
731.787347
 30
0.0
 10
243.330180
 20
688.650815
 30
0.0
 10
286.466825
 20
688.650815
 30
0.0
  0
LWPOLYLINE
  5
116
100
AcDbEntity
  8
Layer_1
 62
1
100
AcDbPolyline
 90
3
 70
1
 10
83.341573
 20
612.824638
 30
0.0
 10
83.341573
 20
655.961170
 30
0.0
 10
40.205041
 20
655.961170
 30
0.0
  0
LWPOLYLINE
  5
117
100
AcDbEntity
  8
Layer_1
 62
1
100
AcDbPolyline
 90
3
 70
1
 10
34.183483
 20
649.939615
 30
0.0
 10
34.183483
 20
606.803083
 30
0.0
 10
77.320018
 20
606.803083
 30
0.0
  0
LWPOLYLINE
  5
118
100
AcDbEntity
  8
Layer_1
 62
1
100
AcDbPolyline
 90
3
 70
1
 10
151.863046
 20
649.953408
 30
0.0
 10
151.863046
 20
606.816876
 30
0.0
 10
108.726514
 20
606.816876
 30
0.0
  0
LWPOLYLINE
  5
119
100
AcDbEntity
  8
Layer_1
 62
1
100
AcDbPolyline
 90
3
 70
1
 10
102.704956
 20
612.814776
 30
0.0
 10
102.704956
 20
655.951309
 30
0.0
 10
145.841491
 20
655.951309
 30
0.0
  0
LWPOLYLINE
  5
11a
100
AcDbEntity
  8
Layer_1
 62
1
100
AcDbPolyline
 90
3
 70
1
 10
223.488028
 20
612.814776
 30
0.0
 10
223.488028
 20
655.951309
 30
0.0
 10
180.351516
 20
655.951309
 30
0.0
  0
LWPOLYLINE
  5
11b
100
AcDbEntity
  8
Layer_1
 62
1
100
AcDbPolyline
 90
3
 70
1
 10
174.329957
 20
649.953408
 30
0.0
 10
174.329957
 20
606.816876
 30
0.0
 10
217.466476
 20
606.816876
 30
0.0
  0
LWPOLYLINE
  5
11c
100
AcDbEntity
  8
Layer_1
 62
1
100
AcDbPolyline
 90
3
 70
1
 10
292.488378
 20
649.953408
 30
0.0
 10
292.488378
 20
606.816876
 30
0.0
 10
249.351761
 20
606.816876
 30
0.0
  0
LWPOLYLINE
  5
11d
100
AcDbEntity
  8
Layer_1
 62
1
100
AcDbPolyline
 90
3
 70
1
 10
243.330180
 20
612.814776
 30
0.0
 10
243.330180
 20
655.951309
 30
0.0
 10
286.466825
 20
655.951309
 30
0.0
  0
LWPOLYLINE
  5
11e
100
AcDbEntity
  8
Layer_1
 62
1
100
AcDbPolyline
 90
3
 70
1
 10
83.341573
 20
530.022416
 30
0.0
 10
83.341573
 20
573.159053
 30
0.0
 10
40.205041
 20
573.159053
 30
0.0
  0
LWPOLYLINE
  5
11f
100
AcDbEntity
  8
Layer_1
 62
1
100
AcDbPolyline
 90
3
 70
1
 10
34.183483
 20
567.137500
 30
0.0
 10
34.183483
 20
524.000863
 30
0.0
 10
77.320018
 20
524.000863
 30
0.0
  0
LWPOLYLINE
  5
120
100
AcDbEntity
  8
Layer_1
 62
1
100
AcDbPolyline
 90
3
 70
1
 10
151.863046
 20
567.151277
 30
0.0
 10
151.863046
 20
524.014668
 30
0.0
 10
108.726514
 20
524.014668
 30
0.0
  0
LWPOLYLINE
  5
121
100
AcDbEntity
  8
Layer_1
 62
1
100
AcDbPolyline
 90
3
 70
1
 10
102.704956
 20
530.012551
 30
0.0
 10
102.704956
 20
573.149188
 30
0.0
 10
145.841491
 20
573.149188
 30
0.0
  0
LWPOLYLINE
  5
122
100
AcDbEntity
  8
Layer_1
 62
1
100
AcDbPolyline
 90
3
 70
1
 10
223.488028
 20
530.012551
 30
0.0
 10
223.488028
 20
573.149188
 30
0.0
 10
180.351516
 20
573.149188
 30
0.0
  0
LWPOLYLINE
  5
123
100
AcDbEntity
  8
Layer_1
 62
1
100
AcDbPolyline
 90
3
 70
1
 10
174.329957
 20
567.151277
 30
0.0
 10
174.329957
 20
524.014668
 30
0.0
 10
217.466476
 20
524.014668
 30
0.0
  0
LWPOLYLINE
  5
124
100
AcDbEntity
  8
Layer_1
 62
1
100
AcDbPolyline
 90
3
 70
1
 10
292.488378
 20
567.151277
 30
0.0
 10
292.488378
 20
524.014668
 30
0.0
 10
249.351761
 20
524.014668
 30
0.0
  0
LWPOLYLINE
  5
125
100
AcDbEntity
  8
Layer_1
 62
1
100
AcDbPolyline
 90
3
 70
1
 10
243.330180
 20
530.012551
 30
0.0
 10
243.330180
 20
573.149188
 30
0.0
 10
286.466825
 20
573.149188
 30
0.0
  0
ENDSEC
  0
SECTION
  2
OBJECTS
  0
DICTIONARY
  5
C
330
0
100
AcDbDictionary
  3
ACAD_GROUP
350
D
  3
ACAD_MLINESTYLE
350
17
  0
DICTIONARY
  5
D
330
C
100
AcDbDictionary
  0
DICTIONARY
  5
1A
330
C
100
AcDbDictionary
  0
DICTIONARY
  5
17
330
C
100
AcDbDictionary
  3
STANDARD
350
18
  0
DICTIONARY
  5
19
330
C
100
AcDbDictionary
  0
ENDSEC
  0
EOF
