  0
SECTION
  2
HEADER
  9
$ACADVER
  1
AC1014
  9
$HANDSEED
  5
FFFF
  9
$MEASUREMENT
 70
     1
  0
ENDSEC
  0
SECTION
  2
TABLES
  0
TABLE
  2
VPORT
  5
8
330
0
100
AcDbSymbolTable
 70
     4
  0
VPORT
  5
2E
330
8
100
AcDbSymbolTableRecord
100
AcDbViewportTableRecord
  2
*ACTIVE
 70
     0
 10
0.0
 20
0.0
 11
1.0
 21
1.0
 12
210.0
 22
148.5
 13
0.0
 23
0.0
 14
10.0
 24
10.0
 15
10.0
 25
10.0
 16
0.0
 26
0.0
 36
1.0
 17
0.0
 27
0.0
 37
0.0
 40
341.0
 41
1.24
 42
50.0
 43
0.0
 44
0.0
 50
0.0
 51
0.0
 71
     0
 72
   100
 73
     1
 74
     3
 75
     0
 76
     0
 77
     0
 78
     0
  0
ENDTAB
  0
TABLE
  2
LTYPE
  5
5
330
0
100
AcDbSymbolTable
 70
     1
  0
LTYPE
  5
14
330
5
100
AcDbSymbolTableRecord
100
AcDbLinetypeTableRecord
  2
BYBLOCK
 70
     0
  3

 72
    65
 73
     0
 40
0.0
  0
LTYPE
  5
15
330
5
100
AcDbSymbolTableRecord
100
AcDbLinetypeTableRecord
  2
BYLAYER
 70
     0
  3

 72
    65
 73
     0
 40
0.0
  0
LTYPE
  5
16
330
5
100
AcDbSymbolTableRecord
100
AcDbLinetypeTableRecord
  2
CONTINUOUS
 70
     0
  3
Solid line
 72
    65
 73
     0
 40
0.0
  0
ENDTAB
  0
TABLE
  2
LAYER
  5
2
100
AcDbSymbolTable
 70
3
  0
LAYER
  5
50
100
AcDbSymbolTableRecord
100
AcDbLayerTableRecord
  2
0
 70
0
  6
CONTINUOUS
  0
LAYER
  5
51
100
AcDbSymbolTableRecord
100
AcDbLayerTableRecord
  2
Layer_1
 70
0
  6
CONTINUOUS
  0
LAYER
  5
52
100
AcDbSymbolTableRecord
100
AcDbLayerTableRecord
  2
newlayer
 70
0
  6
CONTINUOUS
  0
ENDTAB
  0
TABLE
  2
STYLE
  5
3
330
0
100
AcDbSymbolTable
 70
     1
  0
STYLE
  5
11
330
3
100
AcDbSymbolTableRecord
100
AcDbTextStyleTableRecord
  2
STANDARD
 70
     0
 40
0.0
 41
1.0
 50
0.0
 71
     0
 42
2.5
  3
txt
  4

  0
ENDTAB
  0
TABLE
  2
VIEW
  5
6
330
0
100
AcDbSymbolTable
 70
     0
  0
ENDTAB
  0
TABLE
  2
UCS
  5
7
330
0
100
AcDbSymbolTable
 70
     0
  0
ENDTAB
  0
TABLE
  2
APPID
  5
9
330
0
100
AcDbSymbolTable
 70
     2
  0
APPID
  5
12
330
9
100
AcDbSymbolTableRecord
100
AcDbRegAppTableRecord
  2
ACAD
 70
     0
  0
ENDTAB
  0
TABLE
  2
DIMSTYLE
  5
A
330
0
100
AcDbSymbolTable
 70
     1
  0
DIMSTYLE
105
27
330
A
100
AcDbSymbolTableRecord
100
AcDbDimStyleTableRecord
  2
ISO-25
 70
     0
  3

  4

  5

  6

  7

 40
1.0
 41
2.5
 42
0.625
 43
3.75
 44
1.25
 45
0.0
 46
0.0
 47
0.0
 48
0.0
140
2.5
141
2.5
142
0.0
143
0.03937007874016
144
1.0
145
0.0
146
1.0
147
0.625
 71
     0
 72
     0
 73
     0
 74
     0
 75
     0
 76
     0
 77
     1
 78
     8
170
     0
171
     3
172
     1
173
     0
174
     0
175
     0
176
     0
177
     0
178
     0
270
     2
271
     2
272
     2
273
     2
274
     3
340
11
275
     0
280
     0
281
     0
282
     0
283
     0
284
     8
285
     0
286
     0
287
     3
288
     0
  0
ENDTAB
  0
TABLE
  2
BLOCK_RECORD
  5
1
330
0
100
AcDbSymbolTable
 70
     1
  0
BLOCK_RECORD
  5
1F
330
1
100
AcDbSymbolTableRecord
100
AcDbBlockTableRecord
  2
*MODEL_SPACE
  0
BLOCK_RECORD
  5
1B
330
1
100
AcDbSymbolTableRecord
100
AcDbBlockTableRecord
  2
*PAPER_SPACE
  0
ENDTAB
  0
ENDSEC
  0
SECTION
  2
BLOCKS
  0
BLOCK
  5
20
330
1F
100
AcDbEntity
  8
0
100
AcDbBlockBegin
  2
*MODEL_SPACE
 70
     0
 10
0.0
 20
0.0
 30
0.0
  3
*MODEL_SPACE
  1

  0
ENDBLK
  5
21
330
1F
100
AcDbEntity
  8
0
100
AcDbBlockEnd
  0
BLOCK
  5
1C
330
1B
100
AcDbEntity
 67
     1
  8
0
100
AcDbBlockBegin
  2
*PAPER_SPACE
  1

  0
ENDBLK
  5
1D
330
1B
100
AcDbEntity
 67
     1
  8
0
100
AcDbBlockEnd
  0
ENDSEC
  0
SECTION
  2
ENTITIES
  0
LWPOLYLINE
  5
100
100
AcDbEntity
  8
Layer_1
 62
1
100
AcDbPolyline
 90
3
 70
1
 10
75.688024
 20
808.192154
 30
0.0
 10
75.688024
 20
765.055619
 30
0.0
 10
32.551492
 20
765.055619
 30
0.0
  0
LWPOLYLINE
  5
101
100
AcDbEntity
  8
Layer_1
 62
1
100
AcDbPolyline
 90
3
 70
1
 10
26.529934
 20
771.077174
 30
0.0
 10
26.529934
 20
814.213709
 30
0.0
 10
69.666469
 20
814.213709
 30
0.0
  0
LWPOLYLINE
  5
102
100
AcDbEntity
  8
Layer_1
 62
1
100
AcDbPolyline
 90
3
 70
1
 10
144.209497
 20
771.063381
 30
0.0
 10
144.209497
 20
814.199916
 30
0.0
 10
101.072965
 20
814.199916
 30
0.0
  0
LWPOLYLINE
  5
103
100
AcDbEntity
  8
Layer_1
 62
1
100
AcDbPolyline
 90
3
 70
1
 10
95.051407
 20
808.202015
 30
0.0
 10
95.051407
 20
765.065480
 30
0.0
 10
138.187942
 20
765.065480
 30
0.0
  0
LWPOLYLINE
  5
104
100
AcDbEntity
  8
Layer_1
 62
1
100
AcDbPolyline
 90
3
 70
1
 10
215.834479
 20
808.202015
 30
0.0
 10
215.834479
 20
765.065480
 30
0.0
 10
172.697967
 20
765.065480
 30
0.0
  0
LWPOLYLINE
  5
105
100
AcDbEntity
  8
Layer_1
 62
1
100
AcDbPolyline
 90
3
 70
1
 10
166.676409
 20
771.063381
 30
0.0
 10
166.676409
 20
814.199916
 30
0.0
 10
209.812927
 20
814.199916
 30
0.0
  0
LWPOLYLINE
  5
106
100
AcDbEntity
  8
Layer_1
 62
1
100
AcDbPolyline
 90
3
 70
1
 10
284.834835
 20
771.063381
 30
0.0
 10
284.834835
 20
814.199916
 30
0.0
 10
241.698212
 20
814.199916
 30
0.0
  0
LWPOLYLINE
  5
107
100
AcDbEntity
  8
Layer_1
 62
1
100
AcDbPolyline
 90
3
 70
1
 10
235.676631
 20
808.202015
 30
0.0
 10
235.676631
 20
765.065480
 30
0.0
 10
278.813276
 20
765.065480
 30
0.0
  0
LWPOLYLINE
  5
108
100
AcDbEntity
  8
Layer_1
 62
1
100
AcDbPolyline
 90
100
 70
1
 10
11.692912
 20
648.047248
 30
0.0
 10
37.724409
 20
648.047248
 30
0.0
 10
37.724409
 20
654.850397
 30
0.0
 10
61.818894
 20
654.850397
 30
0.0
 10
61.818894
 20
648.047248
 30
0.0
 10
87.708660
 20
648.047248
 30
0.0
 10
87.708660
 20
654.850397
 30
0.0
 10
111.803145
 20
654.850397
 30
0.0
 10
111.803145
 20
648.047248
 30
0.0
 10
137.692911
 20
648.047248
 30
0.0
 10
137.692911
 20
654.850397
 30
0.0
 10
161.787396
 20
654.850397
 30
0.0
 10
161.787396
 20
648.047248
 30
0.0
 10
187.677162
 20
648.047248
 30
0.0
 10
187.677162
 20
654.850397
 30
0.0
 10
211.771650
 20
654.850397
 30
0.0
 10
211.771650
 20
648.047248
 30
0.0
 10
237.661413
 20
648.047248
 30
0.0
 10
237.661413
 20
654.850397
 30
0.0
 10
261.755901
 20
654.850397
 30
0.0
 10
261.755901
 20
648.047248
 30
0.0
 10
287.645641
 20
648.047248
 30
0.0
 10
287.645641
 20
654.850397
 30
0.0
 10
311.740129
 20
654.850397
 30
0.0
 10
311.740129
 20
648.047248
 30
0.0
 10
337.629912
 20
648.047248
 30
0.0
 10
337.629912
 20
654.850397
 30
0.0
 10
361.724400
 20
654.850397
 30
0.0
 10
361.724400
 20
648.047248
 30
0.0
 10
387.614154
 20
648.047248
 30
0.0
 10
387.614154
 20
654.850397
 30
0.0
 10
411.708643
 20
654.850397
 30
0.0
 10
411.708643
 20
648.047248
 30
0.0
 10
437.598397
 20
648.047248
 30
0.0
 10
437.598397
 20
654.850397
 30
0.0
 10
461.692885
 20
654.850397
 30
0.0
 10
461.692885
 20
648.047248
 30
0.0
 10
487.582668
 20
648.047248
 30
0.0
 10
487.582668
 20
654.850397
 30
0.0
 10
511.677156
 20
654.850397
 30
0.0
 10
511.677156
 20
648.047248
 30
0.0
 10
537.566910
 20
648.047248
 30
0.0
 10
537.566910
 20
654.850397
 30
0.0
 10
561.661398
 20
654.850397
 30
0.0
 10
561.661398
 20
648.047248
 30
0.0
 10
587.692885
 20
648.047248
 30
0.0
 10
587.692885
 20
630.614177
 30
0.0
 10
580.889735
 20
630.614177
 30
0.0
 10
580.889735
 20
607.086621
 30
0.0
 10
587.692885
 20
607.086621
 30
0.0
 10
587.692885
 20
589.653556
 30
0.0
 10
561.661398
 20
589.653556
 30
0.0
 10
561.661398
 20
582.850414
 30
0.0
 10
537.566910
 20
582.850414
 30
0.0
 10
537.566910
 20
589.653556
 30
0.0
 10
511.677156
 20
589.653556
 30
0.0
 10
511.677156
 20
582.850414
 30
0.0
 10
487.582668
 20
582.850414
 30
0.0
 10
487.582668
 20
589.653556
 30
0.0
 10
461.692885
 20
589.653556
 30
0.0
 10
461.692885
 20
582.850414
 30
0.0
 10
437.598397
 20
582.850414
 30
0.0
 10
437.598397
 20
589.653556
 30
0.0
 10
411.708643
 20
589.653556
 30
0.0
 10
411.708643
 20
582.850414
 30
0.0
 10
387.614154
 20
582.850414
 30
0.0
 10
387.614154
 20
589.653556
 30
0.0
 10
361.724400
 20
589.653556
 30
0.0
 10
361.724400
 20
582.850414
 30
0.0
 10
337.629912
 20
582.850414
 30
0.0
 10
337.629912
 20
589.653556
 30
0.0
 10
311.740129
 20
589.653556
 30
0.0
 10
311.740129
 20
582.850414
 30
0.0
 10
287.645641
 20
582.850414
 30
0.0
 10
287.645641
 20
589.653556
 30
0.0
 10
261.755901
 20
589.653556
 30
0.0
 10
261.755901
 20
582.850414
 30
0.0
 10
237.661413
 20
582.850414
 30
0.0
 10
237.661413
 20
589.653556
 30
0.0
 10
211.771650
 20
589.653556
 30
0.0
 10
211.771650
 20
582.850414
 30
0.0
 10
187.677162
 20
582.850414
 30
0.0
 10
187.677162
 20
589.653556
 30
0.0
 10
161.787396
 20
589.653556
 30
0.0
 10
161.787396
 20
582.850414
 30
0.0
 10
137.692911
 20
582.850414
 30
0.0
 10
137.692911
 20
589.653556
 30
0.0
 10
111.803145
 20
589.653556
 30
0.0
 10
111.803145
 20
582.850414
 30
0.0
 10
87.708660
 20
582.850414
 30
0.0
 10
87.708660
 20
589.653556
 30
0.0
 10
61.818894
 20
589.653556
 30
0.0
 10
61.818894
 20
582.850414
 30
0.0
 10
37.724409
 20
582.850414
 30
0.0
 10
37.724409
 20
589.653556
 30
0.0
 10
11.692912
 20
589.653556
 30
0.0
 10
11.692912
 20
607.086621
 30
0.0
 10
18.496062
 20
607.086621
 30
0.0
 10
18.496062
 20
630.614177
 30
0.0
 10
11.692912
 20
630.614177
 30
0.0
  0
LWPOLYLINE
  5
109
100
AcDbEntity
  8
Layer_1
 62
1
100
AcDbPolyline
 90
20
 70
1
 10
137.908536
 20
111.960397
 30
0.0
 10
155.058143
 20
111.960397
 30
0.0
 10
155.058143
 20
118.763546
 30
0.0
 10
179.152631
 20
118.763546
 30
0.0
 10
179.152631
 20
111.960397
 30
0.0
 10
196.302237
 20
111.960397
 30
0.0
 10
196.302237
 20
94.810791
 30
0.0
 10
203.105387
 20
94.810791
 30
0.0
 10
203.105387
 20
70.716302
 30
0.0
 10
196.302237
 20
70.716302
 30
0.0
 10
196.302237
 20
53.566639
 30
0.0
 10
179.152631
 20
53.566639
 30
0.0
 10
179.152631
 20
46.763490
 30
0.0
 10
155.058143
 20
46.763490
 30
0.0
 10
155.058143
 20
53.566639
 30
0.0
 10
137.908536
 20
53.566639
 30
0.0
 10
137.908536
 20
70.716302
 30
0.0
 10
131.105387
 20
70.716302
 30
0.0
 10
131.105387
 20
94.810791
 30
0.0
 10
137.908536
 20
94.810791
 30
0.0
  0
LWPOLYLINE
  5
10a
100
AcDbEntity
  8
Layer_1
 62
1
100
AcDbPolyline
 90
100
 70
1
 10
11.692912
 20
740.196853
 30
0.0
 10
38.007873
 20
740.196853
 30
0.0
 10
38.007873
 20
733.393704
 30
0.0
 10
61.535429
 20
733.393704
 30
0.0
 10
61.535429
 20
740.196853
 30
0.0
 10
87.992124
 20
740.196853
 30
0.0
 10
87.992124
 20
733.393704
 30
0.0
 10
111.519680
 20
733.393704
 30
0.0
 10
111.519680
 20
740.196853
 30
0.0
 10
137.976375
 20
740.196853
 30
0.0
 10
137.976375
 20
733.393704
 30
0.0
 10
161.503931
 20
733.393704
 30
0.0
 10
161.503931
 20
740.196853
 30
0.0
 10
187.960626
 20
740.196853
 30
0.0
 10
187.960626
 20
733.393704
 30
0.0
 10
211.488185
 20
733.393704
 30
0.0
 10
211.488185
 20
740.196853
 30
0.0
 10
237.944877
 20
740.196853
 30
0.0
 10
237.944877
 20
733.393704
 30
0.0
 10
261.472436
 20
733.393704
 30
0.0
 10
261.472436
 20
740.196853
 30
0.0
 10
287.929106
 20
740.196853
 30
0.0
 10
287.929106
 20
733.393704
 30
0.0
 10
311.456665
 20
733.393704
 30
0.0
 10
311.456665
 20
740.196853
 30
0.0
 10
337.913376
 20
740.196853
 30
0.0
 10
337.913376
 20
733.393704
 30
0.0
 10
361.440935
 20
733.393704
 30
0.0
 10
361.440935
 20
740.196853
 30
0.0
 10
387.897619
 20
740.196853
 30
0.0
 10
387.897619
 20
733.393704
 30
0.0
 10
411.425178
 20
733.393704
 30
0.0
 10
411.425178
 20
740.196853
 30
0.0
 10
437.881861
 20
740.196853
 30
0.0
 10
437.881861
 20
733.393704
 30
0.0
 10
461.409420
 20
733.393704
 30
0.0
 10
461.409420
 20
740.196853
 30
0.0
 10
487.866132
 20
740.196853
 30
0.0
 10
487.866132
 20
733.393704
 30
0.0
 10
511.393691
 20
733.393704
 30
0.0
 10
511.393691
 20
740.196853
 30
0.0
 10
537.850375
 20
740.196853
 30
0.0
 10
537.850375
 20
733.393704
 30
0.0
 10
561.377934
 20
733.393704
 30
0.0
 10
561.377934
 20
740.196853
 30
0.0
 10
587.692885
 20
740.196853
 30
0.0
 10
587.692885
 20
715.960633
 30
0.0
 10
580.889735
 20
715.960633
 30
0.0
 10
580.889735
 20
692.433074
 30
0.0
 10
587.692885
 20
692.433074
 30
0.0
 10
587.692885
 20
668.196853
 30
0.0
 10
561.377934
 20
668.196853
 30
0.0
 10
561.377934
 20
675.000003
 30
0.0
 10
537.850375
 20
675.000003
 30
0.0
 10
537.850375
 20
668.196853
 30
0.0
 10
511.393691
 20
668.196853
 30
0.0
 10
511.393691
 20
675.000003
 30
0.0
 10
487.866132
 20
675.000003
 30
0.0
 10
487.866132
 20
668.196853
 30
0.0
 10
461.409420
 20
668.196853
 30
0.0
 10
461.409420
 20
675.000003
 30
0.0
 10
437.881861
 20
675.000003
 30
0.0
 10
437.881861
 20
668.196853
 30
0.0
 10
411.425178
 20
668.196853
 30
0.0
 10
411.425178
 20
675.000003
 30
0.0
 10
387.897619
 20
675.000003
 30
0.0
 10
387.897619
 20
668.196853
 30
0.0
 10
361.440935
 20
668.196853
 30
0.0
 10
361.440935
 20
675.000003
 30
0.0
 10
337.913376
 20
675.000003
 30
0.0
 10
337.913376
 20
668.196853
 30
0.0
 10
311.456665
 20
668.196853
 30
0.0
 10
311.456665
 20
675.000003
 30
0.0
 10
287.929106
 20
675.000003
 30
0.0
 10
287.929106
 20
668.196853
 30
0.0
 10
261.472436
 20
668.196853
 30
0.0
 10
261.472436
 20
675.000003
 30
0.0
 10
237.944877
 20
675.000003
 30
0.0
 10
237.944877
 20
668.196853
 30
0.0
 10
211.488185
 20
668.196853
 30
0.0
 10
211.488185
 20
675.000003
 30
0.0
 10
187.960626
 20
675.000003
 30
0.0
 10
187.960626
 20
668.196853
 30
0.0
 10
161.503931
 20
668.196853
 30
0.0
 10
161.503931
 20
675.000003
 30
0.0
 10
137.976375
 20
675.000003
 30
0.0
 10
137.976375
 20
668.196853
 30
0.0
 10
111.519680
 20
668.196853
 30
0.0
 10
111.519680
 20
675.000003
 30
0.0
 10
87.992124
 20
675.000003
 30
0.0
 10
87.992124
 20
668.196853
 30
0.0
 10
61.535429
 20
668.196853
 30
0.0
 10
61.535429
 20
675.000003
 30
0.0
 10
38.007873
 20
675.000003
 30
0.0
 10
38.007873
 20
668.196853
 30
0.0
 10
11.692912
 20
668.196853
 30
0.0
 10
11.692912
 20
692.433074
 30
0.0
 10
18.496062
 20
692.433074
 30
0.0
 10
18.496062
 20
715.960633
 30
0.0
 10
11.692912
 20
715.960633
 30
0.0
  0
LWPOLYLINE
  5
10b
100
AcDbEntity
  8
Layer_1
 62
1
100
AcDbPolyline
 90
20
 70
1
 10
20.158508
 20
111.960369
 30
0.0
 10
37.308115
 20
111.960369
 30
0.0
 10
37.308115
 20
118.763518
 30
0.0
 10
61.402603
 20
118.763518
 30
0.0
 10
61.402603
 20
111.960369
 30
0.0
 10
78.552210
 20
111.960369
 30
0.0
 10
78.552210
 20
94.810762
 30
0.0
 10
85.355359
 20
94.810762
 30
0.0
 10
85.355359
 20
70.716274
 30
0.0
 10
78.552210
 20
70.716274
 30
0.0
 10
78.552210
 20
53.566668
 30
0.0
 10
61.402603
 20
53.566668
 30
0.0
 10
61.402603
 20
46.763518
 30
0.0
 10
37.308115
 20
46.763518
 30
0.0
 10
37.308115
 20
53.566668
 30
0.0
 10
20.158508
 20
53.566668
 30
0.0
 10
20.158508
 20
70.716274
 30
0.0
 10
13.355358
 20
70.716274
 30
0.0
 10
13.355358
 20
94.810762
 30
0.0
 10
20.158508
 20
94.810762
 30
0.0
  0
LWPOLYLINE
  5
10c
100
AcDbEntity
  8
Layer_1
 62
1
100
AcDbPolyline
 90
100
 70
1
 10
11.976378
 20
567.850243
 30
0.0
 10
38.291338
 20
567.850243
 30
0.0
 10
38.291338
 20
561.047094
 30
0.0
 10
61.818897
 20
561.047094
 30
0.0
 10
61.818897
 20
567.850243
 30
0.0
 10
88.275589
 20
567.850243
 30
0.0
 10
88.275589
 20
561.047094
 30
0.0
 10
111.803148
 20
561.047094
 30
0.0
 10
111.803148
 20
567.850243
 30
0.0
 10
138.259840
 20
567.850243
 30
0.0
 10
138.259840
 20
561.047094
 30
0.0
 10
161.787399
 20
561.047094
 30
0.0
 10
161.787399
 20
567.850243
 30
0.0
 10
188.244085
 20
567.850243
 30
0.0
 10
188.244085
 20
561.047094
 30
0.0
 10
211.771644
 20
561.047094
 30
0.0
 10
211.771644
 20
567.850243
 30
0.0
 10
238.228356
 20
567.850243
 30
0.0
 10
238.228356
 20
561.047094
 30
0.0
 10
261.755887
 20
561.047094
 30
0.0
 10
261.755887
 20
567.850243
 30
0.0
 10
288.212598
 20
567.850243
 30
0.0
 10
288.212598
 20
561.047094
 30
0.0
 10
311.740157
 20
561.047094
 30
0.0
 10
311.740157
 20
567.850243
 30
0.0
 10
338.196841
 20
567.850243
 30
0.0
 10
338.196841
 20
561.047094
 30
0.0
 10
361.724400
 20
561.047094
 30
0.0
 10
361.724400
 20
567.850243
 30
0.0
 10
388.181083
 20
567.850243
 30
0.0
 10
388.181083
 20
561.047094
 30
0.0
 10
411.708643
 20
561.047094
 30
0.0
 10
411.708643
 20
567.850243
 30
0.0
 10
438.165354
 20
567.850243
 30
0.0
 10
438.165354
 20
561.047094
 30
0.0
 10
461.692913
 20
561.047094
 30
0.0
 10
461.692913
 20
567.850243
 30
0.0
 10
488.149597
 20
567.850243
 30
0.0
 10
488.149597
 20
561.047094
 30
0.0
 10
511.677156
 20
561.047094
 30
0.0
 10
511.677156
 20
567.850243
 30
0.0
 10
538.133839
 20
567.850243
 30
0.0
 10
538.133839
 20
561.047094
 30
0.0
 10
561.661398
 20
561.047094
 30
0.0
 10
561.661398
 20
567.850243
 30
0.0
 10
587.976378
 20
567.850243
 30
0.0
 10
587.976378
 20
543.614032
 30
0.0
 10
581.173228
 20
543.614032
 30
0.0
 10
581.173228
 20
520.086472
 30
0.0
 10
587.976378
 20
520.086472
 30
0.0
 10
587.976378
 20
495.850252
 30
0.0
 10
561.661398
 20
495.850252
 30
0.0
 10
561.661398
 20
502.653402
 30
0.0
 10
538.133839
 20
502.653402
 30
0.0
 10
538.133839
 20
495.850252
 30
0.0
 10
511.677156
 20
495.850252
 30
0.0
 10
511.677156
 20
502.653402
 30
0.0
 10
488.149597
 20
502.653402
 30
0.0
 10
488.149597
 20
495.850252
 30
0.0
 10
461.692913
 20
495.850252
 30
0.0
 10
461.692913
 20
502.653402
 30
0.0
 10
438.165354
 20
502.653402
 30
0.0
 10
438.165354
 20
495.850252
 30
0.0
 10
411.708643
 20
495.850252
 30
0.0
 10
411.708643
 20
502.653402
 30
0.0
 10
388.181083
 20
502.653402
 30
0.0
 10
388.181083
 20
495.850252
 30
0.0
 10
361.724400
 20
495.850252
 30
0.0
 10
361.724400
 20
502.653402
 30
0.0
 10
338.196841
 20
502.653402
 30
0.0
 10
338.196841
 20
495.850252
 30
0.0
 10
311.740157
 20
495.850252
 30
0.0
 10
311.740157
 20
502.653402
 30
0.0
 10
288.212598
 20
502.653402
 30
0.0
 10
288.212598
 20
495.850252
 30
0.0
 10
261.755887
 20
495.850252
 30
0.0
 10
261.755887
 20
502.653402
 30
0.0
 10
238.228356
 20
502.653402
 30
0.0
 10
238.228356
 20
495.850252
 30
0.0
 10
211.771644
 20
495.850252
 30
0.0
 10
211.771644
 20
502.653402
 30
0.0
 10
188.244085
 20
502.653402
 30
0.0
 10
188.244085
 20
495.850252
 30
0.0
 10
161.787399
 20
495.850252
 30
0.0
 10
161.787399
 20
502.653402
 30
0.0
 10
138.259840
 20
502.653402
 30
0.0
 10
138.259840
 20
495.850252
 30
0.0
 10
111.803148
 20
495.850252
 30
0.0
 10
111.803148
 20
502.653402
 30
0.0
 10
88.275589
 20
502.653402
 30
0.0
 10
88.275589
 20
495.850252
 30
0.0
 10
61.818897
 20
495.850252
 30
0.0
 10
61.818897
 20
502.653402
 30
0.0
 10
38.291338
 20
502.653402
 30
0.0
 10
38.291338
 20
495.850252
 30
0.0
 10
11.976378
 20
495.850252
 30
0.0
 10
11.976378
 20
520.086472
 30
0.0
 10
18.779528
 20
520.086472
 30
0.0
 10
18.779528
 20
543.614032
 30
0.0
 10
11.976378
 20
543.614032
 30
0.0
  0
LWPOLYLINE
  5
10d
100
AcDbEntity
  8
Layer_1
 62
1
100
AcDbPolyline
 90
100
 70
1
 10
11.692912
 20
818.740158
 30
0.0
 10
37.724409
 20
818.740158
 30
0.0
 10
37.724409
 20
825.543307
 30
0.0
 10
61.818894
 20
825.543307
 30
0.0
 10
61.818894
 20
818.740158
 30
0.0
 10
87.708660
 20
818.740158
 30
0.0
 10
87.708660
 20
825.543307
 30
0.0
 10
111.803145
 20
825.543307
 30
0.0
 10
111.803145
 20
818.740158
 30
0.0
 10
137.692911
 20
818.740158
 30
0.0
 10
137.692911
 20
825.543307
 30
0.0
 10
161.787396
 20
825.543307
 30
0.0
 10
161.787396
 20
818.740158
 30
0.0
 10
187.677162
 20
818.740158
 30
0.0
 10
187.677162
 20
825.543307
 30
0.0
 10
211.771650
 20
825.543307
 30
0.0
 10
211.771650
 20
818.740158
 30
0.0
 10
237.661413
 20
818.740158
 30
0.0
 10
237.661413
 20
825.543307
 30
0.0
 10
261.755901
 20
825.543307
 30
0.0
 10
261.755901
 20
818.740158
 30
0.0
 10
287.645641
 20
818.740158
 30
0.0
 10
287.645641
 20
825.543307
 30
0.0
 10
311.740129
 20
825.543307
 30
0.0
 10
311.740129
 20
818.740158
 30
0.0
 10
337.629912
 20
818.740158
 30
0.0
 10
337.629912
 20
825.543307
 30
0.0
 10
361.724400
 20
825.543307
 30
0.0
 10
361.724400
 20
818.740158
 30
0.0
 10
387.614154
 20
818.740158
 30
0.0
 10
387.614154
 20
825.543307
 30
0.0
 10
411.708643
 20
825.543307
 30
0.0
 10
411.708643
 20
818.740158
 30
0.0
 10
437.598397
 20
818.740158
 30
0.0
 10
437.598397
 20
825.543307
 30
0.0
 10
461.692885
 20
825.543307
 30
0.0
 10
461.692885
 20
818.740158
 30
0.0
 10
487.582668
 20
818.740158
 30
0.0
 10
487.582668
 20
825.543307
 30
0.0
 10
511.677156
 20
825.543307
 30
0.0
 10
511.677156
 20
818.740158
 30
0.0
 10
537.566910
 20
818.740158
 30
0.0
 10
537.566910
 20
825.543307
 30
0.0
 10
561.661398
 20
825.543307
 30
0.0
 10
561.661398
 20
818.740158
 30
0.0
 10
587.692885
 20
818.740158
 30
0.0
 10
587.692885
 20
801.307089
 30
0.0
 10
580.889735
 20
801.307089
 30
0.0
 10
580.889735
 20
777.779529
 30
0.0
 10
587.692885
 20
777.779529
 30
0.0
 10
587.692885
 20
760.346459
 30
0.0
 10
561.661398
 20
760.346459
 30
0.0
 10
561.661398
 20
753.543309
 30
0.0
 10
537.566910
 20
753.543309
 30
0.0
 10
537.566910
 20
760.346459
 30
0.0
 10
511.677156
 20
760.346459
 30
0.0
 10
511.677156
 20
753.543309
 30
0.0
 10
487.582668
 20
753.543309
 30
0.0
 10
487.582668
 20
760.346459
 30
0.0
 10
461.692885
 20
760.346459
 30
0.0
 10
461.692885
 20
753.543309
 30
0.0
 10
437.598397
 20
753.543309
 30
0.0
 10
437.598397
 20
760.346459
 30
0.0
 10
411.708643
 20
760.346459
 30
0.0
 10
411.708643
 20
753.543309
 30
0.0
 10
387.614154
 20
753.543309
 30
0.0
 10
387.614154
 20
760.346459
 30
0.0
 10
361.724400
 20
760.346459
 30
0.0
 10
361.724400
 20
753.543309
 30
0.0
 10
337.629912
 20
753.543309
 30
0.0
 10
337.629912
 20
760.346459
 30
0.0
 10
311.740129
 20
760.346459
 30
0.0
 10
311.740129
 20
753.543309
 30
0.0
 10
287.645641
 20
753.543309
 30
0.0
 10
287.645641
 20
760.346459
 30
0.0
 10
261.755901
 20
760.346459
 30
0.0
 10
261.755901
 20
753.543309
 30
0.0
 10
237.661413
 20
753.543309
 30
0.0
 10
237.661413
 20
760.346459
 30
0.0
 10
211.771650
 20
760.346459
 30
0.0
 10
211.771650
 20
753.543309
 30
0.0
 10
187.677162
 20
753.543309
 30
0.0
 10
187.677162
 20
760.346459
 30
0.0
 10
161.787396
 20
760.346459
 30
0.0
 10
161.787396
 20
753.543309
 30
0.0
 10
137.692911
 20
753.543309
 30
0.0
 10
137.692911
 20
760.346459
 30
0.0
 10
111.803145
 20
760.346459
 30
0.0
 10
111.803145
 20
753.543309
 30
0.0
 10
87.708660
 20
753.543309
 30
0.0
 10
87.708660
 20
760.346459
 30
0.0
 10
61.818894
 20
760.346459
 30
0.0
 10
61.818894
 20
753.543309
 30
0.0
 10
37.724409
 20
753.543309
 30
0.0
 10
37.724409
 20
760.346459
 30
0.0
 10
11.692912
 20
760.346459
 30
0.0
 10
11.692912
 20
777.779529
 30
0.0
 10
18.496062
 20
777.779529
 30
0.0
 10
18.496062
 20
801.307089
 30
0.0
 10
11.692912
 20
801.307089
 30
0.0
  0
LWPOLYLINE
  5
10e
100
AcDbEntity
  8
Layer_1
 62
1
100
AcDbPolyline
 90
3
 70
1
 10
361.741011
 20
808.057809
 30
0.0
 10
361.741011
 20
764.921271
 30
0.0
 10
318.604479
 20
764.921271
 30
0.0
  0
LWPOLYLINE
  5
10f
100
AcDbEntity
  8
Layer_1
 62
1
100
AcDbPolyline
 90
3
 70
1
 10
312.582898
 20
770.942826
 30
0.0
 10
312.582898
 20
814.079367
 30
0.0
 10
355.719458
 20
814.079367
 30
0.0
  0
LWPOLYLINE
  5
110
100
AcDbEntity
  8
Layer_1
 62
1
100
AcDbPolyline
 90
3
 70
1
 10
431.762485
 20
770.929033
 30
0.0
 10
431.762485
 20
814.065574
 30
0.0
 10
388.625953
 20
814.065574
 30
0.0
  0
LWPOLYLINE
  5
111
100
AcDbEntity
  8
Layer_1
 62
1
100
AcDbPolyline
 90
3
 70
1
 10
382.604400
 20
808.067670
 30
0.0
 10
382.604400
 20
764.931132
 30
0.0
 10
425.740932
 20
764.931132
 30
0.0
  0
LWPOLYLINE
  5
112
100
AcDbEntity
  8
Layer_1
 62
1
100
AcDbPolyline
 90
3
 70
1
 10
503.387461
 20
808.067670
 30
0.0
 10
503.387461
 20
764.931132
 30
0.0
 10
460.250957
 20
764.931132
 30
0.0
  0
LWPOLYLINE
  5
113
100
AcDbEntity
  8
Layer_1
 62
1
100
AcDbPolyline
 90
3
 70
1
 10
454.229405
 20
770.929033
 30
0.0
 10
454.229405
 20
814.065574
 30
0.0
 10
497.365909
 20
814.065574
 30
0.0
  0
LWPOLYLINE
  5
114
100
AcDbEntity
  8
Layer_1
 62
1
100
AcDbPolyline
 90
3
 70
1
 10
572.387811
 20
770.929033
 30
0.0
 10
572.387811
 20
814.065574
 30
0.0
 10
529.251194
 20
814.065574
 30
0.0
  0
LWPOLYLINE
  5
115
100
AcDbEntity
  8
Layer_1
 62
1
100
AcDbPolyline
 90
3
 70
1
 10
523.229613
 20
808.067670
 30
0.0
 10
523.229613
 20
764.931132
 30
0.0
 10
566.366258
 20
764.931132
 30
0.0
  0
LWPOLYLINE
  5
116
100
AcDbEntity
  8
Layer_1
 62
1
100
AcDbPolyline
 90
3
 70
1
 10
75.688024
 20
722.974842
 30
0.0
 10
75.688024
 20
679.838306
 30
0.0
 10
32.551492
 20
679.838306
 30
0.0
  0
LWPOLYLINE
  5
117
100
AcDbEntity
  8
Layer_1
 62
1
100
AcDbPolyline
 90
3
 70
1
 10
26.529934
 20
685.859862
 30
0.0
 10
26.529934
 20
728.996397
 30
0.0
 10
69.666469
 20
728.996397
 30
0.0
  0
LWPOLYLINE
  5
118
100
AcDbEntity
  8
Layer_1
 62
1
100
AcDbPolyline
 90
3
 70
1
 10
144.209497
 20
685.846069
 30
0.0
 10
144.209497
 20
728.982604
 30
0.0
 10
101.072965
 20
728.982604
 30
0.0
  0
LWPOLYLINE
  5
119
100
AcDbEntity
  8
Layer_1
 62
1
100
AcDbPolyline
 90
3
 70
1
 10
95.051407
 20
722.984703
 30
0.0
 10
95.051407
 20
679.848168
 30
0.0
 10
138.187942
 20
679.848168
 30
0.0
  0
LWPOLYLINE
  5
11a
100
AcDbEntity
  8
Layer_1
 62
1
100
AcDbPolyline
 90
3
 70
1
 10
215.834479
 20
722.984703
 30
0.0
 10
215.834479
 20
679.848168
 30
0.0
 10
172.697967
 20
679.848168
 30
0.0
  0
LWPOLYLINE
  5
11b
100
AcDbEntity
  8
Layer_1
 62
1
100
AcDbPolyline
 90
3
 70
1
 10
166.676409
 20
685.846069
 30
0.0
 10
166.676409
 20
728.982604
 30
0.0
 10
209.812927
 20
728.982604
 30
0.0
  0
LWPOLYLINE
  5
11c
100
AcDbEntity
  8
Layer_1
 62
1
100
AcDbPolyline
 90
3
 70
1
 10
284.834835
 20
685.846069
 30
0.0
 10
284.834835
 20
728.982604
 30
0.0
 10
241.698212
 20
728.982604
 30
0.0
  0
LWPOLYLINE
  5
11d
100
AcDbEntity
  8
Layer_1
 62
1
100
AcDbPolyline
 90
3
 70
1
 10
235.676631
 20
722.984703
 30
0.0
 10
235.676631
 20
679.848168
 30
0.0
 10
278.813276
 20
679.848168
 30
0.0
  0
LWPOLYLINE
  5
11e
100
AcDbEntity
  8
Layer_1
 62
1
100
AcDbPolyline
 90
3
 70
1
 10
361.741011
 20
722.840496
 30
0.0
 10
361.741011
 20
679.703958
 30
0.0
 10
318.604479
 20
679.703958
 30
0.0
  0
LWPOLYLINE
  5
11f
100
AcDbEntity
  8
Layer_1
 62
1
100
AcDbPolyline
 90
3
 70
1
 10
312.582898
 20
685.725514
 30
0.0
 10
312.582898
 20
728.862055
 30
0.0
 10
355.719458
 20
728.862055
 30
0.0
  0
LWPOLYLINE
  5
120
100
AcDbEntity
  8
Layer_1
 62
1
100
AcDbPolyline
 90
3
 70
1
 10
431.762485
 20
685.711721
 30
0.0
 10
431.762485
 20
728.848261
 30
0.0
 10
388.625953
 20
728.848261
 30
0.0
  0
LWPOLYLINE
  5
121
100
AcDbEntity
  8
Layer_1
 62
1
100
AcDbPolyline
 90
3
 70
1
 10
382.604400
 20
722.850358
 30
0.0
 10
382.604400
 20
679.713820
 30
0.0
 10
425.740932
 20
679.713820
 30
0.0
  0
LWPOLYLINE
  5
122
100
AcDbEntity
  8
Layer_1
 62
1
100
AcDbPolyline
 90
3
 70
1
 10
503.387461
 20
722.850358
 30
0.0
 10
503.387461
 20
679.713820
 30
0.0
 10
460.250957
 20
679.713820
 30
0.0
  0
LWPOLYLINE
  5
123
100
AcDbEntity
  8
Layer_1
 62
1
100
AcDbPolyline
 90
3
 70
1
 10
454.229405
 20
685.711721
 30
0.0
 10
454.229405
 20
728.848261
 30
0.0
 10
497.365909
 20
728.848261
 30
0.0
  0
LWPOLYLINE
  5
124
100
AcDbEntity
  8
Layer_1
 62
1
100
AcDbPolyline
 90
3
 70
1
 10
572.387811
 20
685.711721
 30
0.0
 10
572.387811
 20
728.848261
 30
0.0
 10
529.251194
 20
728.848261
 30
0.0
  0
LWPOLYLINE
  5
125
100
AcDbEntity
  8
Layer_1
 62
1
100
AcDbPolyline
 90
3
 70
1
 10
523.229613
 20
722.850358
 30
0.0
 10
523.229613
 20
679.713820
 30
0.0
 10
566.366258
 20
679.713820
 30
0.0
  0
LWPOLYLINE
  5
126
100
AcDbEntity
  8
Layer_1
 62
1
100
AcDbPolyline
 90
3
 70
1
 10
75.688024
 20
637.474844
 30
0.0
 10
75.688024
 20
594.338309
 30
0.0
 10
32.551492
 20
594.338309
 30
0.0
  0
LWPOLYLINE
  5
127
100
AcDbEntity
  8
Layer_1
 62
1
100
AcDbPolyline
 90
3
 70
1
 10
26.529934
 20
600.359865
 30
0.0
 10
26.529934
 20
643.496400
 30
0.0
 10
69.666469
 20
643.496400
 30
0.0
  0
LWPOLYLINE
  5
128
100
AcDbEntity
  8
Layer_1
 62
1
100
AcDbPolyline
 90
3
 70
1
 10
144.209497
 20
600.346072
 30
0.0
 10
144.209497
 20
643.482607
 30
0.0
 10
101.072965
 20
643.482607
 30
0.0
  0
LWPOLYLINE
  5
129
100
AcDbEntity
  8
Layer_1
 62
1
100
AcDbPolyline
 90
3
 70
1
 10
95.051407
 20
637.484706
 30
0.0
 10
95.051407
 20
594.348171
 30
0.0
 10
138.187942
 20
594.348171
 30
0.0
  0
LWPOLYLINE
  5
12a
100
AcDbEntity
  8
Layer_1
 62
1
100
AcDbPolyline
 90
3
 70
1
 10
215.834479
 20
637.484706
 30
0.0
 10
215.834479
 20
594.348171
 30
0.0
 10
172.697967
 20
594.348171
 30
0.0
  0
LWPOLYLINE
  5
12b
100
AcDbEntity
  8
Layer_1
 62
1
100
AcDbPolyline
 90
3
 70
1
 10
166.676409
 20
600.346072
 30
0.0
 10
166.676409
 20
643.482607
 30
0.0
 10
209.812927
 20
643.482607
 30
0.0
  0
LWPOLYLINE
  5
12c
100
AcDbEntity
  8
Layer_1
 62
1
100
AcDbPolyline
 90
3
 70
1
 10
284.834835
 20
600.346072
 30
0.0
 10
284.834835
 20
643.482607
 30
0.0
 10
241.698212
 20
643.482607
 30
0.0
  0
LWPOLYLINE
  5
12d
100
AcDbEntity
  8
Layer_1
 62
1
100
AcDbPolyline
 90
3
 70
1
 10
235.676631
 20
637.484706
 30
0.0
 10
235.676631
 20
594.348171
 30
0.0
 10
278.813276
 20
594.348171
 30
0.0
  0
LWPOLYLINE
  5
12e
100
AcDbEntity
  8
Layer_1
 62
1
100
AcDbPolyline
 90
3
 70
1
 10
361.741011
 20
637.340499
 30
0.0
 10
361.741011
 20
594.203961
 30
0.0
 10
318.604479
 20
594.203961
 30
0.0
  0
LWPOLYLINE
  5
12f
100
AcDbEntity
  8
Layer_1
 62
1
100
AcDbPolyline
 90
3
 70
1
 10
312.582898
 20
600.225517
 30
0.0
 10
312.582898
 20
643.362058
 30
0.0
 10
355.719458
 20
643.362058
 30
0.0
  0
LWPOLYLINE
  5
130
100
AcDbEntity
  8
Layer_1
 62
1
100
AcDbPolyline
 90
3
 70
1
 10
431.762485
 20
600.211723
 30
0.0
 10
431.762485
 20
643.348264
 30
0.0
 10
388.625953
 20
643.348264
 30
0.0
  0
LWPOLYLINE
  5
131
100
AcDbEntity
  8
Layer_1
 62
1
100
AcDbPolyline
 90
3
 70
1
 10
382.604400
 20
637.350361
 30
0.0
 10
382.604400
 20
594.213823
 30
0.0
 10
425.740932
 20
594.213823
 30
0.0
  0
LWPOLYLINE
  5
132
100
AcDbEntity
  8
Layer_1
 62
1
100
AcDbPolyline
 90
3
 70
1
 10
503.387461
 20
637.350361
 30
0.0
 10
503.387461
 20
594.213823
 30
0.0
 10
460.250957
 20
594.213823
 30
0.0
  0
LWPOLYLINE
  5
133
100
AcDbEntity
  8
Layer_1
 62
1
100
AcDbPolyline
 90
3
 70
1
 10
454.229405
 20
600.211723
 30
0.0
 10
454.229405
 20
643.348264
 30
0.0
 10
497.365909
 20
643.348264
 30
0.0
  0
LWPOLYLINE
  5
134
100
AcDbEntity
  8
Layer_1
 62
1
100
AcDbPolyline
 90
3
 70
1
 10
572.387811
 20
600.211723
 30
0.0
 10
572.387811
 20
643.348264
 30
0.0
 10
529.251194
 20
643.348264
 30
0.0
  0
LWPOLYLINE
  5
135
100
AcDbEntity
  8
Layer_1
 62
1
100
AcDbPolyline
 90
3
 70
1
 10
523.229613
 20
637.350361
 30
0.0
 10
523.229613
 20
594.213823
 30
0.0
 10
566.366258
 20
594.213823
 30
0.0
  0
LWPOLYLINE
  5
136
100
AcDbEntity
  8
Layer_1
 62
1
100
AcDbPolyline
 90
3
 70
1
 10
75.688024
 20
550.474866
 30
0.0
 10
75.688024
 20
507.338334
 30
0.0
 10
32.551492
 20
507.338334
 30
0.0
  0
LWPOLYLINE
  5
137
100
AcDbEntity
  8
Layer_1
 62
1
100
AcDbPolyline
 90
3
 70
1
 10
26.529934
 20
513.359887
 30
0.0
 10
26.529934
 20
556.496419
 30
0.0
 10
69.666469
 20
556.496419
 30
0.0
  0
LWPOLYLINE
  5
138
100
AcDbEntity
  8
Layer_1
 62
1
100
AcDbPolyline
 90
3
 70
1
 10
144.209497
 20
513.346082
 30
0.0
 10
144.209497
 20
556.482614
 30
0.0
 10
101.072965
 20
556.482614
 30
0.0
  0
LWPOLYLINE
  5
139
100
AcDbEntity
  8
Layer_1
 62
1
100
AcDbPolyline
 90
3
 70
1
 10
95.051407
 20
550.484731
 30
0.0
 10
95.051407
 20
507.348198
 30
0.0
 10
138.187942
 20
507.348198
 30
0.0
  0
LWPOLYLINE
  5
13a
100
AcDbEntity
  8
Layer_1
 62
1
100
AcDbPolyline
 90
3
 70
1
 10
215.834479
 20
550.484731
 30
0.0
 10
215.834479
 20
507.348198
 30
0.0
 10
172.697967
 20
507.348198
 30
0.0
  0
LWPOLYLINE
  5
13b
100
AcDbEntity
  8
Layer_1
 62
1
100
AcDbPolyline
 90
3
 70
1
 10
166.676409
 20
513.346082
 30
0.0
 10
166.676409
 20
556.482614
 30
0.0
 10
209.812927
 20
556.482614
 30
0.0
  0
LWPOLYLINE
  5
13c
100
AcDbEntity
  8
Layer_1
 62
1
100
AcDbPolyline
 90
3
 70
1
 10
284.834835
 20
513.346082
 30
0.0
 10
284.834835
 20
556.482614
 30
0.0
 10
241.698212
 20
556.482614
 30
0.0
  0
LWPOLYLINE
  5
13d
100
AcDbEntity
  8
Layer_1
 62
1
100
AcDbPolyline
 90
3
 70
1
 10
235.676631
 20
550.484731
 30
0.0
 10
235.676631
 20
507.348198
 30
0.0
 10
278.813276
 20
507.348198
 30
0.0
  0
LWPOLYLINE
  5
13e
100
AcDbEntity
  8
Layer_1
 62
1
100
AcDbPolyline
 90
3
 70
1
 10
361.741011
 20
550.340504
 30
0.0
 10
361.741011
 20
507.203972
 30
0.0
 10
318.604479
 20
507.203972
 30
0.0
  0
LWPOLYLINE
  5
13f
100
AcDbEntity
  8
Layer_1
 62
1
100
AcDbPolyline
 90
3
 70
1
 10
312.582898
 20
513.225524
 30
0.0
 10
312.582898
 20
556.362085
 30
0.0
 10
355.719458
 20
556.362085
 30
0.0
  0
LWPOLYLINE
  5
140
100
AcDbEntity
  8
Layer_1
 62
1
100
AcDbPolyline
 90
3
 70
1
 10
431.762485
 20
513.211748
 30
0.0
 10
431.762485
 20
556.348280
 30
0.0
 10
388.625953
 20
556.348280
 30
0.0
  0
LWPOLYLINE
  5
141
100
AcDbEntity
  8
Layer_1
 62
1
100
AcDbPolyline
 90
3
 70
1
 10
382.604400
 20
550.350369
 30
0.0
 10
382.604400
 20
507.213836
 30
0.0
 10
425.740932
 20
507.213836
 30
0.0
  0
LWPOLYLINE
  5
142
100
AcDbEntity
  8
Layer_1
 62
1
100
AcDbPolyline
 90
3
 70
1
 10
503.387461
 20
550.350369
 30
0.0
 10
503.387461
 20
507.213836
 30
0.0
 10
460.250957
 20
507.213836
 30
0.0
  0
LWPOLYLINE
  5
143
100
AcDbEntity
  8
Layer_1
 62
1
100
AcDbPolyline
 90
3
 70
1
 10
454.229405
 20
513.211748
 30
0.0
 10
454.229405
 20
556.348280
 30
0.0
 10
497.365909
 20
556.348280
 30
0.0
  0
LWPOLYLINE
  5
144
100
AcDbEntity
  8
Layer_1
 62
1
100
AcDbPolyline
 90
3
 70
1
 10
572.387811
 20
513.211748
 30
0.0
 10
572.387811
 20
556.348280
 30
0.0
 10
529.251194
 20
556.348280
 30
0.0
  0
LWPOLYLINE
  5
145
100
AcDbEntity
  8
Layer_1
 62
1
100
AcDbPolyline
 90
3
 70
1
 10
523.229613
 20
550.350369
 30
0.0
 10
523.229613
 20
507.213836
 30
0.0
 10
566.366258
 20
507.213836
 30
0.0
  0
LWPOLYLINE
  5
146
100
AcDbEntity
  8
Layer_1
 62
1
100
AcDbPolyline
 90
3
 70
1
 10
75.688024
 20
463.192072
 30
0.0
 10
75.688024
 20
420.055512
 30
0.0
 10
32.551492
 20
420.055512
 30
0.0
  0
LWPOLYLINE
  5
147
100
AcDbEntity
  8
Layer_1
 62
1
100
AcDbPolyline
 90
3
 70
1
 10
26.529934
 20
426.077093
 30
0.0
 10
26.529934
 20
469.213654
 30
0.0
 10
69.666469
 20
469.213654
 30
0.0
  0
LWPOLYLINE
  5
148
100
AcDbEntity
  8
Layer_1
 62
1
100
AcDbPolyline
 90
3
 70
1
 10
144.209497
 20
426.063288
 30
0.0
 10
144.209497
 20
469.199849
 30
0.0
 10
101.072965
 20
469.199849
 30
0.0
  0
LWPOLYLINE
  5
149
100
AcDbEntity
  8
Layer_1
 62
1
100
AcDbPolyline
 90
3
 70
1
 10
95.051407
 20
463.201937
 30
0.0
 10
95.051407
 20
420.065376
 30
0.0
 10
138.187942
 20
420.065376
 30
0.0
  0
LWPOLYLINE
  5
14a
100
AcDbEntity
  8
Layer_1
 62
1
100
AcDbPolyline
 90
3
 70
1
 10
215.834479
 20
463.201937
 30
0.0
 10
215.834479
 20
420.065376
 30
0.0
 10
172.697967
 20
420.065376
 30
0.0
  0
LWPOLYLINE
  5
14b
100
AcDbEntity
  8
Layer_1
 62
1
100
AcDbPolyline
 90
3
 70
1
 10
166.676409
 20
426.063288
 30
0.0
 10
166.676409
 20
469.199849
 30
0.0
 10
209.812927
 20
469.199849
 30
0.0
  0
LWPOLYLINE
  5
14c
100
AcDbEntity
  8
Layer_1
 62
1
100
AcDbPolyline
 90
3
 70
1
 10
284.834835
 20
426.063288
 30
0.0
 10
284.834835
 20
469.199849
 30
0.0
 10
241.698212
 20
469.199849
 30
0.0
  0
LWPOLYLINE
  5
14d
100
AcDbEntity
  8
Layer_1
 62
1
100
AcDbPolyline
 90
3
 70
1
 10
235.676631
 20
463.201937
 30
0.0
 10
235.676631
 20
420.065376
 30
0.0
 10
278.813276
 20
420.065376
 30
0.0
  0
LWPOLYLINE
  5
14e
100
AcDbEntity
  8
Layer_1
 62
1
100
AcDbPolyline
 90
100
 70
1
 10
11.692912
 20
303.047093
 30
0.0
 10
37.724409
 20
303.047093
 30
0.0
 10
37.724409
 20
309.850243
 30
0.0
 10
61.818894
 20
309.850243
 30
0.0
 10
61.818894
 20
303.047093
 30
0.0
 10
87.708660
 20
303.047093
 30
0.0
 10
87.708660
 20
309.850243
 30
0.0
 10
111.803145
 20
309.850243
 30
0.0
 10
111.803145
 20
303.047093
 30
0.0
 10
137.692911
 20
303.047093
 30
0.0
 10
137.692911
 20
309.850243
 30
0.0
 10
161.787396
 20
309.850243
 30
0.0
 10
161.787396
 20
303.047093
 30
0.0
 10
187.677162
 20
303.047093
 30
0.0
 10
187.677162
 20
309.850243
 30
0.0
 10
211.771650
 20
309.850243
 30
0.0
 10
211.771650
 20
303.047093
 30
0.0
 10
237.661413
 20
303.047093
 30
0.0
 10
237.661413
 20
309.850243
 30
0.0
 10
261.755901
 20
309.850243
 30
0.0
 10
261.755901
 20
303.047093
 30
0.0
 10
287.645641
 20
303.047093
 30
0.0
 10
287.645641
 20
309.850243
 30
0.0
 10
311.740129
 20
309.850243
 30
0.0
 10
311.740129
 20
303.047093
 30
0.0
 10
337.629912
 20
303.047093
 30
0.0
 10
337.629912
 20
309.850243
 30
0.0
 10
361.724400
 20
309.850243
 30
0.0
 10
361.724400
 20
303.047093
 30
0.0
 10
387.614154
 20
303.047093
 30
0.0
 10
387.614154
 20
309.850243
 30
0.0
 10
411.708643
 20
309.850243
 30
0.0
 10
411.708643
 20
303.047093
 30
0.0
 10
437.598397
 20
303.047093
 30
0.0
 10
437.598397
 20
309.850243
 30
0.0
 10
461.692885
 20
309.850243
 30
0.0
 10
461.692885
 20
303.047093
 30
0.0
 10
487.582668
 20
303.047093
 30
0.0
 10
487.582668
 20
309.850243
 30
0.0
 10
511.677156
 20
309.850243
 30
0.0
 10
511.677156
 20
303.047093
 30
0.0
 10
537.566910
 20
303.047093
 30
0.0
 10
537.566910
 20
309.850243
 30
0.0
 10
561.661398
 20
309.850243
 30
0.0
 10
561.661398
 20
303.047093
 30
0.0
 10
587.692885
 20
303.047093
 30
0.0
 10
587.692885
 20
285.613994
 30
0.0
 10
580.889735
 20
285.613994
 30
0.0
 10
580.889735
 20
262.086435
 30
0.0
 10
587.692885
 20
262.086435
 30
0.0
 10
587.692885
 20
244.653364
 30
0.0
 10
561.661398
 20
244.653364
 30
0.0
 10
561.661398
 20
237.850243
 30
0.0
 10
537.566910
 20
237.850243
 30
0.0
 10
537.566910
 20
244.653364
 30
0.0
 10
511.677156
 20
244.653364
 30
0.0
 10
511.677156
 20
237.850243
 30
0.0
 10
487.582668
 20
237.850243
 30
0.0
 10
487.582668
 20
244.653364
 30
0.0
 10
461.692885
 20
244.653364
 30
0.0
 10
461.692885
 20
237.850243
 30
0.0
 10
437.598397
 20
237.850243
 30
0.0
 10
437.598397
 20
244.653364
 30
0.0
 10
411.708643
 20
244.653364
 30
0.0
 10
411.708643
 20
237.850243
 30
0.0
 10
387.614154
 20
237.850243
 30
0.0
 10
387.614154
 20
244.653364
 30
0.0
 10
361.724400
 20
244.653364
 30
0.0
 10
361.724400
 20
237.850243
 30
0.0
 10
337.629912
 20
237.850243
 30
0.0
 10
337.629912
 20
244.653364
 30
0.0
 10
311.740129
 20
244.653364
 30
0.0
 10
311.740129
 20
237.850243
 30
0.0
 10
287.645641
 20
237.850243
 30
0.0
 10
287.645641
 20
244.653364
 30
0.0
 10
261.755901
 20
244.653364
 30
0.0
 10
261.755901
 20
237.850243
 30
0.0
 10
237.661413
 20
237.850243
 30
0.0
 10
237.661413
 20
244.653364
 30
0.0
 10
211.771650
 20
244.653364
 30
0.0
 10
211.771650
 20
237.850243
 30
0.0
 10
187.677162
 20
237.850243
 30
0.0
 10
187.677162
 20
244.653364
 30
0.0
 10
161.787396
 20
244.653364
 30
0.0
 10
161.787396
 20
237.850243
 30
0.0
 10
137.692911
 20
237.850243
 30
0.0
 10
137.692911
 20
244.653364
 30
0.0
 10
111.803145
 20
244.653364
 30
0.0
 10
111.803145
 20
237.850243
 30
0.0
 10
87.708660
 20
237.850243
 30
0.0
 10
87.708660
 20
244.653364
 30
0.0
 10
61.818894
 20
244.653364
 30
0.0
 10
61.818894
 20
237.850243
 30
0.0
 10
37.724409
 20
237.850243
 30
0.0
 10
37.724409
 20
244.653364
 30
0.0
 10
11.692912
 20
244.653364
 30
0.0
 10
11.692912
 20
262.086435
 30
0.0
 10
18.496062
 20
262.086435
 30
0.0
 10
18.496062
 20
285.613994
 30
0.0
 10
11.692912
 20
285.613994
 30
0.0
  0
LWPOLYLINE
  5
14f
100
AcDbEntity
  8
Layer_1
 62
1
100
AcDbPolyline
 90
100
 70
1
 10
11.692912
 20
395.196746
 30
0.0
 10
38.007873
 20
395.196746
 30
0.0
 10
38.007873
 20
388.393597
 30
0.0
 10
61.535429
 20
388.393597
 30
0.0
 10
61.535429
 20
395.196746
 30
0.0
 10
87.992124
 20
395.196746
 30
0.0
 10
87.992124
 20
388.393597
 30
0.0
 10
111.519680
 20
388.393597
 30
0.0
 10
111.519680
 20
395.196746
 30
0.0
 10
137.976375
 20
395.196746
 30
0.0
 10
137.976375
 20
388.393597
 30
0.0
 10
161.503931
 20
388.393597
 30
0.0
 10
161.503931
 20
395.196746
 30
0.0
 10
187.960626
 20
395.196746
 30
0.0
 10
187.960626
 20
388.393597
 30
0.0
 10
211.488185
 20
388.393597
 30
0.0
 10
211.488185
 20
395.196746
 30
0.0
 10
237.944877
 20
395.196746
 30
0.0
 10
237.944877
 20
388.393597
 30
0.0
 10
261.472436
 20
388.393597
 30
0.0
 10
261.472436
 20
395.196746
 30
0.0
 10
287.929106
 20
395.196746
 30
0.0
 10
287.929106
 20
388.393597
 30
0.0
 10
311.456665
 20
388.393597
 30
0.0
 10
311.456665
 20
395.196746
 30
0.0
 10
337.913376
 20
395.196746
 30
0.0
 10
337.913376
 20
388.393597
 30
0.0
 10
361.440935
 20
388.393597
 30
0.0
 10
361.440935
 20
395.196746
 30
0.0
 10
387.897619
 20
395.196746
 30
0.0
 10
387.897619
 20
388.393597
 30
0.0
 10
411.425178
 20
388.393597
 30
0.0
 10
411.425178
 20
395.196746
 30
0.0
 10
437.881861
 20
395.196746
 30
0.0
 10
437.881861
 20
388.393597
 30
0.0
 10
461.409420
 20
388.393597
 30
0.0
 10
461.409420
 20
395.196746
 30
0.0
 10
487.866132
 20
395.196746
 30
0.0
 10
487.866132
 20
388.393597
 30
0.0
 10
511.393691
 20
388.393597
 30
0.0
 10
511.393691
 20
395.196746
 30
0.0
 10
537.850375
 20
395.196746
 30
0.0
 10
537.850375
 20
388.393597
 30
0.0
 10
561.377934
 20
388.393597
 30
0.0
 10
561.377934
 20
395.196746
 30
0.0
 10
587.692885
 20
395.196746
 30
0.0
 10
587.692885
 20
370.960526
 30
0.0
 10
580.889735
 20
370.960526
 30
0.0
 10
580.889735
 20
347.432939
 30
0.0
 10
587.692885
 20
347.432939
 30
0.0
 10
587.692885
 20
323.196718
 30
0.0
 10
561.377934
 20
323.196718
 30
0.0
 10
561.377934
 20
329.999868
 30
0.0
 10
537.850375
 20
329.999868
 30
0.0
 10
537.850375
 20
323.196718
 30
0.0
 10
511.393691
 20
323.196718
 30
0.0
 10
511.393691
 20
329.999868
 30
0.0
 10
487.866132
 20
329.999868
 30
0.0
 10
487.866132
 20
323.196718
 30
0.0
 10
461.409420
 20
323.196718
 30
0.0
 10
461.409420
 20
329.999868
 30
0.0
 10
437.881861
 20
329.999868
 30
0.0
 10
437.881861
 20
323.196718
 30
0.0
 10
411.425178
 20
323.196718
 30
0.0
 10
411.425178
 20
329.999868
 30
0.0
 10
387.897619
 20
329.999868
 30
0.0
 10
387.897619
 20
323.196718
 30
0.0
 10
361.440935
 20
323.196718
 30
0.0
 10
361.440935
 20
329.999868
 30
0.0
 10
337.913376
 20
329.999868
 30
0.0
 10
337.913376
 20
323.196718
 30
0.0
 10
311.456665
 20
323.196718
 30
0.0
 10
311.456665
 20
329.999868
 30
0.0
 10
287.929106
 20
329.999868
 30
0.0
 10
287.929106
 20
323.196718
 30
0.0
 10
261.472436
 20
323.196718
 30
0.0
 10
261.472436
 20
329.999868
 30
0.0
 10
237.944877
 20
329.999868
 30
0.0
 10
237.944877
 20
323.196718
 30
0.0
 10
211.488185
 20
323.196718
 30
0.0
 10
211.488185
 20
329.999868
 30
0.0
 10
187.960626
 20
329.999868
 30
0.0
 10
187.960626
 20
323.196718
 30
0.0
 10
161.503931
 20
323.196718
 30
0.0
 10
161.503931
 20
329.999868
 30
0.0
 10
137.976375
 20
329.999868
 30
0.0
 10
137.976375
 20
323.196718
 30
0.0
 10
111.519680
 20
323.196718
 30
0.0
 10
111.519680
 20
329.999868
 30
0.0
 10
87.992124
 20
329.999868
 30
0.0
 10
87.992124
 20
323.196718
 30
0.0
 10
61.535429
 20
323.196718
 30
0.0
 10
61.535429
 20
329.999868
 30
0.0
 10
38.007873
 20
329.999868
 30
0.0
 10
38.007873
 20
323.196718
 30
0.0
 10
11.692912
 20
323.196718
 30
0.0
 10
11.692912
 20
347.432939
 30
0.0
 10
18.496062
 20
347.432939
 30
0.0
 10
18.496062
 20
370.960526
 30
0.0
 10
11.692912
 20
370.960526
 30
0.0
  0
LWPOLYLINE
  5
150
100
AcDbEntity
  8
Layer_1
 62
1
100
AcDbPolyline
 90
100
 70
1
 10
11.976378
 20
222.850063
 30
0.0
 10
38.291338
 20
222.850063
 30
0.0
 10
38.291338
 20
216.046913
 30
0.0
 10
61.818897
 20
216.046913
 30
0.0
 10
61.818897
 20
222.850063
 30
0.0
 10
88.275589
 20
222.850063
 30
0.0
 10
88.275589
 20
216.046913
 30
0.0
 10
111.803148
 20
216.046913
 30
0.0
 10
111.803148
 20
222.850063
 30
0.0
 10
138.259840
 20
222.850063
 30
0.0
 10
138.259840
 20
216.046913
 30
0.0
 10
161.787399
 20
216.046913
 30
0.0
 10
161.787399
 20
222.850063
 30
0.0
 10
188.244085
 20
222.850063
 30
0.0
 10
188.244085
 20
216.046913
 30
0.0
 10
211.771644
 20
216.046913
 30
0.0
 10
211.771644
 20
222.850063
 30
0.0
 10
238.228356
 20
222.850063
 30
0.0
 10
238.228356
 20
216.046913
 30
0.0
 10
261.755887
 20
216.046913
 30
0.0
 10
261.755887
 20
222.850063
 30
0.0
 10
288.212598
 20
222.850063
 30
0.0
 10
288.212598
 20
216.046913
 30
0.0
 10
311.740157
 20
216.046913
 30
0.0
 10
311.740157
 20
222.850063
 30
0.0
 10
338.196841
 20
222.850063
 30
0.0
 10
338.196841
 20
216.046913
 30
0.0
 10
361.724400
 20
216.046913
 30
0.0
 10
361.724400
 20
222.850063
 30
0.0
 10
388.181083
 20
222.850063
 30
0.0
 10
388.181083
 20
216.046913
 30
0.0
 10
411.708643
 20
216.046913
 30
0.0
 10
411.708643
 20
222.850063
 30
0.0
 10
438.165354
 20
222.850063
 30
0.0
 10
438.165354
 20
216.046913
 30
0.0
 10
461.692913
 20
216.046913
 30
0.0
 10
461.692913
 20
222.850063
 30
0.0
 10
488.149597
 20
222.850063
 30
0.0
 10
488.149597
 20
216.046913
 30
0.0
 10
511.677156
 20
216.046913
 30
0.0
 10
511.677156
 20
222.850063
 30
0.0
 10
538.133839
 20
222.850063
 30
0.0
 10
538.133839
 20
216.046913
 30
0.0
 10
561.661398
 20
216.046913
 30
0.0
 10
561.661398
 20
222.850063
 30
0.0
 10
587.976378
 20
222.850063
 30
0.0
 10
587.976378
 20
198.613843
 30
0.0
 10
581.173228
 20
198.613843
 30
0.0
 10
581.173228
 20
175.086283
 30
0.0
 10
587.976378
 20
175.086283
 30
0.0
 10
587.976378
 20
150.850063
 30
0.0
 10
561.661398
 20
150.850063
 30
0.0
 10
561.661398
 20
157.653213
 30
0.0
 10
538.133839
 20
157.653213
 30
0.0
 10
538.133839
 20
150.850063
 30
0.0
 10
511.677156
 20
150.850063
 30
0.0
 10
511.677156
 20
157.653213
 30
0.0
 10
488.149597
 20
157.653213
 30
0.0
 10
488.149597
 20
150.850063
 30
0.0
 10
461.692913
 20
150.850063
 30
0.0
 10
461.692913
 20
157.653213
 30
0.0
 10
438.165354
 20
157.653213
 30
0.0
 10
438.165354
 20
150.850063
 30
0.0
 10
411.708643
 20
150.850063
 30
0.0
 10
411.708643
 20
157.653213
 30
0.0
 10
388.181083
 20
157.653213
 30
0.0
 10
388.181083
 20
150.850063
 30
0.0
 10
361.724400
 20
150.850063
 30
0.0
 10
361.724400
 20
157.653213
 30
0.0
 10
338.196841
 20
157.653213
 30
0.0
 10
338.196841
 20
150.850063
 30
0.0
 10
311.740157
 20
150.850063
 30
0.0
 10
311.740157
 20
157.653213
 30
0.0
 10
288.212598
 20
157.653213
 30
0.0
 10
288.212598
 20
150.850063
 30
0.0
 10
261.755887
 20
150.850063
 30
0.0
 10
261.755887
 20
157.653213
 30
0.0
 10
238.228356
 20
157.653213
 30
0.0
 10
238.228356
 20
150.850063
 30
0.0
 10
211.771644
 20
150.850063
 30
0.0
 10
211.771644
 20
157.653213
 30
0.0
 10
188.244085
 20
157.653213
 30
0.0
 10
188.244085
 20
150.850063
 30
0.0
 10
161.787399
 20
150.850063
 30
0.0
 10
161.787399
 20
157.653213
 30
0.0
 10
138.259840
 20
157.653213
 30
0.0
 10
138.259840
 20
150.850063
 30
0.0
 10
111.803148
 20
150.850063
 30
0.0
 10
111.803148
 20
157.653213
 30
0.0
 10
88.275589
 20
157.653213
 30
0.0
 10
88.275589
 20
150.850063
 30
0.0
 10
61.818897
 20
150.850063
 30
0.0
 10
61.818897
 20
157.653213
 30
0.0
 10
38.291338
 20
157.653213
 30
0.0
 10
38.291338
 20
150.850063
 30
0.0
 10
11.976378
 20
150.850063
 30
0.0
 10
11.976378
 20
175.086283
 30
0.0
 10
18.779528
 20
175.086283
 30
0.0
 10
18.779528
 20
198.613843
 30
0.0
 10
11.976378
 20
198.613843
 30
0.0
  0
LWPOLYLINE
  5
151
100
AcDbEntity
  8
Layer_1
 62
1
100
AcDbPolyline
 90
100
 70
1
 10
11.692912
 20
473.740101
 30
0.0
 10
37.724409
 20
473.740101
 30
0.0
 10
37.724409
 20
480.543250
 30
0.0
 10
61.818894
 20
480.543250
 30
0.0
 10
61.818894
 20
473.740101
 30
0.0
 10
87.708660
 20
473.740101
 30
0.0
 10
87.708660
 20
480.543250
 30
0.0
 10
111.803145
 20
480.543250
 30
0.0
 10
111.803145
 20
473.740101
 30
0.0
 10
137.692911
 20
473.740101
 30
0.0
 10
137.692911
 20
480.543250
 30
0.0
 10
161.787396
 20
480.543250
 30
0.0
 10
161.787396
 20
473.740101
 30
0.0
 10
187.677162
 20
473.740101
 30
0.0
 10
187.677162
 20
480.543250
 30
0.0
 10
211.771650
 20
480.543250
 30
0.0
 10
211.771650
 20
473.740101
 30
0.0
 10
237.661413
 20
473.740101
 30
0.0
 10
237.661413
 20
480.543250
 30
0.0
 10
261.755901
 20
480.543250
 30
0.0
 10
261.755901
 20
473.740101
 30
0.0
 10
287.645641
 20
473.740101
 30
0.0
 10
287.645641
 20
480.543250
 30
0.0
 10
311.740129
 20
480.543250
 30
0.0
 10
311.740129
 20
473.740101
 30
0.0
 10
337.629912
 20
473.740101
 30
0.0
 10
337.629912
 20
480.543250
 30
0.0
 10
361.724400
 20
480.543250
 30
0.0
 10
361.724400
 20
473.740101
 30
0.0
 10
387.614154
 20
473.740101
 30
0.0
 10
387.614154
 20
480.543250
 30
0.0
 10
411.708643
 20
480.543250
 30
0.0
 10
411.708643
 20
473.740101
 30
0.0
 10
437.598397
 20
473.740101
 30
0.0
 10
437.598397
 20
480.543250
 30
0.0
 10
461.692885
 20
480.543250
 30
0.0
 10
461.692885
 20
473.740101
 30
0.0
 10
487.582668
 20
473.740101
 30
0.0
 10
487.582668
 20
480.543250
 30
0.0
 10
511.677156
 20
480.543250
 30
0.0
 10
511.677156
 20
473.740101
 30
0.0
 10
537.566910
 20
473.740101
 30
0.0
 10
537.566910
 20
480.543250
 30
0.0
 10
561.661398
 20
480.543250
 30
0.0
 10
561.661398
 20
473.740101
 30
0.0
 10
587.692885
 20
473.740101
 30
0.0
 10
587.692885
 20
456.307030
 30
0.0
 10
580.889735
 20
456.307030
 30
0.0
 10
580.889735
 20
432.779443
 30
0.0
 10
587.692885
 20
432.779443
 30
0.0
 10
587.692885
 20
415.346372
 30
0.0
 10
561.661398
 20
415.346372
 30
0.0
 10
561.661398
 20
408.543222
 30
0.0
 10
537.566910
 20
408.543222
 30
0.0
 10
537.566910
 20
415.346372
 30
0.0
 10
511.677156
 20
415.346372
 30
0.0
 10
511.677156
 20
408.543222
 30
0.0
 10
487.582668
 20
408.543222
 30
0.0
 10
487.582668
 20
415.346372
 30
0.0
 10
461.692885
 20
415.346372
 30
0.0
 10
461.692885
 20
408.543222
 30
0.0
 10
437.598397
 20
408.543222
 30
0.0
 10
437.598397
 20
415.346372
 30
0.0
 10
411.708643
 20
415.346372
 30
0.0
 10
411.708643
 20
408.543222
 30
0.0
 10
387.614154
 20
408.543222
 30
0.0
 10
387.614154
 20
415.346372
 30
0.0
 10
361.724400
 20
415.346372
 30
0.0
 10
361.724400
 20
408.543222
 30
0.0
 10
337.629912
 20
408.543222
 30
0.0
 10
337.629912
 20
415.346372
 30
0.0
 10
311.740129
 20
415.346372
 30
0.0
 10
311.740129
 20
408.543222
 30
0.0
 10
287.645641
 20
408.543222
 30
0.0
 10
287.645641
 20
415.346372
 30
0.0
 10
261.755901
 20
415.346372
 30
0.0
 10
261.755901
 20
408.543222
 30
0.0
 10
237.661413
 20
408.543222
 30
0.0
 10
237.661413
 20
415.346372
 30
0.0
 10
211.771650
 20
415.346372
 30
0.0
 10
211.771650
 20
408.543222
 30
0.0
 10
187.677162
 20
408.543222
 30
0.0
 10
187.677162
 20
415.346372
 30
0.0
 10
161.787396
 20
415.346372
 30
0.0
 10
161.787396
 20
408.543222
 30
0.0
 10
137.692911
 20
408.543222
 30
0.0
 10
137.692911
 20
415.346372
 30
0.0
 10
111.803145
 20
415.346372
 30
0.0
 10
111.803145
 20
408.543222
 30
0.0
 10
87.708660
 20
408.543222
 30
0.0
 10
87.708660
 20
415.346372
 30
0.0
 10
61.818894
 20
415.346372
 30
0.0
 10
61.818894
 20
408.543222
 30
0.0
 10
37.724409
 20
408.543222
 30
0.0
 10
37.724409
 20
415.346372
 30
0.0
 10
11.692912
 20
415.346372
 30
0.0
 10
11.692912
 20
432.779443
 30
0.0
 10
18.496062
 20
432.779443
 30
0.0
 10
18.496062
 20
456.307030
 30
0.0
 10
11.692912
 20
456.307030
 30
0.0
  0
LWPOLYLINE
  5
152
100
AcDbEntity
  8
Layer_1
 62
1
100
AcDbPolyline
 90
3
 70
1
 10
361.741011
 20
463.057739
 30
0.0
 10
361.741011
 20
419.921178
 30
0.0
 10
318.604479
 20
419.921178
 30
0.0
  0
LWPOLYLINE
  5
153
100
AcDbEntity
  8
Layer_1
 62
1
100
AcDbPolyline
 90
3
 70
1
 10
312.582898
 20
425.942731
 30
0.0
 10
312.582898
 20
469.079320
 30
0.0
 10
355.719458
 20
469.079320
 30
0.0
  0
LWPOLYLINE
  5
154
100
AcDbEntity
  8
Layer_1
 62
1
100
AcDbPolyline
 90
3
 70
1
 10
431.762485
 20
425.928954
 30
0.0
 10
431.762485
 20
469.065515
 30
0.0
 10
388.625953
 20
469.065515
 30
0.0
  0
LWPOLYLINE
  5
155
100
AcDbEntity
  8
Layer_1
 62
1
100
AcDbPolyline
 90
3
 70
1
 10
382.604400
 20
463.067603
 30
0.0
 10
382.604400
 20
419.931043
 30
0.0
 10
425.740932
 20
419.931043
 30
0.0
  0
LWPOLYLINE
  5
156
100
AcDbEntity
  8
Layer_1
 62
1
100
AcDbPolyline
 90
3
 70
1
 10
503.387461
 20
463.067603
 30
0.0
 10
503.387461
 20
419.931043
 30
0.0
 10
460.250957
 20
419.931043
 30
0.0
  0
LWPOLYLINE
  5
157
100
AcDbEntity
  8
Layer_1
 62
1
100
AcDbPolyline
 90
3
 70
1
 10
454.229405
 20
425.928954
 30
0.0
 10
454.229405
 20
469.065515
 30
0.0
 10
497.365909
 20
469.065515
 30
0.0
  0
LWPOLYLINE
  5
158
100
AcDbEntity
  8
Layer_1
 62
1
100
AcDbPolyline
 90
3
 70
1
 10
572.387811
 20
425.928954
 30
0.0
 10
572.387811
 20
469.065515
 30
0.0
 10
529.251194
 20
469.065515
 30
0.0
  0
LWPOLYLINE
  5
159
100
AcDbEntity
  8
Layer_1
 62
1
100
AcDbPolyline
 90
3
 70
1
 10
523.229613
 20
463.067603
 30
0.0
 10
523.229613
 20
419.931043
 30
0.0
 10
566.366258
 20
419.931043
 30
0.0
  0
LWPOLYLINE
  5
15a
100
AcDbEntity
  8
Layer_1
 62
1
100
AcDbPolyline
 90
3
 70
1
 10
75.688024
 20
377.974715
 30
0.0
 10
75.688024
 20
334.838183
 30
0.0
 10
32.551492
 20
334.838183
 30
0.0
  0
LWPOLYLINE
  5
15b
100
AcDbEntity
  8
Layer_1
 62
1
100
AcDbPolyline
 90
3
 70
1
 10
26.529934
 20
340.859735
 30
0.0
 10
26.529934
 20
383.996296
 30
0.0
 10
69.666469
 20
383.996296
 30
0.0
  0
LWPOLYLINE
  5
15c
100
AcDbEntity
  8
Layer_1
 62
1
100
AcDbPolyline
 90
3
 70
1
 10
144.209497
 20
340.845931
 30
0.0
 10
144.209497
 20
383.982491
 30
0.0
 10
101.072965
 20
383.982491
 30
0.0
  0
LWPOLYLINE
  5
15d
100
AcDbEntity
  8
Layer_1
 62
1
100
AcDbPolyline
 90
3
 70
1
 10
95.051407
 20
377.984580
 30
0.0
 10
95.051407
 20
334.848019
 30
0.0
 10
138.187942
 20
334.848019
 30
0.0
  0
LWPOLYLINE
  5
15e
100
AcDbEntity
  8
Layer_1
 62
1
100
AcDbPolyline
 90
3
 70
1
 10
215.834479
 20
377.984580
 30
0.0
 10
215.834479
 20
334.848019
 30
0.0
 10
172.697967
 20
334.848019
 30
0.0
  0
LWPOLYLINE
  5
15f
100
AcDbEntity
  8
Layer_1
 62
1
100
AcDbPolyline
 90
3
 70
1
 10
166.676409
 20
340.845931
 30
0.0
 10
166.676409
 20
383.982491
 30
0.0
 10
209.812927
 20
383.982491
 30
0.0
  0
LWPOLYLINE
  5
160
100
AcDbEntity
  8
Layer_1
 62
1
100
AcDbPolyline
 90
3
 70
1
 10
284.834835
 20
340.845931
 30
0.0
 10
284.834835
 20
383.982491
 30
0.0
 10
241.698212
 20
383.982491
 30
0.0
  0
LWPOLYLINE
  5
161
100
AcDbEntity
  8
Layer_1
 62
1
100
AcDbPolyline
 90
3
 70
1
 10
235.676631
 20
377.984580
 30
0.0
 10
235.676631
 20
334.848019
 30
0.0
 10
278.813276
 20
334.848019
 30
0.0
  0
LWPOLYLINE
  5
162
100
AcDbEntity
  8
Layer_1
 62
1
100
AcDbPolyline
 90
3
 70
1
 10
361.741011
 20
377.840381
 30
0.0
 10
361.741011
 20
334.703820
 30
0.0
 10
318.604479
 20
334.703820
 30
0.0
  0
LWPOLYLINE
  5
163
100
AcDbEntity
  8
Layer_1
 62
1
100
AcDbPolyline
 90
3
 70
1
 10
312.582898
 20
340.725373
 30
0.0
 10
312.582898
 20
383.861934
 30
0.0
 10
355.719458
 20
383.861934
 30
0.0
  0
LWPOLYLINE
  5
164
100
AcDbEntity
  8
Layer_1
 62
1
100
AcDbPolyline
 90
3
 70
1
 10
431.762485
 20
340.711597
 30
0.0
 10
431.762485
 20
383.848157
 30
0.0
 10
388.625953
 20
383.848157
 30
0.0
  0
LWPOLYLINE
  5
165
100
AcDbEntity
  8
Layer_1
 62
1
100
AcDbPolyline
 90
3
 70
1
 10
382.604400
 20
377.850246
 30
0.0
 10
382.604400
 20
334.713685
 30
0.0
 10
425.740932
 20
334.713685
 30
0.0
  0
LWPOLYLINE
  5
166
100
AcDbEntity
  8
Layer_1
 62
1
100
AcDbPolyline
 90
3
 70
1
 10
503.387461
 20
377.850246
 30
0.0
 10
503.387461
 20
334.713685
 30
0.0
 10
460.250957
 20
334.713685
 30
0.0
  0
LWPOLYLINE
  5
167
100
AcDbEntity
  8
Layer_1
 62
1
100
AcDbPolyline
 90
3
 70
1
 10
454.229405
 20
340.711597
 30
0.0
 10
454.229405
 20
383.848157
 30
0.0
 10
497.365909
 20
383.848157
 30
0.0
  0
LWPOLYLINE
  5
168
100
AcDbEntity
  8
Layer_1
 62
1
100
AcDbPolyline
 90
3
 70
1
 10
572.387811
 20
340.711597
 30
0.0
 10
572.387811
 20
383.848157
 30
0.0
 10
529.251194
 20
383.848157
 30
0.0
  0
LWPOLYLINE
  5
169
100
AcDbEntity
  8
Layer_1
 62
1
100
AcDbPolyline
 90
3
 70
1
 10
523.229613
 20
377.850246
 30
0.0
 10
523.229613
 20
334.713685
 30
0.0
 10
566.366258
 20
334.713685
 30
0.0
  0
LWPOLYLINE
  5
16a
100
AcDbEntity
  8
Layer_1
 62
1
100
AcDbPolyline
 90
3
 70
1
 10
75.688024
 20
292.474687
 30
0.0
 10
75.688024
 20
249.338126
 30
0.0
 10
32.551492
 20
249.338126
 30
0.0
  0
LWPOLYLINE
  5
16b
100
AcDbEntity
  8
Layer_1
 62
1
100
AcDbPolyline
 90
3
 70
1
 10
26.529934
 20
255.359679
 30
0.0
 10
26.529934
 20
298.496239
 30
0.0
 10
69.666469
 20
298.496239
 30
0.0
  0
LWPOLYLINE
  5
16c
100
AcDbEntity
  8
Layer_1
 62
1
100
AcDbPolyline
 90
3
 70
1
 10
144.209497
 20
255.345902
 30
0.0
 10
144.209497
 20
298.482435
 30
0.0
 10
101.072965
 20
298.482435
 30
0.0
  0
LWPOLYLINE
  5
16d
100
AcDbEntity
  8
Layer_1
 62
1
100
AcDbPolyline
 90
3
 70
1
 10
95.051407
 20
292.484551
 30
0.0
 10
95.051407
 20
249.347991
 30
0.0
 10
138.187942
 20
249.347991
 30
0.0
  0
LWPOLYLINE
  5
16e
100
AcDbEntity
  8
Layer_1
 62
1
100
AcDbPolyline
 90
3
 70
1
 10
215.834479
 20
292.484551
 30
0.0
 10
215.834479
 20
249.347991
 30
0.0
 10
172.697967
 20
249.347991
 30
0.0
  0
LWPOLYLINE
  5
16f
100
AcDbEntity
  8
Layer_1
 62
1
100
AcDbPolyline
 90
3
 70
1
 10
166.676409
 20
255.345902
 30
0.0
 10
166.676409
 20
298.482435
 30
0.0
 10
209.812927
 20
298.482435
 30
0.0
  0
LWPOLYLINE
  5
170
100
AcDbEntity
  8
Layer_1
 62
1
100
AcDbPolyline
 90
3
 70
1
 10
284.834835
 20
255.345902
 30
0.0
 10
284.834835
 20
298.482435
 30
0.0
 10
241.698212
 20
298.482435
 30
0.0
  0
LWPOLYLINE
  5
171
100
AcDbEntity
  8
Layer_1
 62
1
100
AcDbPolyline
 90
3
 70
1
 10
235.676631
 20
292.484551
 30
0.0
 10
235.676631
 20
249.347991
 30
0.0
 10
278.813276
 20
249.347991
 30
0.0
  0
LWPOLYLINE
  5
172
100
AcDbEntity
  8
Layer_1
 62
1
100
AcDbPolyline
 90
3
 70
1
 10
361.741011
 20
292.340324
 30
0.0
 10
361.741011
 20
249.203792
 30
0.0
 10
318.604479
 20
249.203792
 30
0.0
  0
LWPOLYLINE
  5
173
100
AcDbEntity
  8
Layer_1
 62
1
100
AcDbPolyline
 90
3
 70
1
 10
312.582898
 20
255.225345
 30
0.0
 10
312.582898
 20
298.361906
 30
0.0
 10
355.719458
 20
298.361906
 30
0.0
  0
LWPOLYLINE
  5
174
100
AcDbEntity
  8
Layer_1
 62
1
100
AcDbPolyline
 90
3
 70
1
 10
431.762485
 20
255.211540
 30
0.0
 10
431.762485
 20
298.348101
 30
0.0
 10
388.625953
 20
298.348101
 30
0.0
  0
LWPOLYLINE
  5
175
100
AcDbEntity
  8
Layer_1
 62
1
100
AcDbPolyline
 90
3
 70
1
 10
382.604400
 20
292.350189
 30
0.0
 10
382.604400
 20
249.213628
 30
0.0
 10
425.740932
 20
249.213628
 30
0.0
  0
LWPOLYLINE
  5
176
100
AcDbEntity
  8
Layer_1
 62
1
100
AcDbPolyline
 90
3
 70
1
 10
503.387461
 20
292.350189
 30
0.0
 10
503.387461
 20
249.213628
 30
0.0
 10
460.250957
 20
249.213628
 30
0.0
  0
LWPOLYLINE
  5
177
100
AcDbEntity
  8
Layer_1
 62
1
100
AcDbPolyline
 90
3
 70
1
 10
454.229405
 20
255.211540
 30
0.0
 10
454.229405
 20
298.348101
 30
0.0
 10
497.365909
 20
298.348101
 30
0.0
  0
LWPOLYLINE
  5
178
100
AcDbEntity
  8
Layer_1
 62
1
100
AcDbPolyline
 90
3
 70
1
 10
572.387811
 20
255.211540
 30
0.0
 10
572.387811
 20
298.348101
 30
0.0
 10
529.251194
 20
298.348101
 30
0.0
  0
LWPOLYLINE
  5
179
100
AcDbEntity
  8
Layer_1
 62
1
100
AcDbPolyline
 90
3
 70
1
 10
523.229613
 20
292.350189
 30
0.0
 10
523.229613
 20
249.213628
 30
0.0
 10
566.366258
 20
249.213628
 30
0.0
  0
LWPOLYLINE
  5
17a
100
AcDbEntity
  8
Layer_1
 62
1
100
AcDbPolyline
 90
3
 70
1
 10
75.688024
 20
205.474677
 30
0.0
 10
75.688024
 20
162.338145
 30
0.0
 10
32.551492
 20
162.338145
 30
0.0
  0
LWPOLYLINE
  5
17b
100
AcDbEntity
  8
Layer_1
 62
1
100
AcDbPolyline
 90
3
 70
1
 10
26.529934
 20
168.359698
 30
0.0
 10
26.529934
 20
211.496230
 30
0.0
 10
69.666469
 20
211.496230
 30
0.0
  0
LWPOLYLINE
  5
17c
100
AcDbEntity
  8
Layer_1
 62
1
100
AcDbPolyline
 90
3
 70
1
 10
144.209497
 20
168.345893
 30
0.0
 10
144.209497
 20
211.482425
 30
0.0
 10
101.072965
 20
211.482425
 30
0.0
  0
LWPOLYLINE
  5
17d
100
AcDbEntity
  8
Layer_1
 62
1
100
AcDbPolyline
 90
3
 70
1
 10
95.051407
 20
205.484542
 30
0.0
 10
95.051407
 20
162.348009
 30
0.0
 10
138.187942
 20
162.348009
 30
0.0
  0
LWPOLYLINE
  5
17e
100
AcDbEntity
  8
Layer_1
 62
1
100
AcDbPolyline
 90
3
 70
1
 10
215.834479
 20
205.484542
 30
0.0
 10
215.834479
 20
162.348009
 30
0.0
 10
172.697967
 20
162.348009
 30
0.0
  0
LWPOLYLINE
  5
17f
100
AcDbEntity
  8
Layer_1
 62
1
100
AcDbPolyline
 90
3
 70
1
 10
166.676409
 20
168.345893
 30
0.0
 10
166.676409
 20
211.482425
 30
0.0
 10
209.812927
 20
211.482425
 30
0.0
  0
LWPOLYLINE
  5
180
100
AcDbEntity
  8
Layer_1
 62
1
100
AcDbPolyline
 90
3
 70
1
 10
284.834835
 20
168.345893
 30
0.0
 10
284.834835
 20
211.482425
 30
0.0
 10
241.698212
 20
211.482425
 30
0.0
  0
LWPOLYLINE
  5
181
100
AcDbEntity
  8
Layer_1
 62
1
100
AcDbPolyline
 90
3
 70
1
 10
235.676631
 20
205.484542
 30
0.0
 10
235.676631
 20
162.348009
 30
0.0
 10
278.813276
 20
162.348009
 30
0.0
  0
LWPOLYLINE
  5
182
100
AcDbEntity
  8
Layer_1
 62
1
100
AcDbPolyline
 90
3
 70
1
 10
361.741011
 20
205.340315
 30
0.0
 10
361.741011
 20
162.203783
 30
0.0
 10
318.604479
 20
162.203783
 30
0.0
  0
LWPOLYLINE
  5
183
100
AcDbEntity
  8
Layer_1
 62
1
100
AcDbPolyline
 90
3
 70
1
 10
312.582898
 20
168.225335
 30
0.0
 10
312.582898
 20
211.361896
 30
0.0
 10
355.719458
 20
211.361896
 30
0.0
  0
LWPOLYLINE
  5
184
100
AcDbEntity
  8
Layer_1
 62
1
100
AcDbPolyline
 90
3
 70
1
 10
431.762485
 20
168.211559
 30
0.0
 10
431.762485
 20
211.348091
 30
0.0
 10
388.625953
 20
211.348091
 30
0.0
  0
LWPOLYLINE
  5
185
100
AcDbEntity
  8
Layer_1
 62
1
100
AcDbPolyline
 90
3
 70
1
 10
382.604400
 20
205.350180
 30
0.0
 10
382.604400
 20
162.213647
 30
0.0
 10
425.740932
 20
162.213647
 30
0.0
  0
LWPOLYLINE
  5
186
100
AcDbEntity
  8
Layer_1
 62
1
100
AcDbPolyline
 90
3
 70
1
 10
503.387461
 20
205.350180
 30
0.0
 10
503.387461
 20
162.213647
 30
0.0
 10
460.250957
 20
162.213647
 30
0.0
  0
LWPOLYLINE
  5
187
100
AcDbEntity
  8
Layer_1
 62
1
100
AcDbPolyline
 90
3
 70
1
 10
454.229405
 20
168.211559
 30
0.0
 10
454.229405
 20
211.348091
 30
0.0
 10
497.365909
 20
211.348091
 30
0.0
  0
LWPOLYLINE
  5
188
100
AcDbEntity
  8
Layer_1
 62
1
100
AcDbPolyline
 90
3
 70
1
 10
572.387811
 20
168.211559
 30
0.0
 10
572.387811
 20
211.348091
 30
0.0
 10
529.251194
 20
211.348091
 30
0.0
  0
LWPOLYLINE
  5
189
100
AcDbEntity
  8
Layer_1
 62
1
100
AcDbPolyline
 90
3
 70
1
 10
523.229613
 20
205.350180
 30
0.0
 10
523.229613
 20
162.213647
 30
0.0
 10
566.366258
 20
162.213647
 30
0.0
  0
LWPOLYLINE
  5
18a
100
AcDbEntity
  8
Layer_1
 62
1
100
AcDbPolyline
 90
20
 70
1
 10
371.908545
 20
112.710387
 30
0.0
 10
389.058151
 20
112.710387
 30
0.0
 10
389.058151
 20
119.513537
 30
0.0
 10
413.152639
 20
119.513537
 30
0.0
 10
413.152639
 20
112.710387
 30
0.0
 10
430.302246
 20
112.710387
 30
0.0
 10
430.302246
 20
95.560781
 30
0.0
 10
437.105395
 20
95.560781
 30
0.0
 10
437.105395
 20
71.466293
 30
0.0
 10
430.302246
 20
71.466293
 30
0.0
 10
430.302246
 20
54.316630
 30
0.0
 10
413.152639
 20
54.316630
 30
0.0
 10
413.152639
 20
47.513480
 30
0.0
 10
389.058151
 20
47.513480
 30
0.0
 10
389.058151
 20
54.316630
 30
0.0
 10
371.908545
 20
54.316630
 30
0.0
 10
371.908545
 20
71.466293
 30
0.0
 10
365.105395
 20
71.466293
 30
0.0
 10
365.105395
 20
95.560781
 30
0.0
 10
371.908545
 20
95.560781
 30
0.0
  0
LWPOLYLINE
  5
18b
100
AcDbEntity
  8
Layer_1
 62
1
100
AcDbPolyline
 90
20
 70
1
 10
254.158509
 20
112.710359
 30
0.0
 10
271.308115
 20
112.710359
 30
0.0
 10
271.308115
 20
119.513509
 30
0.0
 10
295.402592
 20
119.513509
 30
0.0
 10
295.402592
 20
112.710359
 30
0.0
 10
312.552198
 20
112.710359
 30
0.0
 10
312.552198
 20
95.560753
 30
0.0
 10
319.355348
 20
95.560753
 30
0.0
 10
319.355348
 20
71.466265
 30
0.0
 10
312.552198
 20
71.466265
 30
0.0
 10
312.552198
 20
54.316658
 30
0.0
 10
295.402592
 20
54.316658
 30
0.0
 10
295.402592
 20
47.513509
 30
0.0
 10
271.308115
 20
47.513509
 30
0.0
 10
271.308115
 20
54.316658
 30
0.0
 10
254.158509
 20
54.316658
 30
0.0
 10
254.158509
 20
71.466265
 30
0.0
 10
247.355359
 20
71.466265
 30
0.0
 10
247.355359
 20
95.560753
 30
0.0
 10
254.158509
 20
95.560753
 30
0.0
  0
ENDSEC
  0
SECTION
  2
OBJECTS
  0
DICTIONARY
  5
C
330
0
100
AcDbDictionary
  3
ACAD_GROUP
350
D
  3
ACAD_MLINESTYLE
350
17
  0
DICTIONARY
  5
D
330
C
100
AcDbDictionary
  0
DICTIONARY
  5
1A
330
C
100
AcDbDictionary
  0
DICTIONARY
  5
17
330
C
100
AcDbDictionary
  3
STANDARD
350
18
  0
DICTIONARY
  5
19
330
C
100
AcDbDictionary
  0
ENDSEC
  0
EOF
