<?xml version="1.0" encoding="UTF-8" standalone="no"?>
<!-- Created with Inkscape (http://www.inkscape.org/) -->

<svg
   xmlns:dc="http://purl.org/dc/elements/1.1/"
   xmlns:cc="http://creativecommons.org/ns#"
   xmlns:rdf="http://www.w3.org/1999/02/22-rdf-syntax-ns#"
   xmlns:svg="http://www.w3.org/2000/svg"
   xmlns="http://www.w3.org/2000/svg"
   xmlns:sodipodi="http://sodipodi.sourceforge.net/DTD/sodipodi-0.dtd"
   xmlns:inkscape="http://www.inkscape.org/namespaces/inkscape"
   width="210mm"
   height="297mm"
   viewBox="0 0 210 297"
   version="1.1"
   id="svg201"
   inkscape:version="0.92.2 5c3e80d, 2017-08-06"
   sodipodi:docname="Base Box cut.svg">
  <sodipodi:namedview
     id="base"
     pagecolor="#ffffff"
     bordercolor="#666666"
     borderopacity="1.0"
     inkscape:pageopacity="0.0"
     inkscape:pageshadow="2"
     inkscape:zoom="0.1767767"
     inkscape:cx="1339.7561"
     inkscape:cy="-371.67244"
     inkscape:document-units="mm"
     inkscape:current-layer="layer1"
     showgrid="false"
     inkscape:window-width="1440"
     inkscape:window-height="856"
     inkscape:window-x="0"
     inkscape:window-y="0"
     inkscape:window-maximized="1"
     inkscape:measure-start="480,642.52"
     inkscape:measure-end="1248,642.52" />
  <defs
     id="defs195">
    <marker
       id="DistanceX"
       orient="auto"
       refX="0.0"
       refY="0.0"
       style="overflow:visible">
      <path
         d="M 3,-3 L -3,3 M 0,-5 L  0,5"
         style="stroke:#000000; stroke-width:0.5"
         id="path2571" />
    </marker>
    <pattern
       height="8"
       id="Hatch"
       patternUnits="userSpaceOnUse"
       width="8"
       x="0"
       y="0">
      <path
         d="M8 4 l-4,4"
         linecap="square"
         stroke="#000000"
         stroke-width="0.25"
         id="path2574" />
      <path
         d="M6 2 l-4,4"
         linecap="square"
         stroke="#000000"
         stroke-width="0.25"
         id="path2576" />
      <path
         d="M4 0 l-4,4"
         linecap="square"
         stroke="#000000"
         stroke-width="0.25"
         id="path2578" />
    </pattern>
    <symbol
       id="*MODEL_SPACE" />
    <symbol
       id="*PAPER_SPACE" />
  </defs>
  <metadata
     id="metadata198">
    <rdf:RDF>
      <cc:Work
         rdf:about="">
        <dc:format>image/svg+xml</dc:format>
        <dc:type
           rdf:resource="http://purl.org/dc/dcmitype/StillImage" />
        <dc:title></dc:title>
      </cc:Work>
    </rdf:RDF>
  </metadata>
  <g
     id="layer1"
     inkscape:groupmode="layer"
     inkscape:label="Layer 1">
    <path
       id="path206"
       inkscape:label="part"
       style="stroke:#fa0000;stroke-width:0.26458333;fill:none;stroke-opacity:1;stroke-miterlimit:4;stroke-dasharray:none"
       d="M 126.999999997,487.680000066 L 150.444200533,487.680000066 L 150.444200533,482.59999999 L 172.034199861,482.59999999 L 172.034199861,487.680000066 L 195.351400399,487.680000066 L 195.351400399,482.59999999 L 216.941399726,482.59999999 L 216.941399726,487.680000066 L 240.258600265,487.680000066 L 240.258600265,482.59999999 L 261.848599592,482.59999999 L 261.848599592,487.680000066 L 285.16580013,487.680000066 L 285.16580013,482.59999999 L 306.755799458,482.59999999 L 306.755799458,487.680000066 L 330.199999993,487.680000066 " />
    <path
       id="path208"
       inkscape:label="part"
       style="stroke:#fa0000;stroke-width:0.26458333;fill:none;stroke-opacity:1;stroke-miterlimit:4;stroke-dasharray:none"
       d="M 330.199999993,487.680000066 L 330.199999993,510.15900032 L 325.119999918,510.15900032 L 325.119999918,531.240999659 L 330.199999993,531.240999659 L 330.199999993,553.719999913 " />
    <path
       id="path210"
       inkscape:label="part"
       style="stroke:#fa0000;stroke-width:0.26458333;fill:none;stroke-opacity:1;stroke-miterlimit:4;stroke-dasharray:none"
       d="M 330.199999993,553.719999913 L 306.755799458,553.719999913 L 306.755799458,558.799999989 L 285.16580013,558.799999989 L 285.16580013,553.719999913 L 261.848599592,553.719999913 L 261.848599592,558.799999989 L 240.258600265,558.799999989 L 240.258600265,553.719999913 L 216.941399726,553.719999913 L 216.941399726,558.799999989 L 195.351400399,558.799999989 L 195.351400399,553.719999913 L 172.034199861,553.719999913 L 172.034199861,558.799999989 L 150.444200533,558.799999989 L 150.444200533,553.719999913 L 126.999999997,553.719999913 " />
    <path
       id="path212"
       inkscape:label="part"
       style="stroke:#fa0000;stroke-width:0.26458333;fill:none;stroke-opacity:1;stroke-miterlimit:4;stroke-dasharray:none"
       d="M 126.999999997,553.719999913 L 126.999999997,531.240999659 L 132.080000073,531.240999659 L 132.080000073,510.15900032 L 126.999999997,510.15900032 L 126.999999997,487.680000066 " />
    <path
       id="path242"
       inkscape:label="part"
       style="stroke:#fa0000;stroke-width:0.26458333;fill:none;stroke-opacity:1;stroke-miterlimit:4;stroke-dasharray:none"
       d="M 30.4800000751,132.080000073 L 52.7050003349,132.080000073 L 52.7050003349,126.999999997 L 74.2949996626,126.999999997 L 74.2949996626,132.080000073 L 96.5199999224,132.080000073 " />
    <path
       id="path244"
       inkscape:label="part"
       style="stroke:#fa0000;stroke-width:0.26458333;fill:none;stroke-opacity:1;stroke-miterlimit:4;stroke-dasharray:none"
       d="M 96.5199999224,132.080000073 L 96.5199999224,149.479000583 L 101.599999998,149.479000583 L 101.599999998,171.068999911 L 96.5199999224,171.068999911 L 96.5199999224,193.421000499 L 101.599999998,193.421000499 L 101.599999998,215.010999826 L 96.5199999224,215.010999826 L 96.5199999224,237.363000414 L 101.599999998,237.363000414 L 101.599999998,258.952999742 L 96.5199999224,258.952999742 L 96.5199999224,281.30500033 L 101.599999998,281.30500033 L 101.599999998,302.894999658 L 96.5199999224,302.894999658 L 96.5199999224,325.247000246 L 101.599999998,325.247000246 L 101.599999998,346.836999574 L 96.5199999224,346.836999574 L 96.5199999224,369.189000162 L 101.599999998,369.189000162 L 101.599999998,390.77899949 L 96.5199999224,390.77899949 L 96.5199999224,413.131000078 L 101.599999998,413.131000078 L 101.599999998,434.720999406 L 96.5199999224,434.720999406 L 96.5199999224,452.119999915 " />
    <path
       id="path246"
       inkscape:label="part"
       style="stroke:#fa0000;stroke-width:0.26458333;fill:none;stroke-opacity:1;stroke-miterlimit:4;stroke-dasharray:none"
       d="M 96.5199999224,452.119999915 L 74.2949996626,452.119999915 L 74.2949996626,457.199999991 L 52.7050003349,457.199999991 L 52.7050003349,452.119999915 L 30.4800000751,452.119999915 " />
    <path
       id="path248"
       inkscape:label="part"
       style="stroke:#fa0000;stroke-width:0.26458333;fill:none;stroke-opacity:1;stroke-miterlimit:4;stroke-dasharray:none"
       d="M 30.4800000751,452.119999915 L 30.4800000751,434.720999406 L 25.3999999995,434.720999406 L 25.3999999995,413.131000078 L 30.4800000751,413.131000078 L 30.4800000751,390.77899949 L 25.3999999995,390.77899949 L 25.3999999995,369.189000162 L 30.4800000751,369.189000162 L 30.4800000751,346.836999574 L 25.3999999995,346.836999574 L 25.3999999995,325.247000246 L 30.4800000751,325.247000246 L 30.4800000751,302.894999658 L 25.3999999995,302.894999658 L 25.3999999995,281.30500033 L 30.4800000751,281.30500033 L 30.4800000751,258.952999742 L 25.3999999995,258.952999742 L 25.3999999995,237.363000414 L 30.4800000751,237.363000414 L 30.4800000751,215.010999826 L 25.3999999995,215.010999826 L 25.3999999995,193.421000499 L 30.4800000751,193.421000499 L 30.4800000751,171.068999911 L 25.3999999995,171.068999911 L 25.3999999995,149.479000583 L 30.4800000751,149.479000583 L 30.4800000751,132.080000073 " />
    <path
       id="path286"
       inkscape:label="part"
       style="stroke:#fa0000;stroke-width:0.26458333;fill:none;stroke-opacity:1;stroke-miterlimit:4;stroke-dasharray:none"
       d="M 126.999999997,126.999999997 L 150.698200527,126.999999997 L 150.698200527,132.080000073 L 171.780199866,132.080000073 L 171.780199866,126.999999997 L 195.605400393,126.999999997 L 195.605400393,132.080000073 L 216.687399732,132.080000073 L 216.687399732,126.999999997 L 240.512600259,126.999999997 L 240.512600259,132.080000073 L 261.594599598,132.080000073 L 261.594599598,126.999999997 L 285.419800125,126.999999997 L 285.419800125,132.080000073 L 306.501799464,132.080000073 L 306.501799464,126.999999997 L 330.199999993,126.999999997 " />
    <path
       id="path288"
       inkscape:label="part"
       style="stroke:#fa0000;stroke-width:0.26458333;fill:none;stroke-opacity:1;stroke-miterlimit:4;stroke-dasharray:none"
       d="M 330.199999993,126.999999997 L 330.199999993,149.733000577 L 325.119999918,149.733000577 L 325.119999918,170.814999916 L 330.199999993,170.814999916 L 330.199999993,193.675000493 L 325.119999918,193.675000493 L 325.119999918,214.756999832 L 330.199999993,214.756999832 L 330.199999993,237.617000409 L 325.119999918,237.617000409 L 325.119999918,258.698999748 L 330.199999993,258.698999748 L 330.199999993,281.559000325 L 325.119999918,281.559000325 L 325.119999918,302.640999664 L 330.199999993,302.640999664 L 330.199999993,325.501000241 L 325.119999918,325.501000241 L 325.119999918,346.58299958 L 330.199999993,346.58299958 L 330.199999993,369.443000156 L 325.119999918,369.443000156 L 325.119999918,390.524999495 L 330.199999993,390.524999495 L 330.199999993,413.385000072 L 325.119999918,413.385000072 L 325.119999918,434.466999411 L 330.199999993,434.466999411 L 330.199999993,457.199999991 " />
    <path
       id="path290"
       inkscape:label="part"
       style="stroke:#fa0000;stroke-width:0.26458333;fill:none;stroke-opacity:1;stroke-miterlimit:4;stroke-dasharray:none"
       d="M 330.199999993,457.199999991 L 306.501799464,457.199999991 L 306.501799464,452.119999915 L 285.419800125,452.119999915 L 285.419800125,457.199999991 L 261.594599598,457.199999991 L 261.594599598,452.119999915 L 240.512600259,452.119999915 L 240.512600259,457.199999991 L 216.687399732,457.199999991 L 216.687399732,452.119999915 L 195.605400393,452.119999915 L 195.605400393,457.199999991 L 171.780199866,457.199999991 L 171.780199866,452.119999915 L 150.698200527,452.119999915 L 150.698200527,457.199999991 L 126.999999997,457.199999991 " />
    <path
       id="path292"
       inkscape:label="part"
       style="stroke:#fa0000;stroke-width:0.26458333;fill:none;stroke-opacity:1;stroke-miterlimit:4;stroke-dasharray:none"
       d="M 126.999999997,457.199999991 L 126.999999997,434.466999411 L 132.080000073,434.466999411 L 132.080000073,413.385000072 L 126.999999997,413.385000072 L 126.999999997,390.524999495 L 132.080000073,390.524999495 L 132.080000073,369.443000156 L 126.999999997,369.443000156 L 126.999999997,346.58299958 L 132.080000073,346.58299958 L 132.080000073,325.501000241 L 126.999999997,325.501000241 L 126.999999997,302.640999664 L 132.080000073,302.640999664 L 132.080000073,281.559000325 L 126.999999997,281.559000325 L 126.999999997,258.698999748 L 132.080000073,258.698999748 L 132.080000073,237.617000409 L 126.999999997,237.617000409 L 126.999999997,214.756999832 L 132.080000073,214.756999832 L 132.080000073,193.675000493 L 126.999999997,193.675000493 L 126.999999997,170.814999916 L 132.080000073,170.814999916 L 132.080000073,149.733000577 L 126.999999997,149.733000577 L 126.999999997,126.999999997 " />
    <path
       id="path294"
       inkscape:label="part"
       style="stroke:#fa0000;stroke-width:0.26458333;fill:none;stroke-opacity:1;stroke-miterlimit:4;stroke-dasharray:none"
       d="M 360.680000069,132.080000073 L 382.905000328,132.080000073 L 382.905000328,126.999999997 L 404.494999656,126.999999997 L 404.494999656,132.080000073 L 426.719999916,132.080000073 " />
    <path
       id="path296"
       inkscape:label="part"
       style="stroke:#fa0000;stroke-width:0.26458333;fill:none;stroke-opacity:1;stroke-miterlimit:4;stroke-dasharray:none"
       d="M 426.719999916,132.080000073 L 426.719999916,149.479000583 L 431.799999991,149.479000583 L 431.799999991,171.068999911 L 426.719999916,171.068999911 L 426.719999916,193.421000499 L 431.799999991,193.421000499 L 431.799999991,215.010999826 L 426.719999916,215.010999826 L 426.719999916,237.363000414 L 431.799999991,237.363000414 L 431.799999991,258.952999742 L 426.719999916,258.952999742 L 426.719999916,281.30500033 L 431.799999991,281.30500033 L 431.799999991,302.894999658 L 426.719999916,302.894999658 L 426.719999916,325.247000246 L 431.799999991,325.247000246 L 431.799999991,346.836999574 L 426.719999916,346.836999574 L 426.719999916,369.189000162 L 431.799999991,369.189000162 L 431.799999991,390.77899949 L 426.719999916,390.77899949 L 426.719999916,413.131000078 L 431.799999991,413.131000078 L 431.799999991,434.720999406 L 426.719999916,434.720999406 L 426.719999916,452.119999915 " />
    <path
       id="path298"
       inkscape:label="part"
       style="stroke:#fa0000;stroke-width:0.26458333;fill:none;stroke-opacity:1;stroke-miterlimit:4;stroke-dasharray:none"
       d="M 426.719999916,452.119999915 L 404.494999656,452.119999915 L 404.494999656,457.199999991 L 382.905000328,457.199999991 L 382.905000328,452.119999915 L 360.680000069,452.119999915 " />
    <path
       id="path300"
       inkscape:label="part"
       style="stroke:#fa0000;stroke-width:0.26458333;fill:none;stroke-opacity:1;stroke-miterlimit:4;stroke-dasharray:none"
       d="M 360.680000069,452.119999915 L 360.680000069,434.720999406 L 355.599999993,434.720999406 L 355.599999993,413.131000078 L 360.680000069,413.131000078 L 360.680000069,390.77899949 L 355.599999993,390.77899949 L 355.599999993,369.189000162 L 360.680000069,369.189000162 L 360.680000069,346.836999574 L 355.599999993,346.836999574 L 355.599999993,325.247000246 L 360.680000069,325.247000246 L 360.680000069,302.894999658 L 355.599999993,302.894999658 L 355.599999993,281.30500033 L 360.680000069,281.30500033 L 360.680000069,258.952999742 L 355.599999993,258.952999742 L 355.599999993,237.363000414 L 360.680000069,237.363000414 L 360.680000069,215.010999826 L 355.599999993,215.010999826 L 355.599999993,193.421000499 L 360.680000069,193.421000499 L 360.680000069,171.068999911 L 355.599999993,171.068999911 L 355.599999993,149.479000583 L 360.680000069,149.479000583 L 360.680000069,132.080000073 " />
    <path
       id="path302"
       inkscape:label="part"
       style="stroke:#fa0000;stroke-width:0.26458333;fill:none;stroke-opacity:1;stroke-miterlimit:4;stroke-dasharray:none"
       d="M 457.199999991,126.999999997 L 480.898200521,126.999999997 L 480.898200521,132.080000073 L 501.98019986,132.080000073 L 501.98019986,126.999999997 L 525.805400386,126.999999997 L 525.805400386,132.080000073 L 546.887399726,132.080000073 L 546.887399726,126.999999997 L 570.712600252,126.999999997 L 570.712600252,132.080000073 L 591.794599591,132.080000073 L 591.794599591,126.999999997 L 615.619800118,126.999999997 L 615.619800118,132.080000073 L 636.701799457,132.080000073 L 636.701799457,126.999999997 L 660.399999987,126.999999997 " />
    <path
       id="path304"
       inkscape:label="part"
       style="stroke:#fa0000;stroke-width:0.26458333;fill:none;stroke-opacity:1;stroke-miterlimit:4;stroke-dasharray:none"
       d="M 660.399999987,126.999999997 L 660.399999987,149.733000577 L 655.319999911,149.733000577 L 655.319999911,170.814999916 L 660.399999987,170.814999916 L 660.399999987,193.675000493 L 655.319999911,193.675000493 L 655.319999911,214.756999832 L 660.399999987,214.756999832 L 660.399999987,237.617000409 L 655.319999911,237.617000409 L 655.319999911,258.698999748 L 660.399999987,258.698999748 L 660.399999987,281.559000325 L 655.319999911,281.559000325 L 655.319999911,302.640999664 L 660.399999987,302.640999664 L 660.399999987,325.501000241 L 655.319999911,325.501000241 L 655.319999911,346.58299958 L 660.399999987,346.58299958 L 660.399999987,369.443000156 L 655.319999911,369.443000156 L 655.319999911,390.524999495 L 660.399999987,390.524999495 L 660.399999987,413.385000072 L 655.319999911,413.385000072 L 655.319999911,434.466999411 L 660.399999987,434.466999411 L 660.399999987,457.199999991 " />
    <path
       id="path306"
       inkscape:label="part"
       style="stroke:#fa0000;stroke-width:0.26458333;fill:none;stroke-opacity:1;stroke-miterlimit:4;stroke-dasharray:none"
       d="M 660.399999987,457.199999991 L 636.701799457,457.199999991 L 636.701799457,452.119999915 L 615.619800118,452.119999915 L 615.619800118,457.199999991 L 591.794599591,457.199999991 L 591.794599591,452.119999915 L 570.712600252,452.119999915 L 570.712600252,457.199999991 L 546.887399726,457.199999991 L 546.887399726,452.119999915 L 525.805400386,452.119999915 L 525.805400386,457.199999991 L 501.98019986,457.199999991 L 501.98019986,452.119999915 L 480.898200521,452.119999915 L 480.898200521,457.199999991 L 457.199999991,457.199999991 " />
    <path
       id="path308"
       inkscape:label="part"
       style="stroke:#fa0000;stroke-width:0.26458333;fill:none;stroke-opacity:1;stroke-miterlimit:4;stroke-dasharray:none"
       d="M 457.199999991,457.199999991 L 457.199999991,434.466999411 L 462.280000067,434.466999411 L 462.280000067,413.385000072 L 457.199999991,413.385000072 L 457.199999991,390.524999495 L 462.280000067,390.524999495 L 462.280000067,369.443000156 L 457.199999991,369.443000156 L 457.199999991,346.58299958 L 462.280000067,346.58299958 L 462.280000067,325.501000241 L 457.199999991,325.501000241 L 457.199999991,302.640999664 L 462.280000067,302.640999664 L 462.280000067,281.559000325 L 457.199999991,281.559000325 L 457.199999991,258.698999748 L 462.280000067,258.698999748 L 462.280000067,237.617000409 L 457.199999991,237.617000409 L 457.199999991,214.756999832 L 462.280000067,214.756999832 L 462.280000067,193.675000493 L 457.199999991,193.675000493 L 457.199999991,170.814999916 L 462.280000067,170.814999916 L 462.280000067,149.733000577 L 457.199999991,149.733000577 L 457.199999991,126.999999997 " />
    <path
       id="path310"
       inkscape:label="part"
       style="stroke:#fa0000;stroke-width:0.26458333;fill:none;stroke-opacity:1;stroke-miterlimit:4;stroke-dasharray:none"
       d="M 126.999999997,30.4800000751 L 150.444200533,30.4800000751 L 150.444200533,25.3999999995 L 172.034199861,25.3999999995 L 172.034199861,30.4800000751 L 195.351400399,30.4800000751 L 195.351400399,25.3999999995 L 216.941399726,25.3999999995 L 216.941399726,30.4800000751 L 240.258600265,30.4800000751 L 240.258600265,25.3999999995 L 261.848599592,25.3999999995 L 261.848599592,30.4800000751 L 285.16580013,30.4800000751 L 285.16580013,25.3999999995 L 306.755799458,25.3999999995 L 306.755799458,30.4800000751 L 330.199999993,30.4800000751 " />
    <path
       id="path312"
       inkscape:label="part"
       style="stroke:#fa0000;stroke-width:0.26458333;fill:none;stroke-opacity:1;stroke-miterlimit:4;stroke-dasharray:none"
       d="M 330.199999993,30.4800000751 L 330.199999993,52.9590003292 L 325.119999918,52.9590003292 L 325.119999918,74.0409996683 L 330.199999993,74.0409996683 L 330.199999993,96.5199999224 " />
    <path
       id="path314"
       inkscape:label="part"
       style="stroke:#fa0000;stroke-width:0.26458333;fill:none;stroke-opacity:1;stroke-miterlimit:4;stroke-dasharray:none"
       d="M 330.199999993,96.5199999224 L 306.755799458,96.5199999224 L 306.755799458,101.599999998 L 285.16580013,101.599999998 L 285.16580013,96.5199999224 L 261.848599592,96.5199999224 L 261.848599592,101.599999998 L 240.258600265,101.599999998 L 240.258600265,96.5199999224 L 216.941399726,96.5199999224 L 216.941399726,101.599999998 L 195.351400399,101.599999998 L 195.351400399,96.5199999224 L 172.034199861,96.5199999224 L 172.034199861,101.599999998 L 150.444200533,101.599999998 L 150.444200533,96.5199999224 L 126.999999997,96.5199999224 " />
    <path
       id="path316"
       inkscape:label="part"
       style="stroke:#fa0000;stroke-width:0.26458333;fill:none;stroke-opacity:1;stroke-miterlimit:4;stroke-dasharray:none"
       d="M 126.999999997,96.5199999224 L 126.999999997,74.0409996683 L 132.080000073,74.0409996683 L 132.080000073,52.9590003292 L 126.999999997,52.9590003292 L 126.999999997,30.4800000751 " />
    <circle
       style="fill:none;fill-opacity:0;stroke:#fa0000;stroke-width:0.26458333;stroke-miterlimit:4;stroke-dasharray:none;stroke-opacity:1"
       id="path411"
       cx="559"
       cy="216.77"
       r="37.959404" />
    <g
       inkscape:label="Layer 1"
       id="layer1-9"
       transform="translate(253.6306,39.69537)" />
    <circle
       style="fill:none;fill-opacity:1;stroke:#fa0000;stroke-width:0.26458333;stroke-miterlimit:4;stroke-dasharray:none;stroke-opacity:1"
       id="path2840"
       cx="188.188"
       cy="175.36598"
       r="1.8677083" />
    <circle
       r="1.8677083"
       cy="175.36598"
       cx="-270.3866"
       id="circle2844"
       style="fill:none;fill-opacity:1;stroke:#fa0000;stroke-width:0.26458333;stroke-miterlimit:4;stroke-dasharray:none;stroke-opacity:1"
       transform="scale(-1,1)" />
    <circle
       transform="scale(-1)"
       style="fill:none;fill-opacity:1;stroke:#fa0000;stroke-width:0.26458333;stroke-miterlimit:4;stroke-dasharray:none;stroke-opacity:1"
       id="circle2848"
       cx="-270.3866"
       cy="-257.56543"
       r="1.8677083" />
    <circle
       r="1.8677083"
       cy="-257.56543"
       cx="188.18799"
       id="circle2856"
       style="fill:none;fill-opacity:1;stroke:#fa0000;stroke-width:0.26458333;stroke-miterlimit:4;stroke-dasharray:none;stroke-opacity:1"
       transform="scale(1,-1)" />
  </g>
  <g
     id="g319"
     inkscape:groupmode="layer"
     inkscape:label="newlayer" />
</svg>
