  0
SECTION
  2
HEADER
  9
$ACADVER
  1
AC1014
  9
$HANDSEED
  5
FFFF
  9
$MEASUREMENT
 70
     1
  0
ENDSEC
  0
SECTION
  2
TABLES
  0
TABLE
  2
VPORT
  5
8
330
0
100
AcDbSymbolTable
 70
     4
  0
VPORT
  5
2E
330
8
100
AcDbSymbolTableRecord
100
AcDbViewportTableRecord
  2
*ACTIVE
 70
     0
 10
0.0
 20
0.0
 11
1.0
 21
1.0
 12
210.0
 22
148.5
 13
0.0
 23
0.0
 14
10.0
 24
10.0
 15
10.0
 25
10.0
 16
0.0
 26
0.0
 36
1.0
 17
0.0
 27
0.0
 37
0.0
 40
341.0
 41
1.24
 42
50.0
 43
0.0
 44
0.0
 50
0.0
 51
0.0
 71
     0
 72
   100
 73
     1
 74
     3
 75
     0
 76
     0
 77
     0
 78
     0
  0
ENDTAB
  0
TABLE
  2
LTYPE
  5
5
330
0
100
AcDbSymbolTable
 70
     1
  0
LTYPE
  5
14
330
5
100
AcDbSymbolTableRecord
100
AcDbLinetypeTableRecord
  2
BYBLOCK
 70
     0
  3

 72
    65
 73
     0
 40
0.0
  0
LTYPE
  5
15
330
5
100
AcDbSymbolTableRecord
100
AcDbLinetypeTableRecord
  2
BYLAYER
 70
     0
  3

 72
    65
 73
     0
 40
0.0
  0
LTYPE
  5
16
330
5
100
AcDbSymbolTableRecord
100
AcDbLinetypeTableRecord
  2
CONTINUOUS
 70
     0
  3
Solid line
 72
    65
 73
     0
 40
0.0
  0
ENDTAB
  0
TABLE
  2
LAYER
  5
2
100
AcDbSymbolTable
 70
1
  0
LAYER
  5
50
100
AcDbSymbolTableRecord
100
AcDbLayerTableRecord
  2
0
 70
0
  6
CONTINUOUS
  0
ENDTAB
  0
TABLE
  2
STYLE
  5
3
330
0
100
AcDbSymbolTable
 70
     1
  0
STYLE
  5
11
330
3
100
AcDbSymbolTableRecord
100
AcDbTextStyleTableRecord
  2
STANDARD
 70
     0
 40
0.0
 41
1.0
 50
0.0
 71
     0
 42
2.5
  3
txt
  4

  0
ENDTAB
  0
TABLE
  2
VIEW
  5
6
330
0
100
AcDbSymbolTable
 70
     0
  0
ENDTAB
  0
TABLE
  2
UCS
  5
7
330
0
100
AcDbSymbolTable
 70
     0
  0
ENDTAB
  0
TABLE
  2
APPID
  5
9
330
0
100
AcDbSymbolTable
 70
     2
  0
APPID
  5
12
330
9
100
AcDbSymbolTableRecord
100
AcDbRegAppTableRecord
  2
ACAD
 70
     0
  0
ENDTAB
  0
TABLE
  2
DIMSTYLE
  5
A
330
0
100
AcDbSymbolTable
 70
     1
  0
DIMSTYLE
105
27
330
A
100
AcDbSymbolTableRecord
100
AcDbDimStyleTableRecord
  2
ISO-25
 70
     0
  3

  4

  5

  6

  7

 40
1.0
 41
2.5
 42
0.625
 43
3.75
 44
1.25
 45
0.0
 46
0.0
 47
0.0
 48
0.0
140
2.5
141
2.5
142
0.0
143
0.03937007874016
144
1.0
145
0.0
146
1.0
147
0.625
 71
     0
 72
     0
 73
     0
 74
     0
 75
     0
 76
     0
 77
     1
 78
     8
170
     0
171
     3
172
     1
173
     0
174
     0
175
     0
176
     0
177
     0
178
     0
270
     2
271
     2
272
     2
273
     2
274
     3
340
11
275
     0
280
     0
281
     0
282
     0
283
     0
284
     8
285
     0
286
     0
287
     3
288
     0
  0
ENDTAB
  0
TABLE
  2
BLOCK_RECORD
  5
1
330
0
100
AcDbSymbolTable
 70
     1
  0
BLOCK_RECORD
  5
1F
330
1
100
AcDbSymbolTableRecord
100
AcDbBlockTableRecord
  2
*MODEL_SPACE
  0
BLOCK_RECORD
  5
1B
330
1
100
AcDbSymbolTableRecord
100
AcDbBlockTableRecord
  2
*PAPER_SPACE
  0
ENDTAB
  0
ENDSEC
  0
SECTION
  2
BLOCKS
  0
BLOCK
  5
20
330
1F
100
AcDbEntity
  8
0
100
AcDbBlockBegin
  2
*MODEL_SPACE
 70
     0
 10
0.0
 20
0.0
 30
0.0
  3
*MODEL_SPACE
  1

  0
ENDBLK
  5
21
330
1F
100
AcDbEntity
  8
0
100
AcDbBlockEnd
  0
BLOCK
  5
1C
330
1B
100
AcDbEntity
 67
     1
  8
0
100
AcDbBlockBegin
  2
*PAPER_SPACE
  1

  0
ENDBLK
  5
1D
330
1B
100
AcDbEntity
 67
     1
  8
0
100
AcDbBlockEnd
  0
ENDSEC
  0
SECTION
  2
ENTITIES
  0
SPLINE
  5
100
100
AcDbEntity
  8
0
 62
1
100
AcDbSpline
 70
8
 71
3
 72
8
 73
4
 74
0
 40
0
 40
0
 40
0
 40
0
 40
1
 40
1
 40
1
 40
1
 10
40.480357
 20
47.767714
 30
0.0
 10
40.480357
 20
49.269514
 30
0.0
 10
39.678532
 20
50.657164
 30
0.0
 10
38.376926
 20
51.408064
 30
0.0
  0
SPLINE
  5
101
100
AcDbEntity
  8
0
 62
1
100
AcDbSpline
 70
8
 71
3
 72
8
 73
4
 74
0
 40
0
 40
0
 40
0
 40
0
 40
1
 40
1
 40
1
 40
1
 10
38.376926
 20
51.408064
 30
0.0
 10
37.075320
 20
52.158964
 30
0.0
 10
35.471674
 20
52.158964
 30
0.0
 10
34.170069
 20
51.408064
 30
0.0
  0
SPLINE
  5
102
100
AcDbEntity
  8
0
 62
1
100
AcDbSpline
 70
8
 71
3
 72
8
 73
4
 74
0
 40
0
 40
0
 40
0
 40
0
 40
1
 40
1
 40
1
 40
1
 10
34.170069
 20
51.408064
 30
0.0
 10
32.868463
 20
50.657164
 30
0.0
 10
32.066640
 20
49.269514
 30
0.0
 10
32.066640
 20
47.767714
 30
0.0
  0
SPLINE
  5
103
100
AcDbEntity
  8
0
 62
1
100
AcDbSpline
 70
8
 71
3
 72
8
 73
4
 74
0
 40
0
 40
0
 40
0
 40
0
 40
1
 40
1
 40
1
 40
1
 10
32.066640
 20
47.767714
 30
0.0
 10
32.066640
 20
46.265914
 30
0.0
 10
32.868463
 20
44.878264
 30
0.0
 10
34.170069
 20
44.127364
 30
0.0
  0
SPLINE
  5
104
100
AcDbEntity
  8
0
 62
1
100
AcDbSpline
 70
8
 71
3
 72
8
 73
4
 74
0
 40
0
 40
0
 40
0
 40
0
 40
1
 40
1
 40
1
 40
1
 10
34.170069
 20
44.127364
 30
0.0
 10
35.471674
 20
43.376464
 30
0.0
 10
37.075320
 20
43.376464
 30
0.0
 10
38.376926
 20
44.127364
 30
0.0
  0
SPLINE
  5
105
100
AcDbEntity
  8
0
 62
1
100
AcDbSpline
 70
8
 71
3
 72
8
 73
4
 74
0
 40
0
 40
0
 40
0
 40
0
 40
1
 40
1
 40
1
 40
1
 10
38.376926
 20
44.127364
 30
0.0
 10
39.678532
 20
44.878264
 30
0.0
 10
40.480357
 20
46.265914
 30
0.0
 10
40.480357
 20
47.767714
 30
0.0
  0
LWPOLYLINE
  5
106
100
AcDbEntity
  8
0
 62
1
100
AcDbPolyline
 90
2
 70
0
 10
136.396650
 20
13.035064
 30
0.0
 10
136.396650
 20
60.759439
 30
0.0
  0
SPLINE
  5
107
100
AcDbEntity
  8
0
 62
1
100
AcDbSpline
 70
8
 71
3
 72
8
 73
4
 74
0
 40
0
 40
0
 40
0
 40
0
 40
1
 40
1
 40
1
 40
1
 10
57.307774
 20
95.323316
 30
0.0
 10
57.308824
 20
96.825806
 30
0.0
 10
56.507286
 20
98.214634
 30
0.0
 10
55.205230
 20
98.966201
 30
0.0
  0
SPLINE
  5
108
100
AcDbEntity
  8
0
 62
1
100
AcDbSpline
 70
8
 71
3
 72
8
 73
4
 74
0
 40
0
 40
0
 40
0
 40
0
 40
1
 40
1
 40
1
 40
1
 10
55.205230
 20
98.966201
 30
0.0
 10
53.903177
 20
99.717761
 30
0.0
 10
52.298662
 20
99.717761
 30
0.0
 10
50.996608
 20
98.966201
 30
0.0
  0
SPLINE
  5
109
100
AcDbEntity
  8
0
 62
1
100
AcDbSpline
 70
8
 71
3
 72
8
 73
4
 74
0
 40
0
 40
0
 40
0
 40
0
 40
1
 40
1
 40
1
 40
1
 10
50.996608
 20
98.966201
 30
0.0
 10
49.694552
 20
98.214634
 30
0.0
 10
48.892970
 20
96.825806
 30
0.0
 10
48.894064
 20
95.323316
 30
0.0
  0
SPLINE
  5
10a
100
AcDbEntity
  8
0
 62
1
100
AcDbSpline
 70
8
 71
3
 72
8
 73
4
 74
0
 40
0
 40
0
 40
0
 40
0
 40
1
 40
1
 40
1
 40
1
 10
48.894064
 20
95.323316
 30
0.0
 10
48.893014
 20
93.820826
 30
0.0
 10
49.694552
 20
92.431999
 30
0.0
 10
50.996608
 20
91.680439
 30
0.0
  0
SPLINE
  5
10b
100
AcDbEntity
  8
0
 62
1
100
AcDbSpline
 70
8
 71
3
 72
8
 73
4
 74
0
 40
0
 40
0
 40
0
 40
0
 40
1
 40
1
 40
1
 40
1
 10
50.996608
 20
91.680439
 30
0.0
 10
52.298662
 20
90.928864
 30
0.0
 10
53.903177
 20
90.928864
 30
0.0
 10
55.205230
 20
91.680439
 30
0.0
  0
SPLINE
  5
10c
100
AcDbEntity
  8
0
 62
1
100
AcDbSpline
 70
8
 71
3
 72
8
 73
4
 74
0
 40
0
 40
0
 40
0
 40
0
 40
1
 40
1
 40
1
 40
1
 10
55.205230
 20
91.680439
 30
0.0
 10
56.507286
 20
92.431999
 30
0.0
 10
57.308868
 20
93.820826
 30
0.0
 10
57.307774
 20
95.323316
 30
0.0
  0
LWPOLYLINE
  5
10d
100
AcDbEntity
  8
0
 62
1
100
AcDbPolyline
 90
2
 70
0
 10
84.605677
 20
105.215546
 30
0.0
 10
52.165975
 20
105.215546
 30
0.0
  0
SPLINE
  5
10e
100
AcDbEntity
  8
0
 62
1
100
AcDbSpline
 70
8
 71
3
 72
8
 73
4
 74
0
 40
0
 40
0
 40
0
 40
0
 40
1
 40
1
 40
1
 40
1
 10
88.718963
 20
95.323316
 30
0.0
 10
88.719712
 20
96.825806
 30
0.0
 10
87.918473
 20
98.214634
 30
0.0
 10
86.616412
 20
98.966201
 30
0.0
  0
SPLINE
  5
10f
100
AcDbEntity
  8
0
 62
1
100
AcDbSpline
 70
8
 71
3
 72
8
 73
4
 74
0
 40
0
 40
0
 40
0
 40
0
 40
1
 40
1
 40
1
 40
1
 10
86.616412
 20
98.966201
 30
0.0
 10
85.314360
 20
99.717761
 30
0.0
 10
83.709847
 20
99.717761
 30
0.0
 10
82.407795
 20
98.966201
 30
0.0
  0
SPLINE
  5
110
100
AcDbEntity
  8
0
 62
1
100
AcDbSpline
 70
8
 71
3
 72
8
 73
4
 74
0
 40
0
 40
0
 40
0
 40
0
 40
1
 40
1
 40
1
 40
1
 10
82.407795
 20
98.966201
 30
0.0
 10
81.105735
 20
98.214634
 30
0.0
 10
80.304158
 20
96.825806
 30
0.0
 10
80.305253
 20
95.323316
 30
0.0
  0
SPLINE
  5
111
100
AcDbEntity
  8
0
 62
1
100
AcDbSpline
 70
8
 71
3
 72
8
 73
4
 74
0
 40
0
 40
0
 40
0
 40
0
 40
1
 40
1
 40
1
 40
1
 10
80.305253
 20
95.323316
 30
0.0
 10
80.304502
 20
93.820826
 30
0.0
 10
81.105735
 20
92.431999
 30
0.0
 10
82.407795
 20
91.680439
 30
0.0
  0
SPLINE
  5
112
100
AcDbEntity
  8
0
 62
1
100
AcDbSpline
 70
8
 71
3
 72
8
 73
4
 74
0
 40
0
 40
0
 40
0
 40
0
 40
1
 40
1
 40
1
 40
1
 10
82.407795
 20
91.680439
 30
0.0
 10
83.709847
 20
90.928864
 30
0.0
 10
85.314360
 20
90.928864
 30
0.0
 10
86.616412
 20
91.680439
 30
0.0
  0
SPLINE
  5
113
100
AcDbEntity
  8
0
 62
1
100
AcDbSpline
 70
8
 71
3
 72
8
 73
4
 74
0
 40
0
 40
0
 40
0
 40
0
 40
1
 40
1
 40
1
 40
1
 10
86.616412
 20
91.680439
 30
0.0
 10
87.918473
 20
92.431999
 30
0.0
 10
88.720058
 20
93.820826
 30
0.0
 10
88.718963
 20
95.323316
 30
0.0
  0
LWPOLYLINE
  5
114
100
AcDbEntity
  8
0
 62
1
100
AcDbPolyline
 90
2
 70
0
 10
0.375000
 20
60.759439
 30
0.0
 10
0.375000
 20
13.035064
 30
0.0
  0
LWPOLYLINE
  5
115
100
AcDbEntity
  8
0
 62
1
100
AcDbPolyline
 90
2
 70
0
 10
119.849693
 20
65.842714
 30
0.0
 10
56.185945
 20
65.842714
 30
0.0
  0
LWPOLYLINE
  5
116
100
AcDbEntity
  8
0
 62
1
100
AcDbPolyline
 90
2
 70
0
 10
56.185945
 20
29.692639
 30
0.0
 10
119.849693
 20
29.692639
 30
0.0
  0
LWPOLYLINE
  5
117
100
AcDbEntity
  8
0
 62
1
100
AcDbPolyline
 90
2
 70
0
 10
119.849693
 20
65.842714
 30
0.0
 10
119.849693
 20
29.692639
 30
0.0
  0
LWPOLYLINE
  5
118
100
AcDbEntity
  8
0
 62
1
100
AcDbPolyline
 90
2
 70
0
 10
56.185945
 20
65.842714
 30
0.0
 10
56.185945
 20
29.692639
 30
0.0
  0
SPLINE
  5
119
100
AcDbEntity
  8
0
 62
1
100
AcDbSpline
 70
8
 71
3
 72
8
 73
4
 74
0
 40
0
 40
0
 40
0
 40
0
 40
1
 40
1
 40
1
 40
1
 10
136.396650
 20
60.759439
 30
0.0
 10
136.396658
 20
64.103914
 30
0.0
 10
135.066990
 20
67.311439
 30
0.0
 10
132.700177
 20
69.676414
 30
0.0
  0
SPLINE
  5
11a
100
AcDbEntity
  8
0
 62
1
100
AcDbSpline
 70
8
 71
3
 72
8
 73
4
 74
0
 40
0
 40
0
 40
0
 40
0
 40
1
 40
1
 40
1
 40
1
 10
4.071478
 20
69.676414
 30
0.0
 10
1.704660
 20
67.311439
 30
0.0
 10
0.374997
 20
64.103914
 30
0.0
 10
0.375000
 20
60.759439
 30
0.0
  0
SPLINE
  5
11b
100
AcDbEntity
  8
0
 62
1
100
AcDbSpline
 70
8
 71
3
 72
8
 73
4
 74
0
 40
0
 40
0
 40
0
 40
0
 40
1
 40
1
 40
1
 40
1
 10
123.776085
 20
0.374989
 30
0.0
 10
127.123267
 20
0.374989
 30
0.0
 10
130.333358
 20
1.703614
 30
0.0
 10
132.700170
 20
4.068514
 30
0.0
  0
SPLINE
  5
11c
100
AcDbEntity
  8
0
 62
1
100
AcDbSpline
 70
8
 71
3
 72
8
 73
4
 74
0
 40
0
 40
0
 40
0
 40
0
 40
1
 40
1
 40
1
 40
1
 10
132.700170
 20
4.118089
 30
0.0
 10
135.066990
 20
6.483064
 30
0.0
 10
136.396650
 20
9.690589
 30
0.0
 10
136.396650
 20
13.035064
 30
0.0
  0
SPLINE
  5
11d
100
AcDbEntity
  8
0
 62
1
100
AcDbSpline
 70
8
 71
3
 72
8
 73
4
 74
0
 40
0
 40
0
 40
0
 40
0
 40
1
 40
1
 40
1
 40
1
 10
0.375000
 20
13.035064
 30
0.0
 10
0.375000
 20
6.070489
 30
0.0
 10
6.025419
 20
0.424564
 30
0.0
 10
12.995564
 20
0.424564
 30
0.0
  0
LWPOLYLINE
  5
11e
100
AcDbEntity
  8
0
 62
1
100
AcDbPolyline
 90
2
 70
0
 10
132.700177
 20
69.676414
 30
0.0
 10
92.583390
 20
102.376556
 30
0.0
  0
LWPOLYLINE
  5
11f
100
AcDbEntity
  8
0
 62
1
100
AcDbPolyline
 90
2
 70
0
 10
44.188261
 20
102.376556
 30
0.0
 10
4.071478
 20
69.676414
 30
0.0
  0
LWPOLYLINE
  5
120
100
AcDbEntity
  8
0
 62
1
100
AcDbPolyline
 90
4
 70
0
 10
12.995566
 20
0.374989
 30
0.0
 10
12.995566
 20
7.133914
 30
0.0
 10
42.009346
 20
7.133914
 30
0.0
 10
42.009346
 20
0.374989
 30
0.0
  0
LWPOLYLINE
  5
121
100
AcDbEntity
  8
0
 62
1
100
AcDbPolyline
 90
4
 70
0
 10
123.962445
 20
0.374989
 30
0.0
 10
123.962445
 20
7.133914
 30
0.0
 10
94.948665
 20
7.133914
 30
0.0
 10
94.948665
 20
0.374989
 30
0.0
  0
SPLINE
  5
122
100
AcDbEntity
  8
0
 62
1
100
AcDbSpline
 70
8
 71
3
 72
8
 73
4
 74
0
 40
0
 40
0
 40
0
 40
0
 40
1
 40
1
 40
1
 40
1
 10
92.583390
 20
102.376556
 30
0.0
 10
90.330757
 20
104.212729
 30
0.0
 10
87.512782
 20
105.215546
 30
0.0
 10
84.605677
 20
105.215546
 30
0.0
  0
SPLINE
  5
123
100
AcDbEntity
  8
0
 62
1
100
AcDbSpline
 70
8
 71
3
 72
8
 73
4
 74
0
 40
0
 40
0
 40
0
 40
0
 40
1
 40
1
 40
1
 40
1
 10
52.165975
 20
105.215546
 30
0.0
 10
49.258867
 20
105.215546
 30
0.0
 10
46.440892
 20
104.212729
 30
0.0
 10
44.188261
 20
102.376556
 30
0.0
  0
LWPOLYLINE
  5
124
100
AcDbEntity
  8
0
 62
1
100
AcDbPolyline
 90
3
 70
0
 10
52.209331
 20
7.133914
 30
0.0
 10
64.697126
 20
7.133914
 30
0.0
 10
64.697126
 20
0.374989
 30
0.0
  0
LWPOLYLINE
  5
125
100
AcDbEntity
  8
0
 62
1
100
AcDbPolyline
 90
2
 70
0
 10
52.209331
 20
7.133914
 30
0.0
 10
52.209331
 20
0.374989
 30
0.0
  0
SPLINE
  5
126
100
AcDbEntity
  8
0
 62
1
100
AcDbSpline
 70
8
 71
3
 72
8
 73
4
 74
0
 40
0
 40
0
 40
0
 40
0
 40
1
 40
1
 40
1
 40
1
 10
50.576803
 20
47.767714
 30
0.0
 10
50.576803
 20
48.668764
 30
0.0
 10
50.095709
 20
49.501414
 30
0.0
 10
49.314746
 20
49.951939
 30
0.0
  0
SPLINE
  5
127
100
AcDbEntity
  8
0
 62
1
100
AcDbSpline
 70
8
 71
3
 72
8
 73
4
 74
0
 40
0
 40
0
 40
0
 40
0
 40
1
 40
1
 40
1
 40
1
 10
49.314746
 20
49.951939
 30
0.0
 10
48.533782
 20
50.402464
 30
0.0
 10
47.571595
 20
50.402464
 30
0.0
 10
46.790633
 20
49.951939
 30
0.0
  0
SPLINE
  5
128
100
AcDbEntity
  8
0
 62
1
100
AcDbSpline
 70
8
 71
3
 72
8
 73
4
 74
0
 40
0
 40
0
 40
0
 40
0
 40
1
 40
1
 40
1
 40
1
 10
46.790633
 20
49.951939
 30
0.0
 10
46.009668
 20
49.501414
 30
0.0
 10
45.528574
 20
48.668764
 30
0.0
 10
45.528574
 20
47.767714
 30
0.0
  0
SPLINE
  5
129
100
AcDbEntity
  8
0
 62
1
100
AcDbSpline
 70
8
 71
3
 72
8
 73
4
 74
0
 40
0
 40
0
 40
0
 40
0
 40
1
 40
1
 40
1
 40
1
 10
45.528574
 20
47.767714
 30
0.0
 10
45.528574
 20
46.866664
 30
0.0
 10
46.009668
 20
46.034014
 30
0.0
 10
46.790633
 20
45.583489
 30
0.0
  0
SPLINE
  5
12a
100
AcDbEntity
  8
0
 62
1
100
AcDbSpline
 70
8
 71
3
 72
8
 73
4
 74
0
 40
0
 40
0
 40
0
 40
0
 40
1
 40
1
 40
1
 40
1
 10
46.790633
 20
45.583489
 30
0.0
 10
47.571595
 20
45.132964
 30
0.0
 10
48.533782
 20
45.132964
 30
0.0
 10
49.314746
 20
45.583489
 30
0.0
  0
SPLINE
  5
12b
100
AcDbEntity
  8
0
 62
1
100
AcDbSpline
 70
8
 71
3
 72
8
 73
4
 74
0
 40
0
 40
0
 40
0
 40
0
 40
1
 40
1
 40
1
 40
1
 10
49.314746
 20
45.583489
 30
0.0
 10
50.095708
 20
46.034014
 30
0.0
 10
50.576803
 20
46.866664
 30
0.0
 10
50.576803
 20
47.767714
 30
0.0
  0
LWPOLYLINE
  5
12c
100
AcDbEntity
  8
0
 62
1
100
AcDbPolyline
 90
2
 70
0
 10
41.822986
 20
0.374989
 30
0.0
 10
52.413222
 20
0.374989
 30
0.0
  0
SPLINE
  5
12d
100
AcDbEntity
  8
0
 62
1
100
AcDbSpline
 70
8
 71
3
 72
8
 73
4
 74
0
 40
0
 40
0
 40
0
 40
0
 40
1
 40
1
 40
1
 40
1
 10
130.507058
 20
47.767714
 30
0.0
 10
130.507058
 20
48.668764
 30
0.0
 10
130.025962
 20
49.501414
 30
0.0
 10
129.244995
 20
49.951939
 30
0.0
  0
SPLINE
  5
12e
100
AcDbEntity
  8
0
 62
1
100
AcDbSpline
 70
8
 71
3
 72
8
 73
4
 74
0
 40
0
 40
0
 40
0
 40
0
 40
1
 40
1
 40
1
 40
1
 10
129.244995
 20
49.951939
 30
0.0
 10
128.464035
 20
50.402464
 30
0.0
 10
127.501845
 20
50.402464
 30
0.0
 10
126.720885
 20
49.951939
 30
0.0
  0
SPLINE
  5
12f
100
AcDbEntity
  8
0
 62
1
100
AcDbSpline
 70
8
 71
3
 72
8
 73
4
 74
0
 40
0
 40
0
 40
0
 40
0
 40
1
 40
1
 40
1
 40
1
 10
126.720885
 20
49.951939
 30
0.0
 10
125.939925
 20
49.501414
 30
0.0
 10
125.458830
 20
48.668764
 30
0.0
 10
125.458830
 20
47.767714
 30
0.0
  0
SPLINE
  5
130
100
AcDbEntity
  8
0
 62
1
100
AcDbSpline
 70
8
 71
3
 72
8
 73
4
 74
0
 40
0
 40
0
 40
0
 40
0
 40
1
 40
1
 40
1
 40
1
 10
125.458830
 20
47.767714
 30
0.0
 10
125.458830
 20
46.866664
 30
0.0
 10
125.939925
 20
46.034014
 30
0.0
 10
126.720885
 20
45.583489
 30
0.0
  0
SPLINE
  5
131
100
AcDbEntity
  8
0
 62
1
100
AcDbSpline
 70
8
 71
3
 72
8
 73
4
 74
0
 40
0
 40
0
 40
0
 40
0
 40
1
 40
1
 40
1
 40
1
 10
126.720885
 20
45.583489
 30
0.0
 10
127.501845
 20
45.132964
 30
0.0
 10
128.464035
 20
45.132964
 30
0.0
 10
129.244995
 20
45.583489
 30
0.0
  0
SPLINE
  5
132
100
AcDbEntity
  8
0
 62
1
100
AcDbSpline
 70
8
 71
3
 72
8
 73
4
 74
0
 40
0
 40
0
 40
0
 40
0
 40
1
 40
1
 40
1
 40
1
 10
129.244995
 20
45.583489
 30
0.0
 10
130.025962
 20
46.034014
 30
0.0
 10
130.507050
 20
46.866664
 30
0.0
 10
130.507050
 20
47.767714
 30
0.0
  0
LWPOLYLINE
  5
133
100
AcDbEntity
  8
0
 62
1
100
AcDbPolyline
 90
2
 70
0
 10
84.563153
 20
0.374989
 30
0.0
 10
95.153385
 20
0.374989
 30
0.0
  0
LWPOLYLINE
  5
134
100
AcDbEntity
  8
0
 62
1
100
AcDbPolyline
 90
3
 70
0
 10
72.193583
 20
7.133914
 30
0.0
 10
84.681367
 20
7.133914
 30
0.0
 10
84.681367
 20
0.374989
 30
0.0
  0
LWPOLYLINE
  5
135
100
AcDbEntity
  8
0
 62
1
100
AcDbPolyline
 90
2
 70
0
 10
72.193583
 20
7.133914
 30
0.0
 10
72.193583
 20
0.374989
 30
0.0
  0
LWPOLYLINE
  5
136
100
AcDbEntity
  8
0
 62
1
100
AcDbPolyline
 90
2
 70
0
 10
64.607243
 20
0.375064
 30
0.0
 10
72.362834
 20
0.375064
 30
0.0
  0
ENDSEC
  0
SECTION
  2
OBJECTS
  0
DICTIONARY
  5
C
330
0
100
AcDbDictionary
  3
ACAD_GROUP
350
D
  3
ACAD_MLINESTYLE
350
17
  0
DICTIONARY
  5
D
330
C
100
AcDbDictionary
  0
DICTIONARY
  5
1A
330
C
100
AcDbDictionary
  0
DICTIONARY
  5
17
330
C
100
AcDbDictionary
  3
STANDARD
350
18
  0
DICTIONARY
  5
19
330
C
100
AcDbDictionary
  0
ENDSEC
  0
EOF
