<?xml version="1.0" encoding="UTF-8" standalone="no"?>
<svg
   xmlns:dc="http://purl.org/dc/elements/1.1/"
   xmlns:cc="http://creativecommons.org/ns#"
   xmlns:rdf="http://www.w3.org/1999/02/22-rdf-syntax-ns#"
   xmlns:svg="http://www.w3.org/2000/svg"
   xmlns="http://www.w3.org/2000/svg"
   xmlns:sodipodi="http://sodipodi.sourceforge.net/DTD/sodipodi-0.dtd"
   xmlns:inkscape="http://www.inkscape.org/namespaces/inkscape"
   width="793.700787402"
   height="1122.51968504"
   version="1.1"
   id="svg244"
   sodipodi:docname="new_princer_base.svg"
   inkscape:version="0.92.2 5c3e80d, 2017-08-06">
  <metadata
     id="metadata248">
    <rdf:RDF>
      <cc:Work
         rdf:about="">
        <dc:format>image/svg+xml</dc:format>
        <dc:type
           rdf:resource="http://purl.org/dc/dcmitype/StillImage" />
        <dc:title></dc:title>
      </cc:Work>
    </rdf:RDF>
  </metadata>
  <sodipodi:namedview
     pagecolor="#ffffff"
     bordercolor="#666666"
     borderopacity="1"
     objecttolerance="10"
     gridtolerance="10"
     guidetolerance="10"
     inkscape:pageopacity="0"
     inkscape:pageshadow="2"
     inkscape:window-width="1446"
     inkscape:window-height="863"
     id="namedview246"
     showgrid="false"
     inkscape:zoom="0.21024131"
     inkscape:cx="396.8504"
     inkscape:cy="561.25983"
     inkscape:window-x="0"
     inkscape:window-y="0"
     inkscape:window-maximized="0"
     inkscape:current-layer="g242" />
  <desc
     id="desc116">/Users/binitshah/Projects/Hardware/KasparovBot/Lasercuts/Pincer/new_princer_base.dxf - scale = 1.000000, origin = (0.000000, 0.000000), method = manual</desc>
  <defs
     id="defs130">
    <marker
       id="DistanceX"
       orient="auto"
       refX="0.0"
       refY="0.0"
       style="overflow:visible">
      <path
         d="M 3,-3 L -3,3 M 0,-5 L  0,5"
         style="stroke:#000000; stroke-width:0.5"
         id="path118" />
    </marker>
    <pattern
       height="8"
       id="Hatch"
       patternUnits="userSpaceOnUse"
       width="8"
       x="0"
       y="0">
      <path
         d="M8 4 l-4,4"
         linecap="square"
         stroke="#000000"
         stroke-width="0.25"
         id="path121" />
      <path
         d="M6 2 l-4,4"
         linecap="square"
         stroke="#000000"
         stroke-width="0.25"
         id="path123" />
      <path
         d="M4 0 l-4,4"
         linecap="square"
         stroke="#000000"
         stroke-width="0.25"
         id="path125" />
    </pattern>
    <symbol
       id="*MODEL_SPACE" />
    <symbol
       id="*PAPER_SPACE" />
  </defs>
  <g
     inkscape:groupmode="layer"
     inkscape:label="0"
     id="g242">
    <path
       d="m 54.769812,1057.9229 c 0,-2.0123 -1.073129,-3.8716 -2.815144,-4.8778"
       style="fill:none;stroke:#ff0000;stroke-width:0.35431349"
       id="path132"
       inkscape:connector-curvature="0" />
    <path
       d="m 51.954668,1053.0451 c -1.742015,-1.0061 -3.888268,-1.0061 -5.630282,0"
       style="fill:none;stroke:#ff0000;stroke-width:0.35431349"
       id="path134"
       inkscape:connector-curvature="0" />
    <path
       d="m 46.324386,1053.0451 c -1.742015,1.0062 -2.815141,2.8655 -2.815141,4.8778"
       style="fill:none;stroke:#ff0000;stroke-width:0.35431349"
       id="path136"
       inkscape:connector-curvature="0" />
    <path
       d="m 43.509245,1057.9229 c 0,2.0123 1.073126,3.8716 2.815141,4.8778"
       style="fill:none;stroke:#ff0000;stroke-width:0.35431349"
       id="path138"
       inkscape:connector-curvature="0" />
    <path
       d="m 46.324386,1062.8007 c 1.742014,1.0061 3.888267,1.0061 5.630282,0"
       style="fill:none;stroke:#ff0000;stroke-width:0.35431349"
       id="path140"
       inkscape:connector-curvature="0" />
    <path
       d="m 51.954668,1062.8007 c 1.742015,-1.0062 2.815144,-2.8655 2.815144,-4.8778"
       style="fill:none;stroke:#ff0000;stroke-width:0.35431349"
       id="path142"
       inkscape:connector-curvature="0" />
    <path
       d="m 183.14016,1104.4618 v -63.9467"
       style="fill:none;stroke:#ff0000;stroke-width:0.35431349"
       id="path144"
       inkscape:connector-curvature="0" />
    <path
       d="m 77.290922,994.20232 c 0.0014,-2.01322 -1.071339,-3.87413 -2.813956,-4.88117"
       style="fill:none;stroke:#ff0000;stroke-width:0.35431349"
       id="path146"
       inkscape:connector-curvature="0" />
    <path
       d="m 74.476966,989.32115 c -1.742613,-1.00703 -3.890029,-1.00703 -5.632644,0"
       style="fill:none;stroke:#ff0000;stroke-width:0.35431349"
       id="path148"
       inkscape:connector-curvature="0" />
    <path
       d="m 68.844322,989.32115 c -1.742617,1.00704 -2.815421,2.86795 -2.813957,4.88117"
       style="fill:none;stroke:#ff0000;stroke-width:0.35431349"
       id="path150"
       inkscape:connector-curvature="0" />
    <path
       d="m 66.030365,994.20232 c -0.0014,2.01321 1.07134,3.87412 2.813957,4.88115"
       style="fill:none;stroke:#ff0000;stroke-width:0.35431349"
       id="path152"
       inkscape:connector-curvature="0" />
    <path
       d="m 68.844322,999.08347 c 1.742615,1.00703 3.890031,1.00703 5.632644,0"
       style="fill:none;stroke:#ff0000;stroke-width:0.35431349"
       id="path154"
       inkscape:connector-curvature="0" />
    <path
       d="m 74.476966,999.08347 c 1.742617,-1.00703 2.815421,-2.86794 2.813956,-4.88115"
       style="fill:none;stroke:#ff0000;stroke-width:0.35431349"
       id="path156"
       inkscape:connector-curvature="0" />
    <path
       d="M 113.8253,980.94755 H 70.409354"
       style="fill:none;stroke:#ff0000;stroke-width:0.35431349"
       id="path158"
       inkscape:connector-curvature="0" />
    <path
       d="m 119.33035,994.20232 c 0.001,-2.01322 -1.07135,-3.87413 -2.81397,-4.88117"
       style="fill:none;stroke:#ff0000;stroke-width:0.35431349"
       id="path160"
       inkscape:connector-curvature="0" />
    <path
       d="m 116.51638,989.32115 c -1.74262,-1.00703 -3.89003,-1.00703 -5.63264,0"
       style="fill:none;stroke:#ff0000;stroke-width:0.35431349"
       id="path162"
       inkscape:connector-curvature="0" />
    <path
       d="m 110.88374,989.32115 c -1.74262,1.00704 -2.81542,2.86795 -2.81395,4.88117"
       style="fill:none;stroke:#ff0000;stroke-width:0.35431349"
       id="path164"
       inkscape:connector-curvature="0" />
    <path
       d="m 108.06979,994.20232 c -10e-4,2.01321 1.07133,3.87412 2.81395,4.88115"
       style="fill:none;stroke:#ff0000;stroke-width:0.35431349"
       id="path166"
       inkscape:connector-curvature="0" />
    <path
       d="m 110.88374,999.08347 c 1.74261,1.00703 3.89002,1.00703 5.63264,0"
       style="fill:none;stroke:#ff0000;stroke-width:0.35431349"
       id="path168"
       inkscape:connector-curvature="0" />
    <path
       d="m 116.51638,999.08347 c 1.74262,-1.00703 2.81543,-2.86794 2.81397,-4.88115"
       style="fill:none;stroke:#ff0000;stroke-width:0.35431349"
       id="path170"
       inkscape:connector-curvature="0" />
    <path
       d="m 1.0944797,1040.5151 v 63.9467"
       style="fill:none;stroke:#ff0000;stroke-width:0.35431349"
       id="path172"
       inkscape:connector-curvature="0" />
    <path
       d="M 160.99442,1033.7039 H 75.789514"
       style="fill:none;stroke:#ff0000;stroke-width:0.35431349"
       id="path174"
       inkscape:connector-curvature="0" />
    <path
       d="M 75.789514,1082.142 H 160.99442"
       style="fill:none;stroke:#ff0000;stroke-width:0.35431349"
       id="path176"
       inkscape:connector-curvature="0" />
    <path
       d="m 160.99442,1033.7039 v 48.4381"
       style="fill:none;stroke:#ff0000;stroke-width:0.35431349"
       id="path178"
       inkscape:connector-curvature="0" />
    <path
       d="m 75.789514,1033.7039 v 48.4381"
       style="fill:none;stroke:#ff0000;stroke-width:0.35431349"
       id="path180"
       inkscape:connector-curvature="0" />
    <path
       d="m 183.14016,1040.5151 c 1e-5,-4.4814 -1.77956,-8.7792 -4.9472,-11.9481"
       style="fill:none;stroke:#ff0000;stroke-width:0.35431349"
       id="path182"
       inkscape:connector-curvature="0" />
    <path
       d="m 6.0416911,1028.567 c -3.1676502,3.1689 -4.9472156,7.4667 -4.9472114,11.9481"
       style="fill:none;stroke:#ff0000;stroke-width:0.35431349"
       id="path184"
       inkscape:connector-curvature="0" />
    <path
       d="m 166.24933,1121.4252 c 4.47973,0 8.77598,-1.7802 11.94362,-4.949"
       style="fill:none;stroke:#ff0000;stroke-width:0.35431349"
       id="path186"
       inkscape:connector-curvature="0" />
    <path
       d="m 178.19295,1116.4098 c 3.16765,-3.1689 4.94721,-7.4667 4.94721,-11.948"
       style="fill:none;stroke:#ff0000;stroke-width:0.35431349"
       id="path188"
       inkscape:connector-curvature="0" />
    <path
       d="m 1.0944797,1104.4618 c 0,9.3319 7.5622844,16.897 16.8908353,16.897"
       style="fill:none;stroke:#ff0000;stroke-width:0.35431349"
       id="path190"
       inkscape:connector-curvature="0" />
    <path
       d="M 178.19296,1028.567 124.50233,984.75156"
       style="fill:none;stroke:#ff0000;stroke-width:0.35431349"
       id="path192"
       inkscape:connector-curvature="0" />
    <path
       d="M 59.732316,984.75156 6.0416911,1028.567"
       style="fill:none;stroke:#ff0000;stroke-width:0.35431349"
       id="path194"
       inkscape:connector-curvature="0" />
    <path
       d="m 17.985318,1121.4252 v -9.0563 h 38.830829 v 9.0563"
       style="fill:none;stroke:#ff0000;stroke-width:0.35431349"
       id="path196"
       inkscape:connector-curvature="0" />
    <path
       d="m 166.49874,1121.4252 v -9.0563 h -38.83082 v 9.0563"
       style="fill:none;stroke:#ff0000;stroke-width:0.35431349"
       id="path198"
       inkscape:connector-curvature="0" />
    <path
       d="m 124.50233,984.75156 c -3.01483,-2.46032 -6.78629,-3.80401 -10.67703,-3.80401"
       style="fill:none;stroke:#ff0000;stroke-width:0.35431349"
       id="path200"
       inkscape:connector-curvature="0" />
    <path
       d="m 70.409354,980.94755 c -3.890752,0 -7.662212,1.34369 -10.677038,3.80401"
       style="fill:none;stroke:#ff0000;stroke-width:0.35431349"
       id="path202"
       inkscape:connector-curvature="0" />
    <path
       d="m 70.46738,1112.3689 h 16.713143 v 9.0563"
       style="fill:none;stroke:#ff0000;stroke-width:0.35431349"
       id="path204"
       inkscape:connector-curvature="0" />
    <path
       d="m 70.46738,1112.3689 v 9.0563"
       style="fill:none;stroke:#ff0000;stroke-width:0.35431349"
       id="path206"
       inkscape:connector-curvature="0" />
    <path
       d="m 68.282473,1057.9229 c 0,-1.2073 -0.643876,-2.323 -1.689084,-2.9267"
       style="fill:none;stroke:#ff0000;stroke-width:0.35431349"
       id="path208"
       inkscape:connector-curvature="0" />
    <path
       d="m 66.593389,1054.9962 c -1.04521,-0.6036 -2.332961,-0.6036 -3.378168,0"
       style="fill:none;stroke:#ff0000;stroke-width:0.35431349"
       id="path210"
       inkscape:connector-curvature="0" />
    <path
       d="m 63.215221,1054.9962 c -1.045211,0.6037 -1.689087,1.7194 -1.689087,2.9267"
       style="fill:none;stroke:#ff0000;stroke-width:0.35431349"
       id="path212"
       inkscape:connector-curvature="0" />
    <path
       d="m 61.526134,1057.9229 c 0,1.2073 0.643876,2.323 1.689087,2.9267"
       style="fill:none;stroke:#ff0000;stroke-width:0.35431349"
       id="path214"
       inkscape:connector-curvature="0" />
    <path
       d="m 63.215221,1060.8496 c 1.045207,0.6036 2.332958,0.6036 3.378168,0"
       style="fill:none;stroke:#ff0000;stroke-width:0.35431349"
       id="path216"
       inkscape:connector-curvature="0" />
    <path
       d="m 66.593389,1060.8496 c 1.045207,-0.6037 1.689084,-1.7194 1.689084,-2.9267"
       style="fill:none;stroke:#ff0000;stroke-width:0.35431349"
       id="path218"
       inkscape:connector-curvature="0" />
    <path
       d="M 56.56673,1121.4252 H 70.740259"
       style="fill:none;stroke:#ff0000;stroke-width:0.35431349"
       id="path220"
       inkscape:connector-curvature="0" />
    <path
       d="m 175.25778,1057.9229 c 0,-1.2073 -0.64388,-2.323 -1.68909,-2.9267"
       style="fill:none;stroke:#ff0000;stroke-width:0.35431349"
       id="path222"
       inkscape:connector-curvature="0" />
    <path
       d="m 173.56869,1054.9962 c -1.0452,-0.6036 -2.33295,-0.6036 -3.37817,0"
       style="fill:none;stroke:#ff0000;stroke-width:0.35431349"
       id="path224"
       inkscape:connector-curvature="0" />
    <path
       d="m 170.19052,1054.9962 c -1.0452,0.6037 -1.68907,1.7194 -1.68907,2.9267"
       style="fill:none;stroke:#ff0000;stroke-width:0.35431349"
       id="path226"
       inkscape:connector-curvature="0" />
    <path
       d="m 168.50145,1057.9229 c 0,1.2073 0.64387,2.323 1.68907,2.9267"
       style="fill:none;stroke:#ff0000;stroke-width:0.35431349"
       id="path228"
       inkscape:connector-curvature="0" />
    <path
       d="m 170.19052,1060.8496 c 1.04522,0.6036 2.33297,0.6036 3.37817,0"
       style="fill:none;stroke:#ff0000;stroke-width:0.35431349"
       id="path230"
       inkscape:connector-curvature="0" />
    <path
       d="m 173.56869,1060.8496 c 1.04521,-0.6037 1.68908,-1.7194 1.68908,-2.9267"
       style="fill:none;stroke:#ff0000;stroke-width:0.35431349"
       id="path232"
       inkscape:connector-curvature="0" />
    <path
       d="m 113.76838,1121.4252 h 14.17353"
       style="fill:none;stroke:#ff0000;stroke-width:0.35431349"
       id="path234"
       inkscape:connector-curvature="0" />
    <path
       d="m 97.213467,1112.3689 h 16.713123 v 9.0563"
       style="fill:none;stroke:#ff0000;stroke-width:0.35431349"
       id="path236"
       inkscape:connector-curvature="0" />
    <path
       d="m 97.213467,1112.3689 v 9.0563"
       style="fill:none;stroke:#ff0000;stroke-width:0.35431349"
       id="path238"
       inkscape:connector-curvature="0" />
    <path
       d="m 87.060226,1121.4251 h 10.37976"
       style="fill:none;stroke:#ff0000;stroke-width:0.35431349"
       id="path240"
       inkscape:connector-curvature="0" />
  </g>
</svg>
