  0
SECTION
  2
HEADER
  9
$ACADVER
  1
AC1014
  9
$HANDSEED
  5
FFFF
  9
$MEASUREMENT
 70
     1
  0
ENDSEC
  0
SECTION
  2
TABLES
  0
TABLE
  2
VPORT
  5
8
330
0
100
AcDbSymbolTable
 70
     4
  0
VPORT
  5
2E
330
8
100
AcDbSymbolTableRecord
100
AcDbViewportTableRecord
  2
*ACTIVE
 70
     0
 10
0.0
 20
0.0
 11
1.0
 21
1.0
 12
210.0
 22
148.5
 13
0.0
 23
0.0
 14
10.0
 24
10.0
 15
10.0
 25
10.0
 16
0.0
 26
0.0
 36
1.0
 17
0.0
 27
0.0
 37
0.0
 40
341.0
 41
1.24
 42
50.0
 43
0.0
 44
0.0
 50
0.0
 51
0.0
 71
     0
 72
   100
 73
     1
 74
     3
 75
     0
 76
     0
 77
     0
 78
     0
  0
ENDTAB
  0
TABLE
  2
LTYPE
  5
5
330
0
100
AcDbSymbolTable
 70
     1
  0
LTYPE
  5
14
330
5
100
AcDbSymbolTableRecord
100
AcDbLinetypeTableRecord
  2
BYBLOCK
 70
     0
  3

 72
    65
 73
     0
 40
0.0
  0
LTYPE
  5
15
330
5
100
AcDbSymbolTableRecord
100
AcDbLinetypeTableRecord
  2
BYLAYER
 70
     0
  3

 72
    65
 73
     0
 40
0.0
  0
LTYPE
  5
16
330
5
100
AcDbSymbolTableRecord
100
AcDbLinetypeTableRecord
  2
CONTINUOUS
 70
     0
  3
Solid line
 72
    65
 73
     0
 40
0.0
  0
ENDTAB
  0
TABLE
  2
LAYER
  5
2
100
AcDbSymbolTable
 70
1
  0
LAYER
  5
50
100
AcDbSymbolTableRecord
100
AcDbLayerTableRecord
  2
0
 70
0
  6
CONTINUOUS
  0
ENDTAB
  0
TABLE
  2
STYLE
  5
3
330
0
100
AcDbSymbolTable
 70
     1
  0
STYLE
  5
11
330
3
100
AcDbSymbolTableRecord
100
AcDbTextStyleTableRecord
  2
STANDARD
 70
     0
 40
0.0
 41
1.0
 50
0.0
 71
     0
 42
2.5
  3
txt
  4

  0
ENDTAB
  0
TABLE
  2
VIEW
  5
6
330
0
100
AcDbSymbolTable
 70
     0
  0
ENDTAB
  0
TABLE
  2
UCS
  5
7
330
0
100
AcDbSymbolTable
 70
     0
  0
ENDTAB
  0
TABLE
  2
APPID
  5
9
330
0
100
AcDbSymbolTable
 70
     2
  0
APPID
  5
12
330
9
100
AcDbSymbolTableRecord
100
AcDbRegAppTableRecord
  2
ACAD
 70
     0
  0
ENDTAB
  0
TABLE
  2
DIMSTYLE
  5
A
330
0
100
AcDbSymbolTable
 70
     1
  0
DIMSTYLE
105
27
330
A
100
AcDbSymbolTableRecord
100
AcDbDimStyleTableRecord
  2
ISO-25
 70
     0
  3

  4

  5

  6

  7

 40
1.0
 41
2.5
 42
0.625
 43
3.75
 44
1.25
 45
0.0
 46
0.0
 47
0.0
 48
0.0
140
2.5
141
2.5
142
0.0
143
0.03937007874016
144
1.0
145
0.0
146
1.0
147
0.625
 71
     0
 72
     0
 73
     0
 74
     0
 75
     0
 76
     0
 77
     1
 78
     8
170
     0
171
     3
172
     1
173
     0
174
     0
175
     0
176
     0
177
     0
178
     0
270
     2
271
     2
272
     2
273
     2
274
     3
340
11
275
     0
280
     0
281
     0
282
     0
283
     0
284
     8
285
     0
286
     0
287
     3
288
     0
  0
ENDTAB
  0
TABLE
  2
BLOCK_RECORD
  5
1
330
0
100
AcDbSymbolTable
 70
     1
  0
BLOCK_RECORD
  5
1F
330
1
100
AcDbSymbolTableRecord
100
AcDbBlockTableRecord
  2
*MODEL_SPACE
  0
BLOCK_RECORD
  5
1B
330
1
100
AcDbSymbolTableRecord
100
AcDbBlockTableRecord
  2
*PAPER_SPACE
  0
ENDTAB
  0
ENDSEC
  0
SECTION
  2
BLOCKS
  0
BLOCK
  5
20
330
1F
100
AcDbEntity
  8
0
100
AcDbBlockBegin
  2
*MODEL_SPACE
 70
     0
 10
0.0
 20
0.0
 30
0.0
  3
*MODEL_SPACE
  1

  0
ENDBLK
  5
21
330
1F
100
AcDbEntity
  8
0
100
AcDbBlockEnd
  0
BLOCK
  5
1C
330
1B
100
AcDbEntity
 67
     1
  8
0
100
AcDbBlockBegin
  2
*PAPER_SPACE
  1

  0
ENDBLK
  5
1D
330
1B
100
AcDbEntity
 67
     1
  8
0
100
AcDbBlockEnd
  0
ENDSEC
  0
SECTION
  2
ENTITIES
  0
SPLINE
  5
100
100
AcDbEntity
  8
0
 62
1
100
AcDbSpline
 70
8
 71
3
 72
8
 73
4
 74
0
 40
0
 40
0
 40
0
 40
0
 40
1
 40
1
 40
1
 40
1
 10
53.282057
 20
620.885171
 30
0.0
 10
53.282057
 20
622.404254
 30
0.0
 10
52.471635
 20
623.807945
 30
0.0
 10
51.156071
 20
624.567486
 30
0.0
  0
SPLINE
  5
101
100
AcDbEntity
  8
0
 62
1
100
AcDbSpline
 70
8
 71
3
 72
8
 73
4
 74
0
 40
0
 40
0
 40
0
 40
0
 40
1
 40
1
 40
1
 40
1
 10
51.156071
 20
624.567486
 30
0.0
 10
49.840506
 20
625.327028
 30
0.0
 10
48.219664
 20
625.327028
 30
0.0
 10
46.904100
 20
624.567486
 30
0.0
  0
SPLINE
  5
102
100
AcDbEntity
  8
0
 62
1
100
AcDbSpline
 70
8
 71
3
 72
8
 73
4
 74
0
 40
0
 40
0
 40
0
 40
0
 40
1
 40
1
 40
1
 40
1
 10
46.904100
 20
624.567486
 30
0.0
 10
45.588535
 20
623.807945
 30
0.0
 10
44.778114
 20
622.404254
 30
0.0
 10
44.778114
 20
620.885171
 30
0.0
  0
SPLINE
  5
103
100
AcDbEntity
  8
0
 62
1
100
AcDbSpline
 70
8
 71
3
 72
8
 73
4
 74
0
 40
0
 40
0
 40
0
 40
0
 40
1
 40
1
 40
1
 40
1
 10
44.778114
 20
620.885171
 30
0.0
 10
44.778114
 20
619.366088
 30
0.0
 10
45.588535
 20
617.962398
 30
0.0
 10
46.904100
 20
617.202856
 30
0.0
  0
SPLINE
  5
104
100
AcDbEntity
  8
0
 62
1
100
AcDbSpline
 70
8
 71
3
 72
8
 73
4
 74
0
 40
0
 40
0
 40
0
 40
0
 40
1
 40
1
 40
1
 40
1
 10
46.904100
 20
617.202856
 30
0.0
 10
48.219664
 20
616.443315
 30
0.0
 10
49.840506
 20
616.443315
 30
0.0
 10
51.156071
 20
617.202856
 30
0.0
  0
SPLINE
  5
105
100
AcDbEntity
  8
0
 62
1
100
AcDbSpline
 70
8
 71
3
 72
8
 73
4
 74
0
 40
0
 40
0
 40
0
 40
0
 40
1
 40
1
 40
1
 40
1
 10
51.156071
 20
617.202856
 30
0.0
 10
52.471635
 20
617.962398
 30
0.0
 10
53.282057
 20
619.366088
 30
0.0
 10
53.282057
 20
620.885171
 30
0.0
  0
LWPOLYLINE
  5
106
100
AcDbEntity
  8
0
 62
1
100
AcDbPolyline
 90
1
 70
1
 10
53.282057
 20
620.885171
 30
0.0
  0
LWPOLYLINE
  5
107
100
AcDbEntity
  8
0
 62
1
100
AcDbPolyline
 90
2
 70
0
 10
150.226935
 20
581.200129
 30
0.0
 10
150.226935
 20
634.026694
 30
0.0
  0
LWPOLYLINE
  5
108
100
AcDbEntity
  8
0
 62
1
100
AcDbPolyline
 90
2
 70
0
 10
97.880565
 20
678.995404
 30
0.0
 10
65.092989
 20
678.995404
 30
0.0
  0
SPLINE
  5
109
100
AcDbEntity
  8
0
 62
1
100
AcDbSpline
 70
8
 71
3
 72
8
 73
4
 74
0
 40
0
 40
0
 40
0
 40
0
 40
1
 40
1
 40
1
 40
1
 10
70.289927
 20
668.989106
 30
0.0
 10
70.291032
 20
670.508925
 30
0.0
 10
69.480854
 20
671.913768
 30
0.0
 10
68.164836
 20
672.673997
 30
0.0
  0
SPLINE
  5
10a
100
AcDbEntity
  8
0
 62
1
100
AcDbSpline
 70
8
 71
3
 72
8
 73
4
 74
0
 40
0
 40
0
 40
0
 40
0
 40
1
 40
1
 40
1
 40
1
 10
68.164836
 20
672.673997
 30
0.0
 10
66.848819
 20
673.434225
 30
0.0
 10
65.227099
 20
673.434225
 30
0.0
 10
63.911082
 20
672.673997
 30
0.0
  0
SPLINE
  5
10b
100
AcDbEntity
  8
0
 62
1
100
AcDbSpline
 70
8
 71
3
 72
8
 73
4
 74
0
 40
0
 40
0
 40
0
 40
0
 40
1
 40
1
 40
1
 40
1
 10
63.911082
 20
672.673997
 30
0.0
 10
62.595064
 20
671.913768
 30
0.0
 10
61.784886
 20
670.508925
 30
0.0
 10
61.785992
 20
668.989106
 30
0.0
  0
SPLINE
  5
10c
100
AcDbEntity
  8
0
 62
1
100
AcDbSpline
 70
8
 71
3
 72
8
 73
4
 74
0
 40
0
 40
0
 40
0
 40
0
 40
1
 40
1
 40
1
 40
1
 10
61.785992
 20
668.989106
 30
0.0
 10
61.784886
 20
667.469288
 30
0.0
 10
62.595064
 20
666.064445
 30
0.0
 10
63.911082
 20
665.304216
 30
0.0
  0
SPLINE
  5
10d
100
AcDbEntity
  8
0
 62
1
100
AcDbSpline
 70
8
 71
3
 72
8
 73
4
 74
0
 40
0
 40
0
 40
0
 40
0
 40
1
 40
1
 40
1
 40
1
 10
63.911082
 20
665.304216
 30
0.0
 10
65.227099
 20
664.543987
 30
0.0
 10
66.848819
 20
664.543987
 30
0.0
 10
68.164836
 20
665.304216
 30
0.0
  0
SPLINE
  5
10e
100
AcDbEntity
  8
0
 62
1
100
AcDbSpline
 70
8
 71
3
 72
8
 73
4
 74
0
 40
0
 40
0
 40
0
 40
0
 40
1
 40
1
 40
1
 40
1
 10
68.164836
 20
665.304216
 30
0.0
 10
69.480854
 20
666.064445
 30
0.0
 10
70.291032
 20
667.469288
 30
0.0
 10
70.289927
 20
668.989106
 30
0.0
  0
LWPOLYLINE
  5
10f
100
AcDbEntity
  8
0
 62
1
100
AcDbPolyline
 90
2
 70
0
 10
12.746620
 20
634.026694
 30
0.0
 10
12.746620
 20
581.200129
 30
0.0
  0
SPLINE
  5
110
100
AcDbEntity
  8
0
 62
1
100
AcDbSpline
 70
8
 71
3
 72
8
 73
4
 74
0
 40
0
 40
0
 40
0
 40
0
 40
1
 40
1
 40
1
 40
1
 10
102.037958
 20
668.989106
 30
0.0
 10
102.039063
 20
670.508925
 30
0.0
 10
101.228885
 20
671.913768
 30
0.0
 10
99.912867
 20
672.673997
 30
0.0
  0
SPLINE
  5
111
100
AcDbEntity
  8
0
 62
1
100
AcDbSpline
 70
8
 71
3
 72
8
 73
4
 74
0
 40
0
 40
0
 40
0
 40
0
 40
1
 40
1
 40
1
 40
1
 10
99.912867
 20
672.673997
 30
0.0
 10
98.596850
 20
673.434225
 30
0.0
 10
96.975130
 20
673.434225
 30
0.0
 10
95.659113
 20
672.673997
 30
0.0
  0
SPLINE
  5
112
100
AcDbEntity
  8
0
 62
1
100
AcDbSpline
 70
8
 71
3
 72
8
 73
4
 74
0
 40
0
 40
0
 40
0
 40
0
 40
1
 40
1
 40
1
 40
1
 10
95.659113
 20
672.673997
 30
0.0
 10
94.343095
 20
671.913768
 30
0.0
 10
93.532917
 20
670.508925
 30
0.0
 10
93.534023
 20
668.989106
 30
0.0
  0
SPLINE
  5
113
100
AcDbEntity
  8
0
 62
1
100
AcDbSpline
 70
8
 71
3
 72
8
 73
4
 74
0
 40
0
 40
0
 40
0
 40
0
 40
1
 40
1
 40
1
 40
1
 10
93.534023
 20
668.989106
 30
0.0
 10
93.532917
 20
667.469288
 30
0.0
 10
94.343095
 20
666.064445
 30
0.0
 10
95.659113
 20
665.304216
 30
0.0
  0
SPLINE
  5
114
100
AcDbEntity
  8
0
 62
1
100
AcDbSpline
 70
8
 71
3
 72
8
 73
4
 74
0
 40
0
 40
0
 40
0
 40
0
 40
1
 40
1
 40
1
 40
1
 10
95.659113
 20
665.304216
 30
0.0
 10
96.975130
 20
664.543987
 30
0.0
 10
98.596850
 20
664.543987
 30
0.0
 10
99.912867
 20
665.304216
 30
0.0
  0
SPLINE
  5
115
100
AcDbEntity
  8
0
 62
1
100
AcDbSpline
 70
8
 71
3
 72
8
 73
4
 74
0
 40
0
 40
0
 40
0
 40
0
 40
1
 40
1
 40
1
 40
1
 10
99.912867
 20
665.304216
 30
0.0
 10
101.228885
 20
666.064445
 30
0.0
 10
102.039063
 20
667.469288
 30
0.0
 10
102.037958
 20
668.989106
 30
0.0
  0
LWPOLYLINE
  5
116
100
AcDbEntity
  8
0
 62
1
100
AcDbPolyline
 90
1
 70
1
 10
70.289927
 20
668.989106
 30
0.0
  0
LWPOLYLINE
  5
117
100
AcDbEntity
  8
0
 62
1
100
AcDbPolyline
 90
1
 70
1
 10
102.037958
 20
668.989106
 30
0.0
  0
LWPOLYLINE
  5
118
100
AcDbEntity
  8
0
 62
1
100
AcDbPolyline
 90
2
 70
0
 10
133.502527
 20
639.168634
 30
0.0
 10
69.156069
 20
639.168634
 30
0.0
  0
LWPOLYLINE
  5
119
100
AcDbEntity
  8
0
 62
1
100
AcDbPolyline
 90
2
 70
0
 10
69.156069
 20
602.601701
 30
0.0
 10
133.502527
 20
602.601701
 30
0.0
  0
LWPOLYLINE
  5
11a
100
AcDbEntity
  8
0
 62
1
100
AcDbPolyline
 90
2
 70
0
 10
133.502527
 20
639.168634
 30
0.0
 10
133.502527
 20
602.601701
 30
0.0
  0
LWPOLYLINE
  5
11b
100
AcDbEntity
  8
0
 62
1
100
AcDbPolyline
 90
2
 70
0
 10
69.156069
 20
639.168634
 30
0.0
 10
69.156069
 20
602.601701
 30
0.0
  0
LWPOLYLINE
  5
11c
100
AcDbEntity
  8
0
 62
1
100
AcDbPolyline
 90
2
 70
0
 10
146.490817
 20
643.046486
 30
0.0
 10
105.943830
 20
676.123676
 30
0.0
  0
SPLINE
  5
11d
100
AcDbEntity
  8
0
 62
1
100
AcDbSpline
 70
8
 71
3
 72
8
 73
4
 74
0
 40
0
 40
0
 40
0
 40
0
 40
1
 40
1
 40
1
 40
1
 10
150.226935
 20
634.026694
 30
0.0
 10
150.226937
 20
637.409772
 30
0.0
 10
148.883015
 20
640.654289
 30
0.0
 10
146.490817
 20
643.046486
 30
0.0
  0
SPLINE
  5
11e
100
AcDbEntity
  8
0
 62
1
100
AcDbSpline
 70
8
 71
3
 72
8
 73
4
 74
0
 40
0
 40
0
 40
0
 40
0
 40
1
 40
1
 40
1
 40
1
 10
16.482738
 20
643.046486
 30
0.0
 10
14.090540
 20
640.654289
 30
0.0
 10
12.746618
 20
637.409772
 30
0.0
 10
12.746620
 20
634.026694
 30
0.0
  0
SPLINE
  5
11f
100
AcDbEntity
  8
0
 62
1
100
AcDbSpline
 70
8
 71
3
 72
8
 73
4
 74
0
 40
0
 40
0
 40
0
 40
0
 40
1
 40
1
 40
1
 40
1
 10
137.471025
 20
568.444226
 30
0.0
 10
140.854102
 20
568.444225
 30
0.0
 10
144.098617
 20
569.788146
 30
0.0
 10
146.490814
 20
572.180342
 30
0.0
  0
SPLINE
  5
120
100
AcDbEntity
  8
0
 62
1
100
AcDbSpline
 70
8
 71
3
 72
8
 73
4
 74
0
 40
0
 40
0
 40
0
 40
0
 40
1
 40
1
 40
1
 40
1
 10
146.490814
 20
572.180342
 30
0.0
 10
148.883011
 20
574.572538
 30
0.0
 10
150.226934
 20
577.817052
 30
0.0
 10
150.226935
 20
581.200129
 30
0.0
  0
SPLINE
  5
121
100
AcDbEntity
  8
0
 62
1
100
AcDbSpline
 70
8
 71
3
 72
8
 73
4
 74
0
 40
0
 40
0
 40
0
 40
0
 40
1
 40
1
 40
1
 40
1
 10
12.746620
 20
581.200129
 30
0.0
 10
12.746621
 20
574.155238
 30
0.0
 10
18.457634
 20
568.444226
 30
0.0
 10
25.502525
 20
568.444226
 30
0.0
  0
LWPOLYLINE
  5
122
100
AcDbEntity
  8
0
 62
1
100
AcDbPolyline
 90
2
 70
0
 10
57.029724
 20
676.123676
 30
0.0
 10
16.482738
 20
643.046486
 30
0.0
  0
LWPOLYLINE
  5
123
100
AcDbEntity
  8
0
 62
1
100
AcDbPolyline
 90
4
 70
0
 10
25.502525
 20
568.444226
 30
0.0
 10
25.502525
 20
579.782809
 30
0.0
 10
42.510399
 20
579.782809
 30
0.0
 10
42.510399
 20
568.444226
 30
0.0
  0
LWPOLYLINE
  5
124
100
AcDbEntity
  8
0
 62
1
100
AcDbPolyline
 90
4
 70
0
 10
137.471025
 20
568.444226
 30
0.0
 10
137.471025
 20
579.782809
 30
0.0
 10
120.463155
 20
579.782809
 30
0.0
 10
120.463155
 20
568.444226
 30
0.0
  0
LWPOLYLINE
  5
125
100
AcDbEntity
  8
0
 62
1
100
AcDbPolyline
 90
3
 70
0
 10
64.478904
 20
579.782809
 30
0.0
 10
98.494650
 20
579.782809
 30
0.0
 10
98.494650
 20
568.444226
 30
0.0
  0
SPLINE
  5
126
100
AcDbEntity
  8
0
 62
1
100
AcDbSpline
 70
8
 71
3
 72
8
 73
4
 74
0
 40
0
 40
0
 40
0
 40
0
 40
1
 40
1
 40
1
 40
1
 10
105.943830
 20
676.123676
 30
0.0
 10
103.667041
 20
677.981023
 30
0.0
 10
100.818848
 20
678.995405
 30
0.0
 10
97.880565
 20
678.995404
 30
0.0
  0
SPLINE
  5
127
100
AcDbEntity
  8
0
 62
1
100
AcDbSpline
 70
8
 71
3
 72
8
 73
4
 74
0
 40
0
 40
0
 40
0
 40
0
 40
1
 40
1
 40
1
 40
1
 10
65.092989
 20
678.995404
 30
0.0
 10
62.154706
 20
678.995405
 30
0.0
 10
59.306513
 20
677.981023
 30
0.0
 10
57.029724
 20
676.123676
 30
0.0
  0
LWPOLYLINE
  5
128
100
AcDbEntity
  8
0
 62
1
100
AcDbPolyline
 90
2
 70
0
 10
64.478904
 20
579.782809
 30
0.0
 10
64.478904
 20
568.444226
 30
0.0
  0
LWPOLYLINE
  5
129
100
AcDbEntity
  8
0
 62
1
100
AcDbPolyline
 90
2
 70
0
 10
42.510399
 20
568.444226
 30
0.0
 10
64.478904
 20
568.444226
 30
0.0
  0
SPLINE
  5
12a
100
AcDbEntity
  8
0
 62
1
100
AcDbSpline
 70
8
 71
3
 72
8
 73
4
 74
0
 40
0
 40
0
 40
0
 40
0
 40
1
 40
1
 40
1
 40
1
 10
63.486774
 20
620.885171
 30
0.0
 10
63.486774
 20
621.796621
 30
0.0
 10
63.000522
 20
622.638834
 30
0.0
 10
62.211183
 20
623.094559
 30
0.0
  0
SPLINE
  5
12b
100
AcDbEntity
  8
0
 62
1
100
AcDbSpline
 70
8
 71
3
 72
8
 73
4
 74
0
 40
0
 40
0
 40
0
 40
0
 40
1
 40
1
 40
1
 40
1
 10
62.211183
 20
623.094559
 30
0.0
 10
61.421845
 20
623.550284
 30
0.0
 10
60.449340
 20
623.550284
 30
0.0
 10
59.660002
 20
623.094559
 30
0.0
  0
SPLINE
  5
12c
100
AcDbEntity
  8
0
 62
1
100
AcDbSpline
 70
8
 71
3
 72
8
 73
4
 74
0
 40
0
 40
0
 40
0
 40
0
 40
1
 40
1
 40
1
 40
1
 10
59.660002
 20
623.094559
 30
0.0
 10
58.870664
 20
622.638834
 30
0.0
 10
58.384411
 20
621.796621
 30
0.0
 10
58.384411
 20
620.885171
 30
0.0
  0
SPLINE
  5
12d
100
AcDbEntity
  8
0
 62
1
100
AcDbSpline
 70
8
 71
3
 72
8
 73
4
 74
0
 40
0
 40
0
 40
0
 40
0
 40
1
 40
1
 40
1
 40
1
 10
58.384411
 20
620.885171
 30
0.0
 10
58.384411
 20
619.973722
 30
0.0
 10
58.870664
 20
619.131508
 30
0.0
 10
59.660002
 20
618.675784
 30
0.0
  0
SPLINE
  5
12e
100
AcDbEntity
  8
0
 62
1
100
AcDbSpline
 70
8
 71
3
 72
8
 73
4
 74
0
 40
0
 40
0
 40
0
 40
0
 40
1
 40
1
 40
1
 40
1
 10
59.660002
 20
618.675784
 30
0.0
 10
60.449340
 20
618.220059
 30
0.0
 10
61.421845
 20
618.220059
 30
0.0
 10
62.211183
 20
618.675784
 30
0.0
  0
SPLINE
  5
12f
100
AcDbEntity
  8
0
 62
1
100
AcDbSpline
 70
8
 71
3
 72
8
 73
4
 74
0
 40
0
 40
0
 40
0
 40
0
 40
1
 40
1
 40
1
 40
1
 10
62.211183
 20
618.675784
 30
0.0
 10
63.000522
 20
619.131508
 30
0.0
 10
63.486774
 20
619.973722
 30
0.0
 10
63.486774
 20
620.885171
 30
0.0
  0
LWPOLYLINE
  5
130
100
AcDbEntity
  8
0
 62
1
100
AcDbPolyline
 90
2
 70
0
 10
98.494650
 20
568.444226
 30
0.0
 10
120.463155
 20
568.444226
 30
0.0
  0
SPLINE
  5
131
100
AcDbEntity
  8
0
 62
1
100
AcDbSpline
 70
8
 71
3
 72
8
 73
4
 74
0
 40
0
 40
0
 40
0
 40
0
 40
1
 40
1
 40
1
 40
1
 10
144.274178
 20
620.885171
 30
0.0
 10
144.274178
 20
621.796621
 30
0.0
 10
143.787925
 20
622.638834
 30
0.0
 10
142.998587
 20
623.094559
 30
0.0
  0
SPLINE
  5
132
100
AcDbEntity
  8
0
 62
1
100
AcDbSpline
 70
8
 71
3
 72
8
 73
4
 74
0
 40
0
 40
0
 40
0
 40
0
 40
1
 40
1
 40
1
 40
1
 10
142.998587
 20
623.094559
 30
0.0
 10
142.209249
 20
623.550284
 30
0.0
 10
141.236744
 20
623.550284
 30
0.0
 10
140.447406
 20
623.094559
 30
0.0
  0
SPLINE
  5
133
100
AcDbEntity
  8
0
 62
1
100
AcDbSpline
 70
8
 71
3
 72
8
 73
4
 74
0
 40
0
 40
0
 40
0
 40
0
 40
1
 40
1
 40
1
 40
1
 10
140.447406
 20
623.094559
 30
0.0
 10
139.658067
 20
622.638834
 30
0.0
 10
139.171815
 20
621.796621
 30
0.0
 10
139.171815
 20
620.885171
 30
0.0
  0
SPLINE
  5
134
100
AcDbEntity
  8
0
 62
1
100
AcDbSpline
 70
8
 71
3
 72
8
 73
4
 74
0
 40
0
 40
0
 40
0
 40
0
 40
1
 40
1
 40
1
 40
1
 10
139.171815
 20
620.885171
 30
0.0
 10
139.171815
 20
619.973722
 30
0.0
 10
139.658067
 20
619.131508
 30
0.0
 10
140.447406
 20
618.675784
 30
0.0
  0
SPLINE
  5
135
100
AcDbEntity
  8
0
 62
1
100
AcDbSpline
 70
8
 71
3
 72
8
 73
4
 74
0
 40
0
 40
0
 40
0
 40
0
 40
1
 40
1
 40
1
 40
1
 10
140.447406
 20
618.675784
 30
0.0
 10
141.236744
 20
618.220059
 30
0.0
 10
142.209249
 20
618.220059
 30
0.0
 10
142.998587
 20
618.675784
 30
0.0
  0
SPLINE
  5
136
100
AcDbEntity
  8
0
 62
1
100
AcDbSpline
 70
8
 71
3
 72
8
 73
4
 74
0
 40
0
 40
0
 40
0
 40
0
 40
1
 40
1
 40
1
 40
1
 10
142.998587
 20
618.675784
 30
0.0
 10
143.787925
 20
619.131508
 30
0.0
 10
144.274177
 20
619.973722
 30
0.0
 10
144.274177
 20
620.885171
 30
0.0
  0
LWPOLYLINE
  5
137
100
AcDbEntity
  8
0
 62
1
100
AcDbPolyline
 90
1
 70
1
 10
63.486774
 20
620.885171
 30
0.0
  0
SPLINE
  5
138
100
AcDbEntity
  8
0
 62
1
100
AcDbSpline
 70
8
 71
3
 72
8
 73
4
 74
0
 40
0
 40
0
 40
0
 40
0
 40
1
 40
1
 40
1
 40
1
 10
151.388092
 20
672.893531
 30
0.0
 10
151.390304
 20
675.933168
 30
0.0
 10
149.769947
 20
678.742855
 30
0.0
 10
147.137912
 20
680.263312
 30
0.0
  0
SPLINE
  5
139
100
AcDbEntity
  8
0
 62
1
100
AcDbSpline
 70
8
 71
3
 72
8
 73
4
 74
0
 40
0
 40
0
 40
0
 40
0
 40
1
 40
1
 40
1
 40
1
 10
147.137912
 20
680.263312
 30
0.0
 10
144.505877
 20
681.783769
 30
0.0
 10
141.262438
 20
681.783769
 30
0.0
 10
138.630403
 20
680.263312
 30
0.0
  0
SPLINE
  5
13a
100
AcDbEntity
  8
0
 62
1
100
AcDbSpline
 70
8
 71
3
 72
8
 73
4
 74
0
 40
0
 40
0
 40
0
 40
0
 40
1
 40
1
 40
1
 40
1
 10
138.630403
 20
680.263312
 30
0.0
 10
135.998368
 20
678.742855
 30
0.0
 10
134.378011
 20
675.933168
 30
0.0
 10
134.380223
 20
672.893531
 30
0.0
  0
SPLINE
  5
13b
100
AcDbEntity
  8
0
 62
1
100
AcDbSpline
 70
8
 71
3
 72
8
 73
4
 74
0
 40
0
 40
0
 40
0
 40
0
 40
1
 40
1
 40
1
 40
1
 10
134.380223
 20
672.893531
 30
0.0
 10
134.378011
 20
669.853894
 30
0.0
 10
135.998368
 20
667.044208
 30
0.0
 10
138.630403
 20
665.523751
 30
0.0
  0
SPLINE
  5
13c
100
AcDbEntity
  8
0
 62
1
100
AcDbSpline
 70
8
 71
3
 72
8
 73
4
 74
0
 40
0
 40
0
 40
0
 40
0
 40
1
 40
1
 40
1
 40
1
 10
138.630403
 20
665.523751
 30
0.0
 10
141.262438
 20
664.003294
 30
0.0
 10
144.505877
 20
664.003294
 30
0.0
 10
147.137912
 20
665.523751
 30
0.0
  0
SPLINE
  5
13d
100
AcDbEntity
  8
0
 62
1
100
AcDbSpline
 70
8
 71
3
 72
8
 73
4
 74
0
 40
0
 40
0
 40
0
 40
0
 40
1
 40
1
 40
1
 40
1
 10
147.137912
 20
665.523751
 30
0.0
 10
149.769947
 20
667.044208
 30
0.0
 10
151.390304
 20
669.853894
 30
0.0
 10
151.388092
 20
672.893531
 30
0.0
  0
LWPOLYLINE
  5
13e
100
AcDbEntity
  8
0
 62
1
100
AcDbPolyline
 90
1
 70
1
 10
144.274177
 20
620.885171
 30
0.0
  0
SPLINE
  5
13f
100
AcDbEntity
  8
0
 62
1
100
AcDbSpline
 70
8
 71
3
 72
8
 73
4
 74
0
 40
0
 40
0
 40
0
 40
0
 40
1
 40
1
 40
1
 40
1
 10
147.136125
 20
672.893531
 30
0.0
 10
147.137231
 20
674.413350
 30
0.0
 10
146.327052
 20
675.818193
 30
0.0
 10
145.011035
 20
676.578422
 30
0.0
  0
SPLINE
  5
140
100
AcDbEntity
  8
0
 62
1
100
AcDbSpline
 70
8
 71
3
 72
8
 73
4
 74
0
 40
0
 40
0
 40
0
 40
0
 40
1
 40
1
 40
1
 40
1
 10
145.011035
 20
676.578422
 30
0.0
 10
143.695017
 20
677.338650
 30
0.0
 10
142.073298
 20
677.338650
 30
0.0
 10
140.757280
 20
676.578422
 30
0.0
  0
SPLINE
  5
141
100
AcDbEntity
  8
0
 62
1
100
AcDbSpline
 70
8
 71
3
 72
8
 73
4
 74
0
 40
0
 40
0
 40
0
 40
0
 40
1
 40
1
 40
1
 40
1
 10
140.757280
 20
676.578422
 30
0.0
 10
139.441263
 20
675.818193
 30
0.0
 10
138.631084
 20
674.413350
 30
0.0
 10
138.632190
 20
672.893531
 30
0.0
  0
SPLINE
  5
142
100
AcDbEntity
  8
0
 62
1
100
AcDbSpline
 70
8
 71
3
 72
8
 73
4
 74
0
 40
0
 40
0
 40
0
 40
0
 40
1
 40
1
 40
1
 40
1
 10
138.632190
 20
672.893531
 30
0.0
 10
138.631084
 20
671.373713
 30
0.0
 10
139.441263
 20
669.968870
 30
0.0
 10
140.757280
 20
669.208641
 30
0.0
  0
SPLINE
  5
143
100
AcDbEntity
  8
0
 62
1
100
AcDbSpline
 70
8
 71
3
 72
8
 73
4
 74
0
 40
0
 40
0
 40
0
 40
0
 40
1
 40
1
 40
1
 40
1
 10
140.757280
 20
669.208641
 30
0.0
 10
142.073298
 20
668.448412
 30
0.0
 10
143.695017
 20
668.448412
 30
0.0
 10
145.011035
 20
669.208641
 30
0.0
  0
SPLINE
  5
144
100
AcDbEntity
  8
0
 62
1
100
AcDbSpline
 70
8
 71
3
 72
8
 73
4
 74
0
 40
0
 40
0
 40
0
 40
0
 40
1
 40
1
 40
1
 40
1
 10
145.011035
 20
669.208641
 30
0.0
 10
146.327052
 20
669.968870
 30
0.0
 10
147.137231
 20
671.373713
 30
0.0
 10
147.136125
 20
672.893531
 30
0.0
  0
LWPOLYLINE
  5
145
100
AcDbEntity
  8
0
 62
1
100
AcDbPolyline
 90
1
 70
1
 10
151.388092
 20
672.893531
 30
0.0
  0
SPLINE
  5
146
100
AcDbEntity
  8
0
 62
1
100
AcDbSpline
 70
8
 71
3
 72
8
 73
4
 74
0
 40
0
 40
0
 40
0
 40
0
 40
1
 40
1
 40
1
 40
1
 10
212.503830
 20
576.491464
 30
0.0
 10
212.504936
 20
578.011282
 30
0.0
 10
211.694757
 20
579.416126
 30
0.0
 10
210.378740
 20
580.176354
 30
0.0
  0
SPLINE
  5
147
100
AcDbEntity
  8
0
 62
1
100
AcDbSpline
 70
8
 71
3
 72
8
 73
4
 74
0
 40
0
 40
0
 40
0
 40
0
 40
1
 40
1
 40
1
 40
1
 10
210.378740
 20
580.176354
 30
0.0
 10
209.062722
 20
580.936583
 30
0.0
 10
207.441003
 20
580.936583
 30
0.0
 10
206.124985
 20
580.176354
 30
0.0
  0
SPLINE
  5
148
100
AcDbEntity
  8
0
 62
1
100
AcDbSpline
 70
8
 71
3
 72
8
 73
4
 74
0
 40
0
 40
0
 40
0
 40
0
 40
1
 40
1
 40
1
 40
1
 10
206.124985
 20
580.176354
 30
0.0
 10
204.808968
 20
579.416126
 30
0.0
 10
203.998789
 20
578.011282
 30
0.0
 10
203.999895
 20
576.491464
 30
0.0
  0
SPLINE
  5
149
100
AcDbEntity
  8
0
 62
1
100
AcDbSpline
 70
8
 71
3
 72
8
 73
4
 74
0
 40
0
 40
0
 40
0
 40
0
 40
1
 40
1
 40
1
 40
1
 10
203.999895
 20
576.491464
 30
0.0
 10
203.998789
 20
574.971645
 30
0.0
 10
204.808968
 20
573.566802
 30
0.0
 10
206.124985
 20
572.806574
 30
0.0
  0
SPLINE
  5
14a
100
AcDbEntity
  8
0
 62
1
100
AcDbSpline
 70
8
 71
3
 72
8
 73
4
 74
0
 40
0
 40
0
 40
0
 40
0
 40
1
 40
1
 40
1
 40
1
 10
206.124985
 20
572.806574
 30
0.0
 10
207.441003
 20
572.046345
 30
0.0
 10
209.062722
 20
572.046345
 30
0.0
 10
210.378740
 20
572.806574
 30
0.0
  0
SPLINE
  5
14b
100
AcDbEntity
  8
0
 62
1
100
AcDbSpline
 70
8
 71
3
 72
8
 73
4
 74
0
 40
0
 40
0
 40
0
 40
0
 40
1
 40
1
 40
1
 40
1
 10
210.378740
 20
572.806574
 30
0.0
 10
211.694757
 20
573.566802
 30
0.0
 10
212.504936
 20
574.971645
 30
0.0
 10
212.503830
 20
576.491464
 30
0.0
  0
LWPOLYLINE
  5
14c
100
AcDbEntity
  8
0
 62
1
100
AcDbPolyline
 90
1
 70
1
 10
147.136125
 20
672.893531
 30
0.0
  0
SPLINE
  5
14d
100
AcDbEntity
  8
0
 62
1
100
AcDbSpline
 70
8
 71
3
 72
8
 73
4
 74
0
 40
0
 40
0
 40
0
 40
0
 40
1
 40
1
 40
1
 40
1
 10
229.511707
 20
624.595399
 30
0.0
 10
229.511707
 20
626.114482
 30
0.0
 10
228.701286
 20
627.518172
 30
0.0
 10
227.385722
 20
628.277714
 30
0.0
  0
SPLINE
  5
14e
100
AcDbEntity
  8
0
 62
1
100
AcDbSpline
 70
8
 71
3
 72
8
 73
4
 74
0
 40
0
 40
0
 40
0
 40
0
 40
1
 40
1
 40
1
 40
1
 10
227.385722
 20
628.277714
 30
0.0
 10
226.070157
 20
629.037255
 30
0.0
 10
224.449315
 20
629.037255
 30
0.0
 10
223.133751
 20
628.277714
 30
0.0
  0
SPLINE
  5
14f
100
AcDbEntity
  8
0
 62
1
100
AcDbSpline
 70
8
 71
3
 72
8
 73
4
 74
0
 40
0
 40
0
 40
0
 40
0
 40
1
 40
1
 40
1
 40
1
 10
223.133751
 20
628.277714
 30
0.0
 10
221.818186
 20
627.518172
 30
0.0
 10
221.007765
 20
626.114482
 30
0.0
 10
221.007765
 20
624.595399
 30
0.0
  0
SPLINE
  5
150
100
AcDbEntity
  8
0
 62
1
100
AcDbSpline
 70
8
 71
3
 72
8
 73
4
 74
0
 40
0
 40
0
 40
0
 40
0
 40
1
 40
1
 40
1
 40
1
 10
221.007765
 20
624.595399
 30
0.0
 10
221.007765
 20
623.076316
 30
0.0
 10
221.818186
 20
621.672625
 30
0.0
 10
223.133751
 20
620.913084
 30
0.0
  0
SPLINE
  5
151
100
AcDbEntity
  8
0
 62
1
100
AcDbSpline
 70
8
 71
3
 72
8
 73
4
 74
0
 40
0
 40
0
 40
0
 40
0
 40
1
 40
1
 40
1
 40
1
 10
223.133751
 20
620.913084
 30
0.0
 10
224.449315
 20
620.153542
 30
0.0
 10
226.070157
 20
620.153542
 30
0.0
 10
227.385722
 20
620.913084
 30
0.0
  0
SPLINE
  5
152
100
AcDbEntity
  8
0
 62
1
100
AcDbSpline
 70
8
 71
3
 72
8
 73
4
 74
0
 40
0
 40
0
 40
0
 40
0
 40
1
 40
1
 40
1
 40
1
 10
227.385722
 20
620.913084
 30
0.0
 10
228.701286
 20
621.672625
 30
0.0
 10
229.511707
 20
623.076316
 30
0.0
 10
229.511707
 20
624.595399
 30
0.0
  0
LWPOLYLINE
  5
153
100
AcDbEntity
  8
0
 62
1
100
AcDbPolyline
 90
1
 70
1
 10
212.503830
 20
576.491464
 30
0.0
  0
LWPOLYLINE
  5
154
100
AcDbEntity
  8
0
 62
1
100
AcDbPolyline
 90
1
 70
1
 10
229.511707
 20
624.595399
 30
0.0
  0
LWPOLYLINE
  5
155
100
AcDbEntity
  8
0
 62
1
100
AcDbPolyline
 90
5
 70
0
 10
240.850290
 20
633.099341
 30
0.0
 10
240.850290
 20
703.965484
 30
0.0
 10
222.425093
 20
703.965484
 30
0.0
 10
222.425093
 20
633.099341
 30
0.0
 10
218.173125
 20
633.099341
 30
0.0
  0
LWPOLYLINE
  5
156
100
AcDbEntity
  8
0
 62
1
100
AcDbPolyline
 90
2
 70
0
 10
200.120640
 20
578.981494
 30
0.0
 10
218.173125
 20
633.099341
 30
0.0
  0
SPLINE
  5
157
100
AcDbEntity
  8
0
 62
1
100
AcDbSpline
 70
8
 71
3
 72
8
 73
4
 74
0
 40
0
 40
0
 40
0
 40
0
 40
1
 40
1
 40
1
 40
1
 10
200.120640
 20
578.981494
 30
0.0
 10
198.776459
 20
574.592181
 30
0.0
 10
201.158506
 20
569.928284
 30
0.0
 10
205.502497
 20
568.444159
 30
0.0
  0
SPLINE
  5
158
100
AcDbEntity
  8
0
 62
1
100
AcDbSpline
 70
8
 71
3
 72
8
 73
4
 74
0
 40
0
 40
0
 40
0
 40
0
 40
1
 40
1
 40
1
 40
1
 10
205.502497
 20
568.444159
 30
0.0
 10
209.846489
 20
566.960034
 30
0.0
 10
214.584313
 20
569.191427
 30
0.0
 10
216.206857
 20
573.485636
 30
0.0
  0
LWPOLYLINE
  5
159
100
AcDbEntity
  8
0
 62
1
100
AcDbPolyline
 90
2
 70
0
 10
216.206857
 20
573.485636
 30
0.0
 10
240.850290
 20
633.099341
 30
0.0
  0
LWPOLYLINE
  5
15a
100
AcDbEntity
  8
0
 62
1
100
AcDbPolyline
 90
2
 70
0
 10
244.632540
 20
825.917838
 30
0.0
 10
326.837265
 20
825.917838
 30
0.0
  0
SPLINE
  5
15b
100
AcDbEntity
  8
0
 62
1
100
AcDbSpline
 70
8
 71
3
 72
8
 73
4
 74
0
 40
0
 40
0
 40
0
 40
0
 40
1
 40
1
 40
1
 40
1
 10
244.632540
 20
825.917838
 30
0.0
 10
241.594375
 20
825.917838
 30
0.0
 10
238.786995
 20
824.296996
 30
0.0
 10
237.267913
 20
821.665869
 30
0.0
  0
SPLINE
  5
15c
100
AcDbEntity
  8
0
 62
1
100
AcDbSpline
 70
8
 71
3
 72
8
 73
4
 74
0
 40
0
 40
0
 40
0
 40
0
 40
1
 40
1
 40
1
 40
1
 10
237.267913
 20
821.665869
 30
0.0
 10
235.748831
 20
819.034741
 30
0.0
 10
235.748831
 20
815.793058
 30
0.0
 10
237.267913
 20
813.161930
 30
0.0
  0
SPLINE
  5
15d
100
AcDbEntity
  8
0
 62
1
100
AcDbSpline
 70
8
 71
3
 72
8
 73
4
 74
0
 40
0
 40
0
 40
0
 40
0
 40
1
 40
1
 40
1
 40
1
 10
237.267913
 20
813.161930
 30
0.0
 10
238.786995
 20
810.530802
 30
0.0
 10
241.594375
 20
808.909961
 30
0.0
 10
244.632540
 20
808.909961
 30
0.0
  0
SPLINE
  5
15e
100
AcDbEntity
  8
0
 62
1
100
AcDbSpline
 70
8
 71
3
 72
8
 73
4
 74
0
 40
0
 40
0
 40
0
 40
0
 40
1
 40
1
 40
1
 40
1
 10
326.837265
 20
808.909961
 30
0.0
 10
329.875430
 20
808.909961
 30
0.0
 10
332.682810
 20
810.530802
 30
0.0
 10
334.201892
 20
813.161930
 30
0.0
  0
SPLINE
  5
15f
100
AcDbEntity
  8
0
 62
1
100
AcDbSpline
 70
8
 71
3
 72
8
 73
4
 74
0
 40
0
 40
0
 40
0
 40
0
 40
1
 40
1
 40
1
 40
1
 10
334.201892
 20
813.161930
 30
0.0
 10
335.720974
 20
815.793058
 30
0.0
 10
335.720974
 20
819.034741
 30
0.0
 10
334.201892
 20
821.665869
 30
0.0
  0
SPLINE
  5
160
100
AcDbEntity
  8
0
 62
1
100
AcDbSpline
 70
8
 71
3
 72
8
 73
4
 74
0
 40
0
 40
0
 40
0
 40
0
 40
1
 40
1
 40
1
 40
1
 10
334.201892
 20
821.665869
 30
0.0
 10
332.682810
 20
824.296996
 30
0.0
 10
329.875430
 20
825.917838
 30
0.0
 10
326.837265
 20
825.917838
 30
0.0
  0
SPLINE
  5
161
100
AcDbEntity
  8
0
 62
1
100
AcDbSpline
 70
8
 71
3
 72
8
 73
4
 74
0
 40
0
 40
0
 40
0
 40
0
 40
1
 40
1
 40
1
 40
1
 10
248.884507
 20
817.413903
 30
0.0
 10
248.885613
 20
818.933721
 30
0.0
 10
248.075435
 20
820.338565
 30
0.0
 10
246.759417
 20
821.098793
 30
0.0
  0
SPLINE
  5
162
100
AcDbEntity
  8
0
 62
1
100
AcDbSpline
 70
8
 71
3
 72
8
 73
4
 74
0
 40
0
 40
0
 40
0
 40
0
 40
1
 40
1
 40
1
 40
1
 10
246.759417
 20
821.098793
 30
0.0
 10
245.443400
 20
821.859022
 30
0.0
 10
243.821680
 20
821.859022
 30
0.0
 10
242.505663
 20
821.098793
 30
0.0
  0
SPLINE
  5
163
100
AcDbEntity
  8
0
 62
1
100
AcDbSpline
 70
8
 71
3
 72
8
 73
4
 74
0
 40
0
 40
0
 40
0
 40
0
 40
1
 40
1
 40
1
 40
1
 10
242.505663
 20
821.098793
 30
0.0
 10
241.189645
 20
820.338565
 30
0.0
 10
240.379467
 20
818.933721
 30
0.0
 10
240.380572
 20
817.413903
 30
0.0
  0
SPLINE
  5
164
100
AcDbEntity
  8
0
 62
1
100
AcDbSpline
 70
8
 71
3
 72
8
 73
4
 74
0
 40
0
 40
0
 40
0
 40
0
 40
1
 40
1
 40
1
 40
1
 10
240.380572
 20
817.413903
 30
0.0
 10
240.379467
 20
815.894085
 30
0.0
 10
241.189645
 20
814.489241
 30
0.0
 10
242.505663
 20
813.729013
 30
0.0
  0
SPLINE
  5
165
100
AcDbEntity
  8
0
 62
1
100
AcDbSpline
 70
8
 71
3
 72
8
 73
4
 74
0
 40
0
 40
0
 40
0
 40
0
 40
1
 40
1
 40
1
 40
1
 10
242.505663
 20
813.729013
 30
0.0
 10
243.821680
 20
812.968784
 30
0.0
 10
245.443400
 20
812.968784
 30
0.0
 10
246.759417
 20
813.729013
 30
0.0
  0
SPLINE
  5
166
100
AcDbEntity
  8
0
 62
1
100
AcDbSpline
 70
8
 71
3
 72
8
 73
4
 74
0
 40
0
 40
0
 40
0
 40
0
 40
1
 40
1
 40
1
 40
1
 10
246.759417
 20
813.729013
 30
0.0
 10
248.075435
 20
814.489241
 30
0.0
 10
248.885613
 20
815.894085
 30
0.0
 10
248.884507
 20
817.413903
 30
0.0
  0
LWPOLYLINE
  5
167
100
AcDbEntity
  8
0
 62
1
100
AcDbPolyline
 90
2
 70
0
 10
326.837265
 20
808.909961
 30
0.0
 10
244.632540
 20
808.909961
 30
0.0
  0
SPLINE
  5
168
100
AcDbEntity
  8
0
 62
1
100
AcDbSpline
 70
8
 71
3
 72
8
 73
4
 74
0
 40
0
 40
0
 40
0
 40
0
 40
1
 40
1
 40
1
 40
1
 10
331.089233
 20
817.413903
 30
0.0
 10
331.090135
 20
818.933586
 30
0.0
 10
330.279912
 20
820.338218
 30
0.0
 10
328.963978
 20
821.098320
 30
0.0
  0
SPLINE
  5
169
100
AcDbEntity
  8
0
 62
1
100
AcDbSpline
 70
8
 71
3
 72
8
 73
4
 74
0
 40
0
 40
0
 40
0
 40
0
 40
1
 40
1
 40
1
 40
1
 10
328.963978
 20
821.098320
 30
0.0
 10
327.648044
 20
821.858422
 30
0.0
 10
326.026486
 20
821.858422
 30
0.0
 10
324.710552
 20
821.098320
 30
0.0
  0
SPLINE
  5
16a
100
AcDbEntity
  8
0
 62
1
100
AcDbSpline
 70
8
 71
3
 72
8
 73
4
 74
0
 40
0
 40
0
 40
0
 40
0
 40
1
 40
1
 40
1
 40
1
 10
324.710552
 20
821.098320
 30
0.0
 10
323.394618
 20
820.338218
 30
0.0
 10
322.584395
 20
818.933586
 30
0.0
 10
322.585298
 20
817.413903
 30
0.0
  0
SPLINE
  5
16b
100
AcDbEntity
  8
0
 62
1
100
AcDbSpline
 70
8
 71
3
 72
8
 73
4
 74
0
 40
0
 40
0
 40
0
 40
0
 40
1
 40
1
 40
1
 40
1
 10
322.585298
 20
817.413903
 30
0.0
 10
322.584395
 20
815.894220
 30
0.0
 10
323.394618
 20
814.489588
 30
0.0
 10
324.710552
 20
813.729486
 30
0.0
  0
SPLINE
  5
16c
100
AcDbEntity
  8
0
 62
1
100
AcDbSpline
 70
8
 71
3
 72
8
 73
4
 74
0
 40
0
 40
0
 40
0
 40
0
 40
1
 40
1
 40
1
 40
1
 10
324.710552
 20
813.729486
 30
0.0
 10
326.026486
 20
812.969384
 30
0.0
 10
327.648044
 20
812.969384
 30
0.0
 10
328.963978
 20
813.729486
 30
0.0
  0
SPLINE
  5
16d
100
AcDbEntity
  8
0
 62
1
100
AcDbSpline
 70
8
 71
3
 72
8
 73
4
 74
0
 40
0
 40
0
 40
0
 40
0
 40
1
 40
1
 40
1
 40
1
 10
328.963978
 20
813.729486
 30
0.0
 10
330.279912
 20
814.489588
 30
0.0
 10
331.090135
 20
815.894220
 30
0.0
 10
331.089233
 20
817.413903
 30
0.0
  0
LWPOLYLINE
  5
16e
100
AcDbEntity
  8
0
 62
1
100
AcDbPolyline
 90
1
 70
1
 10
248.884507
 20
817.413903
 30
0.0
  0
LWPOLYLINE
  5
16f
100
AcDbEntity
  8
0
 62
1
100
AcDbPolyline
 90
1
 70
1
 10
331.089233
 20
817.413903
 30
0.0
  0
LWPOLYLINE
  5
170
100
AcDbEntity
  8
0
 62
1
100
AcDbPolyline
 90
2
 70
0
 10
223.772250
 20
804.763773
 30
0.0
 10
223.772250
 20
738.149599
 30
0.0
  0
LWPOLYLINE
  5
171
100
AcDbEntity
  8
0
 62
1
100
AcDbPolyline
 90
2
 70
0
 10
201.095085
 20
715.472434
 30
0.0
 10
223.772250
 20
738.149599
 30
0.0
  0
LWPOLYLINE
  5
172
100
AcDbEntity
  8
0
 62
1
100
AcDbPolyline
 90
2
 70
0
 10
201.095085
 20
715.472434
 30
0.0
 10
189.756503
 20
715.472434
 30
0.0
  0
LWPOLYLINE
  5
173
100
AcDbEntity
  8
0
 62
1
100
AcDbPolyline
 90
2
 70
0
 10
167.079330
 20
738.149599
 30
0.0
 10
189.756503
 20
715.472434
 30
0.0
  0
LWPOLYLINE
  5
174
100
AcDbEntity
  8
0
 62
1
100
AcDbPolyline
 90
2
 70
0
 10
167.079330
 20
738.149599
 30
0.0
 10
167.079330
 20
804.763773
 30
0.0
  0
LWPOLYLINE
  5
175
100
AcDbEntity
  8
0
 62
1
100
AcDbPolyline
 90
2
 70
0
 10
189.756503
 20
827.440938
 30
0.0
 10
201.095085
 20
827.440938
 30
0.0
  0
LWPOLYLINE
  5
176
100
AcDbEntity
  8
0
 62
1
100
AcDbPolyline
 90
2
 70
0
 10
167.079330
 20
804.763773
 30
0.0
 10
189.756503
 20
827.440938
 30
0.0
  0
LWPOLYLINE
  5
177
100
AcDbEntity
  8
0
 62
1
100
AcDbPolyline
 90
2
 70
0
 10
223.772250
 20
804.763773
 30
0.0
 10
201.095085
 20
827.440938
 30
0.0
  0
LWPOLYLINE
  5
178
100
AcDbEntity
  8
0
 62
1
100
AcDbPolyline
 90
4
 70
1
 10
189.756503
 20
810.433061
 30
0.0
 10
201.095085
 20
810.433061
 30
0.0
 10
201.095085
 20
788.464556
 30
0.0
 10
189.756503
 20
788.464556
 30
0.0
  0
SPLINE
  5
179
100
AcDbEntity
  8
0
 62
1
100
AcDbSpline
 70
8
 71
3
 72
8
 73
4
 74
0
 40
0
 40
0
 40
0
 40
0
 40
1
 40
1
 40
1
 40
1
 10
203.929725
 20
771.456686
 30
0.0
 10
203.931936
 20
774.496322
 30
0.0
 10
202.311579
 20
777.306009
 30
0.0
 10
199.679544
 20
778.826466
 30
0.0
  0
SPLINE
  5
17a
100
AcDbEntity
  8
0
 62
1
100
AcDbSpline
 70
8
 71
3
 72
8
 73
4
 74
0
 40
0
 40
0
 40
0
 40
0
 40
1
 40
1
 40
1
 40
1
 10
199.679544
 20
778.826466
 30
0.0
 10
197.047510
 20
780.346923
 30
0.0
 10
193.804070
 20
780.346923
 30
0.0
 10
191.172036
 20
778.826466
 30
0.0
  0
SPLINE
  5
17b
100
AcDbEntity
  8
0
 62
1
100
AcDbSpline
 70
8
 71
3
 72
8
 73
4
 74
0
 40
0
 40
0
 40
0
 40
0
 40
1
 40
1
 40
1
 40
1
 10
191.172036
 20
778.826466
 30
0.0
 10
188.540001
 20
777.306009
 30
0.0
 10
186.919644
 20
774.496322
 30
0.0
 10
186.921855
 20
771.456686
 30
0.0
  0
SPLINE
  5
17c
100
AcDbEntity
  8
0
 62
1
100
AcDbSpline
 70
8
 71
3
 72
8
 73
4
 74
0
 40
0
 40
0
 40
0
 40
0
 40
1
 40
1
 40
1
 40
1
 10
186.921855
 20
771.456686
 30
0.0
 10
186.919644
 20
768.417049
 30
0.0
 10
188.540001
 20
765.607362
 30
0.0
 10
191.172036
 20
764.086905
 30
0.0
  0
SPLINE
  5
17d
100
AcDbEntity
  8
0
 62
1
100
AcDbSpline
 70
8
 71
3
 72
8
 73
4
 74
0
 40
0
 40
0
 40
0
 40
0
 40
1
 40
1
 40
1
 40
1
 10
191.172036
 20
764.086905
 30
0.0
 10
193.804070
 20
762.566448
 30
0.0
 10
197.047510
 20
762.566448
 30
0.0
 10
199.679544
 20
764.086905
 30
0.0
  0
SPLINE
  5
17e
100
AcDbEntity
  8
0
 62
1
100
AcDbSpline
 70
8
 71
3
 72
8
 73
4
 74
0
 40
0
 40
0
 40
0
 40
0
 40
1
 40
1
 40
1
 40
1
 10
199.679544
 20
764.086905
 30
0.0
 10
202.311579
 20
765.607362
 30
0.0
 10
203.931936
 20
768.417049
 30
0.0
 10
203.929725
 20
771.456686
 30
0.0
  0
LWPOLYLINE
  5
17f
100
AcDbEntity
  8
0
 62
1
100
AcDbPolyline
 90
4
 70
1
 10
189.756503
 20
754.448809
 30
0.0
 10
201.095085
 20
754.448809
 30
0.0
 10
201.095085
 20
732.480304
 30
0.0
 10
189.756503
 20
732.480304
 30
0.0
  0
SPLINE
  5
180
100
AcDbEntity
  8
0
 62
1
100
AcDbSpline
 70
8
 71
3
 72
8
 73
4
 74
0
 40
0
 40
0
 40
0
 40
0
 40
1
 40
1
 40
1
 40
1
 10
217.394295
 20
776.417313
 30
0.0
 10
217.394933
 20
777.177279
 30
0.0
 10
216.989863
 20
777.879790
 30
0.0
 10
216.331819
 20
778.259958
 30
0.0
  0
SPLINE
  5
181
100
AcDbEntity
  8
0
 62
1
100
AcDbSpline
 70
8
 71
3
 72
8
 73
4
 74
0
 40
0
 40
0
 40
0
 40
0
 40
1
 40
1
 40
1
 40
1
 10
216.331819
 20
778.259958
 30
0.0
 10
215.673775
 20
778.640125
 30
0.0
 10
214.862847
 20
778.640125
 30
0.0
 10
214.204804
 20
778.259958
 30
0.0
  0
SPLINE
  5
182
100
AcDbEntity
  8
0
 62
1
100
AcDbSpline
 70
8
 71
3
 72
8
 73
4
 74
0
 40
0
 40
0
 40
0
 40
0
 40
1
 40
1
 40
1
 40
1
 10
214.204804
 20
778.259958
 30
0.0
 10
213.546760
 20
777.879790
 30
0.0
 10
213.141689
 20
777.177279
 30
0.0
 10
213.142328
 20
776.417313
 30
0.0
  0
SPLINE
  5
183
100
AcDbEntity
  8
0
 62
1
100
AcDbSpline
 70
8
 71
3
 72
8
 73
4
 74
0
 40
0
 40
0
 40
0
 40
0
 40
1
 40
1
 40
1
 40
1
 10
213.142328
 20
776.417313
 30
0.0
 10
213.141689
 20
775.657347
 30
0.0
 10
213.546760
 20
774.954836
 30
0.0
 10
214.204804
 20
774.574668
 30
0.0
  0
SPLINE
  5
184
100
AcDbEntity
  8
0
 62
1
100
AcDbSpline
 70
8
 71
3
 72
8
 73
4
 74
0
 40
0
 40
0
 40
0
 40
0
 40
1
 40
1
 40
1
 40
1
 10
214.204804
 20
774.574668
 30
0.0
 10
214.862847
 20
774.194501
 30
0.0
 10
215.673775
 20
774.194501
 30
0.0
 10
216.331819
 20
774.574668
 30
0.0
  0
SPLINE
  5
185
100
AcDbEntity
  8
0
 62
1
100
AcDbSpline
 70
8
 71
3
 72
8
 73
4
 74
0
 40
0
 40
0
 40
0
 40
0
 40
1
 40
1
 40
1
 40
1
 10
216.331819
 20
774.574668
 30
0.0
 10
216.989863
 20
774.954836
 30
0.0
 10
217.394933
 20
775.657347
 30
0.0
 10
217.394295
 20
776.417313
 30
0.0
  0
LWPOLYLINE
  5
186
100
AcDbEntity
  8
0
 62
1
100
AcDbPolyline
 90
1
 70
1
 10
203.929725
 20
771.456686
 30
0.0
  0
SPLINE
  5
187
100
AcDbEntity
  8
0
 62
1
100
AcDbSpline
 70
8
 71
3
 72
8
 73
4
 74
0
 40
0
 40
0
 40
0
 40
0
 40
1
 40
1
 40
1
 40
1
 10
217.394295
 20
766.496051
 30
0.0
 10
217.394933
 20
767.256017
 30
0.0
 10
216.989863
 20
767.958528
 30
0.0
 10
216.331819
 20
768.338696
 30
0.0
  0
SPLINE
  5
188
100
AcDbEntity
  8
0
 62
1
100
AcDbSpline
 70
8
 71
3
 72
8
 73
4
 74
0
 40
0
 40
0
 40
0
 40
0
 40
1
 40
1
 40
1
 40
1
 10
216.331819
 20
768.338696
 30
0.0
 10
215.673775
 20
768.718863
 30
0.0
 10
214.862847
 20
768.718863
 30
0.0
 10
214.204804
 20
768.338696
 30
0.0
  0
SPLINE
  5
189
100
AcDbEntity
  8
0
 62
1
100
AcDbSpline
 70
8
 71
3
 72
8
 73
4
 74
0
 40
0
 40
0
 40
0
 40
0
 40
1
 40
1
 40
1
 40
1
 10
214.204804
 20
768.338696
 30
0.0
 10
213.546760
 20
767.958528
 30
0.0
 10
213.141689
 20
767.256017
 30
0.0
 10
213.142328
 20
766.496051
 30
0.0
  0
SPLINE
  5
18a
100
AcDbEntity
  8
0
 62
1
100
AcDbSpline
 70
8
 71
3
 72
8
 73
4
 74
0
 40
0
 40
0
 40
0
 40
0
 40
1
 40
1
 40
1
 40
1
 10
213.142328
 20
766.496051
 30
0.0
 10
213.141689
 20
765.736085
 30
0.0
 10
213.546760
 20
765.033574
 30
0.0
 10
214.204804
 20
764.653407
 30
0.0
  0
SPLINE
  5
18b
100
AcDbEntity
  8
0
 62
1
100
AcDbSpline
 70
8
 71
3
 72
8
 73
4
 74
0
 40
0
 40
0
 40
0
 40
0
 40
1
 40
1
 40
1
 40
1
 10
214.204804
 20
764.653407
 30
0.0
 10
214.862847
 20
764.273239
 30
0.0
 10
215.673775
 20
764.273239
 30
0.0
 10
216.331819
 20
764.653407
 30
0.0
  0
SPLINE
  5
18c
100
AcDbEntity
  8
0
 62
1
100
AcDbSpline
 70
8
 71
3
 72
8
 73
4
 74
0
 40
0
 40
0
 40
0
 40
0
 40
1
 40
1
 40
1
 40
1
 10
216.331819
 20
764.653407
 30
0.0
 10
216.989863
 20
765.033574
 30
0.0
 10
217.394933
 20
765.736085
 30
0.0
 10
217.394295
 20
766.496051
 30
0.0
  0
LWPOLYLINE
  5
18d
100
AcDbEntity
  8
0
 62
1
100
AcDbPolyline
 90
1
 70
1
 10
217.394295
 20
776.417313
 30
0.0
  0
LWPOLYLINE
  5
18e
100
AcDbEntity
  8
0
 62
1
100
AcDbPolyline
 90
1
 70
1
 10
217.394295
 20
766.496051
 30
0.0
  0
SPLINE
  5
18f
100
AcDbEntity
  8
0
 62
1
100
AcDbSpline
 70
8
 71
3
 72
8
 73
4
 74
0
 40
0
 40
0
 40
0
 40
0
 40
1
 40
1
 40
1
 40
1
 10
57.899926
 20
699.264544
 30
0.0
 10
56.688869
 20
701.082062
 30
0.0
 10
54.337506
 20
701.751566
 30
0.0
 10
52.350699
 20
700.844576
 30
0.0
  0
SPLINE
  5
190
100
AcDbEntity
  8
0
 62
1
100
AcDbSpline
 70
8
 71
3
 72
8
 73
4
 74
0
 40
0
 40
0
 40
0
 40
0
 40
1
 40
1
 40
1
 40
1
 10
50.803532
 20
700.203724
 30
0.0
 10
51.326686
 20
700.398937
 30
0.0
 10
51.842735
 20
700.612690
 30
0.0
 10
52.350699
 20
700.844576
 30
0.0
  0
SPLINE
  5
191
100
AcDbEntity
  8
0
 62
1
100
AcDbSpline
 70
8
 71
3
 72
8
 73
4
 74
0
 40
0
 40
0
 40
0
 40
0
 40
1
 40
1
 40
1
 40
1
 10
50.803531
 20
700.203724
 30
0.0
 10
48.757306
 20
699.440176
 30
0.0
 10
47.568053
 20
697.304097
 30
0.0
 10
47.996889
 20
695.162569
 30
0.0
  0
LWPOLYLINE
  5
192
100
AcDbEntity
  8
0
 62
1
100
AcDbPolyline
 90
2
 70
0
 10
57.899926
 20
699.264544
 30
0.0
 10
61.044834
 20
694.544749
 30
0.0
  0
SPLINE
  5
193
100
AcDbEntity
  8
0
 62
1
100
AcDbSpline
 70
8
 71
3
 72
8
 73
4
 74
0
 40
0
 40
0
 40
0
 40
0
 40
1
 40
1
 40
1
 40
1
 10
49.203834
 20
688.988764
 30
0.0
 10
49.182229
 20
689.194309
 30
0.0
 10
49.151085
 20
689.398739
 30
0.0
 10
49.110504
 20
689.601394
 30
0.0
  0
SPLINE
  5
194
100
AcDbEntity
  8
0
 62
1
100
AcDbSpline
 70
8
 71
3
 72
8
 73
4
 74
0
 40
0
 40
0
 40
0
 40
0
 40
1
 40
1
 40
1
 40
1
 10
36.025042
 20
689.601394
 30
0.0
 10
35.984461
 20
689.398739
 30
0.0
 10
35.953317
 20
689.194309
 30
0.0
 10
35.931712
 20
688.988764
 30
0.0
  0
LWPOLYLINE
  5
195
100
AcDbEntity
  8
0
 62
1
100
AcDbPolyline
 90
2
 70
0
 10
49.110504
 20
689.601394
 30
0.0
 10
47.996889
 20
695.162569
 30
0.0
  0
SPLINE
  5
196
100
AcDbEntity
  8
0
 62
1
100
AcDbSpline
 70
8
 71
3
 72
8
 73
4
 74
0
 40
0
 40
0
 40
0
 40
0
 40
1
 40
1
 40
1
 40
1
 10
52.350699
 20
743.704676
 30
0.0
 10
52.026808
 20
743.852534
 30
0.0
 10
51.699606
 20
743.993030
 30
0.0
 10
51.369347
 20
744.126056
 30
0.0
  0
SPLINE
  5
197
100
AcDbEntity
  8
0
 62
1
100
AcDbSpline
 70
8
 71
3
 72
8
 73
4
 74
0
 40
0
 40
0
 40
0
 40
0
 40
1
 40
1
 40
1
 40
1
 10
52.350699
 20
743.704676
 30
0.0
 10
54.337508
 20
742.797688
 30
0.0
 10
56.688871
 20
743.467195
 30
0.0
 10
57.899927
 20
745.284716
 30
0.0
  0
LWPOLYLINE
  5
198
100
AcDbEntity
  8
0
 62
1
100
AcDbPolyline
 90
2
 70
0
 10
37.095189
 20
694.945526
 30
0.0
 10
36.025042
 20
689.601394
 30
0.0
  0
SPLINE
  5
199
100
AcDbEntity
  8
0
 62
1
100
AcDbSpline
 70
8
 71
3
 72
8
 73
4
 74
0
 40
0
 40
0
 40
0
 40
0
 40
1
 40
1
 40
1
 40
1
 10
61.412034
 20
750.503696
 30
0.0
 10
61.281969
 20
750.343075
 30
0.0
 10
61.159437
 20
750.176498
 30
0.0
 10
61.044834
 20
750.004504
 30
0.0
  0
SPLINE
  5
19a
100
AcDbEntity
  8
0
 62
1
100
AcDbSpline
 70
8
 71
3
 72
8
 73
4
 74
0
 40
0
 40
0
 40
0
 40
0
 40
1
 40
1
 40
1
 40
1
 10
70.297652
 20
740.751686
 30
0.0
 10
70.469643
 20
740.866289
 30
0.0
 10
70.636218
 20
740.988822
 30
0.0
 10
70.796837
 20
741.118886
 30
0.0
  0
LWPOLYLINE
  5
19b
100
AcDbEntity
  8
0
 62
1
100
AcDbPolyline
 90
2
 70
0
 10
61.044834
 20
750.004504
 30
0.0
 10
57.899927
 20
745.284716
 30
0.0
  0
SPLINE
  5
19c
100
AcDbEntity
  8
0
 62
1
100
AcDbSpline
 70
8
 71
3
 72
8
 73
4
 74
0
 40
0
 40
0
 40
0
 40
0
 40
1
 40
1
 40
1
 40
1
 10
65.577864
 20
737.606779
 30
0.0
 10
63.760347
 20
736.395724
 30
0.0
 10
63.090840
 20
734.044366
 30
0.0
 10
63.997824
 20
732.057559
 30
0.0
  0
SPLINE
  5
19d
100
AcDbEntity
  8
0
 62
1
100
AcDbSpline
 70
8
 71
3
 72
8
 73
4
 74
0
 40
0
 40
0
 40
0
 40
0
 40
1
 40
1
 40
1
 40
1
 10
64.638677
 20
730.510391
 30
0.0
 10
64.443463
 20
731.033546
 30
0.0
 10
64.229711
 20
731.549594
 30
0.0
 10
63.997824
 20
732.057559
 30
0.0
  0
SPLINE
  5
19e
100
AcDbEntity
  8
0
 62
1
100
AcDbSpline
 70
8
 71
3
 72
8
 73
4
 74
0
 40
0
 40
0
 40
0
 40
0
 40
1
 40
1
 40
1
 40
1
 10
64.638677
 20
730.510391
 30
0.0
 10
65.402224
 20
728.464166
 30
0.0
 10
67.538303
 20
727.274912
 30
0.0
 10
69.679832
 20
727.703749
 30
0.0
  0
LWPOLYLINE
  5
19f
100
AcDbEntity
  8
0
 62
1
100
AcDbPolyline
 90
2
 70
0
 10
65.577864
 20
737.606779
 30
0.0
 10
70.297652
 20
740.751686
 30
0.0
  0
LWPOLYLINE
  5
1a0
100
AcDbEntity
  8
0
 62
1
100
AcDbPolyline
 90
2
 70
0
 10
75.938595
 20
728.919071
 30
0.0
 10
69.679832
 20
727.703749
 30
0.0
  0
SPLINE
  5
1a1
100
AcDbEntity
  8
0
 62
1
100
AcDbSpline
 70
8
 71
3
 72
8
 73
4
 74
0
 40
0
 40
0
 40
0
 40
0
 40
1
 40
1
 40
1
 40
1
 10
69.679832
 20
716.845511
 30
0.0
 10
67.538303
 20
717.274348
 30
0.0
 10
65.402224
 20
716.085094
 30
0.0
 10
64.638677
 20
714.038869
 30
0.0
  0
SPLINE
  5
1a2
100
AcDbEntity
  8
0
 62
1
100
AcDbSpline
 70
8
 71
3
 72
8
 73
4
 74
0
 40
0
 40
0
 40
0
 40
0
 40
1
 40
1
 40
1
 40
1
 10
63.997824
 20
712.491701
 30
0.0
 10
64.229711
 20
712.999666
 30
0.0
 10
64.443463
 20
713.515714
 30
0.0
 10
64.638677
 20
714.038869
 30
0.0
  0
SPLINE
  5
1a3
100
AcDbEntity
  8
0
 62
1
100
AcDbSpline
 70
8
 71
3
 72
8
 73
4
 74
0
 40
0
 40
0
 40
0
 40
0
 40
1
 40
1
 40
1
 40
1
 10
63.997824
 20
712.491701
 30
0.0
 10
63.090836
 20
710.504892
 30
0.0
 10
63.760343
 20
708.153529
 30
0.0
 10
65.577864
 20
706.942474
 30
0.0
  0
LWPOLYLINE
  5
1a4
100
AcDbEntity
  8
0
 62
1
100
AcDbPolyline
 90
2
 70
0
 10
69.679832
 20
716.845511
 30
0.0
 10
75.938595
 20
715.630189
 30
0.0
  0
SPLINE
  5
1a5
100
AcDbEntity
  8
0
 62
1
100
AcDbSpline
 70
8
 71
3
 72
8
 73
4
 74
0
 40
0
 40
0
 40
0
 40
0
 40
1
 40
1
 40
1
 40
1
 10
70.796836
 20
703.430366
 30
0.0
 10
70.636218
 20
703.560431
 30
0.0
 10
70.469643
 20
703.682963
 30
0.0
 10
70.297652
 20
703.797566
 30
0.0
  0
SPLINE
  5
1a6
100
AcDbEntity
  8
0
 62
1
100
AcDbSpline
 70
8
 71
3
 72
8
 73
4
 74
0
 40
0
 40
0
 40
0
 40
0
 40
1
 40
1
 40
1
 40
1
 10
61.044834
 20
694.544749
 30
0.0
 10
61.159437
 20
694.372757
 30
0.0
 10
61.281969
 20
694.206182
 30
0.0
 10
61.412034
 20
694.045564
 30
0.0
  0
SPLINE
  5
1a7
100
AcDbEntity
  8
0
 62
1
100
AcDbSpline
 70
8
 71
3
 72
8
 73
4
 74
0
 40
0
 40
0
 40
0
 40
0
 40
1
 40
1
 40
1
 40
1
 10
35.923330
 20
688.903804
 30
0.0
 10
35.691005
 20
686.383870
 30
0.0
 10
36.904184
 20
683.949366
 30
0.0
 10
39.055968
 20
682.617499
 30
0.0
  0
SPLINE
  5
1a8
100
AcDbEntity
  8
0
 62
1
100
AcDbSpline
 70
8
 71
3
 72
8
 73
4
 74
0
 40
0
 40
0
 40
0
 40
0
 40
1
 40
1
 40
1
 40
1
 10
39.055968
 20
682.617499
 30
0.0
 10
41.207751
 20
681.285632
 30
0.0
 10
43.927791
 20
681.285632
 30
0.0
 10
46.079574
 20
682.617499
 30
0.0
  0
SPLINE
  5
1a9
100
AcDbEntity
  8
0
 62
1
100
AcDbSpline
 70
8
 71
3
 72
8
 73
4
 74
0
 40
0
 40
0
 40
0
 40
0
 40
1
 40
1
 40
1
 40
1
 10
46.079574
 20
682.617499
 30
0.0
 10
48.231358
 20
683.949366
 30
0.0
 10
49.444537
 20
686.383870
 30
0.0
 10
49.212211
 20
688.903804
 30
0.0
  0
SPLINE
  5
1aa
100
AcDbEntity
  8
0
 62
1
100
AcDbSpline
 70
8
 71
3
 72
8
 73
4
 74
0
 40
0
 40
0
 40
0
 40
0
 40
1
 40
1
 40
1
 40
1
 10
75.938595
 20
715.630189
 30
0.0
 10
78.458527
 20
715.397866
 30
0.0
 10
80.893028
 20
716.611047
 30
0.0
 10
82.224893
 20
718.762829
 30
0.0
  0
SPLINE
  5
1ab
100
AcDbEntity
  8
0
 62
1
100
AcDbSpline
 70
8
 71
3
 72
8
 73
4
 74
0
 40
0
 40
0
 40
0
 40
0
 40
1
 40
1
 40
1
 40
1
 10
82.224893
 20
718.762829
 30
0.0
 10
83.556759
 20
720.914611
 30
0.0
 10
83.556759
 20
723.634649
 30
0.0
 10
82.224893
 20
725.786431
 30
0.0
  0
SPLINE
  5
1ac
100
AcDbEntity
  8
0
 62
1
100
AcDbSpline
 70
8
 71
3
 72
8
 73
4
 74
0
 40
0
 40
0
 40
0
 40
0
 40
1
 40
1
 40
1
 40
1
 10
82.224893
 20
725.786431
 30
0.0
 10
80.893028
 20
727.938213
 30
0.0
 10
78.458527
 20
729.151394
 30
0.0
 10
75.938595
 20
728.919071
 30
0.0
  0
SPLINE
  5
1ad
100
AcDbEntity
  8
0
 62
1
100
AcDbSpline
 70
8
 71
3
 72
8
 73
4
 74
0
 40
0
 40
0
 40
0
 40
0
 40
1
 40
1
 40
1
 40
1
 10
70.862837
 20
741.173036
 30
0.0
 10
72.808971
 20
742.790622
 30
0.0
 10
73.672572
 20
745.369920
 30
0.0
 10
73.092802
 20
747.833229
 30
0.0
  0
SPLINE
  5
1ae
100
AcDbEntity
  8
0
 62
1
100
AcDbSpline
 70
8
 71
3
 72
8
 73
4
 74
0
 40
0
 40
0
 40
0
 40
0
 40
1
 40
1
 40
1
 40
1
 10
73.092802
 20
747.833229
 30
0.0
 10
72.513033
 20
750.296538
 30
0.0
 10
70.589678
 20
752.219893
 30
0.0
 10
68.126369
 20
752.799662
 30
0.0
  0
SPLINE
  5
1af
100
AcDbEntity
  8
0
 62
1
100
AcDbSpline
 70
8
 71
3
 72
8
 73
4
 74
0
 40
0
 40
0
 40
0
 40
0
 40
1
 40
1
 40
1
 40
1
 10
68.126369
 20
752.799662
 30
0.0
 10
65.663061
 20
753.379432
 30
0.0
 10
63.083762
 20
752.515831
 30
0.0
 10
61.466177
 20
750.569696
 30
0.0
  0
SPLINE
  5
1b0
100
AcDbEntity
  8
0
 62
1
100
AcDbSpline
 70
8
 71
3
 72
8
 73
4
 74
0
 40
0
 40
0
 40
0
 40
0
 40
1
 40
1
 40
1
 40
1
 10
61.466177
 20
693.979564
 30
0.0
 10
63.083762
 20
692.033429
 30
0.0
 10
65.663061
 20
691.169828
 30
0.0
 10
68.126369
 20
691.749598
 30
0.0
  0
SPLINE
  5
1b1
100
AcDbEntity
  8
0
 62
1
100
AcDbSpline
 70
8
 71
3
 72
8
 73
4
 74
0
 40
0
 40
0
 40
0
 40
0
 40
1
 40
1
 40
1
 40
1
 10
68.126369
 20
691.749598
 30
0.0
 10
70.589678
 20
692.329367
 30
0.0
 10
72.513033
 20
694.252722
 30
0.0
 10
73.092802
 20
696.716031
 30
0.0
  0
SPLINE
  5
1b2
100
AcDbEntity
  8
0
 62
1
100
AcDbSpline
 70
8
 71
3
 72
8
 73
4
 74
0
 40
0
 40
0
 40
0
 40
0
 40
1
 40
1
 40
1
 40
1
 10
73.092802
 20
696.716031
 30
0.0
 10
73.672572
 20
699.179340
 30
0.0
 10
72.808971
 20
701.758638
 30
0.0
 10
70.862837
 20
703.376224
 30
0.0
  0
SPLINE
  5
1b3
100
AcDbEntity
  8
0
 62
1
100
AcDbSpline
 70
8
 71
3
 72
8
 73
4
 74
0
 40
0
 40
0
 40
0
 40
0
 40
1
 40
1
 40
1
 40
1
 10
70.796836
 20
741.118886
 30
0.0
 10
70.818952
 20
741.136795
 30
0.0
 10
70.840952
 20
741.154846
 30
0.0
 10
70.862836
 20
741.173036
 30
0.0
  0
SPLINE
  5
1b4
100
AcDbEntity
  8
0
 62
1
100
AcDbSpline
 70
8
 71
3
 72
8
 73
4
 74
0
 40
0
 40
0
 40
0
 40
0
 40
1
 40
1
 40
1
 40
1
 10
61.466177
 20
750.569696
 30
0.0
 10
61.447986
 20
750.547812
 30
0.0
 10
61.429936
 20
750.525812
 30
0.0
 10
61.412027
 20
750.503696
 30
0.0
  0
SPLINE
  5
1b5
100
AcDbEntity
  8
0
 62
1
100
AcDbSpline
 70
8
 71
3
 72
8
 73
4
 74
0
 40
0
 40
0
 40
0
 40
0
 40
1
 40
1
 40
1
 40
1
 10
35.931712
 20
688.988764
 30
0.0
 10
35.928736
 20
688.960462
 30
0.0
 10
35.925941
 20
688.932141
 30
0.0
 10
35.923327
 20
688.903804
 30
0.0
  0
SPLINE
  5
1b6
100
AcDbEntity
  8
0
 62
1
100
AcDbSpline
 70
8
 71
3
 72
8
 73
4
 74
0
 40
0
 40
0
 40
0
 40
0
 40
1
 40
1
 40
1
 40
1
 10
49.212211
 20
688.903804
 30
0.0
 10
49.209593
 20
688.932141
 30
0.0
 10
49.206793
 20
688.960462
 30
0.0
 10
49.203812
 20
688.988764
 30
0.0
  0
SPLINE
  5
1b7
100
AcDbEntity
  8
0
 62
1
100
AcDbSpline
 70
8
 71
3
 72
8
 73
4
 74
0
 40
0
 40
0
 40
0
 40
0
 40
1
 40
1
 40
1
 40
1
 10
61.412034
 20
694.045564
 30
0.0
 10
61.429943
 20
694.023449
 30
0.0
 10
61.447993
 20
694.001448
 30
0.0
 10
61.466184
 20
693.979564
 30
0.0
  0
SPLINE
  5
1b8
100
AcDbEntity
  8
0
 62
1
100
AcDbSpline
 70
8
 71
3
 72
8
 73
4
 74
0
 40
0
 40
0
 40
0
 40
0
 40
1
 40
1
 40
1
 40
1
 10
70.862836
 20
703.376224
 30
0.0
 10
70.840952
 20
703.394414
 30
0.0
 10
70.818952
 20
703.412465
 30
0.0
 10
70.796836
 20
703.430374
 30
0.0
  0
LWPOLYLINE
  5
1b9
100
AcDbEntity
  8
0
 62
1
100
AcDbPolyline
 90
2
 70
0
 10
70.297652
 20
703.797566
 30
0.0
 10
65.577864
 20
706.942474
 30
0.0
  0
LWPOLYLINE
  5
1ba
100
AcDbEntity
  8
0
 62
1
100
AcDbPolyline
 90
2
 70
0
 10
51.369347
 20
804.479351
 30
0.0
 10
51.369347
 20
744.126056
 30
0.0
  0
SPLINE
  5
1bb
100
AcDbEntity
  8
0
 62
1
100
AcDbSpline
 70
8
 71
3
 72
8
 73
4
 74
0
 40
0
 40
0
 40
0
 40
0
 40
1
 40
1
 40
1
 40
1
 10
33.766197
 20
748.720069
 30
0.0
 10
21.773850
 20
744.728772
 30
0.0
 10
13.968431
 20
733.167440
 30
0.0
 10
14.749378
 20
720.552490
 30
0.0
  0
SPLINE
  5
1bc
100
AcDbEntity
  8
0
 62
1
100
AcDbSpline
 70
8
 71
3
 72
8
 73
4
 74
0
 40
0
 40
0
 40
0
 40
0
 40
1
 40
1
 40
1
 40
1
 10
14.749378
 20
720.552490
 30
0.0
 10
15.530325
 20
707.937540
 30
0.0
 10
24.702123
 20
697.427208
 30
0.0
 10
37.095189
 20
694.945526
 30
0.0
  0
SPLINE
  5
1bd
100
AcDbEntity
  8
0
 62
1
100
AcDbSpline
 70
8
 71
3
 72
8
 73
4
 74
0
 40
0
 40
0
 40
0
 40
0
 40
1
 40
1
 40
1
 40
1
 10
46.819741
 20
722.274626
 30
0.0
 10
46.820847
 20
723.794445
 30
0.0
 10
46.010669
 20
725.199288
 30
0.0
 10
44.694651
 20
725.959517
 30
0.0
  0
SPLINE
  5
1be
100
AcDbEntity
  8
0
 62
1
100
AcDbSpline
 70
8
 71
3
 72
8
 73
4
 74
0
 40
0
 40
0
 40
0
 40
0
 40
1
 40
1
 40
1
 40
1
 10
44.694651
 20
725.959517
 30
0.0
 10
43.378634
 20
726.719745
 30
0.0
 10
41.756914
 20
726.719745
 30
0.0
 10
40.440897
 20
725.959517
 30
0.0
  0
SPLINE
  5
1bf
100
AcDbEntity
  8
0
 62
1
100
AcDbSpline
 70
8
 71
3
 72
8
 73
4
 74
0
 40
0
 40
0
 40
0
 40
0
 40
1
 40
1
 40
1
 40
1
 10
40.440897
 20
725.959517
 30
0.0
 10
39.124879
 20
725.199288
 30
0.0
 10
38.314701
 20
723.794445
 30
0.0
 10
38.315807
 20
722.274626
 30
0.0
  0
SPLINE
  5
1c0
100
AcDbEntity
  8
0
 62
1
100
AcDbSpline
 70
8
 71
3
 72
8
 73
4
 74
0
 40
0
 40
0
 40
0
 40
0
 40
1
 40
1
 40
1
 40
1
 10
38.315807
 20
722.274626
 30
0.0
 10
38.314701
 20
720.754808
 30
0.0
 10
39.124879
 20
719.349965
 30
0.0
 10
40.440897
 20
718.589736
 30
0.0
  0
SPLINE
  5
1c1
100
AcDbEntity
  8
0
 62
1
100
AcDbSpline
 70
8
 71
3
 72
8
 73
4
 74
0
 40
0
 40
0
 40
0
 40
0
 40
1
 40
1
 40
1
 40
1
 10
40.440897
 20
718.589736
 30
0.0
 10
41.756914
 20
717.829507
 30
0.0
 10
43.378634
 20
717.829507
 30
0.0
 10
44.694651
 20
718.589736
 30
0.0
  0
SPLINE
  5
1c2
100
AcDbEntity
  8
0
 62
1
100
AcDbSpline
 70
8
 71
3
 72
8
 73
4
 74
0
 40
0
 40
0
 40
0
 40
0
 40
1
 40
1
 40
1
 40
1
 10
44.694651
 20
718.589736
 30
0.0
 10
46.010669
 20
719.349965
 30
0.0
 10
46.820847
 20
720.754808
 30
0.0
 10
46.819741
 20
722.274626
 30
0.0
  0
LWPOLYLINE
  5
1c3
100
AcDbEntity
  8
0
 62
1
100
AcDbPolyline
 90
2
 70
0
 10
33.766197
 20
804.479351
 30
0.0
 10
33.766197
 20
748.720069
 30
0.0
  0
SPLINE
  5
1c4
100
AcDbEntity
  8
0
 62
1
100
AcDbSpline
 70
8
 71
3
 72
8
 73
4
 74
0
 40
0
 40
0
 40
0
 40
0
 40
1
 40
1
 40
1
 40
1
 10
46.819741
 20
804.479351
 30
0.0
 10
46.820847
 20
805.999169
 30
0.0
 10
46.010669
 20
807.404012
 30
0.0
 10
44.694651
 20
808.164241
 30
0.0
  0
SPLINE
  5
1c5
100
AcDbEntity
  8
0
 62
1
100
AcDbSpline
 70
8
 71
3
 72
8
 73
4
 74
0
 40
0
 40
0
 40
0
 40
0
 40
1
 40
1
 40
1
 40
1
 10
44.694651
 20
808.164241
 30
0.0
 10
43.378634
 20
808.924469
 30
0.0
 10
41.756914
 20
808.924469
 30
0.0
 10
40.440897
 20
808.164241
 30
0.0
  0
SPLINE
  5
1c6
100
AcDbEntity
  8
0
 62
1
100
AcDbSpline
 70
8
 71
3
 72
8
 73
4
 74
0
 40
0
 40
0
 40
0
 40
0
 40
1
 40
1
 40
1
 40
1
 10
40.440897
 20
808.164241
 30
0.0
 10
39.124879
 20
807.404012
 30
0.0
 10
38.314701
 20
805.999169
 30
0.0
 10
38.315807
 20
804.479351
 30
0.0
  0
SPLINE
  5
1c7
100
AcDbEntity
  8
0
 62
1
100
AcDbSpline
 70
8
 71
3
 72
8
 73
4
 74
0
 40
0
 40
0
 40
0
 40
0
 40
1
 40
1
 40
1
 40
1
 10
38.315807
 20
804.479351
 30
0.0
 10
38.314701
 20
802.959532
 30
0.0
 10
39.124879
 20
801.554689
 30
0.0
 10
40.440897
 20
800.794460
 30
0.0
  0
SPLINE
  5
1c8
100
AcDbEntity
  8
0
 62
1
100
AcDbSpline
 70
8
 71
3
 72
8
 73
4
 74
0
 40
0
 40
0
 40
0
 40
0
 40
1
 40
1
 40
1
 40
1
 10
40.440897
 20
800.794460
 30
0.0
 10
41.756914
 20
800.034232
 30
0.0
 10
43.378634
 20
800.034232
 30
0.0
 10
44.694651
 20
800.794460
 30
0.0
  0
SPLINE
  5
1c9
100
AcDbEntity
  8
0
 62
1
100
AcDbSpline
 70
8
 71
3
 72
8
 73
4
 74
0
 40
0
 40
0
 40
0
 40
0
 40
1
 40
1
 40
1
 40
1
 10
44.694651
 20
800.794460
 30
0.0
 10
46.010669
 20
801.554689
 30
0.0
 10
46.820847
 20
802.959532
 30
0.0
 10
46.819741
 20
804.479351
 30
0.0
  0
LWPOLYLINE
  5
1ca
100
AcDbEntity
  8
0
 62
1
100
AcDbPolyline
 90
1
 70
1
 10
46.819741
 20
722.274626
 30
0.0
  0
SPLINE
  5
1cb
100
AcDbEntity
  8
0
 62
1
100
AcDbSpline
 70
8
 71
3
 72
8
 73
4
 74
0
 40
0
 40
0
 40
0
 40
0
 40
1
 40
1
 40
1
 40
1
 10
51.369347
 20
804.479351
 30
0.0
 10
51.367340
 20
809.338907
 30
0.0
 10
47.427329
 20
813.277293
 30
0.0
 10
42.567772
 20
813.277293
 30
0.0
  0
SPLINE
  5
1cc
100
AcDbEntity
  8
0
 62
1
100
AcDbSpline
 70
8
 71
3
 72
8
 73
4
 74
0
 40
0
 40
0
 40
0
 40
0
 40
1
 40
1
 40
1
 40
1
 10
42.567772
 20
813.277293
 30
0.0
 10
37.708215
 20
813.277293
 30
0.0
 10
33.768203
 20
809.338907
 30
0.0
 10
33.766197
 20
804.479351
 30
0.0
  0
LWPOLYLINE
  5
1cd
100
AcDbEntity
  8
0
 62
1
100
AcDbPolyline
 90
1
 70
1
 10
46.819741
 20
804.479351
 30
0.0
  0
SPLINE
  5
1ce
100
AcDbEntity
  8
0
 62
1
100
AcDbSpline
 70
8
 71
3
 72
8
 73
4
 74
0
 40
0
 40
0
 40
0
 40
0
 40
1
 40
1
 40
1
 40
1
 10
98.801850
 20
800.211011
 30
0.0
 10
98.802753
 20
801.730694
 30
0.0
 10
97.992530
 20
803.135325
 30
0.0
 10
96.676596
 20
803.895428
 30
0.0
  0
SPLINE
  5
1cf
100
AcDbEntity
  8
0
 62
1
100
AcDbSpline
 70
8
 71
3
 72
8
 73
4
 74
0
 40
0
 40
0
 40
0
 40
0
 40
1
 40
1
 40
1
 40
1
 10
96.676596
 20
803.895428
 30
0.0
 10
95.360662
 20
804.655530
 30
0.0
 10
93.739103
 20
804.655530
 30
0.0
 10
92.423169
 20
803.895428
 30
0.0
  0
SPLINE
  5
1d0
100
AcDbEntity
  8
0
 62
1
100
AcDbSpline
 70
8
 71
3
 72
8
 73
4
 74
0
 40
0
 40
0
 40
0
 40
0
 40
1
 40
1
 40
1
 40
1
 10
92.423169
 20
803.895428
 30
0.0
 10
91.107235
 20
803.135325
 30
0.0
 10
90.297012
 20
801.730694
 30
0.0
 10
90.297915
 20
800.211011
 30
0.0
  0
SPLINE
  5
1d1
100
AcDbEntity
  8
0
 62
1
100
AcDbSpline
 70
8
 71
3
 72
8
 73
4
 74
0
 40
0
 40
0
 40
0
 40
0
 40
1
 40
1
 40
1
 40
1
 10
90.297915
 20
800.211011
 30
0.0
 10
90.297012
 20
798.691327
 30
0.0
 10
91.107235
 20
797.286696
 30
0.0
 10
92.423169
 20
796.526594
 30
0.0
  0
SPLINE
  5
1d2
100
AcDbEntity
  8
0
 62
1
100
AcDbSpline
 70
8
 71
3
 72
8
 73
4
 74
0
 40
0
 40
0
 40
0
 40
0
 40
1
 40
1
 40
1
 40
1
 10
92.423169
 20
796.526594
 30
0.0
 10
93.739103
 20
795.766491
 30
0.0
 10
95.360662
 20
795.766491
 30
0.0
 10
96.676596
 20
796.526594
 30
0.0
  0
SPLINE
  5
1d3
100
AcDbEntity
  8
0
 62
1
100
AcDbSpline
 70
8
 71
3
 72
8
 73
4
 74
0
 40
0
 40
0
 40
0
 40
0
 40
1
 40
1
 40
1
 40
1
 10
96.676596
 20
796.526594
 30
0.0
 10
97.992530
 20
797.286696
 30
0.0
 10
98.802753
 20
798.691327
 30
0.0
 10
98.801850
 20
800.211011
 30
0.0
  0
LWPOLYLINE
  5
1d4
100
AcDbEntity
  8
0
 62
1
100
AcDbPolyline
 90
2
 70
0
 10
104.556180
 20
768.368396
 30
0.0
 10
104.556180
 20
801.155981
 30
0.0
  0
SPLINE
  5
1d5
100
AcDbEntity
  8
0
 62
1
100
AcDbSpline
 70
8
 71
3
 72
8
 73
4
 74
0
 40
0
 40
0
 40
0
 40
0
 40
1
 40
1
 40
1
 40
1
 10
98.801850
 20
768.462978
 30
0.0
 10
98.802753
 20
769.982661
 30
0.0
 10
97.992530
 20
771.387293
 30
0.0
 10
96.676596
 20
772.147395
 30
0.0
  0
SPLINE
  5
1d6
100
AcDbEntity
  8
0
 62
1
100
AcDbSpline
 70
8
 71
3
 72
8
 73
4
 74
0
 40
0
 40
0
 40
0
 40
0
 40
1
 40
1
 40
1
 40
1
 10
96.676596
 20
772.147395
 30
0.0
 10
95.360662
 20
772.907497
 30
0.0
 10
93.739103
 20
772.907497
 30
0.0
 10
92.423169
 20
772.147395
 30
0.0
  0
SPLINE
  5
1d7
100
AcDbEntity
  8
0
 62
1
100
AcDbSpline
 70
8
 71
3
 72
8
 73
4
 74
0
 40
0
 40
0
 40
0
 40
0
 40
1
 40
1
 40
1
 40
1
 10
92.423169
 20
772.147395
 30
0.0
 10
91.107235
 20
771.387293
 30
0.0
 10
90.297012
 20
769.982661
 30
0.0
 10
90.297915
 20
768.462978
 30
0.0
  0
SPLINE
  5
1d8
100
AcDbEntity
  8
0
 62
1
100
AcDbSpline
 70
8
 71
3
 72
8
 73
4
 74
0
 40
0
 40
0
 40
0
 40
0
 40
1
 40
1
 40
1
 40
1
 10
90.297915
 20
768.462978
 30
0.0
 10
90.297012
 20
766.943295
 30
0.0
 10
91.107235
 20
765.538663
 30
0.0
 10
92.423169
 20
764.778561
 30
0.0
  0
SPLINE
  5
1d9
100
AcDbEntity
  8
0
 62
1
100
AcDbSpline
 70
8
 71
3
 72
8
 73
4
 74
0
 40
0
 40
0
 40
0
 40
0
 40
1
 40
1
 40
1
 40
1
 10
92.423169
 20
764.778561
 30
0.0
 10
93.739103
 20
764.018459
 30
0.0
 10
95.360662
 20
764.018459
 30
0.0
 10
96.676596
 20
764.778561
 30
0.0
  0
SPLINE
  5
1da
100
AcDbEntity
  8
0
 62
1
100
AcDbSpline
 70
8
 71
3
 72
8
 73
4
 74
0
 40
0
 40
0
 40
0
 40
0
 40
1
 40
1
 40
1
 40
1
 10
96.676596
 20
764.778561
 30
0.0
 10
97.992530
 20
765.538663
 30
0.0
 10
98.802753
 20
766.943295
 30
0.0
 10
98.801850
 20
768.462978
 30
0.0
  0
LWPOLYLINE
  5
1db
100
AcDbEntity
  8
0
 62
1
100
AcDbPolyline
 90
1
 70
1
 10
98.801850
 20
800.211011
 30
0.0
  0
LWPOLYLINE
  5
1dc
100
AcDbEntity
  8
0
 62
1
100
AcDbPolyline
 90
1
 70
1
 10
98.801850
 20
768.462978
 30
0.0
  0
LWPOLYLINE
  5
1dd
100
AcDbEntity
  8
0
 62
1
100
AcDbPolyline
 90
2
 70
0
 10
92.730503
 20
749.329121
 30
0.0
 10
101.684453
 20
760.305139
 30
0.0
  0
SPLINE
  5
1de
100
AcDbEntity
  8
0
 62
1
100
AcDbSpline
 70
8
 71
3
 72
8
 73
4
 74
0
 40
0
 40
0
 40
0
 40
0
 40
1
 40
1
 40
1
 40
1
 10
101.684453
 20
760.305139
 30
0.0
 10
103.541797
 20
762.581926
 30
0.0
 10
104.556179
 20
765.430116
 30
0.0
 10
104.556180
 20
768.368396
 30
0.0
  0
SPLINE
  5
1df
100
AcDbEntity
  8
0
 62
1
100
AcDbSpline
 70
8
 71
3
 72
8
 73
4
 74
0
 40
0
 40
0
 40
0
 40
0
 40
1
 40
1
 40
1
 40
1
 10
104.556180
 20
801.155981
 30
0.0
 10
104.556180
 20
804.094261
 30
0.0
 10
103.541797
 20
806.942451
 30
0.0
 10
101.684452
 20
809.219238
 30
0.0
  0
LWPOLYLINE
  5
1e0
100
AcDbEntity
  8
0
 62
1
100
AcDbPolyline
 90
2
 70
0
 10
101.684453
 20
809.219238
 30
0.0
 10
92.730503
 20
820.195263
 30
0.0
  0
LWPOLYLINE
  5
1e1
100
AcDbEntity
  8
0
 62
1
100
AcDbPolyline
 90
3
 70
0
 10
86.130982
 20
820.195263
 30
0.0
 10
86.130982
 20
749.329121
 30
0.0
 10
92.730503
 20
749.329121
 30
0.0
  0
LWPOLYLINE
  5
1e2
100
AcDbEntity
  8
0
 62
1
100
AcDbPolyline
 90
2
 70
0
 10
86.130982
 20
820.195263
 30
0.0
 10
92.730503
 20
820.195263
 30
0.0
  0
LWPOLYLINE
  5
1e3
100
AcDbEntity
  8
0
 62
1
100
AcDbPolyline
 90
2
 70
0
 10
140.863163
 20
802.800033
 30
0.0
 10
140.863163
 20
747.040744
 30
0.0
  0
LWPOLYLINE
  5
1e4
100
AcDbEntity
  8
0
 62
1
100
AcDbPolyline
 90
2
 70
0
 10
123.260010
 20
802.800033
 30
0.0
 10
123.260010
 20
758.664499
 30
0.0
  0
SPLINE
  5
1e5
100
AcDbEntity
  8
0
 62
1
100
AcDbSpline
 70
8
 71
3
 72
8
 73
4
 74
0
 40
0
 40
0
 40
0
 40
0
 40
1
 40
1
 40
1
 40
1
 10
125.454555
 20
687.303664
 30
0.0
 10
125.513252
 20
687.501830
 30
0.0
 10
125.562710
 20
687.702617
 30
0.0
 10
125.602770
 20
687.905374
 30
0.0
  0
SPLINE
  5
1e6
100
AcDbEntity
  8
0
 62
1
100
AcDbSpline
 70
8
 71
3
 72
8
 73
4
 74
0
 40
0
 40
0
 40
0
 40
0
 40
1
 40
1
 40
1
 40
1
 10
113.513385
 20
692.912966
 30
0.0
 10
113.398340
 20
692.741268
 30
0.0
 10
113.291335
 20
692.564317
 30
0.0
 10
113.192715
 20
692.382686
 30
0.0
  0
LWPOLYLINE
  5
1e7
100
AcDbEntity
  8
0
 62
1
100
AcDbPolyline
 90
2
 70
0
 10
125.602770
 20
687.905374
 30
0.0
 10
126.659198
 20
693.252236
 30
0.0
  0
SPLINE
  5
1e8
100
AcDbEntity
  8
0
 62
1
100
AcDbSpline
 70
8
 71
3
 72
8
 73
4
 74
0
 40
0
 40
0
 40
0
 40
0
 40
1
 40
1
 40
1
 40
1
 10
116.670397
 20
697.624661
 30
0.0
 10
117.886115
 20
699.439066
 30
0.0
 10
117.604831
 20
701.867649
 30
0.0
 10
116.006565
 20
703.356131
 30
0.0
  0
SPLINE
  5
1e9
100
AcDbEntity
  8
0
 62
1
100
AcDbSpline
 70
8
 71
3
 72
8
 73
4
 74
0
 40
0
 40
0
 40
0
 40
0
 40
1
 40
1
 40
1
 40
1
 10
114.822412
 20
704.540284
 30
0.0
 10
115.202971
 20
704.131657
 30
0.0
 10
115.597938
 20
703.736690
 30
0.0
 10
116.006565
 20
703.356131
 30
0.0
  0
SPLINE
  5
1ea
100
AcDbEntity
  8
0
 62
1
100
AcDbSpline
 70
8
 71
3
 72
8
 73
4
 74
0
 40
0
 40
0
 40
0
 40
0
 40
1
 40
1
 40
1
 40
1
 10
114.822412
 20
704.540284
 30
0.0
 10
113.333930
 20
706.138550
 30
0.0
 10
110.905347
 20
706.419834
 30
0.0
 10
109.090942
 20
705.204116
 30
0.0
  0
LWPOLYLINE
  5
1eb
100
AcDbEntity
  8
0
 62
1
100
AcDbPolyline
 90
2
 70
0
 10
116.670398
 20
697.624661
 30
0.0
 10
113.513385
 20
692.912966
 30
0.0
  0
SPLINE
  5
1ec
100
AcDbEntity
  8
0
 62
1
100
AcDbSpline
 70
8
 71
3
 72
8
 73
4
 74
0
 40
0
 40
0
 40
0
 40
0
 40
1
 40
1
 40
1
 40
1
 10
103.848968
 20
701.726434
 30
0.0
 10
104.030598
 20
701.825054
 30
0.0
 10
104.207549
 20
701.932059
 30
0.0
 10
104.379247
 20
702.047104
 30
0.0
  0
SPLINE
  5
1ed
100
AcDbEntity
  8
0
 62
1
100
AcDbSpline
 70
8
 71
3
 72
8
 73
4
 74
0
 40
0
 40
0
 40
0
 40
0
 40
1
 40
1
 40
1
 40
1
 10
99.371655
 20
714.136496
 30
0.0
 10
99.168898
 20
714.096434
 30
0.0
 10
98.968111
 20
714.046973
 30
0.0
 10
98.769945
 20
713.988274
 30
0.0
  0
LWPOLYLINE
  5
1ee
100
AcDbEntity
  8
0
 62
1
100
AcDbPolyline
 90
2
 70
0
 10
104.379247
 20
702.047104
 30
0.0
 10
109.090942
 20
705.204116
 30
0.0
  0
SPLINE
  5
1ef
100
AcDbEntity
  8
0
 62
1
100
AcDbSpline
 70
8
 71
3
 72
8
 73
4
 74
0
 40
0
 40
0
 40
0
 40
0
 40
1
 40
1
 40
1
 40
1
 10
104.935673
 20
715.235824
 30
0.0
 10
107.078294
 20
715.659157
 30
0.0
 10
108.596666
 20
717.575324
 30
0.0
 10
108.519037
 20
719.757986
 30
0.0
  0
SPLINE
  5
1f0
100
AcDbEntity
  8
0
 62
1
100
AcDbSpline
 70
8
 71
3
 72
8
 73
4
 74
0
 40
0
 40
0
 40
0
 40
0
 40
1
 40
1
 40
1
 40
1
 10
108.519038
 20
721.432624
 30
0.0
 10
108.499190
 20
720.874588
 30
0.0
 10
108.499190
 20
720.316022
 30
0.0
 10
108.519038
 20
719.757986
 30
0.0
  0
SPLINE
  5
1f1
100
AcDbEntity
  8
0
 62
1
100
AcDbSpline
 70
8
 71
3
 72
8
 73
4
 74
0
 40
0
 40
0
 40
0
 40
0
 40
1
 40
1
 40
1
 40
1
 10
108.519037
 20
721.432624
 30
0.0
 10
108.596666
 20
723.615286
 30
0.0
 10
107.078294
 20
725.531453
 30
0.0
 10
104.935673
 20
725.954786
 30
0.0
  0
LWPOLYLINE
  5
1f2
100
AcDbEntity
  8
0
 62
1
100
AcDbPolyline
 90
2
 70
0
 10
104.935673
 20
715.235824
 30
0.0
 10
99.371655
 20
714.136496
 30
0.0
  0
SPLINE
  5
1f3
100
AcDbEntity
  8
0
 62
1
100
AcDbSpline
 70
8
 71
3
 72
8
 73
4
 74
0
 40
0
 40
0
 40
0
 40
0
 40
1
 40
1
 40
1
 40
1
 10
98.769945
 20
727.202336
 30
0.0
 10
98.968111
 20
727.143639
 30
0.0
 10
99.168898
 20
727.094181
 30
0.0
 10
99.371655
 20
727.054121
 30
0.0
  0
SPLINE
  5
1f4
100
AcDbEntity
  8
0
 62
1
100
AcDbSpline
 70
8
 71
3
 72
8
 73
4
 74
0
 40
0
 40
0
 40
0
 40
0
 40
1
 40
1
 40
1
 40
1
 10
104.379248
 20
739.143506
 30
0.0
 10
104.207549
 20
739.258551
 30
0.0
 10
104.030598
 20
739.365556
 30
0.0
 10
103.848968
 20
739.464176
 30
0.0
  0
LWPOLYLINE
  5
1f5
100
AcDbEntity
  8
0
 62
1
100
AcDbPolyline
 90
2
 70
0
 10
99.371655
 20
727.054121
 30
0.0
 10
104.935673
 20
725.954786
 30
0.0
  0
SPLINE
  5
1f6
100
AcDbEntity
  8
0
 62
1
100
AcDbSpline
 70
8
 71
3
 72
8
 73
4
 74
0
 40
0
 40
0
 40
0
 40
0
 40
1
 40
1
 40
1
 40
1
 10
109.090942
 20
735.986494
 30
0.0
 10
110.905347
 20
734.770776
 30
0.0
 10
113.333930
 20
735.052061
 30
0.0
 10
114.822412
 20
736.650326
 30
0.0
  0
SPLINE
  5
1f7
100
AcDbEntity
  8
0
 62
1
100
AcDbSpline
 70
8
 71
3
 72
8
 73
4
 74
0
 40
0
 40
0
 40
0
 40
0
 40
1
 40
1
 40
1
 40
1
 10
116.006565
 20
737.834479
 30
0.0
 10
115.597938
 20
737.453920
 30
0.0
 10
115.202971
 20
737.058953
 30
0.0
 10
114.822412
 20
736.650326
 30
0.0
  0
SPLINE
  5
1f8
100
AcDbEntity
  8
0
 62
1
100
AcDbSpline
 70
8
 71
3
 72
8
 73
4
 74
0
 40
0
 40
0
 40
0
 40
0
 40
1
 40
1
 40
1
 40
1
 10
116.006565
 20
737.834479
 30
0.0
 10
117.604831
 20
739.322961
 30
0.0
 10
117.886115
 20
741.751544
 30
0.0
 10
116.670397
 20
743.565949
 30
0.0
  0
LWPOLYLINE
  5
1f9
100
AcDbEntity
  8
0
 62
1
100
AcDbPolyline
 90
2
 70
0
 10
109.090942
 20
735.986494
 30
0.0
 10
104.379247
 20
739.143506
 30
0.0
  0
SPLINE
  5
1fa
100
AcDbEntity
  8
0
 62
1
100
AcDbSpline
 70
8
 71
3
 72
8
 73
4
 74
0
 40
0
 40
0
 40
0
 40
0
 40
1
 40
1
 40
1
 40
1
 10
113.192715
 20
748.807924
 30
0.0
 10
113.291335
 20
748.626293
 30
0.0
 10
113.398340
 20
748.449342
 30
0.0
 10
113.513385
 20
748.277644
 30
0.0
  0
SPLINE
  5
1fb
100
AcDbEntity
  8
0
 62
1
100
AcDbSpline
 70
8
 71
3
 72
8
 73
4
 74
0
 40
0
 40
0
 40
0
 40
0
 40
1
 40
1
 40
1
 40
1
 10
113.152462
 20
692.307401
 30
0.0
 10
111.973490
 20
690.068194
 30
0.0
 10
112.162681
 20
687.354745
 30
0.0
 10
113.640986
 20
685.300812
 30
0.0
  0
SPLINE
  5
1fc
100
AcDbEntity
  8
0
 62
1
100
AcDbSpline
 70
8
 71
3
 72
8
 73
4
 74
0
 40
0
 40
0
 40
0
 40
0
 40
1
 40
1
 40
1
 40
1
 10
113.640986
 20
685.300812
 30
0.0
 10
115.119291
 20
683.246879
 30
0.0
 10
117.632276
 20
682.205966
 30
0.0
 10
120.129946
 20
682.612997
 30
0.0
  0
SPLINE
  5
1fd
100
AcDbEntity
  8
0
 62
1
100
AcDbSpline
 70
8
 71
3
 72
8
 73
4
 74
0
 40
0
 40
0
 40
0
 40
0
 40
1
 40
1
 40
1
 40
1
 10
120.129946
 20
682.612997
 30
0.0
 10
122.627615
 20
683.020028
 30
0.0
 10
124.680091
 20
684.804948
 30
0.0
 10
125.429790
 20
687.221966
 30
0.0
  0
SPLINE
  5
1fe
100
AcDbEntity
  8
0
 62
1
100
AcDbSpline
 70
8
 71
3
 72
8
 73
4
 74
0
 40
0
 40
0
 40
0
 40
0
 40
1
 40
1
 40
1
 40
1
 10
103.773683
 20
739.504429
 30
0.0
 10
101.534475
 20
740.683401
 30
0.0
 10
98.821027
 20
740.494210
 30
0.0
 10
96.767093
 20
739.015906
 30
0.0
  0
SPLINE
  5
1ff
100
AcDbEntity
  8
0
 62
1
100
AcDbSpline
 70
8
 71
3
 72
8
 73
4
 74
0
 40
0
 40
0
 40
0
 40
0
 40
1
 40
1
 40
1
 40
1
 10
96.767093
 20
739.015906
 30
0.0
 10
94.713160
 20
737.537601
 30
0.0
 10
93.672248
 20
735.024615
 30
0.0
 10
94.079278
 20
732.526946
 30
0.0
  0
SPLINE
  5
200
100
AcDbEntity
  8
0
 62
1
100
AcDbSpline
 70
8
 71
3
 72
8
 73
4
 74
0
 40
0
 40
0
 40
0
 40
0
 40
1
 40
1
 40
1
 40
1
 10
94.079278
 20
732.526946
 30
0.0
 10
94.486309
 20
730.029276
 30
0.0
 10
96.271229
 20
727.976801
 30
0.0
 10
98.688248
 20
727.227101
 30
0.0
  0
SPLINE
  5
201
100
AcDbEntity
  8
0
 62
1
100
AcDbSpline
 70
8
 71
3
 72
8
 73
4
 74
0
 40
0
 40
0
 40
0
 40
0
 40
1
 40
1
 40
1
 40
1
 10
98.688247
 20
713.963509
 30
0.0
 10
96.271229
 20
713.213809
 30
0.0
 10
94.486309
 20
711.161334
 30
0.0
 10
94.079278
 20
708.663664
 30
0.0
  0
SPLINE
  5
202
100
AcDbEntity
  8
0
 62
1
100
AcDbSpline
 70
8
 71
3
 72
8
 73
4
 74
0
 40
0
 40
0
 40
0
 40
0
 40
1
 40
1
 40
1
 40
1
 10
94.079278
 20
708.663664
 30
0.0
 10
93.672248
 20
706.165995
 30
0.0
 10
94.713160
 20
703.653009
 30
0.0
 10
96.767093
 20
702.174705
 30
0.0
  0
SPLINE
  5
203
100
AcDbEntity
  8
0
 62
1
100
AcDbSpline
 70
8
 71
3
 72
8
 73
4
 74
0
 40
0
 40
0
 40
0
 40
0
 40
1
 40
1
 40
1
 40
1
 10
96.767093
 20
702.174705
 30
0.0
 10
98.821027
 20
700.696400
 30
0.0
 10
101.534475
 20
700.507209
 30
0.0
 10
103.773682
 20
701.686181
 30
0.0
  0
SPLINE
  5
204
100
AcDbEntity
  8
0
 62
1
100
AcDbSpline
 70
8
 71
3
 72
8
 73
4
 74
0
 40
0
 40
0
 40
0
 40
0
 40
1
 40
1
 40
1
 40
1
 10
119.056703
 20
758.664499
 30
0.0
 10
116.719188
 20
758.664500
 30
0.0
 10
114.552106
 20
757.441325
 30
0.0
 10
113.344134
 20
755.440132
 30
0.0
  0
SPLINE
  5
205
100
AcDbEntity
  8
0
 62
1
100
AcDbSpline
 70
8
 71
3
 72
8
 73
4
 74
0
 40
0
 40
0
 40
0
 40
0
 40
1
 40
1
 40
1
 40
1
 10
113.344134
 20
755.440132
 30
0.0
 10
112.136162
 20
753.438938
 30
0.0
 10
112.063451
 20
750.951548
 30
0.0
 10
113.152462
 20
748.883209
 30
0.0
  0
SPLINE
  5
206
100
AcDbEntity
  8
0
 62
1
100
AcDbSpline
 70
8
 71
3
 72
8
 73
4
 74
0
 40
0
 40
0
 40
0
 40
0
 40
1
 40
1
 40
1
 40
1
 10
98.769945
 20
713.988274
 30
0.0
 10
98.742660
 20
713.980198
 30
0.0
 10
98.715427
 20
713.971948
 30
0.0
 10
98.688248
 20
713.963524
 30
0.0
  0
SPLINE
  5
207
100
AcDbEntity
  8
0
 62
1
100
AcDbSpline
 70
8
 71
3
 72
8
 73
4
 74
0
 40
0
 40
0
 40
0
 40
0
 40
1
 40
1
 40
1
 40
1
 10
103.773683
 20
701.686181
 30
0.0
 10
103.798863
 20
701.699446
 30
0.0
 10
103.823959
 20
701.712871
 30
0.0
 10
103.848968
 20
701.726456
 30
0.0
  0
SPLINE
  5
208
100
AcDbEntity
  8
0
 62
1
100
AcDbSpline
 70
8
 71
3
 72
8
 73
4
 74
0
 40
0
 40
0
 40
0
 40
0
 40
1
 40
1
 40
1
 40
1
 10
113.192715
 20
692.382686
 30
0.0
 10
113.179130
 20
692.357677
 30
0.0
 10
113.165704
 20
692.332582
 30
0.0
 10
113.152440
 20
692.307401
 30
0.0
  0
SPLINE
  5
209
100
AcDbEntity
  8
0
 62
1
100
AcDbSpline
 70
8
 71
3
 72
8
 73
4
 74
0
 40
0
 40
0
 40
0
 40
0
 40
1
 40
1
 40
1
 40
1
 10
125.429790
 20
687.221966
 30
0.0
 10
125.438214
 20
687.249146
 30
0.0
 10
125.446464
 20
687.276379
 30
0.0
 10
125.454540
 20
687.303664
 30
0.0
  0
SPLINE
  5
20a
100
AcDbEntity
  8
0
 62
1
100
AcDbSpline
 70
8
 71
3
 72
8
 73
4
 74
0
 40
0
 40
0
 40
0
 40
0
 40
1
 40
1
 40
1
 40
1
 10
113.152462
 20
748.883209
 30
0.0
 10
113.165727
 20
748.858028
 30
0.0
 10
113.179152
 20
748.832933
 30
0.0
 10
113.192737
 20
748.807924
 30
0.0
  0
SPLINE
  5
20b
100
AcDbEntity
  8
0
 62
1
100
AcDbSpline
 70
8
 71
3
 72
8
 73
4
 74
0
 40
0
 40
0
 40
0
 40
0
 40
1
 40
1
 40
1
 40
1
 10
103.848968
 20
739.464176
 30
0.0
 10
103.823959
 20
739.477762
 30
0.0
 10
103.798863
 20
739.491187
 30
0.0
 10
103.773683
 20
739.504451
 30
0.0
  0
SPLINE
  5
20c
100
AcDbEntity
  8
0
 62
1
100
AcDbSpline
 70
8
 71
3
 72
8
 73
4
 74
0
 40
0
 40
0
 40
0
 40
0
 40
1
 40
1
 40
1
 40
1
 10
98.688247
 20
727.227101
 30
0.0
 10
98.715427
 20
727.218677
 30
0.0
 10
98.742660
 20
727.210427
 30
0.0
 10
98.769945
 20
727.202351
 30
0.0
  0
SPLINE
  5
20d
100
AcDbEntity
  8
0
 62
1
100
AcDbSpline
 70
8
 71
3
 72
8
 73
4
 74
0
 40
0
 40
0
 40
0
 40
0
 40
1
 40
1
 40
1
 40
1
 10
126.659198
 20
693.252236
 30
0.0
 10
141.090764
 20
690.400875
 30
0.0
 10
155.253615
 20
699.256151
 30
0.0
 10
159.009492
 20
713.479152
 30
0.0
  0
SPLINE
  5
20e
100
AcDbEntity
  8
0
 62
1
100
AcDbSpline
 70
8
 71
3
 72
8
 73
4
 74
0
 40
0
 40
0
 40
0
 40
0
 40
1
 40
1
 40
1
 40
1
 10
159.009492
 20
713.479152
 30
0.0
 10
162.765369
 20
727.702154
 30
0.0
 10
154.820967
 20
742.395306
 30
0.0
 10
140.863163
 20
747.040744
 30
0.0
  0
LWPOLYLINE
  5
20f
100
AcDbEntity
  8
0
 62
1
100
AcDbPolyline
 90
2
 70
0
 10
113.513385
 20
748.277644
 30
0.0
 10
116.670398
 20
743.565949
 30
0.0
  0
SPLINE
  5
210
100
AcDbEntity
  8
0
 62
1
100
AcDbSpline
 70
8
 71
3
 72
8
 73
4
 74
0
 40
0
 40
0
 40
0
 40
0
 40
1
 40
1
 40
1
 40
1
 10
136.313550
 20
802.800033
 30
0.0
 10
136.314453
 20
804.319716
 30
0.0
 10
135.504230
 20
805.724348
 30
0.0
 10
134.188296
 20
806.484450
 30
0.0
  0
SPLINE
  5
211
100
AcDbEntity
  8
0
 62
1
100
AcDbSpline
 70
8
 71
3
 72
8
 73
4
 74
0
 40
0
 40
0
 40
0
 40
0
 40
1
 40
1
 40
1
 40
1
 10
134.188296
 20
806.484450
 30
0.0
 10
132.872362
 20
807.244552
 30
0.0
 10
131.250803
 20
807.244552
 30
0.0
 10
129.934869
 20
806.484450
 30
0.0
  0
SPLINE
  5
212
100
AcDbEntity
  8
0
 62
1
100
AcDbSpline
 70
8
 71
3
 72
8
 73
4
 74
0
 40
0
 40
0
 40
0
 40
0
 40
1
 40
1
 40
1
 40
1
 10
129.934869
 20
806.484450
 30
0.0
 10
128.618935
 20
805.724348
 30
0.0
 10
127.808712
 20
804.319716
 30
0.0
 10
127.809615
 20
802.800033
 30
0.0
  0
SPLINE
  5
213
100
AcDbEntity
  8
0
 62
1
100
AcDbSpline
 70
8
 71
3
 72
8
 73
4
 74
0
 40
0
 40
0
 40
0
 40
0
 40
1
 40
1
 40
1
 40
1
 10
127.809615
 20
802.800033
 30
0.0
 10
127.808712
 20
801.280350
 30
0.0
 10
128.618935
 20
799.875718
 30
0.0
 10
129.934869
 20
799.115616
 30
0.0
  0
SPLINE
  5
214
100
AcDbEntity
  8
0
 62
1
100
AcDbSpline
 70
8
 71
3
 72
8
 73
4
 74
0
 40
0
 40
0
 40
0
 40
0
 40
1
 40
1
 40
1
 40
1
 10
129.934869
 20
799.115616
 30
0.0
 10
131.250803
 20
798.355514
 30
0.0
 10
132.872362
 20
798.355514
 30
0.0
 10
134.188296
 20
799.115616
 30
0.0
  0
SPLINE
  5
215
100
AcDbEntity
  8
0
 62
1
100
AcDbSpline
 70
8
 71
3
 72
8
 73
4
 74
0
 40
0
 40
0
 40
0
 40
0
 40
1
 40
1
 40
1
 40
1
 10
134.188296
 20
799.115616
 30
0.0
 10
135.504230
 20
799.875718
 30
0.0
 10
136.314453
 20
801.280350
 30
0.0
 10
136.313550
 20
802.800033
 30
0.0
  0
LWPOLYLINE
  5
216
100
AcDbEntity
  8
0
 62
1
100
AcDbPolyline
 90
2
 70
0
 10
119.056703
 20
758.664499
 30
0.0
 10
123.260010
 20
758.664499
 30
0.0
  0
SPLINE
  5
217
100
AcDbEntity
  8
0
 62
1
100
AcDbSpline
 70
8
 71
3
 72
8
 73
4
 74
0
 40
0
 40
0
 40
0
 40
0
 40
1
 40
1
 40
1
 40
1
 10
140.863163
 20
802.800033
 30
0.0
 10
140.863162
 20
807.661009
 30
0.0
 10
136.922562
 20
811.601609
 30
0.0
 10
132.061586
 20
811.601609
 30
0.0
  0
SPLINE
  5
218
100
AcDbEntity
  8
0
 62
1
100
AcDbSpline
 70
8
 71
3
 72
8
 73
4
 74
0
 40
0
 40
0
 40
0
 40
0
 40
1
 40
1
 40
1
 40
1
 10
132.061586
 20
811.601609
 30
0.0
 10
127.200610
 20
811.601609
 30
0.0
 10
123.260010
 20
807.661009
 30
0.0
 10
123.260010
 20
802.800033
 30
0.0
  0
SPLINE
  5
219
100
AcDbEntity
  8
0
 62
1
100
AcDbSpline
 70
8
 71
3
 72
8
 73
4
 74
0
 40
0
 40
0
 40
0
 40
0
 40
1
 40
1
 40
1
 40
1
 10
291.959220
 20
576.948161
 30
0.0
 10
291.959220
 20
578.467244
 30
0.0
 10
291.148799
 20
579.870935
 30
0.0
 10
289.833234
 20
580.630476
 30
0.0
  0
SPLINE
  5
21a
100
AcDbEntity
  8
0
 62
1
100
AcDbSpline
 70
8
 71
3
 72
8
 73
4
 74
0
 40
0
 40
0
 40
0
 40
0
 40
1
 40
1
 40
1
 40
1
 10
289.833234
 20
580.630476
 30
0.0
 10
288.517670
 20
581.390018
 30
0.0
 10
286.896828
 20
581.390018
 30
0.0
 10
285.581263
 20
580.630476
 30
0.0
  0
SPLINE
  5
21b
100
AcDbEntity
  8
0
 62
1
100
AcDbSpline
 70
8
 71
3
 72
8
 73
4
 74
0
 40
0
 40
0
 40
0
 40
0
 40
1
 40
1
 40
1
 40
1
 10
285.581263
 20
580.630476
 30
0.0
 10
284.265699
 20
579.870935
 30
0.0
 10
283.455277
 20
578.467244
 30
0.0
 10
283.455277
 20
576.948161
 30
0.0
  0
SPLINE
  5
21c
100
AcDbEntity
  8
0
 62
1
100
AcDbSpline
 70
8
 71
3
 72
8
 73
4
 74
0
 40
0
 40
0
 40
0
 40
0
 40
1
 40
1
 40
1
 40
1
 10
283.455277
 20
576.948161
 30
0.0
 10
283.455277
 20
575.429078
 30
0.0
 10
284.265699
 20
574.025388
 30
0.0
 10
285.581263
 20
573.265846
 30
0.0
  0
SPLINE
  5
21d
100
AcDbEntity
  8
0
 62
1
100
AcDbSpline
 70
8
 71
3
 72
8
 73
4
 74
0
 40
0
 40
0
 40
0
 40
0
 40
1
 40
1
 40
1
 40
1
 10
285.581263
 20
573.265846
 30
0.0
 10
286.896828
 20
572.506305
 30
0.0
 10
288.517670
 20
572.506305
 30
0.0
 10
289.833234
 20
573.265846
 30
0.0
  0
SPLINE
  5
21e
100
AcDbEntity
  8
0
 62
1
100
AcDbSpline
 70
8
 71
3
 72
8
 73
4
 74
0
 40
0
 40
0
 40
0
 40
0
 40
1
 40
1
 40
1
 40
1
 10
289.833234
 20
573.265846
 30
0.0
 10
291.148799
 20
574.025388
 30
0.0
 10
291.959220
 20
575.429078
 30
0.0
 10
291.959220
 20
576.948161
 30
0.0
  0
LWPOLYLINE
  5
21f
100
AcDbEntity
  8
0
 62
1
100
AcDbPolyline
 90
1
 70
1
 10
136.313550
 20
802.800033
 30
0.0
  0
SPLINE
  5
220
100
AcDbEntity
  8
0
 62
1
100
AcDbSpline
 70
8
 71
3
 72
8
 73
4
 74
0
 40
0
 40
0
 40
0
 40
0
 40
1
 40
1
 40
1
 40
1
 10
308.967090
 20
625.052096
 30
0.0
 10
308.967993
 20
626.571779
 30
0.0
 10
308.157770
 20
627.976411
 30
0.0
 10
306.841836
 20
628.736513
 30
0.0
  0
SPLINE
  5
221
100
AcDbEntity
  8
0
 62
1
100
AcDbSpline
 70
8
 71
3
 72
8
 73
4
 74
0
 40
0
 40
0
 40
0
 40
0
 40
1
 40
1
 40
1
 40
1
 10
306.841836
 20
628.736513
 30
0.0
 10
305.525902
 20
629.496616
 30
0.0
 10
303.904343
 20
629.496616
 30
0.0
 10
302.588409
 20
628.736513
 30
0.0
  0
SPLINE
  5
222
100
AcDbEntity
  8
0
 62
1
100
AcDbSpline
 70
8
 71
3
 72
8
 73
4
 74
0
 40
0
 40
0
 40
0
 40
0
 40
1
 40
1
 40
1
 40
1
 10
302.588409
 20
628.736513
 30
0.0
 10
301.272475
 20
627.976411
 30
0.0
 10
300.462252
 20
626.571779
 30
0.0
 10
300.463155
 20
625.052096
 30
0.0
  0
SPLINE
  5
223
100
AcDbEntity
  8
0
 62
1
100
AcDbSpline
 70
8
 71
3
 72
8
 73
4
 74
0
 40
0
 40
0
 40
0
 40
0
 40
1
 40
1
 40
1
 40
1
 10
300.463155
 20
625.052096
 30
0.0
 10
300.462252
 20
623.532413
 30
0.0
 10
301.272475
 20
622.127782
 30
0.0
 10
302.588409
 20
621.367679
 30
0.0
  0
SPLINE
  5
224
100
AcDbEntity
  8
0
 62
1
100
AcDbSpline
 70
8
 71
3
 72
8
 73
4
 74
0
 40
0
 40
0
 40
0
 40
0
 40
1
 40
1
 40
1
 40
1
 10
302.588409
 20
621.367679
 30
0.0
 10
303.904343
 20
620.607577
 30
0.0
 10
305.525902
 20
620.607577
 30
0.0
 10
306.841836
 20
621.367679
 30
0.0
  0
SPLINE
  5
225
100
AcDbEntity
  8
0
 62
1
100
AcDbSpline
 70
8
 71
3
 72
8
 73
4
 74
0
 40
0
 40
0
 40
0
 40
0
 40
1
 40
1
 40
1
 40
1
 10
306.841836
 20
621.367679
 30
0.0
 10
308.157770
 20
622.127782
 30
0.0
 10
308.967993
 20
623.532413
 30
0.0
 10
308.967090
 20
625.052096
 30
0.0
  0
LWPOLYLINE
  5
226
100
AcDbEntity
  8
0
 62
1
100
AcDbPolyline
 90
1
 70
1
 10
291.959220
 20
576.948161
 30
0.0
  0
LWPOLYLINE
  5
227
100
AcDbEntity
  8
0
 62
1
100
AcDbPolyline
 90
1
 70
1
 10
308.967090
 20
625.052096
 30
0.0
  0
LWPOLYLINE
  5
228
100
AcDbEntity
  8
0
 62
1
100
AcDbPolyline
 90
5
 70
0
 10
320.305673
 20
633.556031
 30
0.0
 10
320.305673
 20
704.422174
 30
0.0
 10
301.880475
 20
704.422174
 30
0.0
 10
301.880475
 20
633.556031
 30
0.0
 10
297.628508
 20
633.556031
 30
0.0
  0
LWPOLYLINE
  5
229
100
AcDbEntity
  8
0
 62
1
100
AcDbPolyline
 90
2
 70
0
 10
279.576030
 20
579.438184
 30
0.0
 10
297.628508
 20
633.556031
 30
0.0
  0
SPLINE
  5
22a
100
AcDbEntity
  8
0
 62
1
100
AcDbSpline
 70
8
 71
3
 72
8
 73
4
 74
0
 40
0
 40
0
 40
0
 40
0
 40
1
 40
1
 40
1
 40
1
 10
279.576030
 20
579.438184
 30
0.0
 10
278.231874
 20
575.048879
 30
0.0
 10
280.613925
 20
570.385005
 30
0.0
 10
284.957903
 20
568.900887
 30
0.0
  0
SPLINE
  5
22b
100
AcDbEntity
  8
0
 62
1
100
AcDbSpline
 70
8
 71
3
 72
8
 73
4
 74
0
 40
0
 40
0
 40
0
 40
0
 40
1
 40
1
 40
1
 40
1
 10
284.957903
 20
568.900887
 30
0.0
 10
289.301881
 20
567.416769
 30
0.0
 10
294.039691
 20
569.648144
 30
0.0
 10
295.662247
 20
573.942334
 30
0.0
  0
SPLINE
  5
22c
100
AcDbEntity
  8
0
 62
1
100
AcDbSpline
 70
8
 71
3
 72
8
 73
4
 74
0
 40
0
 40
0
 40
0
 40
0
 40
1
 40
1
 40
1
 40
1
 10
252.274178
 20
576.948161
 30
0.0
 10
252.275080
 20
578.467844
 30
0.0
 10
251.464857
 20
579.872476
 30
0.0
 10
250.148923
 20
580.632578
 30
0.0
  0
SPLINE
  5
22d
100
AcDbEntity
  8
0
 62
1
100
AcDbSpline
 70
8
 71
3
 72
8
 73
4
 74
0
 40
0
 40
0
 40
0
 40
0
 40
1
 40
1
 40
1
 40
1
 10
250.148923
 20
580.632578
 30
0.0
 10
248.832989
 20
581.392681
 30
0.0
 10
247.211431
 20
581.392681
 30
0.0
 10
245.895497
 20
580.632578
 30
0.0
  0
SPLINE
  5
22e
100
AcDbEntity
  8
0
 62
1
100
AcDbSpline
 70
8
 71
3
 72
8
 73
4
 74
0
 40
0
 40
0
 40
0
 40
0
 40
1
 40
1
 40
1
 40
1
 10
245.895497
 20
580.632578
 30
0.0
 10
244.579563
 20
579.872476
 30
0.0
 10
243.769340
 20
578.467844
 30
0.0
 10
243.770243
 20
576.948161
 30
0.0
  0
SPLINE
  5
22f
100
AcDbEntity
  8
0
 62
1
100
AcDbSpline
 70
8
 71
3
 72
8
 73
4
 74
0
 40
0
 40
0
 40
0
 40
0
 40
1
 40
1
 40
1
 40
1
 10
243.770243
 20
576.948161
 30
0.0
 10
243.769340
 20
575.428478
 30
0.0
 10
244.579563
 20
574.023847
 30
0.0
 10
245.895497
 20
573.263744
 30
0.0
  0
SPLINE
  5
230
100
AcDbEntity
  8
0
 62
1
100
AcDbSpline
 70
8
 71
3
 72
8
 73
4
 74
0
 40
0
 40
0
 40
0
 40
0
 40
1
 40
1
 40
1
 40
1
 10
245.895497
 20
573.263744
 30
0.0
 10
247.211431
 20
572.503642
 30
0.0
 10
248.832989
 20
572.503642
 30
0.0
 10
250.148923
 20
573.263744
 30
0.0
  0
SPLINE
  5
231
100
AcDbEntity
  8
0
 62
1
100
AcDbSpline
 70
8
 71
3
 72
8
 73
4
 74
0
 40
0
 40
0
 40
0
 40
0
 40
1
 40
1
 40
1
 40
1
 10
250.148923
 20
573.263744
 30
0.0
 10
251.464857
 20
574.023847
 30
0.0
 10
252.275080
 20
575.428478
 30
0.0
 10
252.274178
 20
576.948161
 30
0.0
  0
LWPOLYLINE
  5
232
100
AcDbEntity
  8
0
 62
1
100
AcDbPolyline
 90
2
 70
0
 10
295.662248
 20
573.942334
 30
0.0
 10
320.305673
 20
633.556031
 30
0.0
  0
SPLINE
  5
233
100
AcDbEntity
  8
0
 62
1
100
AcDbSpline
 70
8
 71
3
 72
8
 73
4
 74
0
 40
0
 40
0
 40
0
 40
0
 40
1
 40
1
 40
1
 40
1
 10
269.282055
 20
625.052096
 30
0.0
 10
269.282055
 20
626.571179
 30
0.0
 10
268.471634
 20
627.974870
 30
0.0
 10
267.156069
 20
628.734411
 30
0.0
  0
SPLINE
  5
234
100
AcDbEntity
  8
0
 62
1
100
AcDbSpline
 70
8
 71
3
 72
8
 73
4
 74
0
 40
0
 40
0
 40
0
 40
0
 40
1
 40
1
 40
1
 40
1
 10
267.156069
 20
628.734411
 30
0.0
 10
265.840505
 20
629.493953
 30
0.0
 10
264.219663
 20
629.493953
 30
0.0
 10
262.904098
 20
628.734411
 30
0.0
  0
SPLINE
  5
235
100
AcDbEntity
  8
0
 62
1
100
AcDbSpline
 70
8
 71
3
 72
8
 73
4
 74
0
 40
0
 40
0
 40
0
 40
0
 40
1
 40
1
 40
1
 40
1
 10
262.904098
 20
628.734411
 30
0.0
 10
261.588534
 20
627.974870
 30
0.0
 10
260.778112
 20
626.571179
 30
0.0
 10
260.778112
 20
625.052096
 30
0.0
  0
SPLINE
  5
236
100
AcDbEntity
  8
0
 62
1
100
AcDbSpline
 70
8
 71
3
 72
8
 73
4
 74
0
 40
0
 40
0
 40
0
 40
0
 40
1
 40
1
 40
1
 40
1
 10
260.778112
 20
625.052096
 30
0.0
 10
260.778112
 20
623.533013
 30
0.0
 10
261.588534
 20
622.129323
 30
0.0
 10
262.904098
 20
621.369781
 30
0.0
  0
SPLINE
  5
237
100
AcDbEntity
  8
0
 62
1
100
AcDbSpline
 70
8
 71
3
 72
8
 73
4
 74
0
 40
0
 40
0
 40
0
 40
0
 40
1
 40
1
 40
1
 40
1
 10
262.904098
 20
621.369781
 30
0.0
 10
264.219663
 20
620.610240
 30
0.0
 10
265.840505
 20
620.610240
 30
0.0
 10
267.156069
 20
621.369781
 30
0.0
  0
SPLINE
  5
238
100
AcDbEntity
  8
0
 62
1
100
AcDbSpline
 70
8
 71
3
 72
8
 73
4
 74
0
 40
0
 40
0
 40
0
 40
0
 40
1
 40
1
 40
1
 40
1
 10
267.156069
 20
621.369781
 30
0.0
 10
268.471634
 20
622.129323
 30
0.0
 10
269.282055
 20
623.533013
 30
0.0
 10
269.282055
 20
625.052096
 30
0.0
  0
LWPOLYLINE
  5
239
100
AcDbEntity
  8
0
 62
1
100
AcDbPolyline
 90
1
 70
1
 10
252.274178
 20
576.948161
 30
0.0
  0
LWPOLYLINE
  5
23a
100
AcDbEntity
  8
0
 62
1
100
AcDbPolyline
 90
1
 70
1
 10
269.282055
 20
625.052096
 30
0.0
  0
LWPOLYLINE
  5
23b
100
AcDbEntity
  8
0
 62
1
100
AcDbPolyline
 90
5
 70
0
 10
280.620637
 20
633.556031
 30
0.0
 10
280.620637
 20
704.422174
 30
0.0
 10
262.195440
 20
704.422174
 30
0.0
 10
262.195440
 20
633.556031
 30
0.0
 10
257.943465
 20
633.556031
 30
0.0
  0
LWPOLYLINE
  5
23c
100
AcDbEntity
  8
0
 62
1
100
AcDbPolyline
 90
2
 70
0
 10
239.890987
 20
579.438184
 30
0.0
 10
257.943465
 20
633.556031
 30
0.0
  0
SPLINE
  5
23d
100
AcDbEntity
  8
0
 62
1
100
AcDbSpline
 70
8
 71
3
 72
8
 73
4
 74
0
 40
0
 40
0
 40
0
 40
0
 40
1
 40
1
 40
1
 40
1
 10
239.890987
 20
579.438184
 30
0.0
 10
238.546832
 20
575.048879
 30
0.0
 10
240.928882
 20
570.385005
 30
0.0
 10
245.272860
 20
568.900887
 30
0.0
  0
SPLINE
  5
23e
100
AcDbEntity
  8
0
 62
1
100
AcDbSpline
 70
8
 71
3
 72
8
 73
4
 74
0
 40
0
 40
0
 40
0
 40
0
 40
1
 40
1
 40
1
 40
1
 10
245.272860
 20
568.900887
 30
0.0
 10
249.616839
 20
567.416769
 30
0.0
 10
254.354648
 20
569.648144
 30
0.0
 10
255.977205
 20
573.942334
 30
0.0
  0
SPLINE
  5
23f
100
AcDbEntity
  8
0
 62
1
100
AcDbSpline
 70
8
 71
3
 72
8
 73
4
 74
0
 40
0
 40
0
 40
0
 40
0
 40
1
 40
1
 40
1
 40
1
 10
172.818788
 20
576.491464
 30
0.0
 10
172.819893
 20
578.011282
 30
0.0
 10
172.009715
 20
579.416126
 30
0.0
 10
170.693697
 20
580.176354
 30
0.0
  0
SPLINE
  5
240
100
AcDbEntity
  8
0
 62
1
100
AcDbSpline
 70
8
 71
3
 72
8
 73
4
 74
0
 40
0
 40
0
 40
0
 40
0
 40
1
 40
1
 40
1
 40
1
 10
170.693697
 20
580.176354
 30
0.0
 10
169.377680
 20
580.936583
 30
0.0
 10
167.755960
 20
580.936583
 30
0.0
 10
166.439943
 20
580.176354
 30
0.0
  0
SPLINE
  5
241
100
AcDbEntity
  8
0
 62
1
100
AcDbSpline
 70
8
 71
3
 72
8
 73
4
 74
0
 40
0
 40
0
 40
0
 40
0
 40
1
 40
1
 40
1
 40
1
 10
166.439943
 20
580.176354
 30
0.0
 10
165.123925
 20
579.416126
 30
0.0
 10
164.313747
 20
578.011282
 30
0.0
 10
164.314852
 20
576.491464
 30
0.0
  0
SPLINE
  5
242
100
AcDbEntity
  8
0
 62
1
100
AcDbSpline
 70
8
 71
3
 72
8
 73
4
 74
0
 40
0
 40
0
 40
0
 40
0
 40
1
 40
1
 40
1
 40
1
 10
164.314852
 20
576.491464
 30
0.0
 10
164.313747
 20
574.971645
 30
0.0
 10
165.123925
 20
573.566802
 30
0.0
 10
166.439943
 20
572.806574
 30
0.0
  0
SPLINE
  5
243
100
AcDbEntity
  8
0
 62
1
100
AcDbSpline
 70
8
 71
3
 72
8
 73
4
 74
0
 40
0
 40
0
 40
0
 40
0
 40
1
 40
1
 40
1
 40
1
 10
166.439943
 20
572.806574
 30
0.0
 10
167.755960
 20
572.046345
 30
0.0
 10
169.377680
 20
572.046345
 30
0.0
 10
170.693697
 20
572.806574
 30
0.0
  0
SPLINE
  5
244
100
AcDbEntity
  8
0
 62
1
100
AcDbSpline
 70
8
 71
3
 72
8
 73
4
 74
0
 40
0
 40
0
 40
0
 40
0
 40
1
 40
1
 40
1
 40
1
 10
170.693697
 20
572.806574
 30
0.0
 10
172.009715
 20
573.566802
 30
0.0
 10
172.819893
 20
574.971645
 30
0.0
 10
172.818788
 20
576.491464
 30
0.0
  0
LWPOLYLINE
  5
245
100
AcDbEntity
  8
0
 62
1
100
AcDbPolyline
 90
2
 70
0
 10
255.977205
 20
573.942334
 30
0.0
 10
280.620637
 20
633.556031
 30
0.0
  0
SPLINE
  5
246
100
AcDbEntity
  8
0
 62
1
100
AcDbSpline
 70
8
 71
3
 72
8
 73
4
 74
0
 40
0
 40
0
 40
0
 40
0
 40
1
 40
1
 40
1
 40
1
 10
189.826665
 20
624.595399
 30
0.0
 10
189.827568
 20
626.115082
 30
0.0
 10
189.017345
 20
627.519713
 30
0.0
 10
187.701411
 20
628.279816
 30
0.0
  0
SPLINE
  5
247
100
AcDbEntity
  8
0
 62
1
100
AcDbSpline
 70
8
 71
3
 72
8
 73
4
 74
0
 40
0
 40
0
 40
0
 40
0
 40
1
 40
1
 40
1
 40
1
 10
187.701411
 20
628.279816
 30
0.0
 10
186.385477
 20
629.039918
 30
0.0
 10
184.763918
 20
629.039918
 30
0.0
 10
183.447984
 20
628.279816
 30
0.0
  0
SPLINE
  5
248
100
AcDbEntity
  8
0
 62
1
100
AcDbSpline
 70
8
 71
3
 72
8
 73
4
 74
0
 40
0
 40
0
 40
0
 40
0
 40
1
 40
1
 40
1
 40
1
 10
183.447984
 20
628.279816
 30
0.0
 10
182.132050
 20
627.519713
 30
0.0
 10
181.321827
 20
626.115082
 30
0.0
 10
181.322730
 20
624.595399
 30
0.0
  0
SPLINE
  5
249
100
AcDbEntity
  8
0
 62
1
100
AcDbSpline
 70
8
 71
3
 72
8
 73
4
 74
0
 40
0
 40
0
 40
0
 40
0
 40
1
 40
1
 40
1
 40
1
 10
181.322730
 20
624.595399
 30
0.0
 10
181.321827
 20
623.075716
 30
0.0
 10
182.132050
 20
621.671084
 30
0.0
 10
183.447984
 20
620.910982
 30
0.0
  0
SPLINE
  5
24a
100
AcDbEntity
  8
0
 62
1
100
AcDbSpline
 70
8
 71
3
 72
8
 73
4
 74
0
 40
0
 40
0
 40
0
 40
0
 40
1
 40
1
 40
1
 40
1
 10
183.447984
 20
620.910982
 30
0.0
 10
184.763918
 20
620.150879
 30
0.0
 10
186.385477
 20
620.150879
 30
0.0
 10
187.701411
 20
620.910982
 30
0.0
  0
SPLINE
  5
24b
100
AcDbEntity
  8
0
 62
1
100
AcDbSpline
 70
8
 71
3
 72
8
 73
4
 74
0
 40
0
 40
0
 40
0
 40
0
 40
1
 40
1
 40
1
 40
1
 10
187.701411
 20
620.910982
 30
0.0
 10
189.017345
 20
621.671084
 30
0.0
 10
189.827568
 20
623.075716
 30
0.0
 10
189.826665
 20
624.595399
 30
0.0
  0
LWPOLYLINE
  5
24c
100
AcDbEntity
  8
0
 62
1
100
AcDbPolyline
 90
1
 70
1
 10
172.818788
 20
576.491464
 30
0.0
  0
LWPOLYLINE
  5
24d
100
AcDbEntity
  8
0
 62
1
100
AcDbPolyline
 90
1
 70
1
 10
189.826665
 20
624.595399
 30
0.0
  0
LWPOLYLINE
  5
24e
100
AcDbEntity
  8
0
 62
1
100
AcDbPolyline
 90
5
 70
0
 10
201.165247
 20
633.099341
 30
0.0
 10
201.165247
 20
703.965484
 30
0.0
 10
182.740050
 20
703.965484
 30
0.0
 10
182.740050
 20
633.099341
 30
0.0
 10
178.488083
 20
633.099341
 30
0.0
  0
LWPOLYLINE
  5
24f
100
AcDbEntity
  8
0
 62
1
100
AcDbPolyline
 90
2
 70
0
 10
160.435605
 20
578.981494
 30
0.0
 10
178.488083
 20
633.099341
 30
0.0
  0
SPLINE
  5
250
100
AcDbEntity
  8
0
 62
1
100
AcDbSpline
 70
8
 71
3
 72
8
 73
4
 74
0
 40
0
 40
0
 40
0
 40
0
 40
1
 40
1
 40
1
 40
1
 10
160.435605
 20
578.981494
 30
0.0
 10
159.091493
 20
574.592205
 30
0.0
 10
161.473543
 20
569.928375
 30
0.0
 10
165.817493
 20
568.444264
 30
0.0
  0
SPLINE
  5
251
100
AcDbEntity
  8
0
 62
1
100
AcDbSpline
 70
8
 71
3
 72
8
 73
4
 74
0
 40
0
 40
0
 40
0
 40
0
 40
1
 40
1
 40
1
 40
1
 10
165.817493
 20
568.444264
 30
0.0
 10
170.161444
 20
566.960152
 30
0.0
 10
174.899229
 20
569.191488
 30
0.0
 10
176.521815
 20
573.485636
 30
0.0
  0
LWPOLYLINE
  5
252
100
AcDbEntity
  8
0
 62
1
100
AcDbPolyline
 90
2
 70
0
 10
176.521815
 20
573.485636
 30
0.0
 10
201.165247
 20
633.099341
 30
0.0
  0
LWPOLYLINE
  5
253
100
AcDbEntity
  8
0
 62
1
100
AcDbPolyline
 90
2
 70
0
 10
244.632540
 20
794.736738
 30
0.0
 10
326.837265
 20
794.736738
 30
0.0
  0
SPLINE
  5
254
100
AcDbEntity
  8
0
 62
1
100
AcDbSpline
 70
8
 71
3
 72
8
 73
4
 74
0
 40
0
 40
0
 40
0
 40
0
 40
1
 40
1
 40
1
 40
1
 10
244.632540
 20
794.736738
 30
0.0
 10
241.594375
 20
794.736738
 30
0.0
 10
238.786995
 20
793.115896
 30
0.0
 10
237.267913
 20
790.484769
 30
0.0
  0
SPLINE
  5
255
100
AcDbEntity
  8
0
 62
1
100
AcDbSpline
 70
8
 71
3
 72
8
 73
4
 74
0
 40
0
 40
0
 40
0
 40
0
 40
1
 40
1
 40
1
 40
1
 10
237.267913
 20
790.484769
 30
0.0
 10
235.748831
 20
787.853641
 30
0.0
 10
235.748831
 20
784.611958
 30
0.0
 10
237.267913
 20
781.980830
 30
0.0
  0
SPLINE
  5
256
100
AcDbEntity
  8
0
 62
1
100
AcDbSpline
 70
8
 71
3
 72
8
 73
4
 74
0
 40
0
 40
0
 40
0
 40
0
 40
1
 40
1
 40
1
 40
1
 10
237.267913
 20
781.980830
 30
0.0
 10
238.786995
 20
779.349702
 30
0.0
 10
241.594375
 20
777.728861
 30
0.0
 10
244.632540
 20
777.728861
 30
0.0
  0
SPLINE
  5
257
100
AcDbEntity
  8
0
 62
1
100
AcDbSpline
 70
8
 71
3
 72
8
 73
4
 74
0
 40
0
 40
0
 40
0
 40
0
 40
1
 40
1
 40
1
 40
1
 10
326.837265
 20
777.728861
 30
0.0
 10
329.875430
 20
777.728861
 30
0.0
 10
332.682810
 20
779.349702
 30
0.0
 10
334.201892
 20
781.980830
 30
0.0
  0
SPLINE
  5
258
100
AcDbEntity
  8
0
 62
1
100
AcDbSpline
 70
8
 71
3
 72
8
 73
4
 74
0
 40
0
 40
0
 40
0
 40
0
 40
1
 40
1
 40
1
 40
1
 10
334.201892
 20
781.980830
 30
0.0
 10
335.720974
 20
784.611958
 30
0.0
 10
335.720974
 20
787.853641
 30
0.0
 10
334.201892
 20
790.484769
 30
0.0
  0
SPLINE
  5
259
100
AcDbEntity
  8
0
 62
1
100
AcDbSpline
 70
8
 71
3
 72
8
 73
4
 74
0
 40
0
 40
0
 40
0
 40
0
 40
1
 40
1
 40
1
 40
1
 10
334.201892
 20
790.484769
 30
0.0
 10
332.682810
 20
793.115896
 30
0.0
 10
329.875430
 20
794.736738
 30
0.0
 10
326.837265
 20
794.736738
 30
0.0
  0
SPLINE
  5
25a
100
AcDbEntity
  8
0
 62
1
100
AcDbSpline
 70
8
 71
3
 72
8
 73
4
 74
0
 40
0
 40
0
 40
0
 40
0
 40
1
 40
1
 40
1
 40
1
 10
248.884507
 20
786.232796
 30
0.0
 10
248.885613
 20
787.752614
 30
0.0
 10
248.075435
 20
789.157457
 30
0.0
 10
246.759417
 20
789.917686
 30
0.0
  0
SPLINE
  5
25b
100
AcDbEntity
  8
0
 62
1
100
AcDbSpline
 70
8
 71
3
 72
8
 73
4
 74
0
 40
0
 40
0
 40
0
 40
0
 40
1
 40
1
 40
1
 40
1
 10
246.759417
 20
789.917686
 30
0.0
 10
245.443400
 20
790.677914
 30
0.0
 10
243.821680
 20
790.677914
 30
0.0
 10
242.505663
 20
789.917686
 30
0.0
  0
SPLINE
  5
25c
100
AcDbEntity
  8
0
 62
1
100
AcDbSpline
 70
8
 71
3
 72
8
 73
4
 74
0
 40
0
 40
0
 40
0
 40
0
 40
1
 40
1
 40
1
 40
1
 10
242.505663
 20
789.917686
 30
0.0
 10
241.189645
 20
789.157457
 30
0.0
 10
240.379467
 20
787.752614
 30
0.0
 10
240.380572
 20
786.232796
 30
0.0
  0
SPLINE
  5
25d
100
AcDbEntity
  8
0
 62
1
100
AcDbSpline
 70
8
 71
3
 72
8
 73
4
 74
0
 40
0
 40
0
 40
0
 40
0
 40
1
 40
1
 40
1
 40
1
 10
240.380572
 20
786.232796
 30
0.0
 10
240.379467
 20
784.712977
 30
0.0
 10
241.189645
 20
783.308134
 30
0.0
 10
242.505663
 20
782.547905
 30
0.0
  0
SPLINE
  5
25e
100
AcDbEntity
  8
0
 62
1
100
AcDbSpline
 70
8
 71
3
 72
8
 73
4
 74
0
 40
0
 40
0
 40
0
 40
0
 40
1
 40
1
 40
1
 40
1
 10
242.505663
 20
782.547905
 30
0.0
 10
243.821680
 20
781.787677
 30
0.0
 10
245.443400
 20
781.787677
 30
0.0
 10
246.759417
 20
782.547905
 30
0.0
  0
SPLINE
  5
25f
100
AcDbEntity
  8
0
 62
1
100
AcDbSpline
 70
8
 71
3
 72
8
 73
4
 74
0
 40
0
 40
0
 40
0
 40
0
 40
1
 40
1
 40
1
 40
1
 10
246.759417
 20
782.547905
 30
0.0
 10
248.075435
 20
783.308134
 30
0.0
 10
248.885613
 20
784.712977
 30
0.0
 10
248.884507
 20
786.232796
 30
0.0
  0
LWPOLYLINE
  5
260
100
AcDbEntity
  8
0
 62
1
100
AcDbPolyline
 90
2
 70
0
 10
326.837265
 20
777.728861
 30
0.0
 10
244.632540
 20
777.728861
 30
0.0
  0
SPLINE
  5
261
100
AcDbEntity
  8
0
 62
1
100
AcDbSpline
 70
8
 71
3
 72
8
 73
4
 74
0
 40
0
 40
0
 40
0
 40
0
 40
1
 40
1
 40
1
 40
1
 10
331.089233
 20
786.232796
 30
0.0
 10
331.090135
 20
787.752479
 30
0.0
 10
330.279912
 20
789.157110
 30
0.0
 10
328.963978
 20
789.917213
 30
0.0
  0
SPLINE
  5
262
100
AcDbEntity
  8
0
 62
1
100
AcDbSpline
 70
8
 71
3
 72
8
 73
4
 74
0
 40
0
 40
0
 40
0
 40
0
 40
1
 40
1
 40
1
 40
1
 10
328.963978
 20
789.917213
 30
0.0
 10
327.648044
 20
790.677315
 30
0.0
 10
326.026486
 20
790.677315
 30
0.0
 10
324.710552
 20
789.917213
 30
0.0
  0
SPLINE
  5
263
100
AcDbEntity
  8
0
 62
1
100
AcDbSpline
 70
8
 71
3
 72
8
 73
4
 74
0
 40
0
 40
0
 40
0
 40
0
 40
1
 40
1
 40
1
 40
1
 10
324.710552
 20
789.917213
 30
0.0
 10
323.394618
 20
789.157110
 30
0.0
 10
322.584395
 20
787.752479
 30
0.0
 10
322.585298
 20
786.232796
 30
0.0
  0
SPLINE
  5
264
100
AcDbEntity
  8
0
 62
1
100
AcDbSpline
 70
8
 71
3
 72
8
 73
4
 74
0
 40
0
 40
0
 40
0
 40
0
 40
1
 40
1
 40
1
 40
1
 10
322.585298
 20
786.232796
 30
0.0
 10
322.584395
 20
784.713112
 30
0.0
 10
323.394618
 20
783.308481
 30
0.0
 10
324.710552
 20
782.548379
 30
0.0
  0
SPLINE
  5
265
100
AcDbEntity
  8
0
 62
1
100
AcDbSpline
 70
8
 71
3
 72
8
 73
4
 74
0
 40
0
 40
0
 40
0
 40
0
 40
1
 40
1
 40
1
 40
1
 10
324.710552
 20
782.548379
 30
0.0
 10
326.026486
 20
781.788276
 30
0.0
 10
327.648044
 20
781.788276
 30
0.0
 10
328.963978
 20
782.548379
 30
0.0
  0
SPLINE
  5
266
100
AcDbEntity
  8
0
 62
1
100
AcDbSpline
 70
8
 71
3
 72
8
 73
4
 74
0
 40
0
 40
0
 40
0
 40
0
 40
1
 40
1
 40
1
 40
1
 10
328.963978
 20
782.548379
 30
0.0
 10
330.279912
 20
783.308481
 30
0.0
 10
331.090135
 20
784.713112
 30
0.0
 10
331.089233
 20
786.232796
 30
0.0
  0
LWPOLYLINE
  5
267
100
AcDbEntity
  8
0
 62
1
100
AcDbPolyline
 90
1
 70
1
 10
248.884507
 20
786.232796
 30
0.0
  0
LWPOLYLINE
  5
268
100
AcDbEntity
  8
0
 62
1
100
AcDbPolyline
 90
1
 70
1
 10
331.089233
 20
786.232796
 30
0.0
  0
LWPOLYLINE
  5
269
100
AcDbEntity
  8
0
 62
1
100
AcDbPolyline
 90
2
 70
0
 10
244.632540
 20
732.374531
 30
0.0
 10
326.837265
 20
732.374531
 30
0.0
  0
SPLINE
  5
26a
100
AcDbEntity
  8
0
 62
1
100
AcDbSpline
 70
8
 71
3
 72
8
 73
4
 74
0
 40
0
 40
0
 40
0
 40
0
 40
1
 40
1
 40
1
 40
1
 10
244.632540
 20
732.374531
 30
0.0
 10
239.935944
 20
732.374531
 30
0.0
 10
236.128602
 20
728.567188
 30
0.0
 10
236.128602
 20
723.870593
 30
0.0
  0
SPLINE
  5
26b
100
AcDbEntity
  8
0
 62
1
100
AcDbSpline
 70
8
 71
3
 72
8
 73
4
 74
0
 40
0
 40
0
 40
0
 40
0
 40
1
 40
1
 40
1
 40
1
 10
236.128602
 20
723.870593
 30
0.0
 10
236.128602
 20
719.173997
 30
0.0
 10
239.935944
 20
715.366654
 30
0.0
 10
244.632540
 20
715.366654
 30
0.0
  0
SPLINE
  5
26c
100
AcDbEntity
  8
0
 62
1
100
AcDbSpline
 70
8
 71
3
 72
8
 73
4
 74
0
 40
0
 40
0
 40
0
 40
0
 40
1
 40
1
 40
1
 40
1
 10
326.837265
 20
715.366654
 30
0.0
 10
329.875430
 20
715.366654
 30
0.0
 10
332.682810
 20
716.987495
 30
0.0
 10
334.201892
 20
719.618623
 30
0.0
  0
SPLINE
  5
26d
100
AcDbEntity
  8
0
 62
1
100
AcDbSpline
 70
8
 71
3
 72
8
 73
4
 74
0
 40
0
 40
0
 40
0
 40
0
 40
1
 40
1
 40
1
 40
1
 10
334.201892
 20
719.618623
 30
0.0
 10
335.720974
 20
722.249751
 30
0.0
 10
335.720974
 20
725.491434
 30
0.0
 10
334.201892
 20
728.122562
 30
0.0
  0
SPLINE
  5
26e
100
AcDbEntity
  8
0
 62
1
100
AcDbSpline
 70
8
 71
3
 72
8
 73
4
 74
0
 40
0
 40
0
 40
0
 40
0
 40
1
 40
1
 40
1
 40
1
 10
334.201892
 20
728.122562
 30
0.0
 10
332.682810
 20
730.753690
 30
0.0
 10
329.875430
 20
732.374531
 30
0.0
 10
326.837265
 20
732.374531
 30
0.0
  0
SPLINE
  5
26f
100
AcDbEntity
  8
0
 62
1
100
AcDbSpline
 70
8
 71
3
 72
8
 73
4
 74
0
 40
0
 40
0
 40
0
 40
0
 40
1
 40
1
 40
1
 40
1
 10
248.884507
 20
723.870596
 30
0.0
 10
248.885613
 20
725.390415
 30
0.0
 10
248.075435
 20
726.795258
 30
0.0
 10
246.759417
 20
727.555487
 30
0.0
  0
SPLINE
  5
270
100
AcDbEntity
  8
0
 62
1
100
AcDbSpline
 70
8
 71
3
 72
8
 73
4
 74
0
 40
0
 40
0
 40
0
 40
0
 40
1
 40
1
 40
1
 40
1
 10
246.759417
 20
727.555487
 30
0.0
 10
245.443400
 20
728.315715
 30
0.0
 10
243.821680
 20
728.315715
 30
0.0
 10
242.505663
 20
727.555487
 30
0.0
  0
SPLINE
  5
271
100
AcDbEntity
  8
0
 62
1
100
AcDbSpline
 70
8
 71
3
 72
8
 73
4
 74
0
 40
0
 40
0
 40
0
 40
0
 40
1
 40
1
 40
1
 40
1
 10
242.505663
 20
727.555487
 30
0.0
 10
241.189645
 20
726.795258
 30
0.0
 10
240.379467
 20
725.390415
 30
0.0
 10
240.380572
 20
723.870596
 30
0.0
  0
SPLINE
  5
272
100
AcDbEntity
  8
0
 62
1
100
AcDbSpline
 70
8
 71
3
 72
8
 73
4
 74
0
 40
0
 40
0
 40
0
 40
0
 40
1
 40
1
 40
1
 40
1
 10
240.380572
 20
723.870596
 30
0.0
 10
240.379467
 20
722.350778
 30
0.0
 10
241.189645
 20
720.945935
 30
0.0
 10
242.505663
 20
720.185706
 30
0.0
  0
SPLINE
  5
273
100
AcDbEntity
  8
0
 62
1
100
AcDbSpline
 70
8
 71
3
 72
8
 73
4
 74
0
 40
0
 40
0
 40
0
 40
0
 40
1
 40
1
 40
1
 40
1
 10
242.505663
 20
720.185706
 30
0.0
 10
243.821680
 20
719.425477
 30
0.0
 10
245.443400
 20
719.425477
 30
0.0
 10
246.759417
 20
720.185706
 30
0.0
  0
SPLINE
  5
274
100
AcDbEntity
  8
0
 62
1
100
AcDbSpline
 70
8
 71
3
 72
8
 73
4
 74
0
 40
0
 40
0
 40
0
 40
0
 40
1
 40
1
 40
1
 40
1
 10
246.759417
 20
720.185706
 30
0.0
 10
248.075435
 20
720.945935
 30
0.0
 10
248.885613
 20
722.350778
 30
0.0
 10
248.884507
 20
723.870596
 30
0.0
  0
LWPOLYLINE
  5
275
100
AcDbEntity
  8
0
 62
1
100
AcDbPolyline
 90
2
 70
0
 10
326.837265
 20
715.366654
 30
0.0
 10
244.632540
 20
715.366654
 30
0.0
  0
SPLINE
  5
276
100
AcDbEntity
  8
0
 62
1
100
AcDbSpline
 70
8
 71
3
 72
8
 73
4
 74
0
 40
0
 40
0
 40
0
 40
0
 40
1
 40
1
 40
1
 40
1
 10
331.089233
 20
723.870596
 30
0.0
 10
331.090135
 20
725.390279
 30
0.0
 10
330.279912
 20
726.794911
 30
0.0
 10
328.963978
 20
727.555013
 30
0.0
  0
SPLINE
  5
277
100
AcDbEntity
  8
0
 62
1
100
AcDbSpline
 70
8
 71
3
 72
8
 73
4
 74
0
 40
0
 40
0
 40
0
 40
0
 40
1
 40
1
 40
1
 40
1
 10
328.963978
 20
727.555013
 30
0.0
 10
327.648044
 20
728.315116
 30
0.0
 10
326.026486
 20
728.315116
 30
0.0
 10
324.710552
 20
727.555013
 30
0.0
  0
SPLINE
  5
278
100
AcDbEntity
  8
0
 62
1
100
AcDbSpline
 70
8
 71
3
 72
8
 73
4
 74
0
 40
0
 40
0
 40
0
 40
0
 40
1
 40
1
 40
1
 40
1
 10
324.710552
 20
727.555013
 30
0.0
 10
323.394618
 20
726.794911
 30
0.0
 10
322.584395
 20
725.390279
 30
0.0
 10
322.585298
 20
723.870596
 30
0.0
  0
SPLINE
  5
279
100
AcDbEntity
  8
0
 62
1
100
AcDbSpline
 70
8
 71
3
 72
8
 73
4
 74
0
 40
0
 40
0
 40
0
 40
0
 40
1
 40
1
 40
1
 40
1
 10
322.585298
 20
723.870596
 30
0.0
 10
322.584395
 20
722.350913
 30
0.0
 10
323.394618
 20
720.946282
 30
0.0
 10
324.710552
 20
720.186179
 30
0.0
  0
SPLINE
  5
27a
100
AcDbEntity
  8
0
 62
1
100
AcDbSpline
 70
8
 71
3
 72
8
 73
4
 74
0
 40
0
 40
0
 40
0
 40
0
 40
1
 40
1
 40
1
 40
1
 10
324.710552
 20
720.186179
 30
0.0
 10
326.026486
 20
719.426077
 30
0.0
 10
327.648044
 20
719.426077
 30
0.0
 10
328.963978
 20
720.186179
 30
0.0
  0
SPLINE
  5
27b
100
AcDbEntity
  8
0
 62
1
100
AcDbSpline
 70
8
 71
3
 72
8
 73
4
 74
0
 40
0
 40
0
 40
0
 40
0
 40
1
 40
1
 40
1
 40
1
 10
328.963978
 20
720.186179
 30
0.0
 10
330.279912
 20
720.946282
 30
0.0
 10
331.090135
 20
722.350913
 30
0.0
 10
331.089233
 20
723.870596
 30
0.0
  0
LWPOLYLINE
  5
27c
100
AcDbEntity
  8
0
 62
1
100
AcDbPolyline
 90
1
 70
1
 10
248.884507
 20
723.870596
 30
0.0
  0
LWPOLYLINE
  5
27d
100
AcDbEntity
  8
0
 62
1
100
AcDbPolyline
 90
1
 70
1
 10
331.089233
 20
723.870596
 30
0.0
  0
LWPOLYLINE
  5
27e
100
AcDbEntity
  8
0
 62
1
100
AcDbPolyline
 90
2
 70
0
 10
244.632540
 20
763.555631
 30
0.0
 10
326.837265
 20
763.555631
 30
0.0
  0
SPLINE
  5
27f
100
AcDbEntity
  8
0
 62
1
100
AcDbSpline
 70
8
 71
3
 72
8
 73
4
 74
0
 40
0
 40
0
 40
0
 40
0
 40
1
 40
1
 40
1
 40
1
 10
244.632540
 20
763.555631
 30
0.0
 10
239.938362
 20
763.552217
 30
0.0
 10
236.134789
 20
759.745875
 30
0.0
 10
236.134789
 20
755.051696
 30
0.0
  0
SPLINE
  5
280
100
AcDbEntity
  8
0
 62
1
100
AcDbSpline
 70
8
 71
3
 72
8
 73
4
 74
0
 40
0
 40
0
 40
0
 40
0
 40
1
 40
1
 40
1
 40
1
 10
236.134789
 20
755.051696
 30
0.0
 10
236.134789
 20
750.357517
 30
0.0
 10
239.938362
 20
746.551176
 30
0.0
 10
244.632540
 20
746.547761
 30
0.0
  0
SPLINE
  5
281
100
AcDbEntity
  8
0
 62
1
100
AcDbSpline
 70
8
 71
3
 72
8
 73
4
 74
0
 40
0
 40
0
 40
0
 40
0
 40
1
 40
1
 40
1
 40
1
 10
326.837265
 20
746.547761
 30
0.0
 10
331.531443
 20
746.551176
 30
0.0
 10
335.335016
 20
750.357517
 30
0.0
 10
335.335016
 20
755.051696
 30
0.0
  0
SPLINE
  5
282
100
AcDbEntity
  8
0
 62
1
100
AcDbSpline
 70
8
 71
3
 72
8
 73
4
 74
0
 40
0
 40
0
 40
0
 40
0
 40
1
 40
1
 40
1
 40
1
 10
335.335016
 20
755.051696
 30
0.0
 10
335.335016
 20
759.745875
 30
0.0
 10
331.531443
 20
763.552217
 30
0.0
 10
326.837265
 20
763.555631
 30
0.0
  0
SPLINE
  5
283
100
AcDbEntity
  8
0
 62
1
100
AcDbSpline
 70
8
 71
3
 72
8
 73
4
 74
0
 40
0
 40
0
 40
0
 40
0
 40
1
 40
1
 40
1
 40
1
 10
248.884507
 20
755.051696
 30
0.0
 10
248.885613
 20
756.571515
 30
0.0
 10
248.075435
 20
757.976358
 30
0.0
 10
246.759417
 20
758.736587
 30
0.0
  0
SPLINE
  5
284
100
AcDbEntity
  8
0
 62
1
100
AcDbSpline
 70
8
 71
3
 72
8
 73
4
 74
0
 40
0
 40
0
 40
0
 40
0
 40
1
 40
1
 40
1
 40
1
 10
246.759417
 20
758.736587
 30
0.0
 10
245.443400
 20
759.496815
 30
0.0
 10
243.821680
 20
759.496815
 30
0.0
 10
242.505663
 20
758.736587
 30
0.0
  0
SPLINE
  5
285
100
AcDbEntity
  8
0
 62
1
100
AcDbSpline
 70
8
 71
3
 72
8
 73
4
 74
0
 40
0
 40
0
 40
0
 40
0
 40
1
 40
1
 40
1
 40
1
 10
242.505663
 20
758.736587
 30
0.0
 10
241.189645
 20
757.976358
 30
0.0
 10
240.379467
 20
756.571515
 30
0.0
 10
240.380572
 20
755.051696
 30
0.0
  0
SPLINE
  5
286
100
AcDbEntity
  8
0
 62
1
100
AcDbSpline
 70
8
 71
3
 72
8
 73
4
 74
0
 40
0
 40
0
 40
0
 40
0
 40
1
 40
1
 40
1
 40
1
 10
240.380572
 20
755.051696
 30
0.0
 10
240.379467
 20
753.531878
 30
0.0
 10
241.189645
 20
752.127035
 30
0.0
 10
242.505663
 20
751.366806
 30
0.0
  0
SPLINE
  5
287
100
AcDbEntity
  8
0
 62
1
100
AcDbSpline
 70
8
 71
3
 72
8
 73
4
 74
0
 40
0
 40
0
 40
0
 40
0
 40
1
 40
1
 40
1
 40
1
 10
242.505663
 20
751.366806
 30
0.0
 10
243.821680
 20
750.606577
 30
0.0
 10
245.443400
 20
750.606577
 30
0.0
 10
246.759417
 20
751.366806
 30
0.0
  0
SPLINE
  5
288
100
AcDbEntity
  8
0
 62
1
100
AcDbSpline
 70
8
 71
3
 72
8
 73
4
 74
0
 40
0
 40
0
 40
0
 40
0
 40
1
 40
1
 40
1
 40
1
 10
246.759417
 20
751.366806
 30
0.0
 10
248.075435
 20
752.127035
 30
0.0
 10
248.885613
 20
753.531878
 30
0.0
 10
248.884507
 20
755.051696
 30
0.0
  0
LWPOLYLINE
  5
289
100
AcDbEntity
  8
0
 62
1
100
AcDbPolyline
 90
2
 70
0
 10
326.837265
 20
746.547761
 30
0.0
 10
244.632540
 20
746.547761
 30
0.0
  0
SPLINE
  5
28a
100
AcDbEntity
  8
0
 62
1
100
AcDbSpline
 70
8
 71
3
 72
8
 73
4
 74
0
 40
0
 40
0
 40
0
 40
0
 40
1
 40
1
 40
1
 40
1
 10
331.089233
 20
755.051696
 30
0.0
 10
331.090135
 20
756.571379
 30
0.0
 10
330.279912
 20
757.976011
 30
0.0
 10
328.963978
 20
758.736113
 30
0.0
  0
SPLINE
  5
28b
100
AcDbEntity
  8
0
 62
1
100
AcDbSpline
 70
8
 71
3
 72
8
 73
4
 74
0
 40
0
 40
0
 40
0
 40
0
 40
1
 40
1
 40
1
 40
1
 10
328.963978
 20
758.736113
 30
0.0
 10
327.648044
 20
759.496216
 30
0.0
 10
326.026486
 20
759.496216
 30
0.0
 10
324.710552
 20
758.736113
 30
0.0
  0
SPLINE
  5
28c
100
AcDbEntity
  8
0
 62
1
100
AcDbSpline
 70
8
 71
3
 72
8
 73
4
 74
0
 40
0
 40
0
 40
0
 40
0
 40
1
 40
1
 40
1
 40
1
 10
324.710552
 20
758.736113
 30
0.0
 10
323.394618
 20
757.976011
 30
0.0
 10
322.584395
 20
756.571379
 30
0.0
 10
322.585298
 20
755.051696
 30
0.0
  0
SPLINE
  5
28d
100
AcDbEntity
  8
0
 62
1
100
AcDbSpline
 70
8
 71
3
 72
8
 73
4
 74
0
 40
0
 40
0
 40
0
 40
0
 40
1
 40
1
 40
1
 40
1
 10
322.585298
 20
755.051696
 30
0.0
 10
322.584395
 20
753.532013
 30
0.0
 10
323.394618
 20
752.127382
 30
0.0
 10
324.710552
 20
751.367279
 30
0.0
  0
SPLINE
  5
28e
100
AcDbEntity
  8
0
 62
1
100
AcDbSpline
 70
8
 71
3
 72
8
 73
4
 74
0
 40
0
 40
0
 40
0
 40
0
 40
1
 40
1
 40
1
 40
1
 10
324.710552
 20
751.367279
 30
0.0
 10
326.026486
 20
750.607177
 30
0.0
 10
327.648044
 20
750.607177
 30
0.0
 10
328.963978
 20
751.367279
 30
0.0
  0
SPLINE
  5
28f
100
AcDbEntity
  8
0
 62
1
100
AcDbSpline
 70
8
 71
3
 72
8
 73
4
 74
0
 40
0
 40
0
 40
0
 40
0
 40
1
 40
1
 40
1
 40
1
 10
328.963978
 20
751.367279
 30
0.0
 10
330.279912
 20
752.127382
 30
0.0
 10
331.090135
 20
753.532013
 30
0.0
 10
331.089233
 20
755.051696
 30
0.0
  0
LWPOLYLINE
  5
290
100
AcDbEntity
  8
0
 62
1
100
AcDbPolyline
 90
1
 70
1
 10
248.884507
 20
755.051696
 30
0.0
  0
SPLINE
  5
291
100
AcDbEntity
  8
0
 62
1
100
AcDbSpline
 70
8
 71
3
 72
8
 73
4
 74
0
 40
0
 40
0
 40
0
 40
0
 40
1
 40
1
 40
1
 40
1
 10
140.565525
 20
720.595309
 30
0.0
 10
140.565525
 20
723.633474
 30
0.0
 10
138.944684
 20
726.440854
 30
0.0
 10
136.313556
 20
727.959936
 30
0.0
  0
SPLINE
  5
292
100
AcDbEntity
  8
0
 62
1
100
AcDbSpline
 70
8
 71
3
 72
8
 73
4
 74
0
 40
0
 40
0
 40
0
 40
0
 40
1
 40
1
 40
1
 40
1
 10
136.313556
 20
727.959936
 30
0.0
 10
133.682428
 20
729.479018
 30
0.0
 10
130.440745
 20
729.479018
 30
0.0
 10
127.809617
 20
727.959936
 30
0.0
  0
SPLINE
  5
293
100
AcDbEntity
  8
0
 62
1
100
AcDbSpline
 70
8
 71
3
 72
8
 73
4
 74
0
 40
0
 40
0
 40
0
 40
0
 40
1
 40
1
 40
1
 40
1
 10
127.809617
 20
727.959936
 30
0.0
 10
125.178489
 20
726.440854
 30
0.0
 10
123.557647
 20
723.633474
 30
0.0
 10
123.557648
 20
720.595309
 30
0.0
  0
SPLINE
  5
294
100
AcDbEntity
  8
0
 62
1
100
AcDbSpline
 70
8
 71
3
 72
8
 73
4
 74
0
 40
0
 40
0
 40
0
 40
0
 40
1
 40
1
 40
1
 40
1
 10
123.557648
 20
720.595309
 30
0.0
 10
123.557647
 20
717.557144
 30
0.0
 10
125.178489
 20
714.749764
 30
0.0
 10
127.809617
 20
713.230681
 30
0.0
  0
SPLINE
  5
295
100
AcDbEntity
  8
0
 62
1
100
AcDbSpline
 70
8
 71
3
 72
8
 73
4
 74
0
 40
0
 40
0
 40
0
 40
0
 40
1
 40
1
 40
1
 40
1
 10
127.809617
 20
713.230681
 30
0.0
 10
130.440745
 20
711.711599
 30
0.0
 10
133.682428
 20
711.711599
 30
0.0
 10
136.313556
 20
713.230681
 30
0.0
  0
SPLINE
  5
296
100
AcDbEntity
  8
0
 62
1
100
AcDbSpline
 70
8
 71
3
 72
8
 73
4
 74
0
 40
0
 40
0
 40
0
 40
0
 40
1
 40
1
 40
1
 40
1
 10
136.313556
 20
713.230681
 30
0.0
 10
138.944684
 20
714.749764
 30
0.0
 10
140.565525
 20
717.557144
 30
0.0
 10
140.565525
 20
720.595309
 30
0.0
  0
LWPOLYLINE
  5
297
100
AcDbEntity
  8
0
 62
1
100
AcDbPolyline
 90
1
 70
1
 10
331.089233
 20
755.051696
 30
0.0
  0
SPLINE
  5
298
100
AcDbEntity
  8
0
 62
1
100
AcDbSpline
 70
8
 71
3
 72
8
 73
4
 74
0
 40
0
 40
0
 40
0
 40
0
 40
1
 40
1
 40
1
 40
1
 10
129.226943
 20
740.437826
 30
0.0
 10
129.226943
 20
741.197368
 30
0.0
 10
128.821732
 20
741.899214
 30
0.0
 10
128.163949
 20
742.278985
 30
0.0
  0
SPLINE
  5
299
100
AcDbEntity
  8
0
 62
1
100
AcDbSpline
 70
8
 71
3
 72
8
 73
4
 74
0
 40
0
 40
0
 40
0
 40
0
 40
1
 40
1
 40
1
 40
1
 10
128.163949
 20
742.278985
 30
0.0
 10
127.506166
 20
742.658757
 30
0.0
 10
126.695744
 20
742.658757
 30
0.0
 10
126.037961
 20
742.278985
 30
0.0
  0
SPLINE
  5
29a
100
AcDbEntity
  8
0
 62
1
100
AcDbSpline
 70
8
 71
3
 72
8
 73
4
 74
0
 40
0
 40
0
 40
0
 40
0
 40
1
 40
1
 40
1
 40
1
 10
126.037961
 20
742.278985
 30
0.0
 10
125.380178
 20
741.899214
 30
0.0
 10
124.974968
 20
741.197368
 30
0.0
 10
124.974968
 20
740.437826
 30
0.0
  0
SPLINE
  5
29b
100
AcDbEntity
  8
0
 62
1
100
AcDbSpline
 70
8
 71
3
 72
8
 73
4
 74
0
 40
0
 40
0
 40
0
 40
0
 40
1
 40
1
 40
1
 40
1
 10
124.974968
 20
740.437826
 30
0.0
 10
124.974968
 20
739.678284
 30
0.0
 10
125.380178
 20
738.976438
 30
0.0
 10
126.037961
 20
738.596667
 30
0.0
  0
SPLINE
  5
29c
100
AcDbEntity
  8
0
 62
1
100
AcDbSpline
 70
8
 71
3
 72
8
 73
4
 74
0
 40
0
 40
0
 40
0
 40
0
 40
1
 40
1
 40
1
 40
1
 10
126.037961
 20
738.596667
 30
0.0
 10
126.695744
 20
738.216896
 30
0.0
 10
127.506166
 20
738.216896
 30
0.0
 10
128.163949
 20
738.596667
 30
0.0
  0
SPLINE
  5
29d
100
AcDbEntity
  8
0
 62
1
100
AcDbSpline
 70
8
 71
3
 72
8
 73
4
 74
0
 40
0
 40
0
 40
0
 40
0
 40
1
 40
1
 40
1
 40
1
 10
128.163949
 20
738.596667
 30
0.0
 10
128.821732
 20
738.976438
 30
0.0
 10
129.226943
 20
739.678284
 30
0.0
 10
129.226943
 20
740.437826
 30
0.0
  0
LWPOLYLINE
  5
29e
100
AcDbEntity
  8
0
 62
1
100
AcDbPolyline
 90
1
 70
1
 10
140.565525
 20
720.595309
 30
0.0
  0
SPLINE
  5
29f
100
AcDbEntity
  8
0
 62
1
100
AcDbSpline
 70
8
 71
3
 72
8
 73
4
 74
0
 40
0
 40
0
 40
0
 40
0
 40
1
 40
1
 40
1
 40
1
 10
139.148198
 20
740.437826
 30
0.0
 10
139.148836
 20
741.197792
 30
0.0
 10
138.743765
 20
741.900303
 30
0.0
 10
138.085721
 20
742.280471
 30
0.0
  0
SPLINE
  5
2a0
100
AcDbEntity
  8
0
 62
1
100
AcDbSpline
 70
8
 71
3
 72
8
 73
4
 74
0
 40
0
 40
0
 40
0
 40
0
 40
1
 40
1
 40
1
 40
1
 10
138.085721
 20
742.280471
 30
0.0
 10
137.427678
 20
742.660638
 30
0.0
 10
136.616750
 20
742.660638
 30
0.0
 10
135.958706
 20
742.280471
 30
0.0
  0
SPLINE
  5
2a1
100
AcDbEntity
  8
0
 62
1
100
AcDbSpline
 70
8
 71
3
 72
8
 73
4
 74
0
 40
0
 40
0
 40
0
 40
0
 40
1
 40
1
 40
1
 40
1
 10
135.958706
 20
742.280471
 30
0.0
 10
135.300662
 20
741.900303
 30
0.0
 10
134.895592
 20
741.197792
 30
0.0
 10
134.896230
 20
740.437826
 30
0.0
  0
SPLINE
  5
2a2
100
AcDbEntity
  8
0
 62
1
100
AcDbSpline
 70
8
 71
3
 72
8
 73
4
 74
0
 40
0
 40
0
 40
0
 40
0
 40
1
 40
1
 40
1
 40
1
 10
134.896230
 20
740.437826
 30
0.0
 10
134.895592
 20
739.677860
 30
0.0
 10
135.300662
 20
738.975349
 30
0.0
 10
135.958706
 20
738.595182
 30
0.0
  0
SPLINE
  5
2a3
100
AcDbEntity
  8
0
 62
1
100
AcDbSpline
 70
8
 71
3
 72
8
 73
4
 74
0
 40
0
 40
0
 40
0
 40
0
 40
1
 40
1
 40
1
 40
1
 10
135.958706
 20
738.595182
 30
0.0
 10
136.616750
 20
738.215014
 30
0.0
 10
137.427678
 20
738.215014
 30
0.0
 10
138.085721
 20
738.595182
 30
0.0
  0
SPLINE
  5
2a4
100
AcDbEntity
  8
0
 62
1
100
AcDbSpline
 70
8
 71
3
 72
8
 73
4
 74
0
 40
0
 40
0
 40
0
 40
0
 40
1
 40
1
 40
1
 40
1
 10
138.085721
 20
738.595182
 30
0.0
 10
138.743765
 20
738.975349
 30
0.0
 10
139.148836
 20
739.677860
 30
0.0
 10
139.148198
 20
740.437826
 30
0.0
  0
LWPOLYLINE
  5
2a5
100
AcDbEntity
  8
0
 62
1
100
AcDbPolyline
 90
1
 70
1
 10
129.226943
 20
740.437826
 30
0.0
  0
SPLINE
  5
2a6
100
AcDbEntity
  8
0
 62
1
100
AcDbSpline
 70
8
 71
3
 72
8
 73
4
 74
0
 40
0
 40
0
 40
0
 40
0
 40
1
 40
1
 40
1
 40
1
 10
129.368670
 20
702.170111
 30
0.0
 10
129.369603
 20
702.980909
 30
0.0
 10
128.937583
 20
703.730516
 30
0.0
 10
128.235566
 20
704.136185
 30
0.0
  0
SPLINE
  5
2a7
100
AcDbEntity
  8
0
 62
1
100
AcDbSpline
 70
8
 71
3
 72
8
 73
4
 74
0
 40
0
 40
0
 40
0
 40
0
 40
1
 40
1
 40
1
 40
1
 10
128.235566
 20
704.136185
 30
0.0
 10
127.533550
 20
704.541853
 30
0.0
 10
126.668360
 20
704.541853
 30
0.0
 10
125.966344
 20
704.136185
 30
0.0
  0
SPLINE
  5
2a8
100
AcDbEntity
  8
0
 62
1
100
AcDbSpline
 70
8
 71
3
 72
8
 73
4
 74
0
 40
0
 40
0
 40
0
 40
0
 40
1
 40
1
 40
1
 40
1
 10
125.966344
 20
704.136185
 30
0.0
 10
125.264327
 20
703.730516
 30
0.0
 10
124.832307
 20
702.980909
 30
0.0
 10
124.833240
 20
702.170111
 30
0.0
  0
SPLINE
  5
2a9
100
AcDbEntity
  8
0
 62
1
100
AcDbSpline
 70
8
 71
3
 72
8
 73
4
 74
0
 40
0
 40
0
 40
0
 40
0
 40
1
 40
1
 40
1
 40
1
 10
124.833240
 20
702.170111
 30
0.0
 10
124.832307
 20
701.359313
 30
0.0
 10
125.264327
 20
700.609706
 30
0.0
 10
125.966344
 20
700.204038
 30
0.0
  0
SPLINE
  5
2aa
100
AcDbEntity
  8
0
 62
1
100
AcDbSpline
 70
8
 71
3
 72
8
 73
4
 74
0
 40
0
 40
0
 40
0
 40
0
 40
1
 40
1
 40
1
 40
1
 10
125.966344
 20
700.204038
 30
0.0
 10
126.668360
 20
699.798369
 30
0.0
 10
127.533550
 20
699.798369
 30
0.0
 10
128.235566
 20
700.204038
 30
0.0
  0
SPLINE
  5
2ab
100
AcDbEntity
  8
0
 62
1
100
AcDbSpline
 70
8
 71
3
 72
8
 73
4
 74
0
 40
0
 40
0
 40
0
 40
0
 40
1
 40
1
 40
1
 40
1
 10
128.235566
 20
700.204038
 30
0.0
 10
128.937583
 20
700.609706
 30
0.0
 10
129.369603
 20
701.359313
 30
0.0
 10
129.368670
 20
702.170111
 30
0.0
  0
LWPOLYLINE
  5
2ac
100
AcDbEntity
  8
0
 62
1
100
AcDbPolyline
 90
1
 70
1
 10
139.148198
 20
740.437826
 30
0.0
  0
SPLINE
  5
2ad
100
AcDbEntity
  8
0
 62
1
100
AcDbSpline
 70
8
 71
3
 72
8
 73
4
 74
0
 40
0
 40
0
 40
0
 40
0
 40
1
 40
1
 40
1
 40
1
 10
139.289932
 20
702.170111
 30
0.0
 10
139.289932
 20
702.980289
 30
0.0
 10
138.857708
 20
703.728924
 30
0.0
 10
138.156073
 20
704.134013
 30
0.0
  0
SPLINE
  5
2ae
100
AcDbEntity
  8
0
 62
1
100
AcDbSpline
 70
8
 71
3
 72
8
 73
4
 74
0
 40
0
 40
0
 40
0
 40
0
 40
1
 40
1
 40
1
 40
1
 10
138.156073
 20
704.134013
 30
0.0
 10
137.454439
 20
704.539102
 30
0.0
 10
136.589989
 20
704.539102
 30
0.0
 10
135.888354
 20
704.134013
 30
0.0
  0
SPLINE
  5
2af
100
AcDbEntity
  8
0
 62
1
100
AcDbSpline
 70
8
 71
3
 72
8
 73
4
 74
0
 40
0
 40
0
 40
0
 40
0
 40
1
 40
1
 40
1
 40
1
 10
135.888354
 20
704.134013
 30
0.0
 10
135.186720
 20
703.728924
 30
0.0
 10
134.754495
 20
702.980289
 30
0.0
 10
134.754495
 20
702.170111
 30
0.0
  0
SPLINE
  5
2b0
100
AcDbEntity
  8
0
 62
1
100
AcDbSpline
 70
8
 71
3
 72
8
 73
4
 74
0
 40
0
 40
0
 40
0
 40
0
 40
1
 40
1
 40
1
 40
1
 10
134.754495
 20
702.170111
 30
0.0
 10
134.754495
 20
701.359933
 30
0.0
 10
135.186720
 20
700.611298
 30
0.0
 10
135.888354
 20
700.206209
 30
0.0
  0
SPLINE
  5
2b1
100
AcDbEntity
  8
0
 62
1
100
AcDbSpline
 70
8
 71
3
 72
8
 73
4
 74
0
 40
0
 40
0
 40
0
 40
0
 40
1
 40
1
 40
1
 40
1
 10
135.888354
 20
700.206209
 30
0.0
 10
136.589989
 20
699.801120
 30
0.0
 10
137.454439
 20
699.801120
 30
0.0
 10
138.156073
 20
700.206209
 30
0.0
  0
SPLINE
  5
2b2
100
AcDbEntity
  8
0
 62
1
100
AcDbSpline
 70
8
 71
3
 72
8
 73
4
 74
0
 40
0
 40
0
 40
0
 40
0
 40
1
 40
1
 40
1
 40
1
 10
138.156073
 20
700.206209
 30
0.0
 10
138.857708
 20
700.611298
 30
0.0
 10
139.289932
 20
701.359933
 30
0.0
 10
139.289932
 20
702.170111
 30
0.0
  0
LWPOLYLINE
  5
2b3
100
AcDbEntity
  8
0
 62
1
100
AcDbPolyline
 90
1
 70
1
 10
129.368670
 20
702.170111
 30
0.0
  0
SPLINE
  5
2b4
100
AcDbEntity
  8
0
 62
1
100
AcDbSpline
 70
8
 71
3
 72
8
 73
4
 74
0
 40
0
 40
0
 40
0
 40
0
 40
1
 40
1
 40
1
 40
1
 10
179.268308
 20
776.417313
 30
0.0
 10
179.269240
 20
777.228111
 30
0.0
 10
178.837220
 20
777.977718
 30
0.0
 10
178.135204
 20
778.383387
 30
0.0
  0
SPLINE
  5
2b5
100
AcDbEntity
  8
0
 62
1
100
AcDbSpline
 70
8
 71
3
 72
8
 73
4
 74
0
 40
0
 40
0
 40
0
 40
0
 40
1
 40
1
 40
1
 40
1
 10
178.135204
 20
778.383387
 30
0.0
 10
177.433187
 20
778.789055
 30
0.0
 10
176.567998
 20
778.789055
 30
0.0
 10
175.865981
 20
778.383387
 30
0.0
  0
SPLINE
  5
2b6
100
AcDbEntity
  8
0
 62
1
100
AcDbSpline
 70
8
 71
3
 72
8
 73
4
 74
0
 40
0
 40
0
 40
0
 40
0
 40
1
 40
1
 40
1
 40
1
 10
175.865981
 20
778.383387
 30
0.0
 10
175.163965
 20
777.977718
 30
0.0
 10
174.731945
 20
777.228111
 30
0.0
 10
174.732878
 20
776.417313
 30
0.0
  0
SPLINE
  5
2b7
100
AcDbEntity
  8
0
 62
1
100
AcDbSpline
 70
8
 71
3
 72
8
 73
4
 74
0
 40
0
 40
0
 40
0
 40
0
 40
1
 40
1
 40
1
 40
1
 10
174.732878
 20
776.417313
 30
0.0
 10
174.731945
 20
775.606515
 30
0.0
 10
175.163965
 20
774.856908
 30
0.0
 10
175.865981
 20
774.451240
 30
0.0
  0
SPLINE
  5
2b8
100
AcDbEntity
  8
0
 62
1
100
AcDbSpline
 70
8
 71
3
 72
8
 73
4
 74
0
 40
0
 40
0
 40
0
 40
0
 40
1
 40
1
 40
1
 40
1
 10
175.865981
 20
774.451240
 30
0.0
 10
176.567998
 20
774.045571
 30
0.0
 10
177.433187
 20
774.045571
 30
0.0
 10
178.135204
 20
774.451240
 30
0.0
  0
SPLINE
  5
2b9
100
AcDbEntity
  8
0
 62
1
100
AcDbSpline
 70
8
 71
3
 72
8
 73
4
 74
0
 40
0
 40
0
 40
0
 40
0
 40
1
 40
1
 40
1
 40
1
 10
178.135204
 20
774.451240
 30
0.0
 10
178.837220
 20
774.856908
 30
0.0
 10
179.269240
 20
775.606515
 30
0.0
 10
179.268308
 20
776.417313
 30
0.0
  0
LWPOLYLINE
  5
2ba
100
AcDbEntity
  8
0
 62
1
100
AcDbPolyline
 90
1
 70
1
 10
139.289932
 20
702.170111
 30
0.0
  0
SPLINE
  5
2bb
100
AcDbEntity
  8
0
 62
1
100
AcDbSpline
 70
8
 71
3
 72
8
 73
4
 74
0
 40
0
 40
0
 40
0
 40
0
 40
1
 40
1
 40
1
 40
1
 10
179.268308
 20
766.496051
 30
0.0
 10
179.269240
 20
767.306849
 30
0.0
 10
178.837220
 20
768.056456
 30
0.0
 10
178.135204
 20
768.462125
 30
0.0
  0
SPLINE
  5
2bc
100
AcDbEntity
  8
0
 62
1
100
AcDbSpline
 70
8
 71
3
 72
8
 73
4
 74
0
 40
0
 40
0
 40
0
 40
0
 40
1
 40
1
 40
1
 40
1
 10
178.135204
 20
768.462125
 30
0.0
 10
177.433187
 20
768.867793
 30
0.0
 10
176.567998
 20
768.867793
 30
0.0
 10
175.865981
 20
768.462125
 30
0.0
  0
SPLINE
  5
2bd
100
AcDbEntity
  8
0
 62
1
100
AcDbSpline
 70
8
 71
3
 72
8
 73
4
 74
0
 40
0
 40
0
 40
0
 40
0
 40
1
 40
1
 40
1
 40
1
 10
175.865981
 20
768.462125
 30
0.0
 10
175.163965
 20
768.056456
 30
0.0
 10
174.731945
 20
767.306849
 30
0.0
 10
174.732878
 20
766.496051
 30
0.0
  0
SPLINE
  5
2be
100
AcDbEntity
  8
0
 62
1
100
AcDbSpline
 70
8
 71
3
 72
8
 73
4
 74
0
 40
0
 40
0
 40
0
 40
0
 40
1
 40
1
 40
1
 40
1
 10
174.732878
 20
766.496051
 30
0.0
 10
174.731945
 20
765.685253
 30
0.0
 10
175.163965
 20
764.935646
 30
0.0
 10
175.865981
 20
764.529978
 30
0.0
  0
SPLINE
  5
2bf
100
AcDbEntity
  8
0
 62
1
100
AcDbSpline
 70
8
 71
3
 72
8
 73
4
 74
0
 40
0
 40
0
 40
0
 40
0
 40
1
 40
1
 40
1
 40
1
 10
175.865981
 20
764.529978
 30
0.0
 10
176.567998
 20
764.124309
 30
0.0
 10
177.433187
 20
764.124309
 30
0.0
 10
178.135204
 20
764.529978
 30
0.0
  0
SPLINE
  5
2c0
100
AcDbEntity
  8
0
 62
1
100
AcDbSpline
 70
8
 71
3
 72
8
 73
4
 74
0
 40
0
 40
0
 40
0
 40
0
 40
1
 40
1
 40
1
 40
1
 10
178.135204
 20
764.529978
 30
0.0
 10
178.837220
 20
764.935646
 30
0.0
 10
179.269240
 20
765.685253
 30
0.0
 10
179.268308
 20
766.496051
 30
0.0
  0
LWPOLYLINE
  5
2c1
100
AcDbEntity
  8
0
 62
1
100
AcDbPolyline
 90
1
 70
1
 10
179.268308
 20
776.417313
 30
0.0
  0
LWPOLYLINE
  5
2c2
100
AcDbEntity
  8
0
 62
1
100
AcDbPolyline
 90
1
 70
1
 10
179.268308
 20
766.496051
 30
0.0
  0
ENDSEC
  0
SECTION
  2
OBJECTS
  0
DICTIONARY
  5
C
330
0
100
AcDbDictionary
  3
ACAD_GROUP
350
D
  3
ACAD_MLINESTYLE
350
17
  0
DICTIONARY
  5
D
330
C
100
AcDbDictionary
  0
DICTIONARY
  5
1A
330
C
100
AcDbDictionary
  0
DICTIONARY
  5
17
330
C
100
AcDbDictionary
  3
STANDARD
350
18
  0
DICTIONARY
  5
19
330
C
100
AcDbDictionary
  0
ENDSEC
  0
EOF
