  0
SECTION
  2
HEADER
  9
$ACADVER
  1
AC1014
  9
$HANDSEED
  5
FFFF
  9
$MEASUREMENT
 70
     1
  0
ENDSEC
  0
SECTION
  2
TABLES
  0
TABLE
  2
VPORT
  5
8
330
0
100
AcDbSymbolTable
 70
     4
  0
VPORT
  5
2E
330
8
100
AcDbSymbolTableRecord
100
AcDbViewportTableRecord
  2
*ACTIVE
 70
     0
 10
0.0
 20
0.0
 11
1.0
 21
1.0
 12
210.0
 22
148.5
 13
0.0
 23
0.0
 14
10.0
 24
10.0
 15
10.0
 25
10.0
 16
0.0
 26
0.0
 36
1.0
 17
0.0
 27
0.0
 37
0.0
 40
341.0
 41
1.24
 42
50.0
 43
0.0
 44
0.0
 50
0.0
 51
0.0
 71
     0
 72
   100
 73
     1
 74
     3
 75
     0
 76
     0
 77
     0
 78
     0
  0
ENDTAB
  0
TABLE
  2
LTYPE
  5
5
330
0
100
AcDbSymbolTable
 70
     1
  0
LTYPE
  5
14
330
5
100
AcDbSymbolTableRecord
100
AcDbLinetypeTableRecord
  2
BYBLOCK
 70
     0
  3

 72
    65
 73
     0
 40
0.0
  0
LTYPE
  5
15
330
5
100
AcDbSymbolTableRecord
100
AcDbLinetypeTableRecord
  2
BYLAYER
 70
     0
  3

 72
    65
 73
     0
 40
0.0
  0
LTYPE
  5
16
330
5
100
AcDbSymbolTableRecord
100
AcDbLinetypeTableRecord
  2
CONTINUOUS
 70
     0
  3
Solid line
 72
    65
 73
     0
 40
0.0
  0
ENDTAB
  0
TABLE
  2
LAYER
  5
2
100
AcDbSymbolTable
 70
2
  0
LAYER
  5
50
100
AcDbSymbolTableRecord
100
AcDbLayerTableRecord
  2
0
 70
0
  6
CONTINUOUS
  0
LAYER
  5
51
100
AcDbSymbolTableRecord
100
AcDbLayerTableRecord
  2
Layer_1
 70
0
  6
CONTINUOUS
  0
ENDTAB
  0
TABLE
  2
STYLE
  5
3
330
0
100
AcDbSymbolTable
 70
     1
  0
STYLE
  5
11
330
3
100
AcDbSymbolTableRecord
100
AcDbTextStyleTableRecord
  2
STANDARD
 70
     0
 40
0.0
 41
1.0
 50
0.0
 71
     0
 42
2.5
  3
txt
  4

  0
ENDTAB
  0
TABLE
  2
VIEW
  5
6
330
0
100
AcDbSymbolTable
 70
     0
  0
ENDTAB
  0
TABLE
  2
UCS
  5
7
330
0
100
AcDbSymbolTable
 70
     0
  0
ENDTAB
  0
TABLE
  2
APPID
  5
9
330
0
100
AcDbSymbolTable
 70
     2
  0
APPID
  5
12
330
9
100
AcDbSymbolTableRecord
100
AcDbRegAppTableRecord
  2
ACAD
 70
     0
  0
ENDTAB
  0
TABLE
  2
DIMSTYLE
  5
A
330
0
100
AcDbSymbolTable
 70
     1
  0
DIMSTYLE
105
27
330
A
100
AcDbSymbolTableRecord
100
AcDbDimStyleTableRecord
  2
ISO-25
 70
     0
  3

  4

  5

  6

  7

 40
1.0
 41
2.5
 42
0.625
 43
3.75
 44
1.25
 45
0.0
 46
0.0
 47
0.0
 48
0.0
140
2.5
141
2.5
142
0.0
143
0.03937007874016
144
1.0
145
0.0
146
1.0
147
0.625
 71
     0
 72
     0
 73
     0
 74
     0
 75
     0
 76
     0
 77
     1
 78
     8
170
     0
171
     3
172
     1
173
     0
174
     0
175
     0
176
     0
177
     0
178
     0
270
     2
271
     2
272
     2
273
     2
274
     3
340
11
275
     0
280
     0
281
     0
282
     0
283
     0
284
     8
285
     0
286
     0
287
     3
288
     0
  0
ENDTAB
  0
TABLE
  2
BLOCK_RECORD
  5
1
330
0
100
AcDbSymbolTable
 70
     1
  0
BLOCK_RECORD
  5
1F
330
1
100
AcDbSymbolTableRecord
100
AcDbBlockTableRecord
  2
*MODEL_SPACE
  0
BLOCK_RECORD
  5
1B
330
1
100
AcDbSymbolTableRecord
100
AcDbBlockTableRecord
  2
*PAPER_SPACE
  0
ENDTAB
  0
ENDSEC
  0
SECTION
  2
BLOCKS
  0
BLOCK
  5
20
330
1F
100
AcDbEntity
  8
0
100
AcDbBlockBegin
  2
*MODEL_SPACE
 70
     0
 10
0.0
 20
0.0
 30
0.0
  3
*MODEL_SPACE
  1

  0
ENDBLK
  5
21
330
1F
100
AcDbEntity
  8
0
100
AcDbBlockEnd
  0
BLOCK
  5
1C
330
1B
100
AcDbEntity
 67
     1
  8
0
100
AcDbBlockBegin
  2
*PAPER_SPACE
  1

  0
ENDBLK
  5
1D
330
1B
100
AcDbEntity
 67
     1
  8
0
100
AcDbBlockEnd
  0
ENDSEC
  0
SECTION
  2
ENTITIES
  0
LWPOLYLINE
  5
100
100
AcDbEntity
  8
Layer_1
 62
1
100
AcDbPolyline
 90
4
 70
1
 10
0.375000
 20
107.896734
 30
0.0
 10
107.896767
 20
107.896734
 30
0.0
 10
107.896767
 20
0.374978
 30
0.0
 10
0.375000
 20
0.374978
 30
0.0
  0
LWPOLYLINE
  5
101
100
AcDbEntity
  8
Layer_1
 62
1
100
AcDbPolyline
 90
6
 70
1
 10
83.036103
 20
42.285231
 30
0.0
 10
89.725867
 20
42.285231
 30
0.0
 10
89.725867
 20
18.530901
 30
0.0
 10
65.971536
 20
18.530901
 30
0.0
 10
65.971536
 20
25.220665
 30
0.0
 10
83.036103
 20
25.220665
 30
0.0
  0
LWPOLYLINE
  5
102
100
AcDbEntity
  8
Layer_1
 62
1
100
AcDbPolyline
 90
6
 70
1
 10
83.036103
 20
65.963027
 30
0.0
 10
89.725867
 20
65.963027
 30
0.0
 10
89.725867
 20
89.717357
 30
0.0
 10
65.971536
 20
89.717357
 30
0.0
 10
65.971536
 20
83.027594
 30
0.0
 10
83.036103
 20
83.027594
 30
0.0
  0
LWPOLYLINE
  5
103
100
AcDbEntity
  8
Layer_1
 62
1
100
AcDbPolyline
 90
6
 70
1
 10
25.229173
 20
42.285231
 30
0.0
 10
18.539410
 20
42.285231
 30
0.0
 10
18.539410
 20
18.530901
 30
0.0
 10
42.293741
 20
18.530901
 30
0.0
 10
42.293741
 20
25.220665
 30
0.0
 10
25.229173
 20
25.220665
 30
0.0
  0
SPLINE
  5
104
100
AcDbEntity
  8
Layer_1
 62
1
100
AcDbSpline
 70
8
 71
3
 72
8
 73
4
 74
0
 40
0
 40
0
 40
0
 40
0
 40
1
 40
1
 40
1
 40
1
 10
62.390840
 20
53.990872
 30
0.0
 10
62.390840
 20
50.989870
 30
0.0
 10
60.789825
 20
48.216830
 30
0.0
 10
58.190880
 20
46.716329
 30
0.0
  0
SPLINE
  5
105
100
AcDbEntity
  8
Layer_1
 62
1
100
AcDbSpline
 70
8
 71
3
 72
8
 73
4
 74
0
 40
0
 40
0
 40
0
 40
0
 40
1
 40
1
 40
1
 40
1
 10
58.190880
 20
46.716329
 30
0.0
 10
55.591936
 20
45.215828
 30
0.0
 10
52.389905
 20
45.215828
 30
0.0
 10
49.790961
 20
46.716329
 30
0.0
  0
SPLINE
  5
106
100
AcDbEntity
  8
Layer_1
 62
1
100
AcDbSpline
 70
8
 71
3
 72
8
 73
4
 74
0
 40
0
 40
0
 40
0
 40
0
 40
1
 40
1
 40
1
 40
1
 10
49.790961
 20
46.716329
 30
0.0
 10
47.192017
 20
48.216830
 30
0.0
 10
45.591001
 20
50.989870
 30
0.0
 10
45.591001
 20
53.990872
 30
0.0
  0
SPLINE
  5
107
100
AcDbEntity
  8
Layer_1
 62
1
100
AcDbSpline
 70
8
 71
3
 72
8
 73
4
 74
0
 40
0
 40
0
 40
0
 40
0
 40
1
 40
1
 40
1
 40
1
 10
45.591001
 20
53.990872
 30
0.0
 10
45.591001
 20
56.991875
 30
0.0
 10
47.192017
 20
59.764915
 30
0.0
 10
49.790961
 20
61.265416
 30
0.0
  0
SPLINE
  5
108
100
AcDbEntity
  8
Layer_1
 62
1
100
AcDbSpline
 70
8
 71
3
 72
8
 73
4
 74
0
 40
0
 40
0
 40
0
 40
0
 40
1
 40
1
 40
1
 40
1
 10
49.790961
 20
61.265416
 30
0.0
 10
52.389905
 20
62.765917
 30
0.0
 10
55.591936
 20
62.765917
 30
0.0
 10
58.190880
 20
61.265416
 30
0.0
  0
SPLINE
  5
109
100
AcDbEntity
  8
Layer_1
 62
1
100
AcDbSpline
 70
8
 71
3
 72
8
 73
4
 74
0
 40
0
 40
0
 40
0
 40
0
 40
1
 40
1
 40
1
 40
1
 10
58.190880
 20
61.265416
 30
0.0
 10
60.789825
 20
59.764915
 30
0.0
 10
62.390840
 20
56.991875
 30
0.0
 10
62.390840
 20
53.990872
 30
0.0
  0
LWPOLYLINE
  5
10a
100
AcDbEntity
  8
Layer_1
 62
1
100
AcDbPolyline
 90
6
 70
1
 10
25.229173
 20
65.963027
 30
0.0
 10
18.539410
 20
65.963027
 30
0.0
 10
18.539410
 20
89.717357
 30
0.0
 10
42.293741
 20
89.717357
 30
0.0
 10
42.293741
 20
83.027594
 30
0.0
 10
25.229173
 20
83.027594
 30
0.0
  0
SPLINE
  5
10b
100
AcDbEntity
  8
Layer_1
 62
1
100
AcDbSpline
 70
8
 71
3
 72
8
 73
4
 74
0
 40
0
 40
0
 40
0
 40
0
 40
1
 40
1
 40
1
 40
1
 10
44.661146
 20
67.909351
 30
0.0
 10
44.661146
 20
65.542417
 30
0.0
 10
42.742366
 20
63.623637
 30
0.0
 10
40.375431
 20
63.623637
 30
0.0
  0
SPLINE
  5
10c
100
AcDbEntity
  8
Layer_1
 62
1
100
AcDbSpline
 70
8
 71
3
 72
8
 73
4
 74
0
 40
0
 40
0
 40
0
 40
0
 40
1
 40
1
 40
1
 40
1
 10
40.375431
 20
63.623637
 30
0.0
 10
38.008497
 20
63.623637
 30
0.0
 10
36.089717
 20
65.542417
 30
0.0
 10
36.089717
 20
67.909351
 30
0.0
  0
SPLINE
  5
10d
100
AcDbEntity
  8
Layer_1
 62
1
100
AcDbSpline
 70
8
 71
3
 72
8
 73
4
 74
0
 40
0
 40
0
 40
0
 40
0
 40
1
 40
1
 40
1
 40
1
 10
36.089717
 20
67.909351
 30
0.0
 10
36.089717
 20
70.276286
 30
0.0
 10
38.008497
 20
72.195065
 30
0.0
 10
40.375431
 20
72.195065
 30
0.0
  0
SPLINE
  5
10e
100
AcDbEntity
  8
Layer_1
 62
1
100
AcDbSpline
 70
8
 71
3
 72
8
 73
4
 74
0
 40
0
 40
0
 40
0
 40
0
 40
1
 40
1
 40
1
 40
1
 10
40.375431
 20
72.195065
 30
0.0
 10
42.742366
 20
72.195065
 30
0.0
 10
44.661146
 20
70.276286
 30
0.0
 10
44.661146
 20
67.909351
 30
0.0
  0
LWPOLYLINE
  5
10f
100
AcDbEntity
  8
Layer_1
 62
1
100
AcDbPolyline
 90
1
 70
1
 10
62.390840
 20
53.990872
 30
0.0
  0
SPLINE
  5
110
100
AcDbEntity
  8
Layer_1
 62
1
100
AcDbSpline
 70
8
 71
3
 72
8
 73
4
 74
0
 40
0
 40
0
 40
0
 40
0
 40
1
 40
1
 40
1
 40
1
 10
72.189150
 20
67.905269
 30
0.0
 10
72.189150
 20
66.374131
 30
0.0
 10
71.372297
 20
64.959301
 30
0.0
 10
70.046292
 20
64.193732
 30
0.0
  0
SPLINE
  5
111
100
AcDbEntity
  8
Layer_1
 62
1
100
AcDbSpline
 70
8
 71
3
 72
8
 73
4
 74
0
 40
0
 40
0
 40
0
 40
0
 40
1
 40
1
 40
1
 40
1
 10
70.046292
 20
64.193732
 30
0.0
 10
68.720288
 20
63.428163
 30
0.0
 10
67.086583
 20
63.428163
 30
0.0
 10
65.760578
 20
64.193732
 30
0.0
  0
SPLINE
  5
112
100
AcDbEntity
  8
Layer_1
 62
1
100
AcDbSpline
 70
8
 71
3
 72
8
 73
4
 74
0
 40
0
 40
0
 40
0
 40
0
 40
1
 40
1
 40
1
 40
1
 10
65.760578
 20
64.193732
 30
0.0
 10
64.434573
 20
64.959301
 30
0.0
 10
63.617721
 20
66.374131
 30
0.0
 10
63.617721
 20
67.905269
 30
0.0
  0
SPLINE
  5
113
100
AcDbEntity
  8
Layer_1
 62
1
100
AcDbSpline
 70
8
 71
3
 72
8
 73
4
 74
0
 40
0
 40
0
 40
0
 40
0
 40
1
 40
1
 40
1
 40
1
 10
63.617721
 20
67.905269
 30
0.0
 10
63.617721
 20
69.436408
 30
0.0
 10
64.434573
 20
70.851238
 30
0.0
 10
65.760578
 20
71.616807
 30
0.0
  0
SPLINE
  5
114
100
AcDbEntity
  8
Layer_1
 62
1
100
AcDbSpline
 70
8
 71
3
 72
8
 73
4
 74
0
 40
0
 40
0
 40
0
 40
0
 40
1
 40
1
 40
1
 40
1
 10
65.760578
 20
71.616807
 30
0.0
 10
67.086583
 20
72.382376
 30
0.0
 10
68.720288
 20
72.382376
 30
0.0
 10
70.046292
 20
71.616807
 30
0.0
  0
SPLINE
  5
115
100
AcDbEntity
  8
Layer_1
 62
1
100
AcDbSpline
 70
8
 71
3
 72
8
 73
4
 74
0
 40
0
 40
0
 40
0
 40
0
 40
1
 40
1
 40
1
 40
1
 10
70.046292
 20
71.616807
 30
0.0
 10
71.372297
 20
70.851238
 30
0.0
 10
72.189150
 20
69.436408
 30
0.0
 10
72.189150
 20
67.905269
 30
0.0
  0
LWPOLYLINE
  5
116
100
AcDbEntity
  8
Layer_1
 62
1
100
AcDbPolyline
 90
1
 70
1
 10
44.661146
 20
67.909351
 30
0.0
  0
SPLINE
  5
117
100
AcDbEntity
  8
Layer_1
 62
1
100
AcDbSpline
 70
8
 71
3
 72
8
 73
4
 74
0
 40
0
 40
0
 40
0
 40
0
 40
1
 40
1
 40
1
 40
1
 10
44.662019
 20
40.382532
 30
0.0
 10
44.662019
 20
38.851394
 30
0.0
 10
43.845166
 20
37.436564
 30
0.0
 10
42.519162
 20
36.670995
 30
0.0
  0
SPLINE
  5
118
100
AcDbEntity
  8
Layer_1
 62
1
100
AcDbSpline
 70
8
 71
3
 72
8
 73
4
 74
0
 40
0
 40
0
 40
0
 40
0
 40
1
 40
1
 40
1
 40
1
 10
42.519162
 20
36.670995
 30
0.0
 10
41.193157
 20
35.905426
 30
0.0
 10
39.559452
 20
35.905426
 30
0.0
 10
38.233447
 20
36.670995
 30
0.0
  0
SPLINE
  5
119
100
AcDbEntity
  8
Layer_1
 62
1
100
AcDbSpline
 70
8
 71
3
 72
8
 73
4
 74
0
 40
0
 40
0
 40
0
 40
0
 40
1
 40
1
 40
1
 40
1
 10
38.233447
 20
36.670995
 30
0.0
 10
36.907443
 20
37.436564
 30
0.0
 10
36.090590
 20
38.851394
 30
0.0
 10
36.090590
 20
40.382532
 30
0.0
  0
SPLINE
  5
11a
100
AcDbEntity
  8
Layer_1
 62
1
100
AcDbSpline
 70
8
 71
3
 72
8
 73
4
 74
0
 40
0
 40
0
 40
0
 40
0
 40
1
 40
1
 40
1
 40
1
 10
36.090590
 20
40.382532
 30
0.0
 10
36.090590
 20
41.913671
 30
0.0
 10
36.907443
 20
43.328501
 30
0.0
 10
38.233447
 20
44.094070
 30
0.0
  0
SPLINE
  5
11b
100
AcDbEntity
  8
Layer_1
 62
1
100
AcDbSpline
 70
8
 71
3
 72
8
 73
4
 74
0
 40
0
 40
0
 40
0
 40
0
 40
1
 40
1
 40
1
 40
1
 10
38.233447
 20
44.094070
 30
0.0
 10
39.559452
 20
44.859639
 30
0.0
 10
41.193157
 20
44.859639
 30
0.0
 10
42.519162
 20
44.094070
 30
0.0
  0
SPLINE
  5
11c
100
AcDbEntity
  8
Layer_1
 62
1
100
AcDbSpline
 70
8
 71
3
 72
8
 73
4
 74
0
 40
0
 40
0
 40
0
 40
0
 40
1
 40
1
 40
1
 40
1
 10
42.519162
 20
44.094070
 30
0.0
 10
43.845166
 20
43.328501
 30
0.0
 10
44.662019
 20
41.913671
 30
0.0
 10
44.662019
 20
40.382532
 30
0.0
  0
LWPOLYLINE
  5
11d
100
AcDbEntity
  8
Layer_1
 62
1
100
AcDbPolyline
 90
1
 70
1
 10
72.189150
 20
67.905269
 30
0.0
  0
SPLINE
  5
11e
100
AcDbEntity
  8
Layer_1
 62
1
100
AcDbSpline
 70
8
 71
3
 72
8
 73
4
 74
0
 40
0
 40
0
 40
0
 40
0
 40
1
 40
1
 40
1
 40
1
 10
72.189150
 20
40.380888
 30
0.0
 10
72.189150
 20
38.849750
 30
0.0
 10
71.372297
 20
37.434920
 30
0.0
 10
70.046292
 20
36.669351
 30
0.0
  0
SPLINE
  5
11f
100
AcDbEntity
  8
Layer_1
 62
1
100
AcDbSpline
 70
8
 71
3
 72
8
 73
4
 74
0
 40
0
 40
0
 40
0
 40
0
 40
1
 40
1
 40
1
 40
1
 10
70.046292
 20
36.669351
 30
0.0
 10
68.720288
 20
35.903782
 30
0.0
 10
67.086583
 20
35.903782
 30
0.0
 10
65.760578
 20
36.669351
 30
0.0
  0
SPLINE
  5
120
100
AcDbEntity
  8
Layer_1
 62
1
100
AcDbSpline
 70
8
 71
3
 72
8
 73
4
 74
0
 40
0
 40
0
 40
0
 40
0
 40
1
 40
1
 40
1
 40
1
 10
65.760578
 20
36.669351
 30
0.0
 10
64.434573
 20
37.434920
 30
0.0
 10
63.617721
 20
38.849750
 30
0.0
 10
63.617721
 20
40.380888
 30
0.0
  0
SPLINE
  5
121
100
AcDbEntity
  8
Layer_1
 62
1
100
AcDbSpline
 70
8
 71
3
 72
8
 73
4
 74
0
 40
0
 40
0
 40
0
 40
0
 40
1
 40
1
 40
1
 40
1
 10
63.617721
 20
40.380888
 30
0.0
 10
63.617721
 20
41.912026
 30
0.0
 10
64.434573
 20
43.326857
 30
0.0
 10
65.760578
 20
44.092426
 30
0.0
  0
SPLINE
  5
122
100
AcDbEntity
  8
Layer_1
 62
1
100
AcDbSpline
 70
8
 71
3
 72
8
 73
4
 74
0
 40
0
 40
0
 40
0
 40
0
 40
1
 40
1
 40
1
 40
1
 10
65.760578
 20
44.092426
 30
0.0
 10
67.086583
 20
44.857995
 30
0.0
 10
68.720288
 20
44.857995
 30
0.0
 10
70.046292
 20
44.092426
 30
0.0
  0
SPLINE
  5
123
100
AcDbEntity
  8
Layer_1
 62
1
100
AcDbSpline
 70
8
 71
3
 72
8
 73
4
 74
0
 40
0
 40
0
 40
0
 40
0
 40
1
 40
1
 40
1
 40
1
 10
70.046292
 20
44.092426
 30
0.0
 10
71.372297
 20
43.326857
 30
0.0
 10
72.189150
 20
41.912026
 30
0.0
 10
72.189150
 20
40.380888
 30
0.0
  0
LWPOLYLINE
  5
124
100
AcDbEntity
  8
Layer_1
 62
1
100
AcDbPolyline
 90
1
 70
1
 10
44.662019
 20
40.382532
 30
0.0
  0
LWPOLYLINE
  5
125
100
AcDbEntity
  8
Layer_1
 62
1
100
AcDbPolyline
 90
1
 70
1
 10
72.189150
 20
40.380888
 30
0.0
  0
ENDSEC
  0
SECTION
  2
OBJECTS
  0
DICTIONARY
  5
C
330
0
100
AcDbDictionary
  3
ACAD_GROUP
350
D
  3
ACAD_MLINESTYLE
350
17
  0
DICTIONARY
  5
D
330
C
100
AcDbDictionary
  0
DICTIONARY
  5
1A
330
C
100
AcDbDictionary
  0
DICTIONARY
  5
17
330
C
100
AcDbDictionary
  3
STANDARD
350
18
  0
DICTIONARY
  5
19
330
C
100
AcDbDictionary
  0
ENDSEC
  0
EOF
