  0
SECTION
  2
HEADER
  9
$ACADVER
  1
AC1014
  9
$HANDSEED
  5
FFFF
  9
$MEASUREMENT
 70
     1
  0
ENDSEC
  0
SECTION
  2
TABLES
  0
TABLE
  2
VPORT
  5
8
330
0
100
AcDbSymbolTable
 70
     4
  0
VPORT
  5
2E
330
8
100
AcDbSymbolTableRecord
100
AcDbViewportTableRecord
  2
*ACTIVE
 70
     0
 10
0.0
 20
0.0
 11
1.0
 21
1.0
 12
210.0
 22
148.5
 13
0.0
 23
0.0
 14
10.0
 24
10.0
 15
10.0
 25
10.0
 16
0.0
 26
0.0
 36
1.0
 17
0.0
 27
0.0
 37
0.0
 40
341.0
 41
1.24
 42
50.0
 43
0.0
 44
0.0
 50
0.0
 51
0.0
 71
     0
 72
   100
 73
     1
 74
     3
 75
     0
 76
     0
 77
     0
 78
     0
  0
ENDTAB
  0
TABLE
  2
LTYPE
  5
5
330
0
100
AcDbSymbolTable
 70
     1
  0
LTYPE
  5
14
330
5
100
AcDbSymbolTableRecord
100
AcDbLinetypeTableRecord
  2
BYBLOCK
 70
     0
  3

 72
    65
 73
     0
 40
0.0
  0
LTYPE
  5
15
330
5
100
AcDbSymbolTableRecord
100
AcDbLinetypeTableRecord
  2
BYLAYER
 70
     0
  3

 72
    65
 73
     0
 40
0.0
  0
LTYPE
  5
16
330
5
100
AcDbSymbolTableRecord
100
AcDbLinetypeTableRecord
  2
CONTINUOUS
 70
     0
  3
Solid line
 72
    65
 73
     0
 40
0.0
  0
ENDTAB
  0
TABLE
  2
LAYER
  5
2
100
AcDbSymbolTable
 70
2
  0
LAYER
  5
50
100
AcDbSymbolTableRecord
100
AcDbLayerTableRecord
  2
0
 70
0
  6
CONTINUOUS
  0
LAYER
  5
51
100
AcDbSymbolTableRecord
100
AcDbLayerTableRecord
  2
Layer_1
 70
0
  6
CONTINUOUS
  0
ENDTAB
  0
TABLE
  2
STYLE
  5
3
330
0
100
AcDbSymbolTable
 70
     1
  0
STYLE
  5
11
330
3
100
AcDbSymbolTableRecord
100
AcDbTextStyleTableRecord
  2
STANDARD
 70
     0
 40
0.0
 41
1.0
 50
0.0
 71
     0
 42
2.5
  3
txt
  4

  0
ENDTAB
  0
TABLE
  2
VIEW
  5
6
330
0
100
AcDbSymbolTable
 70
     0
  0
ENDTAB
  0
TABLE
  2
UCS
  5
7
330
0
100
AcDbSymbolTable
 70
     0
  0
ENDTAB
  0
TABLE
  2
APPID
  5
9
330
0
100
AcDbSymbolTable
 70
     2
  0
APPID
  5
12
330
9
100
AcDbSymbolTableRecord
100
AcDbRegAppTableRecord
  2
ACAD
 70
     0
  0
ENDTAB
  0
TABLE
  2
DIMSTYLE
  5
A
330
0
100
AcDbSymbolTable
 70
     1
  0
DIMSTYLE
105
27
330
A
100
AcDbSymbolTableRecord
100
AcDbDimStyleTableRecord
  2
ISO-25
 70
     0
  3

  4

  5

  6

  7

 40
1.0
 41
2.5
 42
0.625
 43
3.75
 44
1.25
 45
0.0
 46
0.0
 47
0.0
 48
0.0
140
2.5
141
2.5
142
0.0
143
0.03937007874016
144
1.0
145
0.0
146
1.0
147
0.625
 71
     0
 72
     0
 73
     0
 74
     0
 75
     0
 76
     0
 77
     1
 78
     8
170
     0
171
     3
172
     1
173
     0
174
     0
175
     0
176
     0
177
     0
178
     0
270
     2
271
     2
272
     2
273
     2
274
     3
340
11
275
     0
280
     0
281
     0
282
     0
283
     0
284
     8
285
     0
286
     0
287
     3
288
     0
  0
ENDTAB
  0
TABLE
  2
BLOCK_RECORD
  5
1
330
0
100
AcDbSymbolTable
 70
     1
  0
BLOCK_RECORD
  5
1F
330
1
100
AcDbSymbolTableRecord
100
AcDbBlockTableRecord
  2
*MODEL_SPACE
  0
BLOCK_RECORD
  5
1B
330
1
100
AcDbSymbolTableRecord
100
AcDbBlockTableRecord
  2
*PAPER_SPACE
  0
ENDTAB
  0
ENDSEC
  0
SECTION
  2
BLOCKS
  0
BLOCK
  5
20
330
1F
100
AcDbEntity
  8
0
100
AcDbBlockBegin
  2
*MODEL_SPACE
 70
     0
 10
0.0
 20
0.0
 30
0.0
  3
*MODEL_SPACE
  1

  0
ENDBLK
  5
21
330
1F
100
AcDbEntity
  8
0
100
AcDbBlockEnd
  0
BLOCK
  5
1C
330
1B
100
AcDbEntity
 67
     1
  8
0
100
AcDbBlockBegin
  2
*PAPER_SPACE
  1

  0
ENDBLK
  5
1D
330
1B
100
AcDbEntity
 67
     1
  8
0
100
AcDbBlockEnd
  0
ENDSEC
  0
SECTION
  2
ENTITIES
  0
SPLINE
  5
100
100
AcDbEntity
  8
Layer_1
 62
1
100
AcDbSpline
 70
8
 71
3
 72
8
 73
4
 74
0
 40
0
 40
0
 40
0
 40
0
 40
1
 40
1
 40
1
 40
1
 10
495.650307
 20
248.192395
 30
0.0
 10
495.650307
 20
249.843726
 30
0.0
 10
494.769395
 20
251.369619
 30
0.0
 10
493.339402
 20
252.195284
 30
0.0
  0
SPLINE
  5
101
100
AcDbEntity
  8
Layer_1
 62
1
100
AcDbSpline
 70
8
 71
3
 72
8
 73
4
 74
0
 40
0
 40
0
 40
0
 40
0
 40
1
 40
1
 40
1
 40
1
 10
493.339402
 20
252.195284
 30
0.0
 10
491.909409
 20
253.020950
 30
0.0
 10
490.147585
 20
253.020950
 30
0.0
 10
488.717593
 20
252.195284
 30
0.0
  0
SPLINE
  5
102
100
AcDbEntity
  8
Layer_1
 62
1
100
AcDbSpline
 70
8
 71
3
 72
8
 73
4
 74
0
 40
0
 40
0
 40
0
 40
0
 40
1
 40
1
 40
1
 40
1
 10
488.717593
 20
252.195284
 30
0.0
 10
487.287600
 20
251.369619
 30
0.0
 10
486.406688
 20
249.843726
 30
0.0
 10
486.406688
 20
248.192395
 30
0.0
  0
SPLINE
  5
103
100
AcDbEntity
  8
Layer_1
 62
1
100
AcDbSpline
 70
8
 71
3
 72
8
 73
4
 74
0
 40
0
 40
0
 40
0
 40
0
 40
1
 40
1
 40
1
 40
1
 10
486.406688
 20
248.192395
 30
0.0
 10
486.406688
 20
246.541064
 30
0.0
 10
487.287600
 20
245.015172
 30
0.0
 10
488.717593
 20
244.189506
 30
0.0
  0
SPLINE
  5
104
100
AcDbEntity
  8
Layer_1
 62
1
100
AcDbSpline
 70
8
 71
3
 72
8
 73
4
 74
0
 40
0
 40
0
 40
0
 40
0
 40
1
 40
1
 40
1
 40
1
 10
488.717593
 20
244.189506
 30
0.0
 10
490.147585
 20
243.363841
 30
0.0
 10
491.909409
 20
243.363841
 30
0.0
 10
493.339402
 20
244.189506
 30
0.0
  0
SPLINE
  5
105
100
AcDbEntity
  8
Layer_1
 62
1
100
AcDbSpline
 70
8
 71
3
 72
8
 73
4
 74
0
 40
0
 40
0
 40
0
 40
0
 40
1
 40
1
 40
1
 40
1
 10
493.339402
 20
244.189506
 30
0.0
 10
494.769395
 20
245.015172
 30
0.0
 10
495.650307
 20
246.541064
 30
0.0
 10
495.650307
 20
248.192395
 30
0.0
  0
LWPOLYLINE
  5
106
100
AcDbEntity
  8
Layer_1
 62
1
100
AcDbPolyline
 90
48
 70
1
 10
528.767337
 20
237.474212
 30
0.0
 10
544.222852
 20
233.084721
 30
0.0
 10
547.870045
 20
232.960540
 30
0.0
 10
569.355266
 20
243.582583
 30
0.0
 10
569.355266
 20
252.801961
 30
0.0
 10
547.870045
 20
263.424004
 30
0.0
 10
544.222852
 20
263.299823
 30
0.0
 10
528.767337
 20
258.910332
 30
0.0
 10
519.179455
 20
275.518168
 30
0.0
 10
530.708373
 20
286.709257
 30
0.0
 10
532.639396
 20
289.805998
 30
0.0
 10
534.183697
 20
313.725100
 30
0.0
 10
526.200075
 20
318.334789
 30
0.0
 10
506.259156
 20
305.037730
 30
0.0
 10
504.542985
 20
301.816931
 30
0.0
 10
500.616358
 20
286.236351
 30
0.0
 10
481.440655
 20
286.236351
 30
0.0
 10
477.514028
 20
301.816931
 30
0.0
 10
475.797857
 20
305.037730
 30
0.0
 10
455.856937
 20
318.334789
 30
0.0
 10
447.873316
 20
313.725100
 30
0.0
 10
449.417617
 20
289.805998
 30
0.0
 10
451.348640
 20
286.709257
 30
0.0
 10
462.877558
 20
275.518168
 30
0.0
 10
453.289676
 20
258.910332
 30
0.0
 10
437.834161
 20
263.299823
 30
0.0
 10
434.186968
 20
263.424004
 30
0.0
 10
412.701747
 20
252.801961
 30
0.0
 10
412.701747
 20
243.582583
 30
0.0
 10
434.186968
 20
232.960540
 30
0.0
 10
437.834161
 20
233.084721
 30
0.0
 10
453.289676
 20
237.474212
 30
0.0
 10
462.877558
 20
220.866377
 30
0.0
 10
451.348640
 20
209.675287
 30
0.0
 10
449.417617
 20
206.578547
 30
0.0
 10
447.873316
 20
182.659444
 30
0.0
 10
455.856937
 20
178.049755
 30
0.0
 10
475.797857
 20
191.346815
 30
0.0
 10
477.514028
 20
194.567613
 30
0.0
 10
481.440655
 20
210.148193
 30
0.0
 10
500.616358
 20
210.148193
 30
0.0
 10
504.542985
 20
194.567613
 30
0.0
 10
506.259156
 20
191.346815
 30
0.0
 10
526.200075
 20
178.049755
 30
0.0
 10
534.183697
 20
182.659444
 30
0.0
 10
532.639396
 20
206.578547
 30
0.0
 10
530.708373
 20
209.675287
 30
0.0
 10
519.179455
 20
220.866377
 30
0.0
  0
SPLINE
  5
107
100
AcDbEntity
  8
Layer_1
 62
1
100
AcDbSpline
 70
8
 71
3
 72
8
 73
4
 74
0
 40
0
 40
0
 40
0
 40
0
 40
1
 40
1
 40
1
 40
1
 10
493.341907
 20
270.037452
 30
0.0
 10
493.344729
 20
270.864989
 30
0.0
 10
492.904715
 20
271.630876
 30
0.0
 10
492.188274
 20
272.045461
 30
0.0
  0
SPLINE
  5
108
100
AcDbEntity
  8
Layer_1
 62
1
100
AcDbSpline
 70
8
 71
3
 72
8
 73
4
 74
0
 40
0
 40
0
 40
0
 40
0
 40
1
 40
1
 40
1
 40
1
 10
492.188274
 20
272.045461
 30
0.0
 10
491.471832
 20
272.460046
 30
0.0
 10
490.588324
 20
272.460046
 30
0.0
 10
489.871882
 20
272.045461
 30
0.0
  0
SPLINE
  5
109
100
AcDbEntity
  8
Layer_1
 62
1
100
AcDbSpline
 70
8
 71
3
 72
8
 73
4
 74
0
 40
0
 40
0
 40
0
 40
0
 40
1
 40
1
 40
1
 40
1
 10
489.871882
 20
272.045461
 30
0.0
 10
489.155441
 20
271.630876
 30
0.0
 10
488.715427
 20
270.864989
 30
0.0
 10
488.718249
 20
270.037452
 30
0.0
  0
SPLINE
  5
10a
100
AcDbEntity
  8
Layer_1
 62
1
100
AcDbSpline
 70
8
 71
3
 72
8
 73
4
 74
0
 40
0
 40
0
 40
0
 40
0
 40
1
 40
1
 40
1
 40
1
 10
488.718249
 20
270.037452
 30
0.0
 10
488.715427
 20
269.209914
 30
0.0
 10
489.155441
 20
268.444028
 30
0.0
 10
489.871882
 20
268.029443
 30
0.0
  0
SPLINE
  5
10b
100
AcDbEntity
  8
Layer_1
 62
1
100
AcDbSpline
 70
8
 71
3
 72
8
 73
4
 74
0
 40
0
 40
0
 40
0
 40
0
 40
1
 40
1
 40
1
 40
1
 10
489.871882
 20
268.029443
 30
0.0
 10
490.588324
 20
267.614858
 30
0.0
 10
491.471832
 20
267.614858
 30
0.0
 10
492.188274
 20
268.029443
 30
0.0
  0
SPLINE
  5
10c
100
AcDbEntity
  8
Layer_1
 62
1
100
AcDbSpline
 70
8
 71
3
 72
8
 73
4
 74
0
 40
0
 40
0
 40
0
 40
0
 40
1
 40
1
 40
1
 40
1
 10
492.188274
 20
268.029443
 30
0.0
 10
492.904715
 20
268.444028
 30
0.0
 10
493.344729
 20
269.209914
 30
0.0
 10
493.341907
 20
270.037452
 30
0.0
  0
LWPOLYLINE
  5
10d
100
AcDbEntity
  8
Layer_1
 62
1
100
AcDbPolyline
 90
1
 70
1
 10
495.650307
 20
248.192395
 30
0.0
  0
SPLINE
  5
10e
100
AcDbEntity
  8
Layer_1
 62
1
100
AcDbSpline
 70
8
 71
3
 72
8
 73
4
 74
0
 40
0
 40
0
 40
0
 40
0
 40
1
 40
1
 40
1
 40
1
 10
493.341907
 20
226.342840
 30
0.0
 10
493.344729
 20
227.170377
 30
0.0
 10
492.904715
 20
227.936264
 30
0.0
 10
492.188274
 20
228.350849
 30
0.0
  0
SPLINE
  5
10f
100
AcDbEntity
  8
Layer_1
 62
1
100
AcDbSpline
 70
8
 71
3
 72
8
 73
4
 74
0
 40
0
 40
0
 40
0
 40
0
 40
1
 40
1
 40
1
 40
1
 10
492.188274
 20
228.350849
 30
0.0
 10
491.471832
 20
228.765434
 30
0.0
 10
490.588324
 20
228.765434
 30
0.0
 10
489.871882
 20
228.350849
 30
0.0
  0
SPLINE
  5
110
100
AcDbEntity
  8
Layer_1
 62
1
100
AcDbSpline
 70
8
 71
3
 72
8
 73
4
 74
0
 40
0
 40
0
 40
0
 40
0
 40
1
 40
1
 40
1
 40
1
 10
489.871882
 20
228.350849
 30
0.0
 10
489.155441
 20
227.936264
 30
0.0
 10
488.715427
 20
227.170377
 30
0.0
 10
488.718249
 20
226.342840
 30
0.0
  0
SPLINE
  5
111
100
AcDbEntity
  8
Layer_1
 62
1
100
AcDbSpline
 70
8
 71
3
 72
8
 73
4
 74
0
 40
0
 40
0
 40
0
 40
0
 40
1
 40
1
 40
1
 40
1
 10
488.718249
 20
226.342840
 30
0.0
 10
488.715427
 20
225.515302
 30
0.0
 10
489.155441
 20
224.749416
 30
0.0
 10
489.871882
 20
224.334831
 30
0.0
  0
SPLINE
  5
112
100
AcDbEntity
  8
Layer_1
 62
1
100
AcDbSpline
 70
8
 71
3
 72
8
 73
4
 74
0
 40
0
 40
0
 40
0
 40
0
 40
1
 40
1
 40
1
 40
1
 10
489.871882
 20
224.334831
 30
0.0
 10
490.588324
 20
223.920246
 30
0.0
 10
491.471832
 20
223.920246
 30
0.0
 10
492.188274
 20
224.334831
 30
0.0
  0
SPLINE
  5
113
100
AcDbEntity
  8
Layer_1
 62
1
100
AcDbSpline
 70
8
 71
3
 72
8
 73
4
 74
0
 40
0
 40
0
 40
0
 40
0
 40
1
 40
1
 40
1
 40
1
 10
492.188274
 20
224.334831
 30
0.0
 10
492.904715
 20
224.749416
 30
0.0
 10
493.344729
 20
225.515302
 30
0.0
 10
493.341907
 20
226.342840
 30
0.0
  0
LWPOLYLINE
  5
114
100
AcDbEntity
  8
Layer_1
 62
1
100
AcDbPolyline
 90
1
 70
1
 10
493.341907
 20
270.037452
 30
0.0
  0
SPLINE
  5
115
100
AcDbEntity
  8
Layer_1
 62
1
100
AcDbSpline
 70
8
 71
3
 72
8
 73
4
 74
0
 40
0
 40
0
 40
0
 40
0
 40
1
 40
1
 40
1
 40
1
 10
515.196533
 20
248.190084
 30
0.0
 10
515.196533
 20
249.015751
 30
0.0
 10
514.755898
 20
249.778698
 30
0.0
 10
514.040611
 20
250.191531
 30
0.0
  0
SPLINE
  5
116
100
AcDbEntity
  8
Layer_1
 62
1
100
AcDbSpline
 70
8
 71
3
 72
8
 73
4
 74
0
 40
0
 40
0
 40
0
 40
0
 40
1
 40
1
 40
1
 40
1
 10
514.040611
 20
250.191531
 30
0.0
 10
513.325324
 20
250.604364
 30
0.0
 10
512.444054
 20
250.604364
 30
0.0
 10
511.728767
 20
250.191531
 30
0.0
  0
SPLINE
  5
117
100
AcDbEntity
  8
Layer_1
 62
1
100
AcDbSpline
 70
8
 71
3
 72
8
 73
4
 74
0
 40
0
 40
0
 40
0
 40
0
 40
1
 40
1
 40
1
 40
1
 10
511.728767
 20
250.191531
 30
0.0
 10
511.013479
 20
249.778698
 30
0.0
 10
510.572844
 20
249.015751
 30
0.0
 10
510.572844
 20
248.190084
 30
0.0
  0
SPLINE
  5
118
100
AcDbEntity
  8
Layer_1
 62
1
100
AcDbSpline
 70
8
 71
3
 72
8
 73
4
 74
0
 40
0
 40
0
 40
0
 40
0
 40
1
 40
1
 40
1
 40
1
 10
510.572844
 20
248.190084
 30
0.0
 10
510.572844
 20
247.364418
 30
0.0
 10
511.013479
 20
246.601471
 30
0.0
 10
511.728767
 20
246.188638
 30
0.0
  0
SPLINE
  5
119
100
AcDbEntity
  8
Layer_1
 62
1
100
AcDbSpline
 70
8
 71
3
 72
8
 73
4
 74
0
 40
0
 40
0
 40
0
 40
0
 40
1
 40
1
 40
1
 40
1
 10
511.728767
 20
246.188638
 30
0.0
 10
512.444054
 20
245.775805
 30
0.0
 10
513.325324
 20
245.775805
 30
0.0
 10
514.040611
 20
246.188638
 30
0.0
  0
SPLINE
  5
11a
100
AcDbEntity
  8
Layer_1
 62
1
100
AcDbSpline
 70
8
 71
3
 72
8
 73
4
 74
0
 40
0
 40
0
 40
0
 40
0
 40
1
 40
1
 40
1
 40
1
 10
514.040611
 20
246.188638
 30
0.0
 10
514.755898
 20
246.601471
 30
0.0
 10
515.196533
 20
247.364418
 30
0.0
 10
515.196533
 20
248.190084
 30
0.0
  0
LWPOLYLINE
  5
11b
100
AcDbEntity
  8
Layer_1
 62
1
100
AcDbPolyline
 90
1
 70
1
 10
493.341907
 20
226.342840
 30
0.0
  0
SPLINE
  5
11c
100
AcDbEntity
  8
Layer_1
 62
1
100
AcDbSpline
 70
8
 71
3
 72
8
 73
4
 74
0
 40
0
 40
0
 40
0
 40
0
 40
1
 40
1
 40
1
 40
1
 10
471.487311
 20
248.190084
 30
0.0
 10
471.487312
 20
249.015751
 30
0.0
 10
471.046676
 20
249.778698
 30
0.0
 10
470.331389
 20
250.191531
 30
0.0
  0
SPLINE
  5
11d
100
AcDbEntity
  8
Layer_1
 62
1
100
AcDbSpline
 70
8
 71
3
 72
8
 73
4
 74
0
 40
0
 40
0
 40
0
 40
0
 40
1
 40
1
 40
1
 40
1
 10
470.331389
 20
250.191531
 30
0.0
 10
469.616102
 20
250.604364
 30
0.0
 10
468.734832
 20
250.604364
 30
0.0
 10
468.019545
 20
250.191531
 30
0.0
  0
SPLINE
  5
11e
100
AcDbEntity
  8
Layer_1
 62
1
100
AcDbSpline
 70
8
 71
3
 72
8
 73
4
 74
0
 40
0
 40
0
 40
0
 40
0
 40
1
 40
1
 40
1
 40
1
 10
468.019545
 20
250.191531
 30
0.0
 10
467.304258
 20
249.778698
 30
0.0
 10
466.863622
 20
249.015751
 30
0.0
 10
466.863623
 20
248.190084
 30
0.0
  0
SPLINE
  5
11f
100
AcDbEntity
  8
Layer_1
 62
1
100
AcDbSpline
 70
8
 71
3
 72
8
 73
4
 74
0
 40
0
 40
0
 40
0
 40
0
 40
1
 40
1
 40
1
 40
1
 10
466.863623
 20
248.190084
 30
0.0
 10
466.863623
 20
247.364418
 30
0.0
 10
467.304258
 20
246.601471
 30
0.0
 10
468.019545
 20
246.188638
 30
0.0
  0
SPLINE
  5
120
100
AcDbEntity
  8
Layer_1
 62
1
100
AcDbSpline
 70
8
 71
3
 72
8
 73
4
 74
0
 40
0
 40
0
 40
0
 40
0
 40
1
 40
1
 40
1
 40
1
 10
468.019545
 20
246.188638
 30
0.0
 10
468.734832
 20
245.775805
 30
0.0
 10
469.616102
 20
245.775805
 30
0.0
 10
470.331389
 20
246.188638
 30
0.0
  0
SPLINE
  5
121
100
AcDbEntity
  8
Layer_1
 62
1
100
AcDbSpline
 70
8
 71
3
 72
8
 73
4
 74
0
 40
0
 40
0
 40
0
 40
0
 40
1
 40
1
 40
1
 40
1
 10
470.331389
 20
246.188638
 30
0.0
 10
471.046676
 20
246.601471
 30
0.0
 10
471.487311
 20
247.364418
 30
0.0
 10
471.487311
 20
248.190084
 30
0.0
  0
LWPOLYLINE
  5
122
100
AcDbEntity
  8
Layer_1
 62
1
100
AcDbPolyline
 90
1
 70
1
 10
515.196533
 20
248.190084
 30
0.0
  0
SPLINE
  5
123
100
AcDbEntity
  8
Layer_1
 62
1
100
AcDbSpline
 70
8
 71
3
 72
8
 73
4
 74
0
 40
0
 40
0
 40
0
 40
0
 40
1
 40
1
 40
1
 40
1
 10
484.865170
 20
270.037452
 30
0.0
 10
484.865170
 20
270.863118
 30
0.0
 10
484.424535
 20
271.626065
 30
0.0
 10
483.709247
 20
272.038898
 30
0.0
  0
SPLINE
  5
124
100
AcDbEntity
  8
Layer_1
 62
1
100
AcDbSpline
 70
8
 71
3
 72
8
 73
4
 74
0
 40
0
 40
0
 40
0
 40
0
 40
1
 40
1
 40
1
 40
1
 10
483.709247
 20
272.038898
 30
0.0
 10
482.993960
 20
272.451732
 30
0.0
 10
482.112690
 20
272.451732
 30
0.0
 10
481.397403
 20
272.038898
 30
0.0
  0
SPLINE
  5
125
100
AcDbEntity
  8
Layer_1
 62
1
100
AcDbSpline
 70
8
 71
3
 72
8
 73
4
 74
0
 40
0
 40
0
 40
0
 40
0
 40
1
 40
1
 40
1
 40
1
 10
481.397403
 20
272.038898
 30
0.0
 10
480.682116
 20
271.626065
 30
0.0
 10
480.241481
 20
270.863118
 30
0.0
 10
480.241481
 20
270.037452
 30
0.0
  0
SPLINE
  5
126
100
AcDbEntity
  8
Layer_1
 62
1
100
AcDbSpline
 70
8
 71
3
 72
8
 73
4
 74
0
 40
0
 40
0
 40
0
 40
0
 40
1
 40
1
 40
1
 40
1
 10
480.241481
 20
270.037452
 30
0.0
 10
480.241481
 20
269.211786
 30
0.0
 10
480.682116
 20
268.448839
 30
0.0
 10
481.397403
 20
268.036006
 30
0.0
  0
SPLINE
  5
127
100
AcDbEntity
  8
Layer_1
 62
1
100
AcDbSpline
 70
8
 71
3
 72
8
 73
4
 74
0
 40
0
 40
0
 40
0
 40
0
 40
1
 40
1
 40
1
 40
1
 10
481.397403
 20
268.036006
 30
0.0
 10
482.112690
 20
267.623172
 30
0.0
 10
482.993960
 20
267.623172
 30
0.0
 10
483.709247
 20
268.036006
 30
0.0
  0
SPLINE
  5
128
100
AcDbEntity
  8
Layer_1
 62
1
100
AcDbSpline
 70
8
 71
3
 72
8
 73
4
 74
0
 40
0
 40
0
 40
0
 40
0
 40
1
 40
1
 40
1
 40
1
 10
483.709247
 20
268.036006
 30
0.0
 10
484.424535
 20
268.448839
 30
0.0
 10
484.865170
 20
269.211786
 30
0.0
 10
484.865170
 20
270.037452
 30
0.0
  0
LWPOLYLINE
  5
129
100
AcDbEntity
  8
Layer_1
 62
1
100
AcDbPolyline
 90
1
 70
1
 10
471.487311
 20
248.190084
 30
0.0
  0
SPLINE
  5
12a
100
AcDbEntity
  8
Layer_1
 62
1
100
AcDbSpline
 70
8
 71
3
 72
8
 73
4
 74
0
 40
0
 40
0
 40
0
 40
0
 40
1
 40
1
 40
1
 40
1
 10
501.818675
 20
270.037452
 30
0.0
 10
501.818675
 20
270.863118
 30
0.0
 10
501.378040
 20
271.626065
 30
0.0
 10
500.662753
 20
272.038898
 30
0.0
  0
SPLINE
  5
12b
100
AcDbEntity
  8
Layer_1
 62
1
100
AcDbSpline
 70
8
 71
3
 72
8
 73
4
 74
0
 40
0
 40
0
 40
0
 40
0
 40
1
 40
1
 40
1
 40
1
 10
500.662753
 20
272.038898
 30
0.0
 10
499.947466
 20
272.451731
 30
0.0
 10
499.066196
 20
272.451731
 30
0.0
 10
498.350908
 20
272.038898
 30
0.0
  0
SPLINE
  5
12c
100
AcDbEntity
  8
Layer_1
 62
1
100
AcDbSpline
 70
8
 71
3
 72
8
 73
4
 74
0
 40
0
 40
0
 40
0
 40
0
 40
1
 40
1
 40
1
 40
1
 10
498.350908
 20
272.038898
 30
0.0
 10
497.635621
 20
271.626065
 30
0.0
 10
497.194986
 20
270.863118
 30
0.0
 10
497.194986
 20
270.037452
 30
0.0
  0
SPLINE
  5
12d
100
AcDbEntity
  8
Layer_1
 62
1
100
AcDbSpline
 70
8
 71
3
 72
8
 73
4
 74
0
 40
0
 40
0
 40
0
 40
0
 40
1
 40
1
 40
1
 40
1
 10
497.194986
 20
270.037452
 30
0.0
 10
497.194986
 20
269.211786
 30
0.0
 10
497.635621
 20
268.448839
 30
0.0
 10
498.350908
 20
268.036006
 30
0.0
  0
SPLINE
  5
12e
100
AcDbEntity
  8
Layer_1
 62
1
100
AcDbSpline
 70
8
 71
3
 72
8
 73
4
 74
0
 40
0
 40
0
 40
0
 40
0
 40
1
 40
1
 40
1
 40
1
 10
498.350908
 20
268.036006
 30
0.0
 10
499.066196
 20
267.623172
 30
0.0
 10
499.947466
 20
267.623172
 30
0.0
 10
500.662753
 20
268.036006
 30
0.0
  0
SPLINE
  5
12f
100
AcDbEntity
  8
Layer_1
 62
1
100
AcDbSpline
 70
8
 71
3
 72
8
 73
4
 74
0
 40
0
 40
0
 40
0
 40
0
 40
1
 40
1
 40
1
 40
1
 10
500.662753
 20
268.036006
 30
0.0
 10
501.378040
 20
268.448839
 30
0.0
 10
501.818675
 20
269.211786
 30
0.0
 10
501.818675
 20
270.037452
 30
0.0
  0
LWPOLYLINE
  5
130
100
AcDbEntity
  8
Layer_1
 62
1
100
AcDbPolyline
 90
1
 70
1
 10
484.865170
 20
270.037452
 30
0.0
  0
SPLINE
  5
131
100
AcDbEntity
  8
Layer_1
 62
1
100
AcDbSpline
 70
8
 71
3
 72
8
 73
4
 74
0
 40
0
 40
0
 40
0
 40
0
 40
1
 40
1
 40
1
 40
1
 10
501.818675
 20
226.342840
 30
0.0
 10
501.818675
 20
227.168506
 30
0.0
 10
501.378040
 20
227.931453
 30
0.0
 10
500.662753
 20
228.344286
 30
0.0
  0
SPLINE
  5
132
100
AcDbEntity
  8
Layer_1
 62
1
100
AcDbSpline
 70
8
 71
3
 72
8
 73
4
 74
0
 40
0
 40
0
 40
0
 40
0
 40
1
 40
1
 40
1
 40
1
 10
500.662753
 20
228.344286
 30
0.0
 10
499.947466
 20
228.757119
 30
0.0
 10
499.066196
 20
228.757119
 30
0.0
 10
498.350908
 20
228.344286
 30
0.0
  0
SPLINE
  5
133
100
AcDbEntity
  8
Layer_1
 62
1
100
AcDbSpline
 70
8
 71
3
 72
8
 73
4
 74
0
 40
0
 40
0
 40
0
 40
0
 40
1
 40
1
 40
1
 40
1
 10
498.350908
 20
228.344286
 30
0.0
 10
497.635621
 20
227.931453
 30
0.0
 10
497.194986
 20
227.168506
 30
0.0
 10
497.194986
 20
226.342840
 30
0.0
  0
SPLINE
  5
134
100
AcDbEntity
  8
Layer_1
 62
1
100
AcDbSpline
 70
8
 71
3
 72
8
 73
4
 74
0
 40
0
 40
0
 40
0
 40
0
 40
1
 40
1
 40
1
 40
1
 10
497.194986
 20
226.342840
 30
0.0
 10
497.194986
 20
225.517174
 30
0.0
 10
497.635621
 20
224.754227
 30
0.0
 10
498.350908
 20
224.341394
 30
0.0
  0
SPLINE
  5
135
100
AcDbEntity
  8
Layer_1
 62
1
100
AcDbSpline
 70
8
 71
3
 72
8
 73
4
 74
0
 40
0
 40
0
 40
0
 40
0
 40
1
 40
1
 40
1
 40
1
 10
498.350908
 20
224.341394
 30
0.0
 10
499.066196
 20
223.928560
 30
0.0
 10
499.947466
 20
223.928560
 30
0.0
 10
500.662753
 20
224.341394
 30
0.0
  0
SPLINE
  5
136
100
AcDbEntity
  8
Layer_1
 62
1
100
AcDbSpline
 70
8
 71
3
 72
8
 73
4
 74
0
 40
0
 40
0
 40
0
 40
0
 40
1
 40
1
 40
1
 40
1
 10
500.662753
 20
224.341394
 30
0.0
 10
501.378040
 20
224.754227
 30
0.0
 10
501.818675
 20
225.517174
 30
0.0
 10
501.818675
 20
226.342840
 30
0.0
  0
LWPOLYLINE
  5
137
100
AcDbEntity
  8
Layer_1
 62
1
100
AcDbPolyline
 90
1
 70
1
 10
501.818675
 20
270.037452
 30
0.0
  0
SPLINE
  5
138
100
AcDbEntity
  8
Layer_1
 62
1
100
AcDbSpline
 70
8
 71
3
 72
8
 73
4
 74
0
 40
0
 40
0
 40
0
 40
0
 40
1
 40
1
 40
1
 40
1
 10
484.865170
 20
226.342840
 30
0.0
 10
484.865170
 20
227.168506
 30
0.0
 10
484.424535
 20
227.931453
 30
0.0
 10
483.709247
 20
228.344286
 30
0.0
  0
SPLINE
  5
139
100
AcDbEntity
  8
Layer_1
 62
1
100
AcDbSpline
 70
8
 71
3
 72
8
 73
4
 74
0
 40
0
 40
0
 40
0
 40
0
 40
1
 40
1
 40
1
 40
1
 10
483.709247
 20
228.344286
 30
0.0
 10
482.993960
 20
228.757120
 30
0.0
 10
482.112690
 20
228.757120
 30
0.0
 10
481.397403
 20
228.344286
 30
0.0
  0
SPLINE
  5
13a
100
AcDbEntity
  8
Layer_1
 62
1
100
AcDbSpline
 70
8
 71
3
 72
8
 73
4
 74
0
 40
0
 40
0
 40
0
 40
0
 40
1
 40
1
 40
1
 40
1
 10
481.397403
 20
228.344286
 30
0.0
 10
480.682116
 20
227.931453
 30
0.0
 10
480.241481
 20
227.168506
 30
0.0
 10
480.241481
 20
226.342840
 30
0.0
  0
SPLINE
  5
13b
100
AcDbEntity
  8
Layer_1
 62
1
100
AcDbSpline
 70
8
 71
3
 72
8
 73
4
 74
0
 40
0
 40
0
 40
0
 40
0
 40
1
 40
1
 40
1
 40
1
 10
480.241481
 20
226.342840
 30
0.0
 10
480.241481
 20
225.517174
 30
0.0
 10
480.682116
 20
224.754227
 30
0.0
 10
481.397403
 20
224.341394
 30
0.0
  0
SPLINE
  5
13c
100
AcDbEntity
  8
Layer_1
 62
1
100
AcDbSpline
 70
8
 71
3
 72
8
 73
4
 74
0
 40
0
 40
0
 40
0
 40
0
 40
1
 40
1
 40
1
 40
1
 10
481.397403
 20
224.341394
 30
0.0
 10
482.112690
 20
223.928560
 30
0.0
 10
482.993960
 20
223.928560
 30
0.0
 10
483.709247
 20
224.341394
 30
0.0
  0
SPLINE
  5
13d
100
AcDbEntity
  8
Layer_1
 62
1
100
AcDbSpline
 70
8
 71
3
 72
8
 73
4
 74
0
 40
0
 40
0
 40
0
 40
0
 40
1
 40
1
 40
1
 40
1
 10
483.709247
 20
224.341394
 30
0.0
 10
484.424535
 20
224.754227
 30
0.0
 10
484.865170
 20
225.517174
 30
0.0
 10
484.865170
 20
226.342840
 30
0.0
  0
LWPOLYLINE
  5
13e
100
AcDbEntity
  8
Layer_1
 62
1
100
AcDbPolyline
 90
1
 70
1
 10
501.818675
 20
226.342840
 30
0.0
  0
SPLINE
  5
13f
100
AcDbEntity
  8
Layer_1
 62
1
100
AcDbSpline
 70
8
 71
3
 72
8
 73
4
 74
0
 40
0
 40
0
 40
0
 40
0
 40
1
 40
1
 40
1
 40
1
 10
515.196533
 20
239.716165
 30
0.0
 10
515.196533
 20
240.541831
 30
0.0
 10
514.755898
 20
241.304778
 30
0.0
 10
514.040611
 20
241.717611
 30
0.0
  0
SPLINE
  5
140
100
AcDbEntity
  8
Layer_1
 62
1
100
AcDbSpline
 70
8
 71
3
 72
8
 73
4
 74
0
 40
0
 40
0
 40
0
 40
0
 40
1
 40
1
 40
1
 40
1
 10
514.040611
 20
241.717611
 30
0.0
 10
513.325324
 20
242.130444
 30
0.0
 10
512.444054
 20
242.130444
 30
0.0
 10
511.728767
 20
241.717611
 30
0.0
  0
SPLINE
  5
141
100
AcDbEntity
  8
Layer_1
 62
1
100
AcDbSpline
 70
8
 71
3
 72
8
 73
4
 74
0
 40
0
 40
0
 40
0
 40
0
 40
1
 40
1
 40
1
 40
1
 10
511.728767
 20
241.717611
 30
0.0
 10
511.013479
 20
241.304778
 30
0.0
 10
510.572844
 20
240.541831
 30
0.0
 10
510.572844
 20
239.716165
 30
0.0
  0
SPLINE
  5
142
100
AcDbEntity
  8
Layer_1
 62
1
100
AcDbSpline
 70
8
 71
3
 72
8
 73
4
 74
0
 40
0
 40
0
 40
0
 40
0
 40
1
 40
1
 40
1
 40
1
 10
510.572844
 20
239.716165
 30
0.0
 10
510.572844
 20
238.890498
 30
0.0
 10
511.013479
 20
238.127551
 30
0.0
 10
511.728767
 20
237.714718
 30
0.0
  0
SPLINE
  5
143
100
AcDbEntity
  8
Layer_1
 62
1
100
AcDbSpline
 70
8
 71
3
 72
8
 73
4
 74
0
 40
0
 40
0
 40
0
 40
0
 40
1
 40
1
 40
1
 40
1
 10
511.728767
 20
237.714718
 30
0.0
 10
512.444054
 20
237.301885
 30
0.0
 10
513.325324
 20
237.301885
 30
0.0
 10
514.040611
 20
237.714718
 30
0.0
  0
SPLINE
  5
144
100
AcDbEntity
  8
Layer_1
 62
1
100
AcDbSpline
 70
8
 71
3
 72
8
 73
4
 74
0
 40
0
 40
0
 40
0
 40
0
 40
1
 40
1
 40
1
 40
1
 10
514.040611
 20
237.714718
 30
0.0
 10
514.755898
 20
238.127551
 30
0.0
 10
515.196533
 20
238.890498
 30
0.0
 10
515.196533
 20
239.716165
 30
0.0
  0
LWPOLYLINE
  5
145
100
AcDbEntity
  8
Layer_1
 62
1
100
AcDbPolyline
 90
1
 70
1
 10
484.865170
 20
226.342840
 30
0.0
  0
SPLINE
  5
146
100
AcDbEntity
  8
Layer_1
 62
1
100
AcDbSpline
 70
8
 71
3
 72
8
 73
4
 74
0
 40
0
 40
0
 40
0
 40
0
 40
1
 40
1
 40
1
 40
1
 10
515.196533
 20
256.664004
 30
0.0
 10
515.196533
 20
257.489670
 30
0.0
 10
514.755898
 20
258.252617
 30
0.0
 10
514.040611
 20
258.665451
 30
0.0
  0
SPLINE
  5
147
100
AcDbEntity
  8
Layer_1
 62
1
100
AcDbSpline
 70
8
 71
3
 72
8
 73
4
 74
0
 40
0
 40
0
 40
0
 40
0
 40
1
 40
1
 40
1
 40
1
 10
514.040611
 20
258.665451
 30
0.0
 10
513.325324
 20
259.078284
 30
0.0
 10
512.444054
 20
259.078284
 30
0.0
 10
511.728767
 20
258.665451
 30
0.0
  0
SPLINE
  5
148
100
AcDbEntity
  8
Layer_1
 62
1
100
AcDbSpline
 70
8
 71
3
 72
8
 73
4
 74
0
 40
0
 40
0
 40
0
 40
0
 40
1
 40
1
 40
1
 40
1
 10
511.728767
 20
258.665451
 30
0.0
 10
511.013479
 20
258.252617
 30
0.0
 10
510.572844
 20
257.489670
 30
0.0
 10
510.572844
 20
256.664004
 30
0.0
  0
SPLINE
  5
149
100
AcDbEntity
  8
Layer_1
 62
1
100
AcDbSpline
 70
8
 71
3
 72
8
 73
4
 74
0
 40
0
 40
0
 40
0
 40
0
 40
1
 40
1
 40
1
 40
1
 10
510.572844
 20
256.664004
 30
0.0
 10
510.572844
 20
255.838338
 30
0.0
 10
511.013479
 20
255.075391
 30
0.0
 10
511.728767
 20
254.662558
 30
0.0
  0
SPLINE
  5
14a
100
AcDbEntity
  8
Layer_1
 62
1
100
AcDbSpline
 70
8
 71
3
 72
8
 73
4
 74
0
 40
0
 40
0
 40
0
 40
0
 40
1
 40
1
 40
1
 40
1
 10
511.728767
 20
254.662558
 30
0.0
 10
512.444054
 20
254.249725
 30
0.0
 10
513.325324
 20
254.249725
 30
0.0
 10
514.040611
 20
254.662558
 30
0.0
  0
SPLINE
  5
14b
100
AcDbEntity
  8
Layer_1
 62
1
100
AcDbSpline
 70
8
 71
3
 72
8
 73
4
 74
0
 40
0
 40
0
 40
0
 40
0
 40
1
 40
1
 40
1
 40
1
 10
514.040611
 20
254.662558
 30
0.0
 10
514.755898
 20
255.075391
 30
0.0
 10
515.196533
 20
255.838338
 30
0.0
 10
515.196533
 20
256.664004
 30
0.0
  0
LWPOLYLINE
  5
14c
100
AcDbEntity
  8
Layer_1
 62
1
100
AcDbPolyline
 90
1
 70
1
 10
515.196533
 20
239.716165
 30
0.0
  0
SPLINE
  5
14d
100
AcDbEntity
  8
Layer_1
 62
1
100
AcDbSpline
 70
8
 71
3
 72
8
 73
4
 74
0
 40
0
 40
0
 40
0
 40
0
 40
1
 40
1
 40
1
 40
1
 10
471.487311
 20
239.716165
 30
0.0
 10
471.487312
 20
240.541831
 30
0.0
 10
471.046676
 20
241.304778
 30
0.0
 10
470.331389
 20
241.717611
 30
0.0
  0
SPLINE
  5
14e
100
AcDbEntity
  8
Layer_1
 62
1
100
AcDbSpline
 70
8
 71
3
 72
8
 73
4
 74
0
 40
0
 40
0
 40
0
 40
0
 40
1
 40
1
 40
1
 40
1
 10
470.331389
 20
241.717611
 30
0.0
 10
469.616102
 20
242.130444
 30
0.0
 10
468.734832
 20
242.130444
 30
0.0
 10
468.019545
 20
241.717611
 30
0.0
  0
SPLINE
  5
14f
100
AcDbEntity
  8
Layer_1
 62
1
100
AcDbSpline
 70
8
 71
3
 72
8
 73
4
 74
0
 40
0
 40
0
 40
0
 40
0
 40
1
 40
1
 40
1
 40
1
 10
468.019545
 20
241.717611
 30
0.0
 10
467.304258
 20
241.304778
 30
0.0
 10
466.863622
 20
240.541831
 30
0.0
 10
466.863623
 20
239.716165
 30
0.0
  0
SPLINE
  5
150
100
AcDbEntity
  8
Layer_1
 62
1
100
AcDbSpline
 70
8
 71
3
 72
8
 73
4
 74
0
 40
0
 40
0
 40
0
 40
0
 40
1
 40
1
 40
1
 40
1
 10
466.863623
 20
239.716165
 30
0.0
 10
466.863623
 20
238.890498
 30
0.0
 10
467.304258
 20
238.127551
 30
0.0
 10
468.019545
 20
237.714718
 30
0.0
  0
SPLINE
  5
151
100
AcDbEntity
  8
Layer_1
 62
1
100
AcDbSpline
 70
8
 71
3
 72
8
 73
4
 74
0
 40
0
 40
0
 40
0
 40
0
 40
1
 40
1
 40
1
 40
1
 10
468.019545
 20
237.714718
 30
0.0
 10
468.734832
 20
237.301885
 30
0.0
 10
469.616102
 20
237.301885
 30
0.0
 10
470.331389
 20
237.714718
 30
0.0
  0
SPLINE
  5
152
100
AcDbEntity
  8
Layer_1
 62
1
100
AcDbSpline
 70
8
 71
3
 72
8
 73
4
 74
0
 40
0
 40
0
 40
0
 40
0
 40
1
 40
1
 40
1
 40
1
 10
470.331389
 20
237.714718
 30
0.0
 10
471.046676
 20
238.127551
 30
0.0
 10
471.487311
 20
238.890498
 30
0.0
 10
471.487311
 20
239.716165
 30
0.0
  0
LWPOLYLINE
  5
153
100
AcDbEntity
  8
Layer_1
 62
1
100
AcDbPolyline
 90
1
 70
1
 10
515.196533
 20
256.664004
 30
0.0
  0
SPLINE
  5
154
100
AcDbEntity
  8
Layer_1
 62
1
100
AcDbSpline
 70
8
 71
3
 72
8
 73
4
 74
0
 40
0
 40
0
 40
0
 40
0
 40
1
 40
1
 40
1
 40
1
 10
471.487311
 20
256.664004
 30
0.0
 10
471.487312
 20
257.489670
 30
0.0
 10
471.046676
 20
258.252618
 30
0.0
 10
470.331389
 20
258.665451
 30
0.0
  0
SPLINE
  5
155
100
AcDbEntity
  8
Layer_1
 62
1
100
AcDbSpline
 70
8
 71
3
 72
8
 73
4
 74
0
 40
0
 40
0
 40
0
 40
0
 40
1
 40
1
 40
1
 40
1
 10
470.331389
 20
258.665451
 30
0.0
 10
469.616102
 20
259.078284
 30
0.0
 10
468.734832
 20
259.078284
 30
0.0
 10
468.019545
 20
258.665451
 30
0.0
  0
SPLINE
  5
156
100
AcDbEntity
  8
Layer_1
 62
1
100
AcDbSpline
 70
8
 71
3
 72
8
 73
4
 74
0
 40
0
 40
0
 40
0
 40
0
 40
1
 40
1
 40
1
 40
1
 10
468.019545
 20
258.665451
 30
0.0
 10
467.304258
 20
258.252618
 30
0.0
 10
466.863622
 20
257.489670
 30
0.0
 10
466.863623
 20
256.664004
 30
0.0
  0
SPLINE
  5
157
100
AcDbEntity
  8
Layer_1
 62
1
100
AcDbSpline
 70
8
 71
3
 72
8
 73
4
 74
0
 40
0
 40
0
 40
0
 40
0
 40
1
 40
1
 40
1
 40
1
 10
466.863623
 20
256.664004
 30
0.0
 10
466.863623
 20
255.838338
 30
0.0
 10
467.304258
 20
255.075391
 30
0.0
 10
468.019545
 20
254.662558
 30
0.0
  0
SPLINE
  5
158
100
AcDbEntity
  8
Layer_1
 62
1
100
AcDbSpline
 70
8
 71
3
 72
8
 73
4
 74
0
 40
0
 40
0
 40
0
 40
0
 40
1
 40
1
 40
1
 40
1
 10
468.019545
 20
254.662558
 30
0.0
 10
468.734832
 20
254.249725
 30
0.0
 10
469.616102
 20
254.249725
 30
0.0
 10
470.331389
 20
254.662558
 30
0.0
  0
SPLINE
  5
159
100
AcDbEntity
  8
Layer_1
 62
1
100
AcDbSpline
 70
8
 71
3
 72
8
 73
4
 74
0
 40
0
 40
0
 40
0
 40
0
 40
1
 40
1
 40
1
 40
1
 10
470.331389
 20
254.662558
 30
0.0
 10
471.046676
 20
255.075391
 30
0.0
 10
471.487311
 20
255.838338
 30
0.0
 10
471.487311
 20
256.664004
 30
0.0
  0
LWPOLYLINE
  5
15a
100
AcDbEntity
  8
Layer_1
 62
1
100
AcDbPolyline
 90
1
 70
1
 10
471.487311
 20
239.716165
 30
0.0
  0
LWPOLYLINE
  5
15b
100
AcDbEntity
  8
Layer_1
 62
1
100
AcDbPolyline
 90
1
 70
1
 10
471.487311
 20
256.664004
 30
0.0
  0
SPLINE
  5
15c
100
AcDbEntity
  8
Layer_1
 62
1
100
AcDbSpline
 70
8
 71
3
 72
8
 73
4
 74
0
 40
0
 40
0
 40
0
 40
0
 40
1
 40
1
 40
1
 40
1
 10
225.141151
 20
216.017242
 30
0.0
 10
225.141151
 20
212.755563
 30
0.0
 10
223.400926
 20
209.741647
 30
0.0
 10
220.576002
 20
208.110808
 30
0.0
  0
SPLINE
  5
15d
100
AcDbEntity
  8
Layer_1
 62
1
100
AcDbSpline
 70
8
 71
3
 72
8
 73
4
 74
0
 40
0
 40
0
 40
0
 40
0
 40
1
 40
1
 40
1
 40
1
 10
220.576002
 20
208.110808
 30
0.0
 10
217.751079
 20
206.479968
 30
0.0
 10
214.270629
 20
206.479968
 30
0.0
 10
211.445705
 20
208.110808
 30
0.0
  0
SPLINE
  5
15e
100
AcDbEntity
  8
Layer_1
 62
1
100
AcDbSpline
 70
8
 71
3
 72
8
 73
4
 74
0
 40
0
 40
0
 40
0
 40
0
 40
1
 40
1
 40
1
 40
1
 10
211.445705
 20
208.110808
 30
0.0
 10
208.620782
 20
209.741647
 30
0.0
 10
206.880557
 20
212.755563
 30
0.0
 10
206.880557
 20
216.017242
 30
0.0
  0
SPLINE
  5
15f
100
AcDbEntity
  8
Layer_1
 62
1
100
AcDbSpline
 70
8
 71
3
 72
8
 73
4
 74
0
 40
0
 40
0
 40
0
 40
0
 40
1
 40
1
 40
1
 40
1
 10
206.880557
 20
216.017242
 30
0.0
 10
206.880557
 20
219.278922
 30
0.0
 10
208.620782
 20
222.292838
 30
0.0
 10
211.445705
 20
223.923677
 30
0.0
  0
SPLINE
  5
160
100
AcDbEntity
  8
Layer_1
 62
1
100
AcDbSpline
 70
8
 71
3
 72
8
 73
4
 74
0
 40
0
 40
0
 40
0
 40
0
 40
1
 40
1
 40
1
 40
1
 10
211.445705
 20
223.923677
 30
0.0
 10
214.270629
 20
225.554517
 30
0.0
 10
217.751079
 20
225.554517
 30
0.0
 10
220.576002
 20
223.923677
 30
0.0
  0
SPLINE
  5
161
100
AcDbEntity
  8
Layer_1
 62
1
100
AcDbSpline
 70
8
 71
3
 72
8
 73
4
 74
0
 40
0
 40
0
 40
0
 40
0
 40
1
 40
1
 40
1
 40
1
 10
220.576002
 20
223.923677
 30
0.0
 10
223.400926
 20
222.292838
 30
0.0
 10
225.141151
 20
219.278922
 30
0.0
 10
225.141151
 20
216.017242
 30
0.0
  0
LWPOLYLINE
  5
162
100
AcDbEntity
  8
Layer_1
 62
1
100
AcDbPolyline
 90
160
 70
1
 10
391.738415
 20
232.486170
 30
0.0
 10
399.489002
 20
233.212578
 30
0.0
 10
411.515969
 20
231.403829
 30
0.0
 10
431.625002
 20
222.828651
 30
0.0
 10
431.625002
 20
209.201952
 30
0.0
 10
411.515969
 20
200.626774
 30
0.0
 10
399.489002
 20
198.818025
 30
0.0
 10
391.738415
 20
199.544433
 30
0.0
 10
388.226592
 20
177.370006
 30
0.0
 10
395.822284
 20
175.665636
 30
0.0
 10
406.701708
 20
170.228636
 30
0.0
 10
423.176862
 20
155.858675
 30
0.0
 10
418.966255
 20
142.898892
 30
0.0
 10
397.191758
 20
140.957912
 30
0.0
 10
385.194520
 20
142.954471
 30
0.0
 10
378.047771
 20
146.040551
 30
0.0
 10
367.856012
 20
126.036722
 30
0.0
 10
374.553323
 20
122.068435
 30
0.0
 10
383.220251
 20
113.535342
 30
0.0
 10
394.448805
 20
94.777264
 30
0.0
 10
386.439782
 20
83.753008
 30
0.0
 10
365.131234
 20
88.636160
 30
0.0
 10
354.338131
 20
94.242640
 30
0.0
 10
348.494715
 20
99.386311
 30
0.0
 10
332.620719
 20
83.511190
 30
0.0
 10
337.764026
 20
77.667360
 30
0.0
 10
343.370108
 20
66.873492
 30
0.0
 10
348.252914
 20
45.563435
 30
0.0
 10
337.229440
 20
37.553844
 30
0.0
 10
318.472691
 20
48.783194
 30
0.0
 10
309.940202
 20
57.450736
 30
0.0
 10
305.972203
 20
64.148522
 30
0.0
 10
285.969791
 20
53.956040
 30
0.0
 10
289.055652
 20
46.808786
 30
0.0
 10
291.052070
 20
34.810697
 30
0.0
 10
289.111227
 20
13.034658
 30
0.0
 10
276.152362
 20
8.823752
 30
0.0
 10
261.783420
 20
25.300074
 30
0.0
 10
256.346804
 20
36.180268
 30
0.0
 10
254.642555
 20
43.776498
 30
0.0
 10
232.469699
 20
40.264427
 30
0.0
 10
233.196056
 20
32.513290
 30
0.0
 10
231.387435
 20
20.485471
 30
0.0
 10
222.812865
 20
0.375013
 30
0.0
 10
209.187130
 20
0.375013
 30
0.0
 10
200.612560
 20
20.485471
 30
0.0
 10
198.803939
 20
32.513290
 30
0.0
 10
199.530296
 20
40.264427
 30
0.0
 10
177.357440
 20
43.776498
 30
0.0
 10
175.653191
 20
36.180268
 30
0.0
 10
170.216575
 20
25.300074
 30
0.0
 10
155.847633
 20
8.823752
 30
0.0
 10
142.888768
 20
13.034658
 30
0.0
 10
140.947925
 20
34.810697
 30
0.0
 10
142.944343
 20
46.808786
 30
0.0
 10
146.030204
 20
53.956040
 30
0.0
 10
126.027793
 20
64.148522
 30
0.0
 10
122.059787
 20
57.450736
 30
0.0
 10
113.527298
 20
48.783194
 30
0.0
 10
94.770549
 20
37.553844
 30
0.0
 10
83.747074
 20
45.563435
 30
0.0
 10
88.629881
 20
66.873492
 30
0.0
 10
94.235963
 20
77.667360
 30
0.0
 10
99.379270
 20
83.511190
 30
0.0
 10
83.505274
 20
99.386311
 30
0.0
 10
77.661858
 20
94.242640
 30
0.0
 10
66.868755
 20
88.636160
 30
0.0
 10
45.560207
 20
83.753008
 30
0.0
 10
37.551184
 20
94.777264
 30
0.0
 10
48.779737
 20
113.535342
 30
0.0
 10
57.446666
 20
122.068435
 30
0.0
 10
64.143977
 20
126.036722
 30
0.0
 10
53.952218
 20
146.040551
 30
0.0
 10
46.805469
 20
142.954471
 30
0.0
 10
34.808231
 20
140.957912
 30
0.0
 10
13.033734
 20
142.898892
 30
0.0
 10
8.823127
 20
155.858675
 30
0.0
 10
25.298281
 20
170.228636
 30
0.0
 10
36.177705
 20
175.665636
 30
0.0
 10
43.773397
 20
177.370006
 30
0.0
 10
40.261574
 20
199.544433
 30
0.0
 10
32.510987
 20
198.818025
 30
0.0
 10
20.484020
 20
200.626774
 30
0.0
 10
0.374987
 20
209.201952
 30
0.0
 10
0.374987
 20
222.828651
 30
0.0
 10
20.484020
 20
231.403829
 30
0.0
 10
32.510987
 20
233.212578
 30
0.0
 10
40.261574
 20
232.486170
 30
0.0
 10
43.773397
 20
254.660597
 30
0.0
 10
36.177705
 20
256.364967
 30
0.0
 10
25.298281
 20
261.801967
 30
0.0
 10
8.823127
 20
276.171928
 30
0.0
 10
13.033734
 20
289.131711
 30
0.0
 10
34.808231
 20
291.072691
 30
0.0
 10
46.805469
 20
289.076132
 30
0.0
 10
53.952218
 20
285.990052
 30
0.0
 10
64.143977
 20
305.993881
 30
0.0
 10
57.446666
 20
309.962168
 30
0.0
 10
48.779737
 20
318.495261
 30
0.0
 10
37.551184
 20
337.253339
 30
0.0
 10
45.560207
 20
348.277595
 30
0.0
 10
66.868755
 20
343.394443
 30
0.0
 10
77.661858
 20
337.787963
 30
0.0
 10
83.505274
 20
332.644292
 30
0.0
 10
99.379270
 20
348.519413
 30
0.0
 10
94.235963
 20
354.363243
 30
0.0
 10
88.629881
 20
365.157111
 30
0.0
 10
83.747074
 20
386.467168
 30
0.0
 10
94.770549
 20
394.476759
 30
0.0
 10
113.527298
 20
383.247409
 30
0.0
 10
122.059787
 20
374.579867
 30
0.0
 10
126.027793
 20
367.882081
 30
0.0
 10
146.030204
 20
378.074563
 30
0.0
 10
142.944343
 20
385.221817
 30
0.0
 10
140.947925
 20
397.219906
 30
0.0
 10
142.888768
 20
418.995945
 30
0.0
 10
155.847633
 20
423.206851
 30
0.0
 10
170.216575
 20
406.730529
 30
0.0
 10
175.653191
 20
395.850335
 30
0.0
 10
177.357440
 20
388.254105
 30
0.0
 10
199.530296
 20
391.766176
 30
0.0
 10
198.803939
 20
399.517313
 30
0.0
 10
200.612560
 20
411.545132
 30
0.0
 10
209.187130
 20
431.655590
 30
0.0
 10
222.812865
 20
431.655590
 30
0.0
 10
231.387435
 20
411.545132
 30
0.0
 10
233.196056
 20
399.517313
 30
0.0
 10
232.469699
 20
391.766176
 30
0.0
 10
254.642555
 20
388.254105
 30
0.0
 10
256.346804
 20
395.850335
 30
0.0
 10
261.783420
 20
406.730529
 30
0.0
 10
276.152362
 20
423.206851
 30
0.0
 10
289.111227
 20
418.995945
 30
0.0
 10
291.052070
 20
397.219906
 30
0.0
 10
289.055652
 20
385.221817
 30
0.0
 10
285.969791
 20
378.074563
 30
0.0
 10
305.972203
 20
367.882081
 30
0.0
 10
309.940202
 20
374.579867
 30
0.0
 10
318.472691
 20
383.247409
 30
0.0
 10
337.229440
 20
394.476759
 30
0.0
 10
348.252914
 20
386.467168
 30
0.0
 10
343.370108
 20
365.157111
 30
0.0
 10
337.764026
 20
354.363243
 30
0.0
 10
332.620719
 20
348.519413
 30
0.0
 10
348.494715
 20
332.644292
 30
0.0
 10
354.338131
 20
337.787963
 30
0.0
 10
365.131234
 20
343.394443
 30
0.0
 10
386.439782
 20
348.277595
 30
0.0
 10
394.448805
 20
337.253339
 30
0.0
 10
383.220251
 20
318.495261
 30
0.0
 10
374.553323
 20
309.962168
 30
0.0
 10
367.856012
 20
305.993881
 30
0.0
 10
378.047771
 20
285.990052
 30
0.0
 10
385.194520
 20
289.076132
 30
0.0
 10
397.191758
 20
291.072691
 30
0.0
 10
418.966255
 20
289.131711
 30
0.0
 10
423.176862
 20
276.171928
 30
0.0
 10
406.701708
 20
261.801967
 30
0.0
 10
395.822284
 20
256.364967
 30
0.0
 10
388.226592
 20
254.660597
 30
0.0
  0
SPLINE
  5
163
100
AcDbEntity
  8
Layer_1
 62
1
100
AcDbSpline
 70
8
 71
3
 72
8
 73
4
 74
0
 40
0
 40
0
 40
0
 40
0
 40
1
 40
1
 40
1
 40
1
 10
205.869842
 20
231.144728
 30
0.0
 10
205.869842
 20
228.572193
 30
0.0
 10
203.784223
 20
226.486742
 30
0.0
 10
201.211483
 20
226.486742
 30
0.0
  0
SPLINE
  5
164
100
AcDbEntity
  8
Layer_1
 62
1
100
AcDbSpline
 70
8
 71
3
 72
8
 73
4
 74
0
 40
0
 40
0
 40
0
 40
0
 40
1
 40
1
 40
1
 40
1
 10
201.211483
 20
226.486742
 30
0.0
 10
198.638742
 20
226.486742
 30
0.0
 10
196.553123
 20
228.572193
 30
0.0
 10
196.553123
 20
231.144728
 30
0.0
  0
SPLINE
  5
165
100
AcDbEntity
  8
Layer_1
 62
1
100
AcDbSpline
 70
8
 71
3
 72
8
 73
4
 74
0
 40
0
 40
0
 40
0
 40
0
 40
1
 40
1
 40
1
 40
1
 10
196.553123
 20
231.144728
 30
0.0
 10
196.553123
 20
232.808866
 30
0.0
 10
197.441002
 20
234.346593
 30
0.0
 10
198.882303
 20
235.178662
 30
0.0
  0
SPLINE
  5
166
100
AcDbEntity
  8
Layer_1
 62
1
100
AcDbSpline
 70
8
 71
3
 72
8
 73
4
 74
0
 40
0
 40
0
 40
0
 40
0
 40
1
 40
1
 40
1
 40
1
 10
198.882303
 20
235.178662
 30
0.0
 10
200.323604
 20
236.010731
 30
0.0
 10
202.099361
 20
236.010731
 30
0.0
 10
203.540662
 20
235.178662
 30
0.0
  0
SPLINE
  5
167
100
AcDbEntity
  8
Layer_1
 62
1
100
AcDbSpline
 70
8
 71
3
 72
8
 73
4
 74
0
 40
0
 40
0
 40
0
 40
0
 40
1
 40
1
 40
1
 40
1
 10
203.540662
 20
235.178662
 30
0.0
 10
204.981964
 20
234.346593
 30
0.0
 10
205.869842
 20
232.808866
 30
0.0
 10
205.869842
 20
231.144728
 30
0.0
  0
LWPOLYLINE
  5
168
100
AcDbEntity
  8
Layer_1
 62
1
100
AcDbPolyline
 90
1
 70
1
 10
225.141151
 20
216.017242
 30
0.0
  0
SPLINE
  5
169
100
AcDbEntity
  8
Layer_1
 62
1
100
AcDbSpline
 70
8
 71
3
 72
8
 73
4
 74
0
 40
0
 40
0
 40
0
 40
0
 40
1
 40
1
 40
1
 40
1
 10
235.791409
 20
231.140322
 30
0.0
 10
235.791409
 20
229.476184
 30
0.0
 10
234.903531
 20
227.938457
 30
0.0
 10
233.462229
 20
227.106388
 30
0.0
  0
SPLINE
  5
16a
100
AcDbEntity
  8
Layer_1
 62
1
100
AcDbSpline
 70
8
 71
3
 72
8
 73
4
 74
0
 40
0
 40
0
 40
0
 40
0
 40
1
 40
1
 40
1
 40
1
 10
233.462229
 20
227.106388
 30
0.0
 10
232.020928
 20
226.274319
 30
0.0
 10
230.245171
 20
226.274319
 30
0.0
 10
228.803870
 20
227.106388
 30
0.0
  0
SPLINE
  5
16b
100
AcDbEntity
  8
Layer_1
 62
1
100
AcDbSpline
 70
8
 71
3
 72
8
 73
4
 74
0
 40
0
 40
0
 40
0
 40
0
 40
1
 40
1
 40
1
 40
1
 10
228.803870
 20
227.106388
 30
0.0
 10
227.362569
 20
227.938457
 30
0.0
 10
226.474690
 20
229.476184
 30
0.0
 10
226.474690
 20
231.140322
 30
0.0
  0
SPLINE
  5
16c
100
AcDbEntity
  8
Layer_1
 62
1
100
AcDbSpline
 70
8
 71
3
 72
8
 73
4
 74
0
 40
0
 40
0
 40
0
 40
0
 40
1
 40
1
 40
1
 40
1
 10
226.474690
 20
231.140322
 30
0.0
 10
226.474690
 20
232.804460
 30
0.0
 10
227.362569
 20
234.342187
 30
0.0
 10
228.803870
 20
235.174256
 30
0.0
  0
SPLINE
  5
16d
100
AcDbEntity
  8
Layer_1
 62
1
100
AcDbSpline
 70
8
 71
3
 72
8
 73
4
 74
0
 40
0
 40
0
 40
0
 40
0
 40
1
 40
1
 40
1
 40
1
 10
228.803870
 20
235.174256
 30
0.0
 10
230.245171
 20
236.006325
 30
0.0
 10
232.020928
 20
236.006325
 30
0.0
 10
233.462229
 20
235.174256
 30
0.0
  0
SPLINE
  5
16e
100
AcDbEntity
  8
Layer_1
 62
1
100
AcDbSpline
 70
8
 71
3
 72
8
 73
4
 74
0
 40
0
 40
0
 40
0
 40
0
 40
1
 40
1
 40
1
 40
1
 10
233.462229
 20
235.174256
 30
0.0
 10
234.903531
 20
234.342187
 30
0.0
 10
235.791409
 20
232.804460
 30
0.0
 10
235.791409
 20
231.140322
 30
0.0
  0
LWPOLYLINE
  5
16f
100
AcDbEntity
  8
Layer_1
 62
1
100
AcDbPolyline
 90
1
 70
1
 10
205.869842
 20
231.144728
 30
0.0
  0
SPLINE
  5
170
100
AcDbEntity
  8
Layer_1
 62
1
100
AcDbSpline
 70
8
 71
3
 72
8
 73
4
 74
0
 40
0
 40
0
 40
0
 40
0
 40
1
 40
1
 40
1
 40
1
 10
205.870782
 20
201.226836
 30
0.0
 10
205.870782
 20
199.562697
 30
0.0
 10
204.982903
 20
198.024970
 30
0.0
 10
203.541602
 20
197.192901
 30
0.0
  0
SPLINE
  5
171
100
AcDbEntity
  8
Layer_1
 62
1
100
AcDbSpline
 70
8
 71
3
 72
8
 73
4
 74
0
 40
0
 40
0
 40
0
 40
0
 40
1
 40
1
 40
1
 40
1
 10
203.541602
 20
197.192901
 30
0.0
 10
202.100301
 20
196.360832
 30
0.0
 10
200.324544
 20
196.360832
 30
0.0
 10
198.883243
 20
197.192901
 30
0.0
  0
SPLINE
  5
172
100
AcDbEntity
  8
Layer_1
 62
1
100
AcDbSpline
 70
8
 71
3
 72
8
 73
4
 74
0
 40
0
 40
0
 40
0
 40
0
 40
1
 40
1
 40
1
 40
1
 10
198.883243
 20
197.192901
 30
0.0
 10
197.441941
 20
198.024970
 30
0.0
 10
196.554063
 20
199.562697
 30
0.0
 10
196.554063
 20
201.226836
 30
0.0
  0
SPLINE
  5
173
100
AcDbEntity
  8
Layer_1
 62
1
100
AcDbSpline
 70
8
 71
3
 72
8
 73
4
 74
0
 40
0
 40
0
 40
0
 40
0
 40
1
 40
1
 40
1
 40
1
 10
196.554063
 20
201.226836
 30
0.0
 10
196.554063
 20
202.890974
 30
0.0
 10
197.441941
 20
204.428701
 30
0.0
 10
198.883243
 20
205.260770
 30
0.0
  0
SPLINE
  5
174
100
AcDbEntity
  8
Layer_1
 62
1
100
AcDbSpline
 70
8
 71
3
 72
8
 73
4
 74
0
 40
0
 40
0
 40
0
 40
0
 40
1
 40
1
 40
1
 40
1
 10
198.883243
 20
205.260770
 30
0.0
 10
200.324544
 20
206.092839
 30
0.0
 10
202.100301
 20
206.092839
 30
0.0
 10
203.541602
 20
205.260770
 30
0.0
  0
SPLINE
  5
175
100
AcDbEntity
  8
Layer_1
 62
1
100
AcDbSpline
 70
8
 71
3
 72
8
 73
4
 74
0
 40
0
 40
0
 40
0
 40
0
 40
1
 40
1
 40
1
 40
1
 10
203.541602
 20
205.260770
 30
0.0
 10
204.982903
 20
204.428701
 30
0.0
 10
205.870782
 20
202.890974
 30
0.0
 10
205.870782
 20
201.226836
 30
0.0
  0
LWPOLYLINE
  5
176
100
AcDbEntity
  8
Layer_1
 62
1
100
AcDbPolyline
 90
1
 70
1
 10
235.791409
 20
231.140322
 30
0.0
  0
SPLINE
  5
177
100
AcDbEntity
  8
Layer_1
 62
1
100
AcDbSpline
 70
8
 71
3
 72
8
 73
4
 74
0
 40
0
 40
0
 40
0
 40
0
 40
1
 40
1
 40
1
 40
1
 10
235.791409
 20
201.225049
 30
0.0
 10
235.791409
 20
199.560911
 30
0.0
 10
234.903531
 20
198.023183
 30
0.0
 10
233.462229
 20
197.191114
 30
0.0
  0
SPLINE
  5
178
100
AcDbEntity
  8
Layer_1
 62
1
100
AcDbSpline
 70
8
 71
3
 72
8
 73
4
 74
0
 40
0
 40
0
 40
0
 40
0
 40
1
 40
1
 40
1
 40
1
 10
233.462229
 20
197.191114
 30
0.0
 10
232.020928
 20
196.359045
 30
0.0
 10
230.245171
 20
196.359045
 30
0.0
 10
228.803870
 20
197.191114
 30
0.0
  0
SPLINE
  5
179
100
AcDbEntity
  8
Layer_1
 62
1
100
AcDbSpline
 70
8
 71
3
 72
8
 73
4
 74
0
 40
0
 40
0
 40
0
 40
0
 40
1
 40
1
 40
1
 40
1
 10
228.803870
 20
197.191114
 30
0.0
 10
227.362569
 20
198.023183
 30
0.0
 10
226.474690
 20
199.560911
 30
0.0
 10
226.474690
 20
201.225049
 30
0.0
  0
SPLINE
  5
17a
100
AcDbEntity
  8
Layer_1
 62
1
100
AcDbSpline
 70
8
 71
3
 72
8
 73
4
 74
0
 40
0
 40
0
 40
0
 40
0
 40
1
 40
1
 40
1
 40
1
 10
226.474690
 20
201.225049
 30
0.0
 10
226.474690
 20
202.889187
 30
0.0
 10
227.362569
 20
204.426914
 30
0.0
 10
228.803870
 20
205.258983
 30
0.0
  0
SPLINE
  5
17b
100
AcDbEntity
  8
Layer_1
 62
1
100
AcDbSpline
 70
8
 71
3
 72
8
 73
4
 74
0
 40
0
 40
0
 40
0
 40
0
 40
1
 40
1
 40
1
 40
1
 10
228.803870
 20
205.258983
 30
0.0
 10
230.245171
 20
206.091052
 30
0.0
 10
232.020928
 20
206.091052
 30
0.0
 10
233.462229
 20
205.258983
 30
0.0
  0
SPLINE
  5
17c
100
AcDbEntity
  8
Layer_1
 62
1
100
AcDbSpline
 70
8
 71
3
 72
8
 73
4
 74
0
 40
0
 40
0
 40
0
 40
0
 40
1
 40
1
 40
1
 40
1
 10
233.462229
 20
205.258983
 30
0.0
 10
234.903531
 20
204.426914
 30
0.0
 10
235.791409
 20
202.889187
 30
0.0
 10
235.791409
 20
201.225049
 30
0.0
  0
LWPOLYLINE
  5
17d
100
AcDbEntity
  8
Layer_1
 62
1
100
AcDbPolyline
 90
1
 70
1
 10
205.870782
 20
201.226836
 30
0.0
  0
SPLINE
  5
17e
100
AcDbEntity
  8
Layer_1
 62
1
100
AcDbSpline
 70
8
 71
3
 72
8
 73
4
 74
0
 40
0
 40
0
 40
0
 40
0
 40
1
 40
1
 40
1
 40
1
 10
104.807354
 20
332.526487
 30
0.0
 10
104.807354
 20
330.635019
 30
0.0
 10
103.798267
 20
328.887230
 30
0.0
 10
102.160208
 20
327.941496
 30
0.0
  0
SPLINE
  5
17f
100
AcDbEntity
  8
Layer_1
 62
1
100
AcDbSpline
 70
8
 71
3
 72
8
 73
4
 74
0
 40
0
 40
0
 40
0
 40
0
 40
1
 40
1
 40
1
 40
1
 10
102.160208
 20
327.941496
 30
0.0
 10
100.522149
 20
326.995762
 30
0.0
 10
98.503976
 20
326.995762
 30
0.0
 10
96.865917
 20
327.941496
 30
0.0
  0
SPLINE
  5
180
100
AcDbEntity
  8
Layer_1
 62
1
100
AcDbSpline
 70
8
 71
3
 72
8
 73
4
 74
0
 40
0
 40
0
 40
0
 40
0
 40
1
 40
1
 40
1
 40
1
 10
96.865917
 20
327.941496
 30
0.0
 10
95.227857
 20
328.887230
 30
0.0
 10
94.218771
 20
330.635019
 30
0.0
 10
94.218771
 20
332.526487
 30
0.0
  0
SPLINE
  5
181
100
AcDbEntity
  8
Layer_1
 62
1
100
AcDbSpline
 70
8
 71
3
 72
8
 73
4
 74
0
 40
0
 40
0
 40
0
 40
0
 40
1
 40
1
 40
1
 40
1
 10
94.218771
 20
332.526487
 30
0.0
 10
94.218771
 20
335.450443
 30
0.0
 10
96.589106
 20
337.820778
 30
0.0
 10
99.513062
 20
337.820778
 30
0.0
  0
SPLINE
  5
182
100
AcDbEntity
  8
Layer_1
 62
1
100
AcDbSpline
 70
8
 71
3
 72
8
 73
4
 74
0
 40
0
 40
0
 40
0
 40
0
 40
1
 40
1
 40
1
 40
1
 10
99.513062
 20
337.820778
 30
0.0
 10
102.437019
 20
337.820778
 30
0.0
 10
104.807353
 20
335.450443
 30
0.0
 10
104.807354
 20
332.526487
 30
0.0
  0
LWPOLYLINE
  5
183
100
AcDbEntity
  8
Layer_1
 62
1
100
AcDbPolyline
 90
1
 70
1
 10
235.791409
 20
201.225049
 30
0.0
  0
SPLINE
  5
184
100
AcDbEntity
  8
Layer_1
 62
1
100
AcDbSpline
 70
8
 71
3
 72
8
 73
4
 74
0
 40
0
 40
0
 40
0
 40
0
 40
1
 40
1
 40
1
 40
1
 10
327.222628
 20
332.526487
 30
0.0
 10
327.222628
 20
330.635019
 30
0.0
 10
328.231715
 20
328.887230
 30
0.0
 10
329.869774
 20
327.941496
 30
0.0
  0
SPLINE
  5
185
100
AcDbEntity
  8
Layer_1
 62
1
100
AcDbSpline
 70
8
 71
3
 72
8
 73
4
 74
0
 40
0
 40
0
 40
0
 40
0
 40
1
 40
1
 40
1
 40
1
 10
329.869774
 20
327.941496
 30
0.0
 10
331.507833
 20
326.995762
 30
0.0
 10
333.526006
 20
326.995762
 30
0.0
 10
335.164065
 20
327.941496
 30
0.0
  0
SPLINE
  5
186
100
AcDbEntity
  8
Layer_1
 62
1
100
AcDbSpline
 70
8
 71
3
 72
8
 73
4
 74
0
 40
0
 40
0
 40
0
 40
0
 40
1
 40
1
 40
1
 40
1
 10
335.164065
 20
327.941496
 30
0.0
 10
336.802125
 20
328.887230
 30
0.0
 10
337.811211
 20
330.635019
 30
0.0
 10
337.811211
 20
332.526487
 30
0.0
  0
SPLINE
  5
187
100
AcDbEntity
  8
Layer_1
 62
1
100
AcDbSpline
 70
8
 71
3
 72
8
 73
4
 74
0
 40
0
 40
0
 40
0
 40
0
 40
1
 40
1
 40
1
 40
1
 10
337.811211
 20
332.526487
 30
0.0
 10
337.811211
 20
334.417955
 30
0.0
 10
336.802125
 20
336.165743
 30
0.0
 10
335.164065
 20
337.111477
 30
0.0
  0
SPLINE
  5
188
100
AcDbEntity
  8
Layer_1
 62
1
100
AcDbSpline
 70
8
 71
3
 72
8
 73
4
 74
0
 40
0
 40
0
 40
0
 40
0
 40
1
 40
1
 40
1
 40
1
 10
335.164065
 20
337.111477
 30
0.0
 10
333.526006
 20
338.057211
 30
0.0
 10
331.507833
 20
338.057211
 30
0.0
 10
329.869774
 20
337.111477
 30
0.0
  0
SPLINE
  5
189
100
AcDbEntity
  8
Layer_1
 62
1
100
AcDbSpline
 70
8
 71
3
 72
8
 73
4
 74
0
 40
0
 40
0
 40
0
 40
0
 40
1
 40
1
 40
1
 40
1
 10
329.869774
 20
337.111477
 30
0.0
 10
328.231715
 20
336.165743
 30
0.0
 10
327.222628
 20
334.417955
 30
0.0
 10
327.222628
 20
332.526487
 30
0.0
  0
LWPOLYLINE
  5
18a
100
AcDbEntity
  8
Layer_1
 62
1
100
AcDbPolyline
 90
1
 70
1
 10
104.807354
 20
332.526487
 30
0.0
  0
SPLINE
  5
18b
100
AcDbEntity
  8
Layer_1
 62
1
100
AcDbSpline
 70
8
 71
3
 72
8
 73
4
 74
0
 40
0
 40
0
 40
0
 40
0
 40
1
 40
1
 40
1
 40
1
 10
327.222657
 20
99.520200
 30
0.0
 10
327.222657
 20
102.444156
 30
0.0
 10
329.592992
 20
104.814491
 30
0.0
 10
332.516948
 20
104.814491
 30
0.0
  0
SPLINE
  5
18c
100
AcDbEntity
  8
Layer_1
 62
1
100
AcDbSpline
 70
8
 71
3
 72
8
 73
4
 74
0
 40
0
 40
0
 40
0
 40
0
 40
1
 40
1
 40
1
 40
1
 10
332.516948
 20
104.814491
 30
0.0
 10
335.440904
 20
104.814491
 30
0.0
 10
337.811239
 20
102.444156
 30
0.0
 10
337.811239
 20
99.520200
 30
0.0
  0
SPLINE
  5
18d
100
AcDbEntity
  8
Layer_1
 62
1
100
AcDbSpline
 70
8
 71
3
 72
8
 73
4
 74
0
 40
0
 40
0
 40
0
 40
0
 40
1
 40
1
 40
1
 40
1
 10
337.811239
 20
99.520200
 30
0.0
 10
337.811239
 20
97.628732
 30
0.0
 10
336.802153
 20
95.880943
 30
0.0
 10
335.164094
 20
94.935209
 30
0.0
  0
SPLINE
  5
18e
100
AcDbEntity
  8
Layer_1
 62
1
100
AcDbSpline
 70
8
 71
3
 72
8
 73
4
 74
0
 40
0
 40
0
 40
0
 40
0
 40
1
 40
1
 40
1
 40
1
 10
335.164094
 20
94.935209
 30
0.0
 10
333.526034
 20
93.989475
 30
0.0
 10
331.507862
 20
93.989475
 30
0.0
 10
329.869802
 20
94.935209
 30
0.0
  0
SPLINE
  5
18f
100
AcDbEntity
  8
Layer_1
 62
1
100
AcDbSpline
 70
8
 71
3
 72
8
 73
4
 74
0
 40
0
 40
0
 40
0
 40
0
 40
1
 40
1
 40
1
 40
1
 10
329.869802
 20
94.935209
 30
0.0
 10
328.231743
 20
95.880943
 30
0.0
 10
327.222657
 20
97.628732
 30
0.0
 10
327.222657
 20
99.520200
 30
0.0
  0
LWPOLYLINE
  5
190
100
AcDbEntity
  8
Layer_1
 62
1
100
AcDbPolyline
 90
1
 70
1
 10
327.222628
 20
332.526487
 30
0.0
  0
SPLINE
  5
191
100
AcDbEntity
  8
Layer_1
 62
1
100
AcDbSpline
 70
8
 71
3
 72
8
 73
4
 74
0
 40
0
 40
0
 40
0
 40
0
 40
1
 40
1
 40
1
 40
1
 10
104.807339
 20
99.520200
 30
0.0
 10
104.807339
 20
101.411668
 30
0.0
 10
103.798253
 20
103.159457
 30
0.0
 10
102.160194
 20
104.105191
 30
0.0
  0
SPLINE
  5
192
100
AcDbEntity
  8
Layer_1
 62
1
100
AcDbSpline
 70
8
 71
3
 72
8
 73
4
 74
0
 40
0
 40
0
 40
0
 40
0
 40
1
 40
1
 40
1
 40
1
 10
102.160194
 20
104.105191
 30
0.0
 10
100.522134
 20
105.050925
 30
0.0
 10
98.503962
 20
105.050925
 30
0.0
 10
96.865903
 20
104.105191
 30
0.0
  0
SPLINE
  5
193
100
AcDbEntity
  8
Layer_1
 62
1
100
AcDbSpline
 70
8
 71
3
 72
8
 73
4
 74
0
 40
0
 40
0
 40
0
 40
0
 40
1
 40
1
 40
1
 40
1
 10
96.865903
 20
104.105191
 30
0.0
 10
95.227843
 20
103.159457
 30
0.0
 10
94.218757
 20
101.411668
 30
0.0
 10
94.218757
 20
99.520200
 30
0.0
  0
SPLINE
  5
194
100
AcDbEntity
  8
Layer_1
 62
1
100
AcDbSpline
 70
8
 71
3
 72
8
 73
4
 74
0
 40
0
 40
0
 40
0
 40
0
 40
1
 40
1
 40
1
 40
1
 10
94.218757
 20
99.520200
 30
0.0
 10
94.218757
 20
96.596244
 30
0.0
 10
96.589092
 20
94.225909
 30
0.0
 10
99.513048
 20
94.225909
 30
0.0
  0
SPLINE
  5
195
100
AcDbEntity
  8
Layer_1
 62
1
100
AcDbSpline
 70
8
 71
3
 72
8
 73
4
 74
0
 40
0
 40
0
 40
0
 40
0
 40
1
 40
1
 40
1
 40
1
 10
99.513048
 20
94.225909
 30
0.0
 10
102.437004
 20
94.225909
 30
0.0
 10
104.807339
 20
96.596244
 30
0.0
 10
104.807339
 20
99.520200
 30
0.0
  0
LWPOLYLINE
  5
196
100
AcDbEntity
  8
Layer_1
 62
1
100
AcDbPolyline
 90
1
 70
1
 10
327.222657
 20
99.520200
 30
0.0
  0
LWPOLYLINE
  5
197
100
AcDbEntity
  8
Layer_1
 62
1
100
AcDbPolyline
 90
1
 70
1
 10
104.807339
 20
99.520200
 30
0.0
  0
ENDSEC
  0
SECTION
  2
OBJECTS
  0
DICTIONARY
  5
C
330
0
100
AcDbDictionary
  3
ACAD_GROUP
350
D
  3
ACAD_MLINESTYLE
350
17
  0
DICTIONARY
  5
D
330
C
100
AcDbDictionary
  0
DICTIONARY
  5
1A
330
C
100
AcDbDictionary
  0
DICTIONARY
  5
17
330
C
100
AcDbDictionary
  3
STANDARD
350
18
  0
DICTIONARY
  5
19
330
C
100
AcDbDictionary
  0
ENDSEC
  0
EOF
